<?xml version="1.0" encoding="utf-8" standalone="no"?>
<!DOCTYPE svg PUBLIC "-//W3C//DTD SVG 1.1//EN"
  "http://www.w3.org/Graphics/SVG/1.1/DTD/svg11.dtd">
<!-- Created with matplotlib (https://matplotlib.org/) -->
<svg height="595.874375pt" version="1.1" viewBox="0 0 1179.555 595.874375" width="1179.555pt" xmlns="http://www.w3.org/2000/svg" xmlns:xlink="http://www.w3.org/1999/xlink">
 <metadata>
  <rdf:RDF xmlns:cc="http://creativecommons.org/ns#" xmlns:dc="http://purl.org/dc/elements/1.1/" xmlns:rdf="http://www.w3.org/1999/02/22-rdf-syntax-ns#">
   <cc:Work>
    <dc:type rdf:resource="http://purl.org/dc/dcmitype/StillImage"/>
    <dc:date>2021-07-05T01:53:29.796117</dc:date>
    <dc:format>image/svg+xml</dc:format>
    <dc:creator>
     <cc:Agent>
      <dc:title>Matplotlib v3.3.3, https://matplotlib.org/</dc:title>
     </cc:Agent>
    </dc:creator>
   </cc:Work>
  </rdf:RDF>
 </metadata>
 <defs>
  <style type="text/css">*{stroke-linecap:butt;stroke-linejoin:round;}</style>
 </defs>
 <g id="figure_1">
  <g id="patch_1">
   <path d="M 0 595.874375 
L 1179.555 595.874375 
L 1179.555 0 
L 0 0 
z
" style="fill:none;"/>
  </g>
  <g id="axes_1">
   <g id="patch_2">
    <path d="M 62.835 555.12 
L 1178.835 555.12 
L 1178.835 0.72 
L 62.835 0.72 
z
" style="fill:none;"/>
   </g>
   <g id="matplotlib.axis_1">
    <g id="xtick_1">
     <g id="line2d_1">
      <defs>
       <path d="M 0 0 
L 0 3.5 
" id="m511f173c17" style="stroke:#000000;stroke-width:0.8;"/>
      </defs>
      <g>
       <use style="stroke:#000000;stroke-width:0.8;" x="113.562273" xlink:href="#m511f173c17" y="555.12"/>
      </g>
     </g>
     <g id="text_1">
      <!-- 0 -->
      <g transform="translate(109.108523 572.757813)scale(0.14 -0.14)">
       <defs>
        <path d="M 31.78125 66.40625 
Q 24.171875 66.40625 20.328125 58.90625 
Q 16.5 51.421875 16.5 36.375 
Q 16.5 21.390625 20.328125 13.890625 
Q 24.171875 6.390625 31.78125 6.390625 
Q 39.453125 6.390625 43.28125 13.890625 
Q 47.125 21.390625 47.125 36.375 
Q 47.125 51.421875 43.28125 58.90625 
Q 39.453125 66.40625 31.78125 66.40625 
z
M 31.78125 74.21875 
Q 44.046875 74.21875 50.515625 64.515625 
Q 56.984375 54.828125 56.984375 36.375 
Q 56.984375 17.96875 50.515625 8.265625 
Q 44.046875 -1.421875 31.78125 -1.421875 
Q 19.53125 -1.421875 13.0625 8.265625 
Q 6.59375 17.96875 6.59375 36.375 
Q 6.59375 54.828125 13.0625 64.515625 
Q 19.53125 74.21875 31.78125 74.21875 
z
" id="DejaVuSans-48"/>
       </defs>
       <use xlink:href="#DejaVuSans-48"/>
      </g>
     </g>
    </g>
    <g id="xtick_2">
     <g id="line2d_2">
      <g>
       <use style="stroke:#000000;stroke-width:0.8;" x="316.471364" xlink:href="#m511f173c17" y="555.12"/>
      </g>
     </g>
     <g id="text_2">
      <!-- 200 -->
      <g transform="translate(303.110114 572.757813)scale(0.14 -0.14)">
       <defs>
        <path d="M 19.1875 8.296875 
L 53.609375 8.296875 
L 53.609375 0 
L 7.328125 0 
L 7.328125 8.296875 
Q 12.9375 14.109375 22.625 23.890625 
Q 32.328125 33.6875 34.8125 36.53125 
Q 39.546875 41.84375 41.421875 45.53125 
Q 43.3125 49.21875 43.3125 52.78125 
Q 43.3125 58.59375 39.234375 62.25 
Q 35.15625 65.921875 28.609375 65.921875 
Q 23.96875 65.921875 18.8125 64.3125 
Q 13.671875 62.703125 7.8125 59.421875 
L 7.8125 69.390625 
Q 13.765625 71.78125 18.9375 73 
Q 24.125 74.21875 28.421875 74.21875 
Q 39.75 74.21875 46.484375 68.546875 
Q 53.21875 62.890625 53.21875 53.421875 
Q 53.21875 48.921875 51.53125 44.890625 
Q 49.859375 40.875 45.40625 35.40625 
Q 44.1875 33.984375 37.640625 27.21875 
Q 31.109375 20.453125 19.1875 8.296875 
z
" id="DejaVuSans-50"/>
       </defs>
       <use xlink:href="#DejaVuSans-50"/>
       <use x="63.623047" xlink:href="#DejaVuSans-48"/>
       <use x="127.246094" xlink:href="#DejaVuSans-48"/>
      </g>
     </g>
    </g>
    <g id="xtick_3">
     <g id="line2d_3">
      <g>
       <use style="stroke:#000000;stroke-width:0.8;" x="519.380455" xlink:href="#m511f173c17" y="555.12"/>
      </g>
     </g>
     <g id="text_3">
      <!-- 400 -->
      <g transform="translate(506.019205 572.757813)scale(0.14 -0.14)">
       <defs>
        <path d="M 37.796875 64.3125 
L 12.890625 25.390625 
L 37.796875 25.390625 
z
M 35.203125 72.90625 
L 47.609375 72.90625 
L 47.609375 25.390625 
L 58.015625 25.390625 
L 58.015625 17.1875 
L 47.609375 17.1875 
L 47.609375 0 
L 37.796875 0 
L 37.796875 17.1875 
L 4.890625 17.1875 
L 4.890625 26.703125 
z
" id="DejaVuSans-52"/>
       </defs>
       <use xlink:href="#DejaVuSans-52"/>
       <use x="63.623047" xlink:href="#DejaVuSans-48"/>
       <use x="127.246094" xlink:href="#DejaVuSans-48"/>
      </g>
     </g>
    </g>
    <g id="xtick_4">
     <g id="line2d_4">
      <g>
       <use style="stroke:#000000;stroke-width:0.8;" x="722.289545" xlink:href="#m511f173c17" y="555.12"/>
      </g>
     </g>
     <g id="text_4">
      <!-- 600 -->
      <g transform="translate(708.928295 572.757813)scale(0.14 -0.14)">
       <defs>
        <path d="M 33.015625 40.375 
Q 26.375 40.375 22.484375 35.828125 
Q 18.609375 31.296875 18.609375 23.390625 
Q 18.609375 15.53125 22.484375 10.953125 
Q 26.375 6.390625 33.015625 6.390625 
Q 39.65625 6.390625 43.53125 10.953125 
Q 47.40625 15.53125 47.40625 23.390625 
Q 47.40625 31.296875 43.53125 35.828125 
Q 39.65625 40.375 33.015625 40.375 
z
M 52.59375 71.296875 
L 52.59375 62.3125 
Q 48.875 64.0625 45.09375 64.984375 
Q 41.3125 65.921875 37.59375 65.921875 
Q 27.828125 65.921875 22.671875 59.328125 
Q 17.53125 52.734375 16.796875 39.40625 
Q 19.671875 43.65625 24.015625 45.921875 
Q 28.375 48.1875 33.59375 48.1875 
Q 44.578125 48.1875 50.953125 41.515625 
Q 57.328125 34.859375 57.328125 23.390625 
Q 57.328125 12.15625 50.6875 5.359375 
Q 44.046875 -1.421875 33.015625 -1.421875 
Q 20.359375 -1.421875 13.671875 8.265625 
Q 6.984375 17.96875 6.984375 36.375 
Q 6.984375 53.65625 15.1875 63.9375 
Q 23.390625 74.21875 37.203125 74.21875 
Q 40.921875 74.21875 44.703125 73.484375 
Q 48.484375 72.75 52.59375 71.296875 
z
" id="DejaVuSans-54"/>
       </defs>
       <use xlink:href="#DejaVuSans-54"/>
       <use x="63.623047" xlink:href="#DejaVuSans-48"/>
       <use x="127.246094" xlink:href="#DejaVuSans-48"/>
      </g>
     </g>
    </g>
    <g id="xtick_5">
     <g id="line2d_5">
      <g>
       <use style="stroke:#000000;stroke-width:0.8;" x="925.198636" xlink:href="#m511f173c17" y="555.12"/>
      </g>
     </g>
     <g id="text_5">
      <!-- 800 -->
      <g transform="translate(911.837386 572.757813)scale(0.14 -0.14)">
       <defs>
        <path d="M 31.78125 34.625 
Q 24.75 34.625 20.71875 30.859375 
Q 16.703125 27.09375 16.703125 20.515625 
Q 16.703125 13.921875 20.71875 10.15625 
Q 24.75 6.390625 31.78125 6.390625 
Q 38.8125 6.390625 42.859375 10.171875 
Q 46.921875 13.96875 46.921875 20.515625 
Q 46.921875 27.09375 42.890625 30.859375 
Q 38.875 34.625 31.78125 34.625 
z
M 21.921875 38.8125 
Q 15.578125 40.375 12.03125 44.71875 
Q 8.5 49.078125 8.5 55.328125 
Q 8.5 64.0625 14.71875 69.140625 
Q 20.953125 74.21875 31.78125 74.21875 
Q 42.671875 74.21875 48.875 69.140625 
Q 55.078125 64.0625 55.078125 55.328125 
Q 55.078125 49.078125 51.53125 44.71875 
Q 48 40.375 41.703125 38.8125 
Q 48.828125 37.15625 52.796875 32.3125 
Q 56.78125 27.484375 56.78125 20.515625 
Q 56.78125 9.90625 50.3125 4.234375 
Q 43.84375 -1.421875 31.78125 -1.421875 
Q 19.734375 -1.421875 13.25 4.234375 
Q 6.78125 9.90625 6.78125 20.515625 
Q 6.78125 27.484375 10.78125 32.3125 
Q 14.796875 37.15625 21.921875 38.8125 
z
M 18.3125 54.390625 
Q 18.3125 48.734375 21.84375 45.5625 
Q 25.390625 42.390625 31.78125 42.390625 
Q 38.140625 42.390625 41.71875 45.5625 
Q 45.3125 48.734375 45.3125 54.390625 
Q 45.3125 60.0625 41.71875 63.234375 
Q 38.140625 66.40625 31.78125 66.40625 
Q 25.390625 66.40625 21.84375 63.234375 
Q 18.3125 60.0625 18.3125 54.390625 
z
" id="DejaVuSans-56"/>
       </defs>
       <use xlink:href="#DejaVuSans-56"/>
       <use x="63.623047" xlink:href="#DejaVuSans-48"/>
       <use x="127.246094" xlink:href="#DejaVuSans-48"/>
      </g>
     </g>
    </g>
    <g id="xtick_6">
     <g id="line2d_6">
      <g>
       <use style="stroke:#000000;stroke-width:0.8;" x="1128.107727" xlink:href="#m511f173c17" y="555.12"/>
      </g>
     </g>
     <g id="text_6">
      <!-- 1000 -->
      <g transform="translate(1110.292727 572.757813)scale(0.14 -0.14)">
       <defs>
        <path d="M 12.40625 8.296875 
L 28.515625 8.296875 
L 28.515625 63.921875 
L 10.984375 60.40625 
L 10.984375 69.390625 
L 28.421875 72.90625 
L 38.28125 72.90625 
L 38.28125 8.296875 
L 54.390625 8.296875 
L 54.390625 0 
L 12.40625 0 
z
" id="DejaVuSans-49"/>
       </defs>
       <use xlink:href="#DejaVuSans-49"/>
       <use x="63.623047" xlink:href="#DejaVuSans-48"/>
       <use x="127.246094" xlink:href="#DejaVuSans-48"/>
       <use x="190.869141" xlink:href="#DejaVuSans-48"/>
      </g>
     </g>
    </g>
    <g id="text_7">
     <!-- Input nanosecond delay -->
     <g transform="translate(524.70375 591.826875)scale(0.16 -0.16)">
      <defs>
       <path d="M 9.8125 72.90625 
L 19.671875 72.90625 
L 19.671875 0 
L 9.8125 0 
z
" id="DejaVuSans-73"/>
       <path d="M 54.890625 33.015625 
L 54.890625 0 
L 45.90625 0 
L 45.90625 32.71875 
Q 45.90625 40.484375 42.875 44.328125 
Q 39.84375 48.1875 33.796875 48.1875 
Q 26.515625 48.1875 22.3125 43.546875 
Q 18.109375 38.921875 18.109375 30.90625 
L 18.109375 0 
L 9.078125 0 
L 9.078125 54.6875 
L 18.109375 54.6875 
L 18.109375 46.1875 
Q 21.34375 51.125 25.703125 53.5625 
Q 30.078125 56 35.796875 56 
Q 45.21875 56 50.046875 50.171875 
Q 54.890625 44.34375 54.890625 33.015625 
z
" id="DejaVuSans-110"/>
       <path d="M 18.109375 8.203125 
L 18.109375 -20.796875 
L 9.078125 -20.796875 
L 9.078125 54.6875 
L 18.109375 54.6875 
L 18.109375 46.390625 
Q 20.953125 51.265625 25.265625 53.625 
Q 29.59375 56 35.59375 56 
Q 45.5625 56 51.78125 48.09375 
Q 58.015625 40.1875 58.015625 27.296875 
Q 58.015625 14.40625 51.78125 6.484375 
Q 45.5625 -1.421875 35.59375 -1.421875 
Q 29.59375 -1.421875 25.265625 0.953125 
Q 20.953125 3.328125 18.109375 8.203125 
z
M 48.6875 27.296875 
Q 48.6875 37.203125 44.609375 42.84375 
Q 40.53125 48.484375 33.40625 48.484375 
Q 26.265625 48.484375 22.1875 42.84375 
Q 18.109375 37.203125 18.109375 27.296875 
Q 18.109375 17.390625 22.1875 11.75 
Q 26.265625 6.109375 33.40625 6.109375 
Q 40.53125 6.109375 44.609375 11.75 
Q 48.6875 17.390625 48.6875 27.296875 
z
" id="DejaVuSans-112"/>
       <path d="M 8.5 21.578125 
L 8.5 54.6875 
L 17.484375 54.6875 
L 17.484375 21.921875 
Q 17.484375 14.15625 20.5 10.265625 
Q 23.53125 6.390625 29.59375 6.390625 
Q 36.859375 6.390625 41.078125 11.03125 
Q 45.3125 15.671875 45.3125 23.6875 
L 45.3125 54.6875 
L 54.296875 54.6875 
L 54.296875 0 
L 45.3125 0 
L 45.3125 8.40625 
Q 42.046875 3.421875 37.71875 1 
Q 33.40625 -1.421875 27.6875 -1.421875 
Q 18.265625 -1.421875 13.375 4.4375 
Q 8.5 10.296875 8.5 21.578125 
z
M 31.109375 56 
z
" id="DejaVuSans-117"/>
       <path d="M 18.3125 70.21875 
L 18.3125 54.6875 
L 36.8125 54.6875 
L 36.8125 47.703125 
L 18.3125 47.703125 
L 18.3125 18.015625 
Q 18.3125 11.328125 20.140625 9.421875 
Q 21.96875 7.515625 27.59375 7.515625 
L 36.8125 7.515625 
L 36.8125 0 
L 27.59375 0 
Q 17.1875 0 13.234375 3.875 
Q 9.28125 7.765625 9.28125 18.015625 
L 9.28125 47.703125 
L 2.6875 47.703125 
L 2.6875 54.6875 
L 9.28125 54.6875 
L 9.28125 70.21875 
z
" id="DejaVuSans-116"/>
       <path id="DejaVuSans-32"/>
       <path d="M 34.28125 27.484375 
Q 23.390625 27.484375 19.1875 25 
Q 14.984375 22.515625 14.984375 16.5 
Q 14.984375 11.71875 18.140625 8.90625 
Q 21.296875 6.109375 26.703125 6.109375 
Q 34.1875 6.109375 38.703125 11.40625 
Q 43.21875 16.703125 43.21875 25.484375 
L 43.21875 27.484375 
z
M 52.203125 31.203125 
L 52.203125 0 
L 43.21875 0 
L 43.21875 8.296875 
Q 40.140625 3.328125 35.546875 0.953125 
Q 30.953125 -1.421875 24.3125 -1.421875 
Q 15.921875 -1.421875 10.953125 3.296875 
Q 6 8.015625 6 15.921875 
Q 6 25.140625 12.171875 29.828125 
Q 18.359375 34.515625 30.609375 34.515625 
L 43.21875 34.515625 
L 43.21875 35.40625 
Q 43.21875 41.609375 39.140625 45 
Q 35.0625 48.390625 27.6875 48.390625 
Q 23 48.390625 18.546875 47.265625 
Q 14.109375 46.140625 10.015625 43.890625 
L 10.015625 52.203125 
Q 14.9375 54.109375 19.578125 55.046875 
Q 24.21875 56 28.609375 56 
Q 40.484375 56 46.34375 49.84375 
Q 52.203125 43.703125 52.203125 31.203125 
z
" id="DejaVuSans-97"/>
       <path d="M 30.609375 48.390625 
Q 23.390625 48.390625 19.1875 42.75 
Q 14.984375 37.109375 14.984375 27.296875 
Q 14.984375 17.484375 19.15625 11.84375 
Q 23.34375 6.203125 30.609375 6.203125 
Q 37.796875 6.203125 41.984375 11.859375 
Q 46.1875 17.53125 46.1875 27.296875 
Q 46.1875 37.015625 41.984375 42.703125 
Q 37.796875 48.390625 30.609375 48.390625 
z
M 30.609375 56 
Q 42.328125 56 49.015625 48.375 
Q 55.71875 40.765625 55.71875 27.296875 
Q 55.71875 13.875 49.015625 6.21875 
Q 42.328125 -1.421875 30.609375 -1.421875 
Q 18.84375 -1.421875 12.171875 6.21875 
Q 5.515625 13.875 5.515625 27.296875 
Q 5.515625 40.765625 12.171875 48.375 
Q 18.84375 56 30.609375 56 
z
" id="DejaVuSans-111"/>
       <path d="M 44.28125 53.078125 
L 44.28125 44.578125 
Q 40.484375 46.53125 36.375 47.5 
Q 32.28125 48.484375 27.875 48.484375 
Q 21.1875 48.484375 17.84375 46.4375 
Q 14.5 44.390625 14.5 40.28125 
Q 14.5 37.15625 16.890625 35.375 
Q 19.28125 33.59375 26.515625 31.984375 
L 29.59375 31.296875 
Q 39.15625 29.25 43.1875 25.515625 
Q 47.21875 21.78125 47.21875 15.09375 
Q 47.21875 7.46875 41.1875 3.015625 
Q 35.15625 -1.421875 24.609375 -1.421875 
Q 20.21875 -1.421875 15.453125 -0.5625 
Q 10.6875 0.296875 5.421875 2 
L 5.421875 11.28125 
Q 10.40625 8.6875 15.234375 7.390625 
Q 20.0625 6.109375 24.8125 6.109375 
Q 31.15625 6.109375 34.5625 8.28125 
Q 37.984375 10.453125 37.984375 14.40625 
Q 37.984375 18.0625 35.515625 20.015625 
Q 33.0625 21.96875 24.703125 23.78125 
L 21.578125 24.515625 
Q 13.234375 26.265625 9.515625 29.90625 
Q 5.8125 33.546875 5.8125 39.890625 
Q 5.8125 47.609375 11.28125 51.796875 
Q 16.75 56 26.8125 56 
Q 31.78125 56 36.171875 55.265625 
Q 40.578125 54.546875 44.28125 53.078125 
z
" id="DejaVuSans-115"/>
       <path d="M 56.203125 29.59375 
L 56.203125 25.203125 
L 14.890625 25.203125 
Q 15.484375 15.921875 20.484375 11.0625 
Q 25.484375 6.203125 34.421875 6.203125 
Q 39.59375 6.203125 44.453125 7.46875 
Q 49.3125 8.734375 54.109375 11.28125 
L 54.109375 2.78125 
Q 49.265625 0.734375 44.1875 -0.34375 
Q 39.109375 -1.421875 33.890625 -1.421875 
Q 20.796875 -1.421875 13.15625 6.1875 
Q 5.515625 13.8125 5.515625 26.8125 
Q 5.515625 40.234375 12.765625 48.109375 
Q 20.015625 56 32.328125 56 
Q 43.359375 56 49.78125 48.890625 
Q 56.203125 41.796875 56.203125 29.59375 
z
M 47.21875 32.234375 
Q 47.125 39.59375 43.09375 43.984375 
Q 39.0625 48.390625 32.421875 48.390625 
Q 24.90625 48.390625 20.390625 44.140625 
Q 15.875 39.890625 15.1875 32.171875 
z
" id="DejaVuSans-101"/>
       <path d="M 48.78125 52.59375 
L 48.78125 44.1875 
Q 44.96875 46.296875 41.140625 47.34375 
Q 37.3125 48.390625 33.40625 48.390625 
Q 24.65625 48.390625 19.8125 42.84375 
Q 14.984375 37.3125 14.984375 27.296875 
Q 14.984375 17.28125 19.8125 11.734375 
Q 24.65625 6.203125 33.40625 6.203125 
Q 37.3125 6.203125 41.140625 7.25 
Q 44.96875 8.296875 48.78125 10.40625 
L 48.78125 2.09375 
Q 45.015625 0.34375 40.984375 -0.53125 
Q 36.96875 -1.421875 32.421875 -1.421875 
Q 20.0625 -1.421875 12.78125 6.34375 
Q 5.515625 14.109375 5.515625 27.296875 
Q 5.515625 40.671875 12.859375 48.328125 
Q 20.21875 56 33.015625 56 
Q 37.15625 56 41.109375 55.140625 
Q 45.0625 54.296875 48.78125 52.59375 
z
" id="DejaVuSans-99"/>
       <path d="M 45.40625 46.390625 
L 45.40625 75.984375 
L 54.390625 75.984375 
L 54.390625 0 
L 45.40625 0 
L 45.40625 8.203125 
Q 42.578125 3.328125 38.25 0.953125 
Q 33.9375 -1.421875 27.875 -1.421875 
Q 17.96875 -1.421875 11.734375 6.484375 
Q 5.515625 14.40625 5.515625 27.296875 
Q 5.515625 40.1875 11.734375 48.09375 
Q 17.96875 56 27.875 56 
Q 33.9375 56 38.25 53.625 
Q 42.578125 51.265625 45.40625 46.390625 
z
M 14.796875 27.296875 
Q 14.796875 17.390625 18.875 11.75 
Q 22.953125 6.109375 30.078125 6.109375 
Q 37.203125 6.109375 41.296875 11.75 
Q 45.40625 17.390625 45.40625 27.296875 
Q 45.40625 37.203125 41.296875 42.84375 
Q 37.203125 48.484375 30.078125 48.484375 
Q 22.953125 48.484375 18.875 42.84375 
Q 14.796875 37.203125 14.796875 27.296875 
z
" id="DejaVuSans-100"/>
       <path d="M 9.421875 75.984375 
L 18.40625 75.984375 
L 18.40625 0 
L 9.421875 0 
z
" id="DejaVuSans-108"/>
       <path d="M 32.171875 -5.078125 
Q 28.375 -14.84375 24.75 -17.8125 
Q 21.140625 -20.796875 15.09375 -20.796875 
L 7.90625 -20.796875 
L 7.90625 -13.28125 
L 13.1875 -13.28125 
Q 16.890625 -13.28125 18.9375 -11.515625 
Q 21 -9.765625 23.484375 -3.21875 
L 25.09375 0.875 
L 2.984375 54.6875 
L 12.5 54.6875 
L 29.59375 11.921875 
L 46.6875 54.6875 
L 56.203125 54.6875 
z
" id="DejaVuSans-121"/>
      </defs>
      <use xlink:href="#DejaVuSans-73"/>
      <use x="29.492188" xlink:href="#DejaVuSans-110"/>
      <use x="92.871094" xlink:href="#DejaVuSans-112"/>
      <use x="156.347656" xlink:href="#DejaVuSans-117"/>
      <use x="219.726562" xlink:href="#DejaVuSans-116"/>
      <use x="258.935547" xlink:href="#DejaVuSans-32"/>
      <use x="290.722656" xlink:href="#DejaVuSans-110"/>
      <use x="354.101562" xlink:href="#DejaVuSans-97"/>
      <use x="415.380859" xlink:href="#DejaVuSans-110"/>
      <use x="478.759766" xlink:href="#DejaVuSans-111"/>
      <use x="539.941406" xlink:href="#DejaVuSans-115"/>
      <use x="592.041016" xlink:href="#DejaVuSans-101"/>
      <use x="653.564453" xlink:href="#DejaVuSans-99"/>
      <use x="708.544922" xlink:href="#DejaVuSans-111"/>
      <use x="769.726562" xlink:href="#DejaVuSans-110"/>
      <use x="833.105469" xlink:href="#DejaVuSans-100"/>
      <use x="896.582031" xlink:href="#DejaVuSans-32"/>
      <use x="928.369141" xlink:href="#DejaVuSans-100"/>
      <use x="991.845703" xlink:href="#DejaVuSans-101"/>
      <use x="1053.369141" xlink:href="#DejaVuSans-108"/>
      <use x="1081.152344" xlink:href="#DejaVuSans-97"/>
      <use x="1142.431641" xlink:href="#DejaVuSans-121"/>
     </g>
    </g>
   </g>
   <g id="matplotlib.axis_2">
    <g id="ytick_1">
     <g id="line2d_7">
      <defs>
       <path d="M 0 0 
L -3.5 0 
" id="ma1a04d5dec" style="stroke:#000000;stroke-width:0.8;"/>
      </defs>
      <g>
       <use style="stroke:#000000;stroke-width:0.8;" x="62.835" xlink:href="#ma1a04d5dec" y="529.92"/>
      </g>
     </g>
     <g id="text_8">
      <!-- 0 -->
      <g transform="translate(46.9275 535.238906)scale(0.14 -0.14)">
       <use xlink:href="#DejaVuSans-48"/>
      </g>
     </g>
    </g>
    <g id="ytick_2">
     <g id="line2d_8">
      <g>
       <use style="stroke:#000000;stroke-width:0.8;" x="62.835" xlink:href="#ma1a04d5dec" y="436.424348"/>
      </g>
     </g>
     <g id="text_9">
      <!-- 200 -->
      <g transform="translate(29.1125 441.743254)scale(0.14 -0.14)">
       <use xlink:href="#DejaVuSans-50"/>
       <use x="63.623047" xlink:href="#DejaVuSans-48"/>
       <use x="127.246094" xlink:href="#DejaVuSans-48"/>
      </g>
     </g>
    </g>
    <g id="ytick_3">
     <g id="line2d_9">
      <g>
       <use style="stroke:#000000;stroke-width:0.8;" x="62.835" xlink:href="#ma1a04d5dec" y="342.928696"/>
      </g>
     </g>
     <g id="text_10">
      <!-- 400 -->
      <g transform="translate(29.1125 348.247602)scale(0.14 -0.14)">
       <use xlink:href="#DejaVuSans-52"/>
       <use x="63.623047" xlink:href="#DejaVuSans-48"/>
       <use x="127.246094" xlink:href="#DejaVuSans-48"/>
      </g>
     </g>
    </g>
    <g id="ytick_4">
     <g id="line2d_10">
      <g>
       <use style="stroke:#000000;stroke-width:0.8;" x="62.835" xlink:href="#ma1a04d5dec" y="249.433043"/>
      </g>
     </g>
     <g id="text_11">
      <!-- 600 -->
      <g transform="translate(29.1125 254.75195)scale(0.14 -0.14)">
       <use xlink:href="#DejaVuSans-54"/>
       <use x="63.623047" xlink:href="#DejaVuSans-48"/>
       <use x="127.246094" xlink:href="#DejaVuSans-48"/>
      </g>
     </g>
    </g>
    <g id="ytick_5">
     <g id="line2d_11">
      <g>
       <use style="stroke:#000000;stroke-width:0.8;" x="62.835" xlink:href="#ma1a04d5dec" y="155.937391"/>
      </g>
     </g>
     <g id="text_12">
      <!-- 800 -->
      <g transform="translate(29.1125 161.256298)scale(0.14 -0.14)">
       <use xlink:href="#DejaVuSans-56"/>
       <use x="63.623047" xlink:href="#DejaVuSans-48"/>
       <use x="127.246094" xlink:href="#DejaVuSans-48"/>
      </g>
     </g>
    </g>
    <g id="ytick_6">
     <g id="line2d_12">
      <g>
       <use style="stroke:#000000;stroke-width:0.8;" x="62.835" xlink:href="#ma1a04d5dec" y="62.441739"/>
      </g>
     </g>
     <g id="text_13">
      <!-- 1000 -->
      <g transform="translate(20.205 67.760645)scale(0.14 -0.14)">
       <use xlink:href="#DejaVuSans-49"/>
       <use x="63.623047" xlink:href="#DejaVuSans-48"/>
       <use x="127.246094" xlink:href="#DejaVuSans-48"/>
       <use x="190.869141" xlink:href="#DejaVuSans-48"/>
      </g>
     </g>
    </g>
    <g id="text_14">
     <!-- Measured nanosecond delay -->
     <g transform="translate(12.8775 392.41125)rotate(-90)scale(0.16 -0.16)">
      <defs>
       <path d="M 9.8125 72.90625 
L 24.515625 72.90625 
L 43.109375 23.296875 
L 61.8125 72.90625 
L 76.515625 72.90625 
L 76.515625 0 
L 66.890625 0 
L 66.890625 64.015625 
L 48.09375 14.015625 
L 38.1875 14.015625 
L 19.390625 64.015625 
L 19.390625 0 
L 9.8125 0 
z
" id="DejaVuSans-77"/>
       <path d="M 41.109375 46.296875 
Q 39.59375 47.171875 37.8125 47.578125 
Q 36.03125 48 33.890625 48 
Q 26.265625 48 22.1875 43.046875 
Q 18.109375 38.09375 18.109375 28.8125 
L 18.109375 0 
L 9.078125 0 
L 9.078125 54.6875 
L 18.109375 54.6875 
L 18.109375 46.1875 
Q 20.953125 51.171875 25.484375 53.578125 
Q 30.03125 56 36.53125 56 
Q 37.453125 56 38.578125 55.875 
Q 39.703125 55.765625 41.0625 55.515625 
z
" id="DejaVuSans-114"/>
      </defs>
      <use xlink:href="#DejaVuSans-77"/>
      <use x="86.279297" xlink:href="#DejaVuSans-101"/>
      <use x="147.802734" xlink:href="#DejaVuSans-97"/>
      <use x="209.082031" xlink:href="#DejaVuSans-115"/>
      <use x="261.181641" xlink:href="#DejaVuSans-117"/>
      <use x="324.560547" xlink:href="#DejaVuSans-114"/>
      <use x="363.423828" xlink:href="#DejaVuSans-101"/>
      <use x="424.947266" xlink:href="#DejaVuSans-100"/>
      <use x="488.423828" xlink:href="#DejaVuSans-32"/>
      <use x="520.210938" xlink:href="#DejaVuSans-110"/>
      <use x="583.589844" xlink:href="#DejaVuSans-97"/>
      <use x="644.869141" xlink:href="#DejaVuSans-110"/>
      <use x="708.248047" xlink:href="#DejaVuSans-111"/>
      <use x="769.429688" xlink:href="#DejaVuSans-115"/>
      <use x="821.529297" xlink:href="#DejaVuSans-101"/>
      <use x="883.052734" xlink:href="#DejaVuSans-99"/>
      <use x="938.033203" xlink:href="#DejaVuSans-111"/>
      <use x="999.214844" xlink:href="#DejaVuSans-110"/>
      <use x="1062.59375" xlink:href="#DejaVuSans-100"/>
      <use x="1126.070312" xlink:href="#DejaVuSans-32"/>
      <use x="1157.857422" xlink:href="#DejaVuSans-100"/>
      <use x="1221.333984" xlink:href="#DejaVuSans-101"/>
      <use x="1282.857422" xlink:href="#DejaVuSans-108"/>
      <use x="1310.640625" xlink:href="#DejaVuSans-97"/>
      <use x="1371.919922" xlink:href="#DejaVuSans-121"/>
     </g>
    </g>
   </g>
   <g id="line2d_13">
    <path clip-path="url(#p7bf540e498)" d="M 62.835 553.293913 
L 1178.835 39.067826 
" style="fill:none;stroke:#808080;stroke-linecap:square;stroke-width:1.5;"/>
   </g>
   <g id="line2d_14">
    <path clip-path="url(#p7bf540e498)" d="M 113.562273 434.963478 
L 123.707727 434.963478 
L 133.853182 434.963478 
L 143.998636 434.963478 
L 154.144091 434.963478 
L 164.289545 434.963478 
L 174.435 434.963478 
L 184.580455 434.963478 
L 194.725909 434.963478 
L 204.871364 434.963478 
L 215.016818 434.963478 
L 225.162273 434.963478 
L 235.307727 434.963478 
L 245.453182 434.963478 
L 255.598636 434.963478 
L 265.744091 434.963478 
L 275.889545 434.963478 
L 286.035 434.963478 
L 296.180455 434.963478 
L 306.325909 434.963478 
L 316.471364 434.963478 
L 326.616818 434.963478 
L 336.762273 434.963478 
L 346.907727 434.963478 
L 357.053182 413.050435 
L 367.198636 413.050435 
L 377.344091 413.050435 
L 387.489545 413.050435 
L 397.635 413.050435 
L 407.780455 391.137391 
L 417.925909 391.137391 
L 428.071364 391.137391 
L 438.216818 391.137391 
L 448.362273 369.224348 
L 458.507727 369.224348 
L 468.653182 369.224348 
L 478.798636 369.224348 
L 488.944091 369.224348 
L 499.089545 347.311304 
L 509.235 347.311304 
L 519.380455 347.311304 
L 529.525909 347.311304 
L 539.671364 347.311304 
L 549.816818 325.398261 
L 559.962273 325.398261 
L 570.107727 325.398261 
L 580.253182 325.398261 
L 590.398636 303.485217 
L 600.544091 303.485217 
L 610.689545 303.485217 
L 620.835 303.485217 
L 630.980455 303.485217 
L 641.125909 281.572174 
L 651.271364 281.572174 
L 661.416818 281.572174 
L 671.562273 281.572174 
L 681.707727 281.572174 
L 691.853182 259.65913 
L 701.998636 259.65913 
L 712.144091 259.65913 
L 722.289545 259.65913 
L 732.435 259.65913 
L 742.580455 237.746087 
L 752.725909 237.746087 
L 762.871364 237.746087 
L 773.016818 237.746087 
L 783.162273 215.833043 
L 793.307727 215.833043 
L 803.453182 215.833043 
L 813.598636 215.833043 
L 823.744091 215.833043 
L 833.889545 193.92 
L 844.035 193.92 
L 854.180455 193.92 
L 864.325909 193.92 
L 874.471364 193.92 
L 884.616818 172.006957 
L 894.762273 172.006957 
L 904.907727 172.006957 
L 915.053182 172.006957 
L 925.198636 150.093913 
L 935.344091 150.093913 
L 945.489545 150.093913 
L 955.635 150.093913 
L 965.780455 150.093913 
L 975.925909 128.18087 
L 986.071364 128.18087 
L 996.216818 128.18087 
L 1006.362273 128.18087 
L 1016.507727 128.18087 
L 1026.653182 106.267826 
L 1036.798636 106.267826 
L 1046.944091 106.267826 
L 1057.089545 106.267826 
L 1067.235 84.354783 
L 1077.380455 84.354783 
L 1087.525909 84.354783 
L 1097.671364 84.354783 
L 1107.816818 84.354783 
L 1117.962273 62.441739 
L 1128.107727 62.441739 
" style="fill:none;stroke:#1f77b4;stroke-linecap:square;stroke-width:1.5;"/>
   </g>
   <g id="line2d_15">
    <path clip-path="url(#p7bf540e498)" d="M 113.562273 413.050435 
L 123.707727 413.050435 
L 133.853182 413.050435 
L 143.998636 413.050435 
L 154.144091 413.050435 
L 164.289545 413.050435 
L 174.435 413.050435 
L 184.580455 413.050435 
L 194.725909 413.050435 
L 204.871364 413.050435 
L 215.016818 413.050435 
L 225.162273 413.050435 
L 235.307727 413.050435 
L 245.453182 413.050435 
L 255.598636 413.050435 
L 265.744091 413.050435 
L 275.889545 413.050435 
L 286.035 413.050435 
L 296.180455 413.050435 
L 306.325909 413.050435 
L 316.471364 413.050435 
L 326.616818 413.050435 
L 336.762273 413.050435 
L 346.907727 413.050435 
L 357.053182 413.050435 
L 367.198636 413.050435 
L 377.344091 413.050435 
L 387.489545 413.050435 
L 397.635 413.050435 
L 407.780455 413.050435 
L 417.925909 413.050435 
L 428.071364 413.050435 
L 438.216818 383.833043 
L 448.362273 383.833043 
L 458.507727 383.833043 
L 468.653182 383.833043 
L 478.798636 383.833043 
L 488.944091 383.833043 
L 499.089545 354.615652 
L 509.235 354.615652 
L 519.380455 354.615652 
L 529.525909 354.615652 
L 539.671364 354.615652 
L 549.816818 354.615652 
L 559.962273 354.615652 
L 570.107727 325.398261 
L 580.253182 325.398261 
L 590.398636 325.398261 
L 600.544091 325.398261 
L 610.689545 325.398261 
L 620.835 325.398261 
L 630.980455 296.18087 
L 641.125909 296.18087 
L 651.271364 296.18087 
L 661.416818 296.18087 
L 671.562273 296.18087 
L 681.707727 296.18087 
L 691.853182 266.963478 
L 701.998636 266.963478 
L 712.144091 266.963478 
L 722.289545 266.963478 
L 732.435 266.963478 
L 742.580455 266.963478 
L 752.725909 237.746087 
L 762.871364 237.746087 
L 773.016818 237.746087 
L 783.162273 237.746087 
L 793.307727 237.746087 
L 803.453182 237.746087 
L 813.598636 237.746087 
L 823.744091 208.528696 
L 833.889545 208.528696 
L 844.035 208.528696 
L 854.180455 208.528696 
L 864.325909 208.528696 
L 874.471364 208.528696 
L 884.616818 179.311304 
L 894.762273 179.311304 
L 904.907727 179.311304 
L 915.053182 179.311304 
L 925.198636 179.311304 
L 935.344091 179.311304 
L 945.489545 150.093913 
L 955.635 150.093913 
L 965.780455 150.093913 
L 975.925909 150.093913 
L 986.071364 150.093913 
L 996.216818 150.093913 
L 1006.362273 150.093913 
L 1016.507727 120.876522 
L 1026.653182 120.876522 
L 1036.798636 120.876522 
L 1046.944091 120.876522 
L 1057.089545 120.876522 
L 1067.235 120.876522 
L 1077.380455 91.65913 
L 1087.525909 91.65913 
L 1097.671364 91.65913 
L 1107.816818 91.65913 
L 1117.962273 91.65913 
L 1128.107727 91.65913 
" style="fill:none;stroke:#ff7f0e;stroke-linecap:square;stroke-width:1.5;"/>
   </g>
   <g id="line2d_16">
    <path clip-path="url(#p7bf540e498)" d="M 113.562273 383.833043 
L 123.707727 383.833043 
L 133.853182 383.833043 
L 143.998636 383.833043 
L 154.144091 383.833043 
L 164.289545 383.833043 
L 174.435 383.833043 
L 184.580455 383.833043 
L 194.725909 383.833043 
L 204.871364 383.833043 
L 215.016818 383.833043 
L 225.162273 383.833043 
L 235.307727 383.833043 
L 245.453182 383.833043 
L 255.598636 383.833043 
L 265.744091 383.833043 
L 275.889545 383.833043 
L 286.035 383.833043 
L 296.180455 383.833043 
L 306.325909 383.833043 
L 316.471364 383.833043 
L 326.616818 383.833043 
L 336.762273 383.833043 
L 346.907727 383.833043 
L 357.053182 383.833043 
L 367.198636 383.833043 
L 377.344091 383.833043 
L 387.489545 383.833043 
L 397.635 383.833043 
L 407.780455 383.833043 
L 417.925909 383.833043 
L 428.071364 383.833043 
L 438.216818 354.615652 
L 448.362273 354.615652 
L 458.507727 354.615652 
L 468.653182 354.615652 
L 478.798636 354.615652 
L 488.944091 354.615652 
L 499.089545 325.398261 
L 509.235 325.398261 
L 519.380455 325.398261 
L 529.525909 325.398261 
L 539.671364 325.398261 
L 549.816818 325.398261 
L 559.962273 325.398261 
L 570.107727 296.18087 
L 580.253182 296.18087 
L 590.398636 296.18087 
L 600.544091 296.18087 
L 610.689545 296.18087 
L 620.835 296.18087 
L 630.980455 266.963478 
L 641.125909 266.963478 
L 651.271364 266.963478 
L 661.416818 266.963478 
L 671.562273 266.963478 
L 681.707727 266.963478 
L 691.853182 237.746087 
L 701.998636 237.746087 
L 712.144091 237.746087 
L 722.289545 237.746087 
L 732.435 228.006957 
L 742.580455 237.746087 
L 752.725909 208.528696 
L 762.871364 208.528696 
L 773.016818 208.528696 
L 783.162273 208.528696 
L 793.307727 208.528696 
L 803.453182 208.528696 
L 813.598636 208.528696 
L 823.744091 179.311304 
L 833.889545 179.311304 
L 844.035 179.311304 
L 854.180455 179.311304 
L 864.325909 179.311304 
L 874.471364 179.311304 
L 884.616818 150.093913 
L 894.762273 150.093913 
L 904.907727 150.093913 
L 915.053182 150.093913 
L 925.198636 150.093913 
L 935.344091 150.093913 
L 945.489545 120.876522 
L 955.635 120.876522 
L 965.780455 120.876522 
L 975.925909 120.876522 
L 986.071364 120.876522 
L 996.216818 120.876522 
L 1006.362273 120.876522 
L 1016.507727 91.65913 
L 1026.653182 81.92 
L 1036.798636 91.65913 
L 1046.944091 91.65913 
L 1057.089545 91.65913 
L 1067.235 91.65913 
L 1077.380455 62.441739 
L 1087.525909 62.441739 
L 1097.671364 62.441739 
L 1107.816818 62.441739 
L 1117.962273 62.441739 
L 1128.107727 62.441739 
" style="fill:none;stroke:#2ca02c;stroke-linecap:square;stroke-width:1.5;"/>
   </g>
   <g id="line2d_17">
    <path clip-path="url(#p7bf540e498)" d="M 113.562273 344.876522 
L 123.707727 344.876522 
L 133.853182 344.876522 
L 143.998636 344.876522 
L 154.144091 344.876522 
L 164.289545 344.876522 
L 174.435 344.876522 
L 184.580455 344.876522 
L 194.725909 344.876522 
L 204.871364 344.876522 
L 215.016818 344.876522 
L 225.162273 344.876522 
L 235.307727 344.876522 
L 245.453182 344.876522 
L 255.598636 344.876522 
L 265.744091 344.876522 
L 275.889545 344.876522 
L 286.035 344.876522 
L 296.180455 344.876522 
L 306.325909 344.876522 
L 316.471364 344.876522 
L 326.616818 344.876522 
L 336.762273 344.876522 
L 346.907727 344.876522 
L 357.053182 344.876522 
L 367.198636 344.876522 
L 377.344091 344.876522 
L 387.489545 344.876522 
L 397.635 344.876522 
L 407.780455 344.876522 
L 417.925909 344.876522 
L 428.071364 344.876522 
L 438.216818 344.876522 
L 448.362273 344.876522 
L 458.507727 344.876522 
L 468.653182 344.876522 
L 478.798636 344.876522 
L 488.944091 344.876522 
L 499.089545 344.876522 
L 509.235 344.876522 
L 519.380455 344.876522 
L 529.525909 344.876522 
L 539.671364 305.92 
L 549.816818 305.92 
L 559.962273 305.92 
L 570.107727 305.92 
L 580.253182 305.92 
L 590.398636 305.92 
L 600.544091 305.92 
L 610.689545 305.92 
L 620.835 266.963478 
L 630.980455 266.963478 
L 641.125909 266.963478 
L 651.271364 266.963478 
L 661.416818 266.963478 
L 671.562273 266.963478 
L 681.707727 266.963478 
L 691.853182 266.963478 
L 701.998636 266.963478 
L 712.144091 228.006957 
L 722.289545 228.006957 
L 732.435 228.006957 
L 742.580455 228.006957 
L 752.725909 228.006957 
L 762.871364 228.006957 
L 773.016818 228.006957 
L 783.162273 228.006957 
L 793.307727 189.050435 
L 803.453182 189.050435 
L 813.598636 189.050435 
L 823.744091 189.050435 
L 833.889545 189.050435 
L 844.035 189.050435 
L 854.180455 189.050435 
L 864.325909 189.050435 
L 874.471364 150.093913 
L 884.616818 150.093913 
L 894.762273 150.093913 
L 904.907727 150.093913 
L 915.053182 150.093913 
L 925.198636 150.093913 
L 935.344091 150.093913 
L 945.489545 150.093913 
L 955.635 111.137391 
L 965.780455 111.137391 
L 975.925909 111.137391 
L 986.071364 111.137391 
L 996.216818 111.137391 
L 1006.362273 111.137391 
L 1016.507727 111.137391 
L 1026.653182 111.137391 
L 1036.798636 111.137391 
L 1046.944091 72.18087 
L 1057.089545 72.18087 
L 1067.235 72.18087 
L 1077.380455 72.18087 
L 1087.525909 72.18087 
L 1097.671364 72.18087 
L 1107.816818 72.18087 
L 1117.962273 72.18087 
L 1128.107727 33.224348 
" style="fill:none;stroke:#d62728;stroke-linecap:square;stroke-width:1.5;"/>
   </g>
   <g id="line2d_18">
    <path clip-path="url(#p7bf540e498)" d="M 113.562273 452.006957 
L 123.707727 452.006957 
L 133.853182 452.006957 
L 143.998636 452.006957 
L 154.144091 452.006957 
L 164.289545 452.006957 
L 174.435 452.006957 
L 184.580455 452.006957 
L 194.725909 452.006957 
L 204.871364 452.006957 
L 215.016818 452.006957 
L 225.162273 452.006957 
L 235.307727 452.006957 
L 245.453182 452.006957 
L 255.598636 452.006957 
L 265.744091 452.006957 
L 275.889545 452.006957 
L 286.035 452.006957 
L 296.180455 452.006957 
L 306.325909 452.006957 
L 316.471364 452.006957 
L 326.616818 432.528696 
L 336.762273 432.528696 
L 346.907727 432.528696 
L 357.053182 432.528696 
L 367.198636 432.528696 
L 377.344091 413.050435 
L 387.489545 413.050435 
L 397.635 413.050435 
L 407.780455 413.050435 
L 417.925909 393.572174 
L 428.071364 393.572174 
L 438.216818 393.572174 
L 448.362273 393.572174 
L 458.507727 374.093913 
L 468.653182 374.093913 
L 478.798636 374.093913 
L 488.944091 374.093913 
L 499.089545 354.615652 
L 509.235 354.615652 
L 519.380455 354.615652 
L 529.525909 354.615652 
L 539.671364 335.137391 
L 549.816818 335.137391 
L 559.962273 335.137391 
L 570.107727 335.137391 
L 580.253182 335.137391 
L 590.398636 315.65913 
L 600.544091 315.65913 
L 610.689545 315.65913 
L 620.835 315.65913 
L 630.980455 296.18087 
L 641.125909 296.18087 
L 651.271364 296.18087 
L 661.416818 296.18087 
L 671.562273 276.702609 
L 681.707727 276.702609 
L 691.853182 276.702609 
L 701.998636 276.702609 
L 712.144091 257.224348 
L 722.289545 257.224348 
L 732.435 257.224348 
L 742.580455 257.224348 
L 752.725909 237.746087 
L 762.871364 237.746087 
L 773.016818 237.746087 
L 783.162273 237.746087 
L 793.307727 237.746087 
L 803.453182 218.267826 
L 813.598636 218.267826 
L 823.744091 218.267826 
L 833.889545 218.267826 
L 844.035 198.789565 
L 854.180455 198.789565 
L 864.325909 198.789565 
L 874.471364 198.789565 
L 884.616818 179.311304 
L 894.762273 179.311304 
L 904.907727 179.311304 
L 915.053182 179.311304 
L 925.198636 159.833043 
L 935.344091 159.833043 
L 945.489545 159.833043 
L 955.635 159.833043 
L 965.780455 140.354783 
L 975.925909 140.354783 
L 986.071364 140.354783 
L 996.216818 140.354783 
L 1006.362273 140.354783 
L 1016.507727 120.876522 
L 1026.653182 120.876522 
L 1036.798636 120.876522 
L 1046.944091 120.876522 
L 1057.089545 101.398261 
L 1067.235 101.398261 
L 1077.380455 101.398261 
L 1087.525909 101.398261 
L 1097.671364 81.92 
L 1107.816818 81.92 
L 1117.962273 81.92 
L 1128.107727 81.92 
" style="fill:none;stroke:#9467bd;stroke-linecap:square;stroke-width:1.5;"/>
   </g>
   <g id="line2d_19">
    <path clip-path="url(#p7bf540e498)" d="M 113.562273 440.876522 
L 123.707727 440.876522 
L 133.853182 440.876522 
L 143.998636 440.876522 
L 154.144091 440.876522 
L 164.289545 440.876522 
L 174.435 440.876522 
L 184.580455 440.876522 
L 194.725909 440.876522 
L 204.871364 440.876522 
L 215.016818 440.876522 
L 225.162273 440.876522 
L 235.307727 440.876522 
L 245.453182 440.876522 
L 255.598636 440.876522 
L 265.744091 440.876522 
L 275.889545 440.876522 
L 286.035 440.876522 
L 296.180455 440.876522 
L 306.325909 440.876522 
L 316.471364 440.876522 
L 326.616818 440.876522 
L 336.762273 440.876522 
L 346.907727 440.876522 
L 357.053182 418.615652 
L 367.198636 418.615652 
L 377.344091 418.615652 
L 387.489545 418.615652 
L 397.635 418.615652 
L 407.780455 396.354783 
L 417.925909 396.354783 
L 428.071364 396.354783 
L 438.216818 396.354783 
L 448.362273 396.354783 
L 458.507727 374.093913 
L 468.653182 374.093913 
L 478.798636 374.093913 
L 488.944091 374.093913 
L 499.089545 374.093913 
L 509.235 351.833043 
L 519.380455 351.833043 
L 529.525909 351.833043 
L 539.671364 351.833043 
L 549.816818 351.833043 
L 559.962273 329.572174 
L 570.107727 329.572174 
L 580.253182 329.572174 
L 590.398636 329.572174 
L 600.544091 307.311304 
L 610.689545 307.311304 
L 620.835 307.311304 
L 630.980455 307.311304 
L 641.125909 307.311304 
L 651.271364 285.050435 
L 661.416818 285.050435 
L 671.562273 285.050435 
L 681.707727 285.050435 
L 691.853182 285.050435 
L 701.998636 262.789565 
L 712.144091 262.789565 
L 722.289545 262.789565 
L 732.435 262.789565 
L 742.580455 262.789565 
L 752.725909 240.528696 
L 762.871364 240.528696 
L 773.016818 240.528696 
L 783.162273 240.528696 
L 793.307727 240.528696 
L 803.453182 218.267826 
L 813.598636 218.267826 
L 823.744091 218.267826 
L 833.889545 218.267826 
L 844.035 196.006957 
L 854.180455 196.006957 
L 864.325909 196.006957 
L 874.471364 196.006957 
L 884.616818 196.006957 
L 894.762273 173.746087 
L 904.907727 173.746087 
L 915.053182 173.746087 
L 925.198636 173.746087 
L 935.344091 173.746087 
L 945.489545 151.485217 
L 955.635 151.485217 
L 965.780455 151.485217 
L 975.925909 151.485217 
L 986.071364 151.485217 
L 996.216818 129.224348 
L 1006.362273 129.224348 
L 1016.507727 129.224348 
L 1026.653182 129.224348 
L 1036.798636 129.224348 
L 1046.944091 106.963478 
L 1057.089545 106.963478 
L 1067.235 106.963478 
L 1077.380455 106.963478 
L 1087.525909 84.702609 
L 1097.671364 84.702609 
L 1107.816818 84.702609 
L 1117.962273 84.702609 
L 1128.107727 84.702609 
" style="fill:none;stroke:#8c564b;stroke-linecap:square;stroke-width:1.5;"/>
   </g>
   <g id="line2d_20">
    <path clip-path="url(#p7bf540e498)" d="M 113.562273 485.398261 
L 123.707727 485.398261 
L 133.853182 485.398261 
L 143.998636 485.398261 
L 154.144091 485.398261 
L 164.289545 485.398261 
L 174.435 485.398261 
L 184.580455 485.398261 
L 194.725909 485.398261 
L 204.871364 485.398261 
L 215.016818 485.398261 
L 225.162273 485.398261 
L 235.307727 474.267826 
L 245.453182 474.267826 
L 255.598636 474.267826 
L 265.744091 463.137391 
L 275.889545 463.137391 
L 286.035 452.006957 
L 296.180455 452.006957 
L 306.325909 452.006957 
L 316.471364 440.876522 
L 326.616818 440.876522 
L 336.762273 429.746087 
L 346.907727 429.746087 
L 357.053182 418.615652 
L 367.198636 418.615652 
L 377.344091 418.615652 
L 387.489545 407.485217 
L 397.635 407.485217 
L 407.780455 396.354783 
L 417.925909 396.354783 
L 428.071364 396.354783 
L 438.216818 385.224348 
L 448.362273 385.224348 
L 458.507727 374.093913 
L 468.653182 374.093913 
L 478.798636 362.963478 
L 488.944091 362.963478 
L 499.089545 362.963478 
L 509.235 351.833043 
L 519.380455 351.833043 
L 529.525909 340.702609 
L 539.671364 340.702609 
L 549.816818 340.702609 
L 559.962273 329.572174 
L 570.107727 329.572174 
L 580.253182 318.441739 
L 590.398636 318.441739 
L 600.544091 307.311304 
L 610.689545 307.311304 
L 620.835 307.311304 
L 630.980455 296.18087 
L 641.125909 296.18087 
L 651.271364 285.050435 
L 661.416818 285.050435 
L 671.562273 285.050435 
L 681.707727 273.92 
L 691.853182 273.92 
L 701.998636 262.789565 
L 712.144091 262.789565 
L 722.289545 251.65913 
L 732.435 251.65913 
L 742.580455 251.65913 
L 752.725909 240.528696 
L 762.871364 240.528696 
L 773.016818 229.398261 
L 783.162273 229.398261 
L 793.307727 229.398261 
L 803.453182 218.267826 
L 813.598636 218.267826 
L 823.744091 207.137391 
L 833.889545 207.137391 
L 844.035 196.006957 
L 854.180455 196.006957 
L 864.325909 196.006957 
L 874.471364 184.876522 
L 884.616818 184.876522 
L 894.762273 173.746087 
L 904.907727 173.746087 
L 915.053182 173.746087 
L 925.198636 162.615652 
L 935.344091 162.615652 
L 945.489545 151.485217 
L 955.635 151.485217 
L 965.780455 140.354783 
L 975.925909 140.354783 
L 986.071364 140.354783 
L 996.216818 129.224348 
L 1006.362273 129.224348 
L 1016.507727 118.093913 
L 1026.653182 118.093913 
L 1036.798636 118.093913 
L 1046.944091 106.963478 
L 1057.089545 106.963478 
L 1067.235 95.833043 
L 1077.380455 95.833043 
L 1087.525909 84.702609 
L 1097.671364 84.702609 
L 1107.816818 84.702609 
L 1117.962273 73.572174 
L 1128.107727 73.572174 
" style="fill:none;stroke:#e377c2;stroke-linecap:square;stroke-width:1.5;"/>
   </g>
   <g id="line2d_21">
    <path clip-path="url(#p7bf540e498)" d="M 113.562273 383.833043 
L 123.707727 383.833043 
L 133.853182 383.833043 
L 143.998636 383.833043 
L 154.144091 383.833043 
L 164.289545 383.833043 
L 174.435 383.833043 
L 184.580455 383.833043 
L 194.725909 383.833043 
L 204.871364 383.833043 
L 215.016818 383.833043 
L 225.162273 383.833043 
L 235.307727 383.833043 
L 245.453182 383.833043 
L 255.598636 383.833043 
L 265.744091 383.833043 
L 275.889545 383.833043 
L 286.035 383.833043 
L 296.180455 383.833043 
L 306.325909 383.833043 
L 316.471364 383.833043 
L 326.616818 383.833043 
L 336.762273 383.833043 
L 346.907727 383.833043 
L 357.053182 383.833043 
L 367.198636 383.833043 
L 377.344091 383.833043 
L 387.489545 383.833043 
L 397.635 383.833043 
L 407.780455 383.833043 
L 417.925909 383.833043 
L 428.071364 383.833043 
L 438.216818 354.615652 
L 448.362273 354.615652 
L 458.507727 354.615652 
L 468.653182 354.615652 
L 478.798636 354.615652 
L 488.944091 354.615652 
L 499.089545 325.398261 
L 509.235 325.398261 
L 519.380455 325.398261 
L 529.525909 325.398261 
L 539.671364 325.398261 
L 549.816818 325.398261 
L 559.962273 325.398261 
L 570.107727 296.18087 
L 580.253182 296.18087 
L 590.398636 296.18087 
L 600.544091 296.18087 
L 610.689545 296.18087 
L 620.835 296.18087 
L 630.980455 266.963478 
L 641.125909 266.963478 
L 651.271364 266.963478 
L 661.416818 266.963478 
L 671.562273 266.963478 
L 681.707727 266.963478 
L 691.853182 237.746087 
L 701.998636 237.746087 
L 712.144091 237.746087 
L 722.289545 237.746087 
L 732.435 237.746087 
L 742.580455 237.746087 
L 752.725909 208.528696 
L 762.871364 208.528696 
L 773.016818 208.528696 
L 783.162273 208.528696 
L 793.307727 208.528696 
L 803.453182 208.528696 
L 813.598636 208.528696 
L 823.744091 179.311304 
L 833.889545 179.311304 
L 844.035 179.311304 
L 854.180455 179.311304 
L 864.325909 179.311304 
L 874.471364 179.311304 
L 884.616818 150.093913 
L 894.762273 150.093913 
L 904.907727 150.093913 
L 915.053182 150.093913 
L 925.198636 150.093913 
L 935.344091 150.093913 
L 945.489545 120.876522 
L 955.635 120.876522 
L 965.780455 120.876522 
L 975.925909 120.876522 
L 986.071364 120.876522 
L 996.216818 120.876522 
L 1006.362273 120.876522 
L 1016.507727 91.65913 
L 1026.653182 91.65913 
L 1036.798636 91.65913 
L 1046.944091 91.65913 
L 1057.089545 91.65913 
L 1067.235 91.65913 
L 1077.380455 62.441739 
L 1087.525909 62.441739 
L 1097.671364 62.441739 
L 1107.816818 62.441739 
L 1117.962273 62.441739 
L 1128.107727 62.441739 
" style="fill:none;stroke:#7f7f7f;stroke-linecap:square;stroke-width:1.5;"/>
   </g>
   <g id="line2d_22">
    <path clip-path="url(#p7bf540e498)" d="M 113.562273 488.799227 
L 123.707727 488.799227 
L 133.853182 488.799227 
L 143.998636 488.799227 
L 154.144091 488.799227 
L 164.289545 488.799227 
L 174.435 488.799227 
L 184.580455 488.799227 
L 194.725909 488.799227 
L 204.871364 471.485217 
L 215.016818 467.156715 
L 225.162273 452.006957 
L 235.307727 447.678454 
L 245.453182 443.349952 
L 255.598636 439.021449 
L 265.744091 434.692947 
L 275.889545 430.364444 
L 286.035 426.035942 
L 296.180455 421.70744 
L 306.325909 417.378937 
L 316.471364 413.050435 
L 326.616818 408.721932 
L 336.762273 404.39343 
L 346.907727 400.064928 
L 357.053182 395.736425 
L 367.198636 391.407923 
L 377.344091 387.07942 
L 387.489545 382.750918 
L 397.635 378.422415 
L 407.780455 374.093913 
L 417.925909 369.765411 
L 428.071364 365.436908 
L 438.216818 361.108406 
L 448.362273 356.779903 
L 458.507727 352.451401 
L 468.653182 348.122899 
L 478.798636 343.794396 
L 488.944091 339.465894 
L 499.089545 335.137391 
L 509.235 330.808889 
L 519.380455 326.480386 
L 529.525909 322.151884 
L 539.671364 317.823382 
L 549.816818 313.494879 
L 559.962273 309.166377 
L 570.107727 304.837874 
L 580.253182 300.509372 
L 590.398636 296.18087 
L 600.544091 291.852367 
L 610.689545 287.523865 
L 620.835 283.195362 
L 630.980455 278.86686 
L 641.125909 274.538357 
L 651.271364 270.209855 
L 661.416818 265.881353 
L 671.562273 261.55285 
L 681.707727 257.224348 
L 691.853182 252.895845 
L 701.998636 248.567343 
L 712.144091 244.238841 
L 722.289545 239.910338 
L 732.435 235.581836 
L 742.580455 231.253333 
L 752.725909 226.924831 
L 762.871364 222.596329 
L 773.016818 218.267826 
L 783.162273 213.939324 
L 793.307727 209.610821 
L 803.453182 205.282319 
L 813.598636 200.953816 
L 823.744091 196.625314 
L 833.889545 192.296812 
L 844.035 187.968309 
L 854.180455 183.639807 
L 864.325909 179.311304 
L 874.471364 174.982802 
L 884.616818 170.6543 
L 894.762273 166.325797 
L 904.907727 161.997295 
L 915.053182 157.668792 
L 925.198636 153.34029 
L 935.344091 149.011787 
L 945.489545 144.683285 
L 955.635 140.354783 
L 965.780455 136.02628 
L 975.925909 131.697778 
L 986.071364 127.369275 
L 996.216818 123.040773 
L 1006.362273 118.712271 
L 1016.507727 114.383768 
L 1026.653182 110.055266 
L 1036.798636 105.726763 
L 1046.944091 101.398261 
L 1057.089545 97.069758 
L 1067.235 92.741256 
L 1077.380455 88.412754 
L 1087.525909 84.084251 
L 1097.671364 79.755749 
L 1107.816818 75.427246 
L 1117.962273 71.098744 
L 1128.107727 66.770242 
" style="fill:none;stroke:#bcbd22;stroke-linecap:square;stroke-width:1.5;"/>
   </g>
   <g id="line2d_23">
    <path clip-path="url(#p7bf540e498)" d="M 113.562273 398.441739 
L 123.707727 398.441739 
L 133.853182 398.441739 
L 143.998636 398.441739 
L 154.144091 398.441739 
L 164.289545 398.441739 
L 174.435 398.441739 
L 184.580455 398.441739 
L 194.725909 398.441739 
L 204.871364 398.441739 
L 215.016818 398.441739 
L 225.162273 398.441739 
L 235.307727 398.441739 
L 245.453182 398.441739 
L 255.598636 398.441739 
L 265.744091 398.441739 
L 275.889545 398.441739 
L 286.035 398.441739 
L 296.180455 398.441739 
L 306.325909 398.441739 
L 316.471364 398.441739 
L 326.616818 398.441739 
L 336.762273 398.441739 
L 346.907727 398.441739 
L 357.053182 376.528696 
L 367.198636 376.528696 
L 377.344091 376.528696 
L 387.489545 376.528696 
L 397.635 376.528696 
L 407.780455 354.615652 
L 417.925909 354.615652 
L 428.071364 354.615652 
L 438.216818 354.615652 
L 448.362273 332.702609 
L 458.507727 332.702609 
L 468.653182 332.702609 
L 478.798636 332.702609 
L 488.944091 332.702609 
L 499.089545 310.789565 
L 509.235 310.789565 
L 519.380455 310.789565 
L 529.525909 310.789565 
L 539.671364 310.789565 
L 549.816818 288.876522 
L 559.962273 288.876522 
L 570.107727 288.876522 
L 580.253182 288.876522 
L 590.398636 266.963478 
L 600.544091 266.963478 
L 610.689545 266.963478 
L 620.835 266.963478 
L 630.980455 266.963478 
L 641.125909 245.050435 
L 651.271364 245.050435 
L 661.416818 245.050435 
L 671.562273 245.050435 
L 681.707727 245.050435 
L 691.853182 223.137391 
L 701.998636 223.137391 
L 712.144091 223.137391 
L 722.289545 223.137391 
L 732.435 223.137391 
L 742.580455 201.224348 
L 752.725909 201.224348 
L 762.871364 201.224348 
L 773.016818 201.224348 
L 783.162273 179.311304 
L 793.307727 179.311304 
L 803.453182 179.311304 
L 813.598636 179.311304 
L 823.744091 179.311304 
L 833.889545 157.398261 
L 844.035 157.398261 
L 854.180455 157.398261 
L 864.325909 157.398261 
L 874.471364 157.398261 
L 884.616818 135.485217 
L 894.762273 135.485217 
L 904.907727 135.485217 
L 915.053182 135.485217 
L 925.198636 113.572174 
L 935.344091 113.572174 
L 945.489545 113.572174 
L 955.635 113.572174 
L 965.780455 113.572174 
L 975.925909 91.65913 
L 986.071364 91.65913 
L 996.216818 91.65913 
L 1006.362273 91.65913 
L 1016.507727 91.65913 
L 1026.653182 69.746087 
L 1036.798636 69.746087 
L 1046.944091 69.746087 
L 1057.089545 69.746087 
L 1067.235 47.833043 
L 1077.380455 47.833043 
L 1087.525909 47.833043 
L 1097.671364 47.833043 
L 1107.816818 47.833043 
L 1117.962273 25.92 
L 1128.107727 25.92 
" style="fill:none;stroke:#17becf;stroke-linecap:square;stroke-width:1.5;"/>
   </g>
   <g id="line2d_24">
    <path clip-path="url(#p7bf540e498)" d="M 113.562273 434.963478 
L 123.707727 434.963478 
L 133.853182 434.963478 
L 143.998636 434.963478 
L 154.144091 434.963478 
L 164.289545 434.963478 
L 174.435 434.963478 
L 184.580455 434.963478 
L 194.725909 434.963478 
L 204.871364 434.963478 
L 215.016818 434.963478 
L 225.162273 434.963478 
L 235.307727 434.963478 
L 245.453182 434.963478 
L 255.598636 434.963478 
L 265.744091 434.963478 
L 275.889545 434.963478 
L 286.035 434.963478 
L 296.180455 434.963478 
L 306.325909 434.963478 
L 316.471364 434.963478 
L 326.616818 434.963478 
L 336.762273 434.963478 
L 346.907727 434.963478 
L 357.053182 413.050435 
L 367.198636 413.050435 
L 377.344091 413.050435 
L 387.489545 413.050435 
L 397.635 413.050435 
L 407.780455 391.137391 
L 417.925909 391.137391 
L 428.071364 391.137391 
L 438.216818 391.137391 
L 448.362273 369.224348 
L 458.507727 369.224348 
L 468.653182 369.224348 
L 478.798636 369.224348 
L 488.944091 369.224348 
L 499.089545 347.311304 
L 509.235 347.311304 
L 519.380455 347.311304 
L 529.525909 347.311304 
L 539.671364 347.311304 
L 549.816818 325.398261 
L 559.962273 325.398261 
L 570.107727 325.398261 
L 580.253182 325.398261 
L 590.398636 303.485217 
L 600.544091 303.485217 
L 610.689545 303.485217 
L 620.835 303.485217 
L 630.980455 303.485217 
L 641.125909 281.572174 
L 651.271364 281.572174 
L 661.416818 281.572174 
L 671.562273 281.572174 
L 681.707727 281.572174 
L 691.853182 259.65913 
L 701.998636 259.65913 
L 712.144091 259.65913 
L 722.289545 259.65913 
L 732.435 259.65913 
L 742.580455 237.746087 
L 752.725909 237.746087 
L 762.871364 237.746087 
L 773.016818 237.746087 
L 783.162273 215.833043 
L 793.307727 215.833043 
L 803.453182 215.833043 
L 813.598636 215.833043 
L 823.744091 215.833043 
L 833.889545 193.92 
L 844.035 193.92 
L 854.180455 193.92 
L 864.325909 193.92 
L 874.471364 193.92 
L 884.616818 172.006957 
L 894.762273 172.006957 
L 904.907727 172.006957 
L 915.053182 172.006957 
L 925.198636 150.093913 
L 935.344091 150.093913 
L 945.489545 150.093913 
L 955.635 150.093913 
L 965.780455 150.093913 
L 975.925909 128.18087 
L 986.071364 128.18087 
L 996.216818 128.18087 
L 1006.362273 128.18087 
L 1016.507727 128.18087 
L 1026.653182 106.267826 
L 1036.798636 106.267826 
L 1046.944091 106.267826 
L 1057.089545 106.267826 
L 1067.235 84.354783 
L 1077.380455 84.354783 
L 1087.525909 84.354783 
L 1097.671364 84.354783 
L 1107.816818 84.354783 
L 1117.962273 62.441739 
L 1128.107727 62.441739 
" style="fill:none;stroke:#1f77b4;stroke-linecap:square;stroke-width:1.5;"/>
   </g>
   <g id="line2d_25">
    <path clip-path="url(#p7bf540e498)" d="M 113.562273 488.366377 
L 123.707727 488.366377 
L 133.853182 488.366377 
L 143.998636 488.366377 
L 154.144091 488.366377 
L 164.289545 488.366377 
L 174.435 488.366377 
L 184.580455 488.366377 
L 194.725909 488.366377 
L 204.871364 488.366377 
L 215.016818 488.366377 
L 225.162273 477.977971 
L 235.307727 477.977971 
L 245.453182 477.977971 
L 255.598636 467.589565 
L 265.744091 467.589565 
L 275.889545 457.201159 
L 286.035 457.201159 
L 296.180455 446.812754 
L 306.325909 446.812754 
L 316.471364 436.424348 
L 326.616818 436.424348 
L 336.762273 426.035942 
L 346.907727 426.035942 
L 357.053182 426.035942 
L 367.198636 415.647536 
L 377.344091 415.647536 
L 387.489545 405.25913 
L 397.635 405.25913 
L 407.780455 394.870725 
L 417.925909 394.870725 
L 428.071364 384.482319 
L 438.216818 384.482319 
L 448.362273 374.093913 
L 458.507727 374.093913 
L 468.653182 374.093913 
L 478.798636 363.705507 
L 488.944091 363.705507 
L 499.089545 353.317101 
L 509.235 353.317101 
L 519.380455 342.928696 
L 529.525909 342.928696 
L 539.671364 332.54029 
L 549.816818 332.54029 
L 559.962273 322.151884 
L 570.107727 322.151884 
L 580.253182 322.151884 
L 590.398636 311.763478 
L 600.544091 311.763478 
L 610.689545 301.375072 
L 620.835 301.375072 
L 630.980455 290.986667 
L 641.125909 290.986667 
L 651.271364 280.598261 
L 661.416818 280.598261 
L 671.562273 270.209855 
L 681.707727 270.209855 
L 691.853182 270.209855 
L 701.998636 259.821449 
L 712.144091 259.821449 
L 722.289545 249.433043 
L 732.435 249.433043 
L 742.580455 239.044638 
L 752.725909 239.044638 
L 762.871364 228.656232 
L 773.016818 228.656232 
L 783.162273 218.267826 
L 793.307727 218.267826 
L 803.453182 218.267826 
L 813.598636 207.87942 
L 823.744091 207.87942 
L 833.889545 197.491014 
L 844.035 197.491014 
L 854.180455 187.102609 
L 864.325909 187.102609 
L 874.471364 176.714203 
L 884.616818 176.714203 
L 894.762273 166.325797 
L 904.907727 166.325797 
L 915.053182 166.325797 
L 925.198636 155.937391 
L 935.344091 155.937391 
L 945.489545 145.548986 
L 955.635 145.548986 
L 965.780455 135.16058 
L 975.925909 135.16058 
L 986.071364 124.772174 
L 996.216818 124.772174 
L 1006.362273 114.383768 
L 1016.507727 114.383768 
L 1026.653182 114.383768 
L 1036.798636 103.995362 
L 1046.944091 103.995362 
L 1057.089545 93.606957 
L 1067.235 93.606957 
L 1077.380455 83.218551 
L 1087.525909 83.218551 
L 1097.671364 72.830145 
L 1107.816818 72.830145 
L 1117.962273 62.441739 
L 1128.107727 62.441739 
" style="fill:none;stroke:#ff7f0e;stroke-linecap:square;stroke-width:1.5;"/>
   </g>
   <g id="line2d_26">
    <path clip-path="url(#p7bf540e498)" d="M 113.562273 453.954783 
L 123.707727 453.954783 
L 133.853182 453.954783 
L 143.998636 453.954783 
L 154.144091 453.954783 
L 164.289545 453.954783 
L 174.435 453.954783 
L 184.580455 453.954783 
L 194.725909 453.954783 
L 204.871364 453.954783 
L 215.016818 453.954783 
L 225.162273 453.954783 
L 235.307727 453.954783 
L 245.453182 453.954783 
L 255.598636 453.954783 
L 265.744091 453.954783 
L 275.889545 453.954783 
L 286.035 453.954783 
L 296.180455 453.954783 
L 306.325909 436.424348 
L 316.471364 436.424348 
L 326.616818 436.424348 
L 336.762273 436.424348 
L 346.907727 418.893913 
L 357.053182 418.893913 
L 367.198636 418.893913 
L 377.344091 418.893913 
L 387.489545 401.363478 
L 397.635 401.363478 
L 407.780455 401.363478 
L 417.925909 401.363478 
L 428.071364 383.833043 
L 438.216818 383.833043 
L 448.362273 383.833043 
L 458.507727 383.833043 
L 468.653182 366.302609 
L 478.798636 366.302609 
L 488.944091 366.302609 
L 499.089545 348.772174 
L 509.235 348.772174 
L 519.380455 348.772174 
L 529.525909 348.772174 
L 539.671364 331.241739 
L 549.816818 331.241739 
L 559.962273 331.241739 
L 570.107727 331.241739 
L 580.253182 313.711304 
L 590.398636 313.711304 
L 600.544091 313.711304 
L 610.689545 313.711304 
L 620.835 296.18087 
L 630.980455 296.18087 
L 641.125909 296.18087 
L 651.271364 296.18087 
L 661.416818 278.650435 
L 671.562273 278.650435 
L 681.707727 278.650435 
L 691.853182 261.12 
L 701.998636 261.12 
L 712.144091 261.12 
L 722.289545 261.12 
L 732.435 243.589565 
L 742.580455 243.589565 
L 752.725909 243.589565 
L 762.871364 243.589565 
L 773.016818 226.05913 
L 783.162273 226.05913 
L 793.307727 226.05913 
L 803.453182 226.05913 
L 813.598636 208.528696 
L 823.744091 208.528696 
L 833.889545 208.528696 
L 844.035 208.528696 
L 854.180455 190.998261 
L 864.325909 190.998261 
L 874.471364 190.998261 
L 884.616818 173.467826 
L 894.762273 173.467826 
L 904.907727 173.467826 
L 915.053182 173.467826 
L 925.198636 155.937391 
L 935.344091 155.937391 
L 945.489545 155.937391 
L 955.635 155.937391 
L 965.780455 138.406957 
L 975.925909 138.406957 
L 986.071364 138.406957 
L 996.216818 138.406957 
L 1006.362273 120.876522 
L 1016.507727 120.876522 
L 1026.653182 120.876522 
L 1036.798636 120.876522 
L 1046.944091 103.346087 
L 1057.089545 103.346087 
L 1067.235 103.346087 
L 1077.380455 85.815652 
L 1087.525909 85.815652 
L 1097.671364 85.815652 
L 1107.816818 85.815652 
L 1117.962273 68.285217 
L 1128.107727 68.285217 
" style="fill:none;stroke:#2ca02c;stroke-linecap:square;stroke-width:1.5;"/>
   </g>
   <g id="line2d_27">
    <path clip-path="url(#p7bf540e498)" d="M 113.562273 281.572174 
L 123.707727 281.572174 
L 133.853182 281.572174 
L 143.998636 281.572174 
L 154.144091 281.572174 
L 164.289545 281.572174 
L 174.435 281.572174 
L 184.580455 281.572174 
L 194.725909 281.572174 
L 204.871364 281.572174 
L 215.016818 281.572174 
L 225.162273 281.572174 
L 235.307727 281.572174 
L 245.453182 281.572174 
L 255.598636 281.572174 
L 265.744091 281.572174 
L 275.889545 281.572174 
L 286.035 281.572174 
L 296.180455 281.572174 
L 306.325909 281.572174 
L 316.471364 281.572174 
L 326.616818 281.572174 
L 336.762273 281.572174 
L 346.907727 281.572174 
L 357.053182 281.572174 
L 367.198636 281.572174 
L 377.344091 281.572174 
L 387.489545 281.572174 
L 397.635 281.572174 
L 407.780455 281.572174 
L 417.925909 281.572174 
L 428.071364 281.572174 
L 438.216818 281.572174 
L 448.362273 281.572174 
L 458.507727 281.572174 
L 468.653182 281.572174 
L 478.798636 281.572174 
L 488.944091 281.572174 
L 499.089545 281.572174 
L 509.235 281.572174 
L 519.380455 281.572174 
L 529.525909 281.572174 
L 539.671364 281.572174 
L 549.816818 281.572174 
L 559.962273 281.572174 
L 570.107727 281.572174 
L 580.253182 281.572174 
L 590.398636 281.572174 
L 600.544091 281.572174 
L 610.689545 281.572174 
L 620.835 281.572174 
L 630.980455 281.572174 
L 641.125909 281.572174 
L 651.271364 281.572174 
L 661.416818 281.572174 
L 671.562273 281.572174 
L 681.707727 281.572174 
L 691.853182 281.572174 
L 701.998636 281.572174 
L 712.144091 281.572174 
L 722.289545 281.572174 
L 732.435 281.572174 
L 742.580455 281.572174 
L 752.725909 223.137391 
L 762.871364 223.137391 
L 773.016818 223.137391 
L 783.162273 223.137391 
L 793.307727 223.137391 
L 803.453182 223.137391 
L 813.598636 223.137391 
L 823.744091 223.137391 
L 833.889545 223.137391 
L 844.035 223.137391 
L 854.180455 223.137391 
L 864.325909 223.137391 
L 874.471364 164.702609 
L 884.616818 164.702609 
L 894.762273 164.702609 
L 904.907727 164.702609 
L 915.053182 164.702609 
L 925.198636 164.702609 
L 935.344091 164.702609 
L 945.489545 164.702609 
L 955.635 164.702609 
L 965.780455 164.702609 
L 975.925909 164.702609 
L 986.071364 164.702609 
L 996.216818 164.702609 
L 1006.362273 106.267826 
L 1016.507727 106.267826 
L 1026.653182 106.267826 
L 1036.798636 106.267826 
L 1046.944091 106.267826 
L 1057.089545 106.267826 
L 1067.235 106.267826 
L 1077.380455 106.267826 
L 1087.525909 106.267826 
L 1097.671364 106.267826 
L 1107.816818 106.267826 
L 1117.962273 106.267826 
L 1128.107727 47.833043 
" style="fill:none;stroke:#d62728;stroke-linecap:square;stroke-width:1.5;"/>
   </g>
   <g id="line2d_28">
    <path clip-path="url(#p7bf540e498)" d="M 113.562273 344.876522 
L 123.707727 344.876522 
L 133.853182 344.876522 
L 143.998636 344.876522 
L 154.144091 344.876522 
L 164.289545 344.876522 
L 174.435 344.876522 
L 184.580455 344.876522 
L 194.725909 344.876522 
L 204.871364 344.876522 
L 215.016818 344.876522 
L 225.162273 344.876522 
L 235.307727 344.876522 
L 245.453182 344.876522 
L 255.598636 344.876522 
L 265.744091 344.876522 
L 275.889545 344.876522 
L 286.035 344.876522 
L 296.180455 344.876522 
L 306.325909 344.876522 
L 316.471364 344.876522 
L 326.616818 344.876522 
L 336.762273 344.876522 
L 346.907727 344.876522 
L 357.053182 344.876522 
L 367.198636 344.876522 
L 377.344091 344.876522 
L 387.489545 344.876522 
L 397.635 344.876522 
L 407.780455 344.876522 
L 417.925909 344.876522 
L 428.071364 344.876522 
L 438.216818 344.876522 
L 448.362273 344.876522 
L 458.507727 344.876522 
L 468.653182 344.876522 
L 478.798636 344.876522 
L 488.944091 344.876522 
L 499.089545 344.876522 
L 509.235 344.876522 
L 519.380455 344.876522 
L 529.525909 344.876522 
L 539.671364 305.92 
L 549.816818 305.92 
L 559.962273 305.92 
L 570.107727 305.92 
L 580.253182 305.92 
L 590.398636 305.92 
L 600.544091 305.92 
L 610.689545 305.92 
L 620.835 266.963478 
L 630.980455 266.963478 
L 641.125909 266.963478 
L 651.271364 266.963478 
L 661.416818 266.963478 
L 671.562273 266.963478 
L 681.707727 266.963478 
L 691.853182 266.963478 
L 701.998636 266.963478 
L 712.144091 228.006957 
L 722.289545 228.006957 
L 732.435 228.006957 
L 742.580455 228.006957 
L 752.725909 228.006957 
L 762.871364 228.006957 
L 773.016818 228.006957 
L 783.162273 228.006957 
L 793.307727 189.050435 
L 803.453182 189.050435 
L 813.598636 189.050435 
L 823.744091 189.050435 
L 833.889545 189.050435 
L 844.035 189.050435 
L 854.180455 189.050435 
L 864.325909 189.050435 
L 874.471364 150.093913 
L 884.616818 150.093913 
L 894.762273 150.093913 
L 904.907727 150.093913 
L 915.053182 150.093913 
L 925.198636 150.093913 
L 935.344091 150.093913 
L 945.489545 150.093913 
L 955.635 111.137391 
L 965.780455 111.137391 
L 975.925909 111.137391 
L 986.071364 111.137391 
L 996.216818 111.137391 
L 1006.362273 111.137391 
L 1016.507727 111.137391 
L 1026.653182 111.137391 
L 1036.798636 111.137391 
L 1046.944091 72.18087 
L 1057.089545 72.18087 
L 1067.235 72.18087 
L 1077.380455 72.18087 
L 1087.525909 72.18087 
L 1097.671364 72.18087 
L 1107.816818 72.18087 
L 1117.962273 72.18087 
L 1128.107727 33.224348 
" style="fill:none;stroke:#9467bd;stroke-linecap:square;stroke-width:1.5;"/>
   </g>
   <g id="line2d_29">
    <path clip-path="url(#p7bf540e498)" d="M 113.562273 488.366377 
L 123.707727 488.366377 
L 133.853182 488.366377 
L 143.998636 488.366377 
L 154.144091 488.366377 
L 164.289545 488.366377 
L 174.435 488.366377 
L 184.580455 488.366377 
L 194.725909 488.366377 
L 204.871364 488.366377 
L 215.016818 488.366377 
L 225.162273 477.977971 
L 235.307727 477.977971 
L 245.453182 477.977971 
L 255.598636 467.589565 
L 265.744091 467.589565 
L 275.889545 457.201159 
L 286.035 457.201159 
L 296.180455 446.812754 
L 306.325909 446.812754 
L 316.471364 436.424348 
L 326.616818 436.424348 
L 336.762273 426.035942 
L 346.907727 426.035942 
L 357.053182 426.035942 
L 367.198636 415.647536 
L 377.344091 415.647536 
L 387.489545 405.25913 
L 397.635 405.25913 
L 407.780455 394.870725 
L 417.925909 394.870725 
L 428.071364 384.482319 
L 438.216818 384.482319 
L 448.362273 374.093913 
L 458.507727 374.093913 
L 468.653182 374.093913 
L 478.798636 363.705507 
L 488.944091 363.705507 
L 499.089545 353.317101 
L 509.235 353.317101 
L 519.380455 342.928696 
L 529.525909 342.928696 
L 539.671364 332.54029 
L 549.816818 332.54029 
L 559.962273 322.151884 
L 570.107727 322.151884 
L 580.253182 322.151884 
L 590.398636 311.763478 
L 600.544091 311.763478 
L 610.689545 301.375072 
L 620.835 301.375072 
L 630.980455 290.986667 
L 641.125909 290.986667 
L 651.271364 280.598261 
L 661.416818 280.598261 
L 671.562273 270.209855 
L 681.707727 270.209855 
L 691.853182 270.209855 
L 701.998636 259.821449 
L 712.144091 259.821449 
L 722.289545 249.433043 
L 732.435 249.433043 
L 742.580455 239.044638 
L 752.725909 239.044638 
L 762.871364 228.656232 
L 773.016818 228.656232 
L 783.162273 218.267826 
L 793.307727 218.267826 
L 803.453182 218.267826 
L 813.598636 207.87942 
L 823.744091 207.87942 
L 833.889545 197.491014 
L 844.035 197.491014 
L 854.180455 187.102609 
L 864.325909 187.102609 
L 874.471364 176.714203 
L 884.616818 176.714203 
L 894.762273 166.325797 
L 904.907727 166.325797 
L 915.053182 166.325797 
L 925.198636 155.937391 
L 935.344091 155.937391 
L 945.489545 145.548986 
L 955.635 145.548986 
L 965.780455 135.16058 
L 975.925909 135.16058 
L 986.071364 124.772174 
L 996.216818 124.772174 
L 1006.362273 114.383768 
L 1016.507727 114.383768 
L 1026.653182 114.383768 
L 1036.798636 103.995362 
L 1046.944091 103.995362 
L 1057.089545 93.606957 
L 1067.235 93.606957 
L 1077.380455 83.218551 
L 1087.525909 83.218551 
L 1097.671364 72.830145 
L 1107.816818 72.830145 
L 1117.962273 62.441739 
L 1128.107727 62.441739 
" style="fill:none;stroke:#8c564b;stroke-linecap:square;stroke-width:1.5;"/>
   </g>
   <g id="patch_3">
    <path d="M 62.835 555.12 
L 62.835 0.72 
" style="fill:none;stroke:#000000;stroke-linecap:square;stroke-linejoin:miter;stroke-width:0.8;"/>
   </g>
   <g id="patch_4">
    <path d="M 1178.835 555.12 
L 1178.835 0.72 
" style="fill:none;stroke:#000000;stroke-linecap:square;stroke-linejoin:miter;stroke-width:0.8;"/>
   </g>
   <g id="patch_5">
    <path d="M 62.835 555.12 
L 1178.835 555.12 
" style="fill:none;stroke:#000000;stroke-linecap:square;stroke-linejoin:miter;stroke-width:0.8;"/>
   </g>
   <g id="patch_6">
    <path d="M 62.835 0.72 
L 1178.835 0.72 
" style="fill:none;stroke:#000000;stroke-linecap:square;stroke-linejoin:miter;stroke-width:0.8;"/>
   </g>
   <g id="patch_7">
    <path d="M 172.332088 514.370982 
Q 169.02848 511.156777 165.724872 507.942571 
" style="fill:none;stroke:#000000;stroke-linecap:round;"/>
   </g>
   <g id="text_15">
    <!-- Ideal -->
    <g transform="translate(164.289545 529.92)scale(0.16 -0.16)">
     <use xlink:href="#DejaVuSans-73"/>
     <use x="29.492188" xlink:href="#DejaVuSans-100"/>
     <use x="92.96875" xlink:href="#DejaVuSans-101"/>
     <use x="154.492188" xlink:href="#DejaVuSans-97"/>
     <use x="215.771484" xlink:href="#DejaVuSans-108"/>
    </g>
   </g>
   <g id="text_16">
    <!-- STM32L0/L1 @ 32MHz -->
    <g transform="translate(123.707727 275.144348)scale(0.16 -0.16)">
     <defs>
      <path d="M 53.515625 70.515625 
L 53.515625 60.890625 
Q 47.90625 63.578125 42.921875 64.890625 
Q 37.9375 66.21875 33.296875 66.21875 
Q 25.25 66.21875 20.875 63.09375 
Q 16.5 59.96875 16.5 54.203125 
Q 16.5 49.359375 19.40625 46.890625 
Q 22.3125 44.4375 30.421875 42.921875 
L 36.375 41.703125 
Q 47.40625 39.59375 52.65625 34.296875 
Q 57.90625 29 57.90625 20.125 
Q 57.90625 9.515625 50.796875 4.046875 
Q 43.703125 -1.421875 29.984375 -1.421875 
Q 24.8125 -1.421875 18.96875 -0.25 
Q 13.140625 0.921875 6.890625 3.21875 
L 6.890625 13.375 
Q 12.890625 10.015625 18.65625 8.296875 
Q 24.421875 6.59375 29.984375 6.59375 
Q 38.421875 6.59375 43.015625 9.90625 
Q 47.609375 13.234375 47.609375 19.390625 
Q 47.609375 24.75 44.3125 27.78125 
Q 41.015625 30.8125 33.5 32.328125 
L 27.484375 33.5 
Q 16.453125 35.6875 11.515625 40.375 
Q 6.59375 45.0625 6.59375 53.421875 
Q 6.59375 63.09375 13.40625 68.65625 
Q 20.21875 74.21875 32.171875 74.21875 
Q 37.3125 74.21875 42.625 73.28125 
Q 47.953125 72.359375 53.515625 70.515625 
z
" id="DejaVuSans-83"/>
      <path d="M -0.296875 72.90625 
L 61.375 72.90625 
L 61.375 64.59375 
L 35.5 64.59375 
L 35.5 0 
L 25.59375 0 
L 25.59375 64.59375 
L -0.296875 64.59375 
z
" id="DejaVuSans-84"/>
      <path d="M 40.578125 39.3125 
Q 47.65625 37.796875 51.625 33 
Q 55.609375 28.21875 55.609375 21.1875 
Q 55.609375 10.40625 48.1875 4.484375 
Q 40.765625 -1.421875 27.09375 -1.421875 
Q 22.515625 -1.421875 17.65625 -0.515625 
Q 12.796875 0.390625 7.625 2.203125 
L 7.625 11.71875 
Q 11.71875 9.328125 16.59375 8.109375 
Q 21.484375 6.890625 26.8125 6.890625 
Q 36.078125 6.890625 40.9375 10.546875 
Q 45.796875 14.203125 45.796875 21.1875 
Q 45.796875 27.640625 41.28125 31.265625 
Q 36.765625 34.90625 28.71875 34.90625 
L 20.21875 34.90625 
L 20.21875 43.015625 
L 29.109375 43.015625 
Q 36.375 43.015625 40.234375 45.921875 
Q 44.09375 48.828125 44.09375 54.296875 
Q 44.09375 59.90625 40.109375 62.90625 
Q 36.140625 65.921875 28.71875 65.921875 
Q 24.65625 65.921875 20.015625 65.03125 
Q 15.375 64.15625 9.8125 62.3125 
L 9.8125 71.09375 
Q 15.4375 72.65625 20.34375 73.4375 
Q 25.25 74.21875 29.59375 74.21875 
Q 40.828125 74.21875 47.359375 69.109375 
Q 53.90625 64.015625 53.90625 55.328125 
Q 53.90625 49.265625 50.4375 45.09375 
Q 46.96875 40.921875 40.578125 39.3125 
z
" id="DejaVuSans-51"/>
      <path d="M 9.8125 72.90625 
L 19.671875 72.90625 
L 19.671875 8.296875 
L 55.171875 8.296875 
L 55.171875 0 
L 9.8125 0 
z
" id="DejaVuSans-76"/>
      <path d="M 25.390625 72.90625 
L 33.6875 72.90625 
L 8.296875 -9.28125 
L 0 -9.28125 
z
" id="DejaVuSans-47"/>
      <path d="M 37.203125 26.21875 
Q 37.203125 19.234375 40.671875 15.25 
Q 44.140625 11.28125 50.203125 11.28125 
Q 56.203125 11.28125 59.640625 15.28125 
Q 63.09375 19.28125 63.09375 26.21875 
Q 63.09375 33.0625 59.578125 37.078125 
Q 56.0625 41.109375 50.09375 41.109375 
Q 44.1875 41.109375 40.6875 37.109375 
Q 37.203125 33.109375 37.203125 26.21875 
z
M 63.8125 11.625 
Q 60.890625 7.859375 57.109375 6.078125 
Q 53.328125 4.296875 48.296875 4.296875 
Q 39.890625 4.296875 34.640625 10.375 
Q 29.390625 16.453125 29.390625 26.21875 
Q 29.390625 35.984375 34.65625 42.078125 
Q 39.9375 48.1875 48.296875 48.1875 
Q 53.328125 48.1875 57.125 46.359375 
Q 60.9375 44.53125 63.8125 40.828125 
L 63.8125 47.21875 
L 70.796875 47.21875 
L 70.796875 11.28125 
Q 77.9375 12.359375 81.953125 17.796875 
Q 85.984375 23.25 85.984375 31.890625 
Q 85.984375 37.109375 84.4375 41.703125 
Q 82.90625 46.296875 79.78125 50.203125 
Q 74.703125 56.59375 67.40625 59.984375 
Q 60.109375 63.375 51.515625 63.375 
Q 45.515625 63.375 39.984375 61.78125 
Q 34.46875 60.203125 29.78125 57.078125 
Q 22.125 52.09375 17.796875 44.015625 
Q 13.484375 35.9375 13.484375 26.515625 
Q 13.484375 18.75 16.28125 11.953125 
Q 19.09375 5.171875 24.421875 0 
Q 29.546875 -5.078125 36.28125 -7.734375 
Q 43.015625 -10.40625 50.6875 -10.40625 
Q 56.984375 -10.40625 63.0625 -8.28125 
Q 69.140625 -6.15625 74.21875 -2.203125 
L 78.609375 -7.625 
Q 72.515625 -12.359375 65.3125 -14.875 
Q 58.109375 -17.390625 50.6875 -17.390625 
Q 41.65625 -17.390625 33.640625 -14.1875 
Q 25.640625 -10.984375 19.390625 -4.890625 
Q 13.140625 1.21875 9.859375 9.25 
Q 6.59375 17.28125 6.59375 26.515625 
Q 6.59375 35.40625 9.90625 43.453125 
Q 13.234375 51.515625 19.390625 57.625 
Q 25.6875 63.8125 33.9375 67.109375 
Q 42.1875 70.40625 51.421875 70.40625 
Q 61.765625 70.40625 70.625 66.15625 
Q 79.5 61.921875 85.5 54.109375 
Q 89.15625 49.3125 91.078125 43.703125 
Q 93.015625 38.09375 93.015625 32.078125 
Q 93.015625 19.234375 85.25 11.8125 
Q 77.484375 4.390625 63.8125 4.109375 
z
" id="DejaVuSans-64"/>
      <path d="M 9.8125 72.90625 
L 19.671875 72.90625 
L 19.671875 43.015625 
L 55.515625 43.015625 
L 55.515625 72.90625 
L 65.375 72.90625 
L 65.375 0 
L 55.515625 0 
L 55.515625 34.71875 
L 19.671875 34.71875 
L 19.671875 0 
L 9.8125 0 
z
" id="DejaVuSans-72"/>
      <path d="M 5.515625 54.6875 
L 48.1875 54.6875 
L 48.1875 46.484375 
L 14.40625 7.171875 
L 48.1875 7.171875 
L 48.1875 0 
L 4.296875 0 
L 4.296875 8.203125 
L 38.09375 47.515625 
L 5.515625 47.515625 
z
" id="DejaVuSans-122"/>
     </defs>
     <use xlink:href="#DejaVuSans-83"/>
     <use x="63.476562" xlink:href="#DejaVuSans-84"/>
     <use x="124.560547" xlink:href="#DejaVuSans-77"/>
     <use x="210.839844" xlink:href="#DejaVuSans-51"/>
     <use x="274.462891" xlink:href="#DejaVuSans-50"/>
     <use x="338.085938" xlink:href="#DejaVuSans-76"/>
     <use x="393.798828" xlink:href="#DejaVuSans-48"/>
     <use x="457.421875" xlink:href="#DejaVuSans-47"/>
     <use x="491.113281" xlink:href="#DejaVuSans-76"/>
     <use x="546.826172" xlink:href="#DejaVuSans-49"/>
     <use x="610.449219" xlink:href="#DejaVuSans-32"/>
     <use x="642.236328" xlink:href="#DejaVuSans-64"/>
     <use x="742.236328" xlink:href="#DejaVuSans-32"/>
     <use x="774.023438" xlink:href="#DejaVuSans-51"/>
     <use x="837.646484" xlink:href="#DejaVuSans-50"/>
     <use x="901.269531" xlink:href="#DejaVuSans-77"/>
     <use x="987.548828" xlink:href="#DejaVuSans-72"/>
     <use x="1062.744141" xlink:href="#DejaVuSans-122"/>
    </g>
   </g>
   <g id="text_17">
    <!-- STM32F0 @ 48MHz -->
    <g transform="translate(123.707727 337.318957)scale(0.16 -0.16)">
     <defs>
      <path d="M 9.8125 72.90625 
L 51.703125 72.90625 
L 51.703125 64.59375 
L 19.671875 64.59375 
L 19.671875 43.109375 
L 48.578125 43.109375 
L 48.578125 34.8125 
L 19.671875 34.8125 
L 19.671875 0 
L 9.8125 0 
z
" id="DejaVuSans-70"/>
     </defs>
     <use xlink:href="#DejaVuSans-83"/>
     <use x="63.476562" xlink:href="#DejaVuSans-84"/>
     <use x="124.560547" xlink:href="#DejaVuSans-77"/>
     <use x="210.839844" xlink:href="#DejaVuSans-51"/>
     <use x="274.462891" xlink:href="#DejaVuSans-50"/>
     <use x="338.085938" xlink:href="#DejaVuSans-70"/>
     <use x="395.605469" xlink:href="#DejaVuSans-48"/>
     <use x="459.228516" xlink:href="#DejaVuSans-32"/>
     <use x="491.015625" xlink:href="#DejaVuSans-64"/>
     <use x="591.015625" xlink:href="#DejaVuSans-32"/>
     <use x="622.802734" xlink:href="#DejaVuSans-52"/>
     <use x="686.425781" xlink:href="#DejaVuSans-56"/>
     <use x="750.048828" xlink:href="#DejaVuSans-77"/>
     <use x="836.328125" xlink:href="#DejaVuSans-72"/>
     <use x="911.523438" xlink:href="#DejaVuSans-122"/>
    </g>
   </g>
   <g id="text_18">
    <!-- STM32L4 @ 48MHz -->
    <g transform="translate(123.707727 375.652174)scale(0.16 -0.16)">
     <use xlink:href="#DejaVuSans-83"/>
     <use x="63.476562" xlink:href="#DejaVuSans-84"/>
     <use x="124.560547" xlink:href="#DejaVuSans-77"/>
     <use x="210.839844" xlink:href="#DejaVuSans-51"/>
     <use x="274.462891" xlink:href="#DejaVuSans-50"/>
     <use x="338.085938" xlink:href="#DejaVuSans-76"/>
     <use x="393.798828" xlink:href="#DejaVuSans-52"/>
     <use x="457.421875" xlink:href="#DejaVuSans-32"/>
     <use x="489.208984" xlink:href="#DejaVuSans-64"/>
     <use x="589.208984" xlink:href="#DejaVuSans-32"/>
     <use x="620.996094" xlink:href="#DejaVuSans-52"/>
     <use x="684.619141" xlink:href="#DejaVuSans-56"/>
     <use x="748.242188" xlink:href="#DejaVuSans-77"/>
     <use x="834.521484" xlink:href="#DejaVuSans-72"/>
     <use x="909.716797" xlink:href="#DejaVuSans-122"/>
    </g>
   </g>
   <g id="patch_8">
    <path d="M 410.195087 438.814231 
Q 354.177675 430.749628 298.160262 422.685025 
" style="fill:none;stroke:#000000;stroke-linecap:round;"/>
   </g>
   <g id="text_19">
    <!-- STM32F7 @ 216MHz -->
    <g transform="translate(397.635 453.25663)scale(0.16 -0.16)">
     <defs>
      <path d="M 8.203125 72.90625 
L 55.078125 72.90625 
L 55.078125 68.703125 
L 28.609375 0 
L 18.3125 0 
L 43.21875 64.59375 
L 8.203125 64.59375 
z
" id="DejaVuSans-55"/>
     </defs>
     <use xlink:href="#DejaVuSans-83"/>
     <use x="63.476562" xlink:href="#DejaVuSans-84"/>
     <use x="124.560547" xlink:href="#DejaVuSans-77"/>
     <use x="210.839844" xlink:href="#DejaVuSans-51"/>
     <use x="274.462891" xlink:href="#DejaVuSans-50"/>
     <use x="338.085938" xlink:href="#DejaVuSans-70"/>
     <use x="395.605469" xlink:href="#DejaVuSans-55"/>
     <use x="459.228516" xlink:href="#DejaVuSans-32"/>
     <use x="491.015625" xlink:href="#DejaVuSans-64"/>
     <use x="591.015625" xlink:href="#DejaVuSans-32"/>
     <use x="622.802734" xlink:href="#DejaVuSans-50"/>
     <use x="686.425781" xlink:href="#DejaVuSans-49"/>
     <use x="750.048828" xlink:href="#DejaVuSans-54"/>
     <use x="813.671875" xlink:href="#DejaVuSans-77"/>
     <use x="899.951172" xlink:href="#DejaVuSans-72"/>
     <use x="975.146484" xlink:href="#DejaVuSans-122"/>
    </g>
   </g>
   <g id="patch_9">
    <path d="M 302.325997 494.592567 
Q 259.16279 491.75294 215.999584 488.913312 
" style="fill:none;stroke:#000000;stroke-linecap:round;"/>
   </g>
   <g id="text_20">
    <!-- STM32F4 @ 180MHz -->
    <g transform="translate(306.325909 504.679239)scale(0.16 -0.16)">
     <use xlink:href="#DejaVuSans-83"/>
     <use x="63.476562" xlink:href="#DejaVuSans-84"/>
     <use x="124.560547" xlink:href="#DejaVuSans-77"/>
     <use x="210.839844" xlink:href="#DejaVuSans-51"/>
     <use x="274.462891" xlink:href="#DejaVuSans-50"/>
     <use x="338.085938" xlink:href="#DejaVuSans-70"/>
     <use x="395.605469" xlink:href="#DejaVuSans-52"/>
     <use x="459.228516" xlink:href="#DejaVuSans-32"/>
     <use x="491.015625" xlink:href="#DejaVuSans-64"/>
     <use x="591.015625" xlink:href="#DejaVuSans-32"/>
     <use x="622.802734" xlink:href="#DejaVuSans-49"/>
     <use x="686.425781" xlink:href="#DejaVuSans-56"/>
     <use x="750.048828" xlink:href="#DejaVuSans-48"/>
     <use x="813.671875" xlink:href="#DejaVuSans-77"/>
     <use x="899.951172" xlink:href="#DejaVuSans-72"/>
     <use x="975.146484" xlink:href="#DejaVuSans-122"/>
    </g>
   </g>
  </g>
 </g>
 <defs>
  <clipPath id="p7bf540e498">
   <rect height="554.4" width="1116" x="62.835" y="0.72"/>
  </clipPath>
 </defs>
</svg>
