<?xml version="1.0" standalone="no"?>
<!DOCTYPE svg PUBLIC "-//W3C//DTD SVG 20010904//EN"
 "http://www.w3.org/TR/2001/REC-SVG-20010904/DTD/svg10.dtd">
<svg version="1.0" xmlns="http://www.w3.org/2000/svg"
 width="16.000000pt" height="16.000000pt" viewBox="0 0 16.000000 16.000000"
 preserveAspectRatio="xMidYMid meet">
<metadata>
Created by potrace 1.11, written by Peter Selinger 2001-2013
</metadata>
<g transform="translate(0.000000,16.000000) scale(0.002286,-0.002286)"
fill="#000000" stroke="none">
<path d="M333 5713 l3 -1288 22 -77 c48 -165 128 -317 227 -425 l42 -48 -187
-188 -187 -188 295 -295 296 -295 -30 -29 c-43 -43 -140 -98 -214 -121 -58
-19 -93 -21 -330 -23 l-265 -2 -3 -217 c-2 -170 0 -217 10 -218 56 -4 468 0
523 5 90 7 108 11 208 42 134 42 312 146 381 223 11 11 23 21 28 21 6 0 37
-27 70 -60 67 -66 66 -57 5 -124 -83 -91 -161 -238 -202 -382 -32 -115 -40
-198 -40 -422 l0 -182 -245 0 c-135 1 -356 1 -493 0 l-247 0 2 -217 3 -218
480 0 c264 0 485 -3 490 -7 8 -5 13 -177 6 -208 0 -3 -221 -5 -491 -4 l-490 0
0 -218 0 -218 490 0 c319 0 490 -3 491 -10 1 -5 2 -79 3 -162 l1 -153 218 -3
217 -2 0 37 c1 21 1 95 1 166 l0 127 547 0 c543 0 548 0 654 24 172 40 336
122 456 231 l47 43 187 -188 188 -187 294 293 c161 162 298 294 302 294 13 0
81 -96 110 -153 49 -96 57 -153 59 -427 l1 -255 219 0 219 0 -1 240 c0 324 -9
398 -69 557 -42 110 -171 310 -222 341 -9 6 4 26 52 74 72 72 63 72 130 10 47
-43 163 -117 233 -148 84 -39 221 -78 302 -86 36 -4 298 -7 581 -7 397 -1 516
-3 520 -13 3 -7 5 -228 4 -493 l0 -480 218 0 218 0 2 492 3 493 163 0 162 0 0
217 0 218 -132 1 c-73 1 -147 0 -164 -1 l-32 -1 -1 110 -2 111 166 0 165 0 0
220 0 219 -117 0 c-65 0 -139 0 -164 0 l-47 1 -5 248 c-4 227 -6 254 -30 338
-44 156 -123 303 -222 411 l-42 48 187 187 187 188 -187 188 -188 187 43 47
c79 88 159 223 199 338 54 155 50 58 53 1453 l4 1287 -218 -2 -218 -3 -1
-1225 c-1 -674 -4 -1243 -8 -1265 -17 -106 -85 -245 -145 -299 -20 -18 -23
-16 -191 150 -93 93 -170 172 -170 175 0 4 10 17 23 30 47 48 106 131 146 202
39 71 95 220 105 285 4 17 9 47 12 65 4 17 7 449 8 960 l1 927 -217 0 -218 0
0 -82 c0 -46 0 -450 -1 -900 0 -663 -3 -829 -14 -884 -18 -82 -72 -195 -122
-251 l-38 -43 -172 173 -172 172 47 58 c82 99 93 115 141 211 42 81 67 154 97
281 4 17 9 308 11 648 l4 617 -219 0 -220 0 0 -566 c0 -311 -3 -585 -7 -608
-12 -74 -46 -164 -87 -228 -76 -118 -57 -123 -249 69 -93 93 -168 173 -169
179 0 5 14 23 31 40 36 34 126 167 162 239 35 71 73 196 87 290 7 46 13 188
13 330 l1 250 -217 3 c-119 1 -217 -1 -218 -5 0 -5 -2 -120 -4 -258 -2 -137
-5 -259 -8 -270 -18 -73 -32 -115 -52 -155 -28 -55 -97 -150 -109 -150 -5 0
-79 70 -164 155 l-155 155 -277 0 -277 0 -155 -155 c-95 -95 -161 -153 -170
-150 -18 7 -92 118 -117 175 -37 85 -43 139 -45 400 l-2 255 -219 0 -219 0 1
-250 c0 -137 6 -284 12 -326 12 -88 53 -222 88 -294 36 -72 126 -205 162 -239
17 -17 31 -34 31 -39 0 -5 -76 -85 -169 -179 l-169 -170 -32 34 c-61 64 -121
195 -135 297 -4 25 -7 298 -7 608 l0 563 -219 0 -220 0 2 -592 c1 -639 4 -677
56 -827 43 -127 122 -261 203 -350 l41 -44 -170 -168 c-93 -93 -174 -169 -180
-169 -16 0 -79 88 -112 157 -57 119 -56 111 -57 1083 -1 492 -1 898 -2 903 0
4 -98 6 -217 5 l-218 -3 0 -890 c0 -489 3 -924 7 -965 19 -181 101 -378 219
-525 l70 -87 -172 -171 -171 -172 -38 44 c-72 83 -124 214 -130 326 -2 33 -3
597 -4 1253 l-1 1192 -218 0 -218 0 4 -1287z m3343 537 c7 0 631 -619 1387
-1375 l1375 -1375 -736 -736 c-406 -405 -1067 -1067 -1469 -1470 l-733 -733
-1469 1469 -1469 1470 1372 1372 1371 1372 55 6 c43 4 178 4 316 0z m2434
-3492 c52 -65 72 -105 100 -195 18 -61 22 -98 24 -277 l2 -206 -46 -1 c-121
-3 -320 1 -364 7 -99 13 -220 67 -295 133 l-35 30 280 280 c153 154 282 280
286 281 4 0 26 -23 48 -52z m-3960 -1166 c0 -17 -87 -79 -155 -112 -99 -47
-160 -56 -375 -56 l-195 1 -1 190 c0 120 5 213 13 254 17 80 61 174 114 241
l40 51 280 -279 c153 -153 279 -284 279 -290z m3090 299 c34 -33 174 -124 230
-149 189 -86 271 -100 585 -101 l180 -1 0 -107 -1 -108 -515 -2 c-305 0 -537
3 -569 9 -99 18 -211 73 -287 141 l-22 20 172 173 c185 186 172 178 227 125z
m-2596 -782 l171 -171 -43 -37 c-78 -68 -195 -118 -297 -128 -33 -4 -283 -6
-555 -7 l-495 0 -3 109 -2 110 207 1 c261 1 303 6 455 58 118 40 220 98 313
176 39 32 72 59 74 59 2 1 80 -76 175 -170z"/>
<path d="M3455 6053 c-123 -34 -144 -212 -33 -278 43 -25 125 -25 162 1 36 26
67 87 68 134 0 44 -30 100 -67 124 -27 18 -98 28 -130 19z"/>
<path d="M3487 4695 c-1 -2 -80 -5 -175 -8 -95 -4 -176 -8 -180 -11 -4 -2 -36
-6 -72 -10 -36 -3 -74 -8 -85 -10 -11 -2 -67 -11 -125 -21 -352 -57 -737 -187
-1095 -369 -351 -179 -640 -386 -945 -676 l-95 -91 55 -51 c30 -28 84 -78 120
-112 102 -96 155 -140 300 -250 514 -388 1157 -655 1785 -741 22 -3 54 -7 70
-10 31 -4 92 -11 200 -20 163 -15 559 -4 705 20 14 2 50 7 80 10 30 4 73 10
95 15 22 5 59 11 82 15 23 3 97 19 165 36 68 17 128 32 133 33 243 60 620 216
897 372 75 42 366 230 378 244 3 3 44 35 91 72 98 76 143 115 249 214 41 39
95 89 120 112 l45 42 -55 52 c-113 107 -187 174 -244 223 -33 28 -64 55 -70
60 -67 63 -361 262 -522 353 -175 99 -577 282 -621 282 -7 0 -21 4 -31 10 -31
17 -164 57 -329 99 -230 57 -485 96 -703 107 -63 3 -139 7 -168 8 -28 1 -53 2
-55 1z m-651 -298 c-16 -12 -59 -49 -94 -82 -367 -340 -461 -872 -233 -1323
65 -129 205 -298 316 -381 l30 -22 -40 6 c-67 11 -86 15 -149 31 -34 8 -70 17
-82 19 -43 10 -283 89 -379 125 -401 153 -842 423 -1125 688 l-45 42 35 33
c405 370 937 661 1480 811 101 28 215 55 265 63 17 3 32 7 34 9 2 2 7 4 10 3
3 0 -7 -10 -23 -22z m1517 -28 c430 -106 858 -300 1227 -557 105 -73 282 -214
345 -274 l40 -38 -55 -50 c-30 -27 -64 -57 -75 -67 -66 -61 -274 -211 -405
-295 -207 -131 -477 -262 -725 -351 -98 -35 -320 -102 -373 -112 -15 -3 -65
-14 -112 -24 l-85 -19 35 27 c70 52 179 164 233 239 286 397 280 932 -14 1322
-55 72 -167 186 -219 223 l-25 17 45 -6 c25 -3 98 -19 163 -35z m-631 -3 c395
-100 671 -454 672 -861 0 -177 -32 -295 -125 -465 -28 -51 -98 -137 -155 -191
-248 -234 -604 -306 -924 -187 -267 99 -476 323 -549 589 -119 426 72 856 465
1053 185 92 409 115 616 62z"/>
<path d="M3421 4100 c-9 -5 -14 -38 -27 -150 -3 -30 -7 -66 -10 -80 -23 -144
-23 -679 1 -870 2 -19 6 -57 9 -85 9 -84 18 -140 23 -145 3 -3 51 -5 108 -6
l103 0 12 80 c30 219 35 302 35 586 0 296 -9 442 -40 640 l-6 35 -100 0 c-55
1 -104 -2 -108 -5z"/>
</g>
</svg>
