<?xml version="1.0" encoding="utf-8" standalone="no"?>
<!DOCTYPE svg PUBLIC "-//W3C//DTD SVG 1.1//EN"
  "http://www.w3.org/Graphics/SVG/1.1/DTD/svg11.dtd">
<!-- Created with matplotlib (https://matplotlib.org/) -->
<svg height="608.834375pt" version="1.1" viewBox="0 0 1201.4225 608.834375" width="1201.4225pt" xmlns="http://www.w3.org/2000/svg" xmlns:xlink="http://www.w3.org/1999/xlink">
 <metadata>
  <rdf:RDF xmlns:cc="http://creativecommons.org/ns#" xmlns:dc="http://purl.org/dc/elements/1.1/" xmlns:rdf="http://www.w3.org/1999/02/22-rdf-syntax-ns#">
   <cc:Work>
    <dc:type rdf:resource="http://purl.org/dc/dcmitype/StillImage"/>
    <dc:date>2021-07-09T19:47:14.261574</dc:date>
    <dc:format>image/svg+xml</dc:format>
    <dc:creator>
     <cc:Agent>
      <dc:title>Matplotlib v3.3.3, https://matplotlib.org/</dc:title>
     </cc:Agent>
    </dc:creator>
   </cc:Work>
  </rdf:RDF>
 </metadata>
 <defs>
  <style type="text/css">*{stroke-linecap:butt;stroke-linejoin:round;}</style>
 </defs>
 <g id="figure_1">
  <g id="patch_1">
   <path d="M 0 608.834375 
L 1201.4225 608.834375 
L 1201.4225 0 
L 0 0 
z
" style="fill:none;"/>
  </g>
  <g id="axes_1">
   <g id="patch_2">
    <path d="M 78.2225 561.6 
L 1194.2225 561.6 
L 1194.2225 7.2 
L 78.2225 7.2 
z
" style="fill:none;"/>
   </g>
   <g id="matplotlib.axis_1">
    <g id="xtick_1">
     <g id="line2d_1">
      <defs>
       <path d="M 0 0 
L 0 3.5 
" id="m1816a6e8f9" style="stroke:#000000;stroke-width:0.8;"/>
      </defs>
      <g>
       <use style="stroke:#000000;stroke-width:0.8;" x="128.949773" xlink:href="#m1816a6e8f9" y="561.6"/>
      </g>
     </g>
     <g id="text_1">
      <!-- 0 -->
      <g transform="translate(124.496023 579.237813)scale(0.14 -0.14)">
       <defs>
        <path d="M 31.78125 66.40625 
Q 24.171875 66.40625 20.328125 58.90625 
Q 16.5 51.421875 16.5 36.375 
Q 16.5 21.390625 20.328125 13.890625 
Q 24.171875 6.390625 31.78125 6.390625 
Q 39.453125 6.390625 43.28125 13.890625 
Q 47.125 21.390625 47.125 36.375 
Q 47.125 51.421875 43.28125 58.90625 
Q 39.453125 66.40625 31.78125 66.40625 
z
M 31.78125 74.21875 
Q 44.046875 74.21875 50.515625 64.515625 
Q 56.984375 54.828125 56.984375 36.375 
Q 56.984375 17.96875 50.515625 8.265625 
Q 44.046875 -1.421875 31.78125 -1.421875 
Q 19.53125 -1.421875 13.0625 8.265625 
Q 6.59375 17.96875 6.59375 36.375 
Q 6.59375 54.828125 13.0625 64.515625 
Q 19.53125 74.21875 31.78125 74.21875 
z
" id="DejaVuSans-48"/>
       </defs>
       <use xlink:href="#DejaVuSans-48"/>
      </g>
     </g>
    </g>
    <g id="xtick_2">
     <g id="line2d_2">
      <g>
       <use style="stroke:#000000;stroke-width:0.8;" x="331.858864" xlink:href="#m1816a6e8f9" y="561.6"/>
      </g>
     </g>
     <g id="text_2">
      <!-- 2000 -->
      <g transform="translate(314.043864 579.237813)scale(0.14 -0.14)">
       <defs>
        <path d="M 19.1875 8.296875 
L 53.609375 8.296875 
L 53.609375 0 
L 7.328125 0 
L 7.328125 8.296875 
Q 12.9375 14.109375 22.625 23.890625 
Q 32.328125 33.6875 34.8125 36.53125 
Q 39.546875 41.84375 41.421875 45.53125 
Q 43.3125 49.21875 43.3125 52.78125 
Q 43.3125 58.59375 39.234375 62.25 
Q 35.15625 65.921875 28.609375 65.921875 
Q 23.96875 65.921875 18.8125 64.3125 
Q 13.671875 62.703125 7.8125 59.421875 
L 7.8125 69.390625 
Q 13.765625 71.78125 18.9375 73 
Q 24.125 74.21875 28.421875 74.21875 
Q 39.75 74.21875 46.484375 68.546875 
Q 53.21875 62.890625 53.21875 53.421875 
Q 53.21875 48.921875 51.53125 44.890625 
Q 49.859375 40.875 45.40625 35.40625 
Q 44.1875 33.984375 37.640625 27.21875 
Q 31.109375 20.453125 19.1875 8.296875 
z
" id="DejaVuSans-50"/>
       </defs>
       <use xlink:href="#DejaVuSans-50"/>
       <use x="63.623047" xlink:href="#DejaVuSans-48"/>
       <use x="127.246094" xlink:href="#DejaVuSans-48"/>
       <use x="190.869141" xlink:href="#DejaVuSans-48"/>
      </g>
     </g>
    </g>
    <g id="xtick_3">
     <g id="line2d_3">
      <g>
       <use style="stroke:#000000;stroke-width:0.8;" x="534.767955" xlink:href="#m1816a6e8f9" y="561.6"/>
      </g>
     </g>
     <g id="text_3">
      <!-- 4000 -->
      <g transform="translate(516.952955 579.237813)scale(0.14 -0.14)">
       <defs>
        <path d="M 37.796875 64.3125 
L 12.890625 25.390625 
L 37.796875 25.390625 
z
M 35.203125 72.90625 
L 47.609375 72.90625 
L 47.609375 25.390625 
L 58.015625 25.390625 
L 58.015625 17.1875 
L 47.609375 17.1875 
L 47.609375 0 
L 37.796875 0 
L 37.796875 17.1875 
L 4.890625 17.1875 
L 4.890625 26.703125 
z
" id="DejaVuSans-52"/>
       </defs>
       <use xlink:href="#DejaVuSans-52"/>
       <use x="63.623047" xlink:href="#DejaVuSans-48"/>
       <use x="127.246094" xlink:href="#DejaVuSans-48"/>
       <use x="190.869141" xlink:href="#DejaVuSans-48"/>
      </g>
     </g>
    </g>
    <g id="xtick_4">
     <g id="line2d_4">
      <g>
       <use style="stroke:#000000;stroke-width:0.8;" x="737.677045" xlink:href="#m1816a6e8f9" y="561.6"/>
      </g>
     </g>
     <g id="text_4">
      <!-- 6000 -->
      <g transform="translate(719.862045 579.237813)scale(0.14 -0.14)">
       <defs>
        <path d="M 33.015625 40.375 
Q 26.375 40.375 22.484375 35.828125 
Q 18.609375 31.296875 18.609375 23.390625 
Q 18.609375 15.53125 22.484375 10.953125 
Q 26.375 6.390625 33.015625 6.390625 
Q 39.65625 6.390625 43.53125 10.953125 
Q 47.40625 15.53125 47.40625 23.390625 
Q 47.40625 31.296875 43.53125 35.828125 
Q 39.65625 40.375 33.015625 40.375 
z
M 52.59375 71.296875 
L 52.59375 62.3125 
Q 48.875 64.0625 45.09375 64.984375 
Q 41.3125 65.921875 37.59375 65.921875 
Q 27.828125 65.921875 22.671875 59.328125 
Q 17.53125 52.734375 16.796875 39.40625 
Q 19.671875 43.65625 24.015625 45.921875 
Q 28.375 48.1875 33.59375 48.1875 
Q 44.578125 48.1875 50.953125 41.515625 
Q 57.328125 34.859375 57.328125 23.390625 
Q 57.328125 12.15625 50.6875 5.359375 
Q 44.046875 -1.421875 33.015625 -1.421875 
Q 20.359375 -1.421875 13.671875 8.265625 
Q 6.984375 17.96875 6.984375 36.375 
Q 6.984375 53.65625 15.1875 63.9375 
Q 23.390625 74.21875 37.203125 74.21875 
Q 40.921875 74.21875 44.703125 73.484375 
Q 48.484375 72.75 52.59375 71.296875 
z
" id="DejaVuSans-54"/>
       </defs>
       <use xlink:href="#DejaVuSans-54"/>
       <use x="63.623047" xlink:href="#DejaVuSans-48"/>
       <use x="127.246094" xlink:href="#DejaVuSans-48"/>
       <use x="190.869141" xlink:href="#DejaVuSans-48"/>
      </g>
     </g>
    </g>
    <g id="xtick_5">
     <g id="line2d_5">
      <g>
       <use style="stroke:#000000;stroke-width:0.8;" x="940.586136" xlink:href="#m1816a6e8f9" y="561.6"/>
      </g>
     </g>
     <g id="text_5">
      <!-- 8000 -->
      <g transform="translate(922.771136 579.237813)scale(0.14 -0.14)">
       <defs>
        <path d="M 31.78125 34.625 
Q 24.75 34.625 20.71875 30.859375 
Q 16.703125 27.09375 16.703125 20.515625 
Q 16.703125 13.921875 20.71875 10.15625 
Q 24.75 6.390625 31.78125 6.390625 
Q 38.8125 6.390625 42.859375 10.171875 
Q 46.921875 13.96875 46.921875 20.515625 
Q 46.921875 27.09375 42.890625 30.859375 
Q 38.875 34.625 31.78125 34.625 
z
M 21.921875 38.8125 
Q 15.578125 40.375 12.03125 44.71875 
Q 8.5 49.078125 8.5 55.328125 
Q 8.5 64.0625 14.71875 69.140625 
Q 20.953125 74.21875 31.78125 74.21875 
Q 42.671875 74.21875 48.875 69.140625 
Q 55.078125 64.0625 55.078125 55.328125 
Q 55.078125 49.078125 51.53125 44.71875 
Q 48 40.375 41.703125 38.8125 
Q 48.828125 37.15625 52.796875 32.3125 
Q 56.78125 27.484375 56.78125 20.515625 
Q 56.78125 9.90625 50.3125 4.234375 
Q 43.84375 -1.421875 31.78125 -1.421875 
Q 19.734375 -1.421875 13.25 4.234375 
Q 6.78125 9.90625 6.78125 20.515625 
Q 6.78125 27.484375 10.78125 32.3125 
Q 14.796875 37.15625 21.921875 38.8125 
z
M 18.3125 54.390625 
Q 18.3125 48.734375 21.84375 45.5625 
Q 25.390625 42.390625 31.78125 42.390625 
Q 38.140625 42.390625 41.71875 45.5625 
Q 45.3125 48.734375 45.3125 54.390625 
Q 45.3125 60.0625 41.71875 63.234375 
Q 38.140625 66.40625 31.78125 66.40625 
Q 25.390625 66.40625 21.84375 63.234375 
Q 18.3125 60.0625 18.3125 54.390625 
z
" id="DejaVuSans-56"/>
       </defs>
       <use xlink:href="#DejaVuSans-56"/>
       <use x="63.623047" xlink:href="#DejaVuSans-48"/>
       <use x="127.246094" xlink:href="#DejaVuSans-48"/>
       <use x="190.869141" xlink:href="#DejaVuSans-48"/>
      </g>
     </g>
    </g>
    <g id="xtick_6">
     <g id="line2d_6">
      <g>
       <use style="stroke:#000000;stroke-width:0.8;" x="1143.495227" xlink:href="#m1816a6e8f9" y="561.6"/>
      </g>
     </g>
     <g id="text_6">
      <!-- 10000 -->
      <g transform="translate(1121.226477 579.237813)scale(0.14 -0.14)">
       <defs>
        <path d="M 12.40625 8.296875 
L 28.515625 8.296875 
L 28.515625 63.921875 
L 10.984375 60.40625 
L 10.984375 69.390625 
L 28.421875 72.90625 
L 38.28125 72.90625 
L 38.28125 8.296875 
L 54.390625 8.296875 
L 54.390625 0 
L 12.40625 0 
z
" id="DejaVuSans-49"/>
       </defs>
       <use xlink:href="#DejaVuSans-49"/>
       <use x="63.623047" xlink:href="#DejaVuSans-48"/>
       <use x="127.246094" xlink:href="#DejaVuSans-48"/>
       <use x="190.869141" xlink:href="#DejaVuSans-48"/>
       <use x="254.492188" xlink:href="#DejaVuSans-48"/>
      </g>
     </g>
    </g>
    <g id="text_7">
     <!-- Input nanosecond delay -->
     <g transform="translate(540.09125 598.306875)scale(0.16 -0.16)">
      <defs>
       <path d="M 9.8125 72.90625 
L 19.671875 72.90625 
L 19.671875 0 
L 9.8125 0 
z
" id="DejaVuSans-73"/>
       <path d="M 54.890625 33.015625 
L 54.890625 0 
L 45.90625 0 
L 45.90625 32.71875 
Q 45.90625 40.484375 42.875 44.328125 
Q 39.84375 48.1875 33.796875 48.1875 
Q 26.515625 48.1875 22.3125 43.546875 
Q 18.109375 38.921875 18.109375 30.90625 
L 18.109375 0 
L 9.078125 0 
L 9.078125 54.6875 
L 18.109375 54.6875 
L 18.109375 46.1875 
Q 21.34375 51.125 25.703125 53.5625 
Q 30.078125 56 35.796875 56 
Q 45.21875 56 50.046875 50.171875 
Q 54.890625 44.34375 54.890625 33.015625 
z
" id="DejaVuSans-110"/>
       <path d="M 18.109375 8.203125 
L 18.109375 -20.796875 
L 9.078125 -20.796875 
L 9.078125 54.6875 
L 18.109375 54.6875 
L 18.109375 46.390625 
Q 20.953125 51.265625 25.265625 53.625 
Q 29.59375 56 35.59375 56 
Q 45.5625 56 51.78125 48.09375 
Q 58.015625 40.1875 58.015625 27.296875 
Q 58.015625 14.40625 51.78125 6.484375 
Q 45.5625 -1.421875 35.59375 -1.421875 
Q 29.59375 -1.421875 25.265625 0.953125 
Q 20.953125 3.328125 18.109375 8.203125 
z
M 48.6875 27.296875 
Q 48.6875 37.203125 44.609375 42.84375 
Q 40.53125 48.484375 33.40625 48.484375 
Q 26.265625 48.484375 22.1875 42.84375 
Q 18.109375 37.203125 18.109375 27.296875 
Q 18.109375 17.390625 22.1875 11.75 
Q 26.265625 6.109375 33.40625 6.109375 
Q 40.53125 6.109375 44.609375 11.75 
Q 48.6875 17.390625 48.6875 27.296875 
z
" id="DejaVuSans-112"/>
       <path d="M 8.5 21.578125 
L 8.5 54.6875 
L 17.484375 54.6875 
L 17.484375 21.921875 
Q 17.484375 14.15625 20.5 10.265625 
Q 23.53125 6.390625 29.59375 6.390625 
Q 36.859375 6.390625 41.078125 11.03125 
Q 45.3125 15.671875 45.3125 23.6875 
L 45.3125 54.6875 
L 54.296875 54.6875 
L 54.296875 0 
L 45.3125 0 
L 45.3125 8.40625 
Q 42.046875 3.421875 37.71875 1 
Q 33.40625 -1.421875 27.6875 -1.421875 
Q 18.265625 -1.421875 13.375 4.4375 
Q 8.5 10.296875 8.5 21.578125 
z
M 31.109375 56 
z
" id="DejaVuSans-117"/>
       <path d="M 18.3125 70.21875 
L 18.3125 54.6875 
L 36.8125 54.6875 
L 36.8125 47.703125 
L 18.3125 47.703125 
L 18.3125 18.015625 
Q 18.3125 11.328125 20.140625 9.421875 
Q 21.96875 7.515625 27.59375 7.515625 
L 36.8125 7.515625 
L 36.8125 0 
L 27.59375 0 
Q 17.1875 0 13.234375 3.875 
Q 9.28125 7.765625 9.28125 18.015625 
L 9.28125 47.703125 
L 2.6875 47.703125 
L 2.6875 54.6875 
L 9.28125 54.6875 
L 9.28125 70.21875 
z
" id="DejaVuSans-116"/>
       <path id="DejaVuSans-32"/>
       <path d="M 34.28125 27.484375 
Q 23.390625 27.484375 19.1875 25 
Q 14.984375 22.515625 14.984375 16.5 
Q 14.984375 11.71875 18.140625 8.90625 
Q 21.296875 6.109375 26.703125 6.109375 
Q 34.1875 6.109375 38.703125 11.40625 
Q 43.21875 16.703125 43.21875 25.484375 
L 43.21875 27.484375 
z
M 52.203125 31.203125 
L 52.203125 0 
L 43.21875 0 
L 43.21875 8.296875 
Q 40.140625 3.328125 35.546875 0.953125 
Q 30.953125 -1.421875 24.3125 -1.421875 
Q 15.921875 -1.421875 10.953125 3.296875 
Q 6 8.015625 6 15.921875 
Q 6 25.140625 12.171875 29.828125 
Q 18.359375 34.515625 30.609375 34.515625 
L 43.21875 34.515625 
L 43.21875 35.40625 
Q 43.21875 41.609375 39.140625 45 
Q 35.0625 48.390625 27.6875 48.390625 
Q 23 48.390625 18.546875 47.265625 
Q 14.109375 46.140625 10.015625 43.890625 
L 10.015625 52.203125 
Q 14.9375 54.109375 19.578125 55.046875 
Q 24.21875 56 28.609375 56 
Q 40.484375 56 46.34375 49.84375 
Q 52.203125 43.703125 52.203125 31.203125 
z
" id="DejaVuSans-97"/>
       <path d="M 30.609375 48.390625 
Q 23.390625 48.390625 19.1875 42.75 
Q 14.984375 37.109375 14.984375 27.296875 
Q 14.984375 17.484375 19.15625 11.84375 
Q 23.34375 6.203125 30.609375 6.203125 
Q 37.796875 6.203125 41.984375 11.859375 
Q 46.1875 17.53125 46.1875 27.296875 
Q 46.1875 37.015625 41.984375 42.703125 
Q 37.796875 48.390625 30.609375 48.390625 
z
M 30.609375 56 
Q 42.328125 56 49.015625 48.375 
Q 55.71875 40.765625 55.71875 27.296875 
Q 55.71875 13.875 49.015625 6.21875 
Q 42.328125 -1.421875 30.609375 -1.421875 
Q 18.84375 -1.421875 12.171875 6.21875 
Q 5.515625 13.875 5.515625 27.296875 
Q 5.515625 40.765625 12.171875 48.375 
Q 18.84375 56 30.609375 56 
z
" id="DejaVuSans-111"/>
       <path d="M 44.28125 53.078125 
L 44.28125 44.578125 
Q 40.484375 46.53125 36.375 47.5 
Q 32.28125 48.484375 27.875 48.484375 
Q 21.1875 48.484375 17.84375 46.4375 
Q 14.5 44.390625 14.5 40.28125 
Q 14.5 37.15625 16.890625 35.375 
Q 19.28125 33.59375 26.515625 31.984375 
L 29.59375 31.296875 
Q 39.15625 29.25 43.1875 25.515625 
Q 47.21875 21.78125 47.21875 15.09375 
Q 47.21875 7.46875 41.1875 3.015625 
Q 35.15625 -1.421875 24.609375 -1.421875 
Q 20.21875 -1.421875 15.453125 -0.5625 
Q 10.6875 0.296875 5.421875 2 
L 5.421875 11.28125 
Q 10.40625 8.6875 15.234375 7.390625 
Q 20.0625 6.109375 24.8125 6.109375 
Q 31.15625 6.109375 34.5625 8.28125 
Q 37.984375 10.453125 37.984375 14.40625 
Q 37.984375 18.0625 35.515625 20.015625 
Q 33.0625 21.96875 24.703125 23.78125 
L 21.578125 24.515625 
Q 13.234375 26.265625 9.515625 29.90625 
Q 5.8125 33.546875 5.8125 39.890625 
Q 5.8125 47.609375 11.28125 51.796875 
Q 16.75 56 26.8125 56 
Q 31.78125 56 36.171875 55.265625 
Q 40.578125 54.546875 44.28125 53.078125 
z
" id="DejaVuSans-115"/>
       <path d="M 56.203125 29.59375 
L 56.203125 25.203125 
L 14.890625 25.203125 
Q 15.484375 15.921875 20.484375 11.0625 
Q 25.484375 6.203125 34.421875 6.203125 
Q 39.59375 6.203125 44.453125 7.46875 
Q 49.3125 8.734375 54.109375 11.28125 
L 54.109375 2.78125 
Q 49.265625 0.734375 44.1875 -0.34375 
Q 39.109375 -1.421875 33.890625 -1.421875 
Q 20.796875 -1.421875 13.15625 6.1875 
Q 5.515625 13.8125 5.515625 26.8125 
Q 5.515625 40.234375 12.765625 48.109375 
Q 20.015625 56 32.328125 56 
Q 43.359375 56 49.78125 48.890625 
Q 56.203125 41.796875 56.203125 29.59375 
z
M 47.21875 32.234375 
Q 47.125 39.59375 43.09375 43.984375 
Q 39.0625 48.390625 32.421875 48.390625 
Q 24.90625 48.390625 20.390625 44.140625 
Q 15.875 39.890625 15.1875 32.171875 
z
" id="DejaVuSans-101"/>
       <path d="M 48.78125 52.59375 
L 48.78125 44.1875 
Q 44.96875 46.296875 41.140625 47.34375 
Q 37.3125 48.390625 33.40625 48.390625 
Q 24.65625 48.390625 19.8125 42.84375 
Q 14.984375 37.3125 14.984375 27.296875 
Q 14.984375 17.28125 19.8125 11.734375 
Q 24.65625 6.203125 33.40625 6.203125 
Q 37.3125 6.203125 41.140625 7.25 
Q 44.96875 8.296875 48.78125 10.40625 
L 48.78125 2.09375 
Q 45.015625 0.34375 40.984375 -0.53125 
Q 36.96875 -1.421875 32.421875 -1.421875 
Q 20.0625 -1.421875 12.78125 6.34375 
Q 5.515625 14.109375 5.515625 27.296875 
Q 5.515625 40.671875 12.859375 48.328125 
Q 20.21875 56 33.015625 56 
Q 37.15625 56 41.109375 55.140625 
Q 45.0625 54.296875 48.78125 52.59375 
z
" id="DejaVuSans-99"/>
       <path d="M 45.40625 46.390625 
L 45.40625 75.984375 
L 54.390625 75.984375 
L 54.390625 0 
L 45.40625 0 
L 45.40625 8.203125 
Q 42.578125 3.328125 38.25 0.953125 
Q 33.9375 -1.421875 27.875 -1.421875 
Q 17.96875 -1.421875 11.734375 6.484375 
Q 5.515625 14.40625 5.515625 27.296875 
Q 5.515625 40.1875 11.734375 48.09375 
Q 17.96875 56 27.875 56 
Q 33.9375 56 38.25 53.625 
Q 42.578125 51.265625 45.40625 46.390625 
z
M 14.796875 27.296875 
Q 14.796875 17.390625 18.875 11.75 
Q 22.953125 6.109375 30.078125 6.109375 
Q 37.203125 6.109375 41.296875 11.75 
Q 45.40625 17.390625 45.40625 27.296875 
Q 45.40625 37.203125 41.296875 42.84375 
Q 37.203125 48.484375 30.078125 48.484375 
Q 22.953125 48.484375 18.875 42.84375 
Q 14.796875 37.203125 14.796875 27.296875 
z
" id="DejaVuSans-100"/>
       <path d="M 9.421875 75.984375 
L 18.40625 75.984375 
L 18.40625 0 
L 9.421875 0 
z
" id="DejaVuSans-108"/>
       <path d="M 32.171875 -5.078125 
Q 28.375 -14.84375 24.75 -17.8125 
Q 21.140625 -20.796875 15.09375 -20.796875 
L 7.90625 -20.796875 
L 7.90625 -13.28125 
L 13.1875 -13.28125 
Q 16.890625 -13.28125 18.9375 -11.515625 
Q 21 -9.765625 23.484375 -3.21875 
L 25.09375 0.875 
L 2.984375 54.6875 
L 12.5 54.6875 
L 29.59375 11.921875 
L 46.6875 54.6875 
L 56.203125 54.6875 
z
" id="DejaVuSans-121"/>
      </defs>
      <use xlink:href="#DejaVuSans-73"/>
      <use x="29.492188" xlink:href="#DejaVuSans-110"/>
      <use x="92.871094" xlink:href="#DejaVuSans-112"/>
      <use x="156.347656" xlink:href="#DejaVuSans-117"/>
      <use x="219.726562" xlink:href="#DejaVuSans-116"/>
      <use x="258.935547" xlink:href="#DejaVuSans-32"/>
      <use x="290.722656" xlink:href="#DejaVuSans-110"/>
      <use x="354.101562" xlink:href="#DejaVuSans-97"/>
      <use x="415.380859" xlink:href="#DejaVuSans-110"/>
      <use x="478.759766" xlink:href="#DejaVuSans-111"/>
      <use x="539.941406" xlink:href="#DejaVuSans-115"/>
      <use x="592.041016" xlink:href="#DejaVuSans-101"/>
      <use x="653.564453" xlink:href="#DejaVuSans-99"/>
      <use x="708.544922" xlink:href="#DejaVuSans-111"/>
      <use x="769.726562" xlink:href="#DejaVuSans-110"/>
      <use x="833.105469" xlink:href="#DejaVuSans-100"/>
      <use x="896.582031" xlink:href="#DejaVuSans-32"/>
      <use x="928.369141" xlink:href="#DejaVuSans-100"/>
      <use x="991.845703" xlink:href="#DejaVuSans-101"/>
      <use x="1053.369141" xlink:href="#DejaVuSans-108"/>
      <use x="1081.152344" xlink:href="#DejaVuSans-97"/>
      <use x="1142.431641" xlink:href="#DejaVuSans-121"/>
     </g>
    </g>
   </g>
   <g id="matplotlib.axis_2">
    <g id="ytick_1">
     <g id="line2d_7">
      <defs>
       <path d="M 0 0 
L -3.5 0 
" id="m039db02527" style="stroke:#000000;stroke-width:0.8;"/>
      </defs>
      <g>
       <use style="stroke:#000000;stroke-width:0.8;" x="78.2225" xlink:href="#m039db02527" y="536.4"/>
      </g>
     </g>
     <g id="text_8">
      <!-- 0 -->
      <g transform="translate(62.315 541.718906)scale(0.14 -0.14)">
       <use xlink:href="#DejaVuSans-48"/>
      </g>
     </g>
    </g>
    <g id="ytick_2">
     <g id="line2d_8">
      <g>
       <use style="stroke:#000000;stroke-width:0.8;" x="78.2225" xlink:href="#m039db02527" y="442.632558"/>
      </g>
     </g>
     <g id="text_9">
      <!-- 2000 -->
      <g transform="translate(35.5925 447.951464)scale(0.14 -0.14)">
       <use xlink:href="#DejaVuSans-50"/>
       <use x="63.623047" xlink:href="#DejaVuSans-48"/>
       <use x="127.246094" xlink:href="#DejaVuSans-48"/>
       <use x="190.869141" xlink:href="#DejaVuSans-48"/>
      </g>
     </g>
    </g>
    <g id="ytick_3">
     <g id="line2d_9">
      <g>
       <use style="stroke:#000000;stroke-width:0.8;" x="78.2225" xlink:href="#m039db02527" y="348.865116"/>
      </g>
     </g>
     <g id="text_10">
      <!-- 4000 -->
      <g transform="translate(35.5925 354.184023)scale(0.14 -0.14)">
       <use xlink:href="#DejaVuSans-52"/>
       <use x="63.623047" xlink:href="#DejaVuSans-48"/>
       <use x="127.246094" xlink:href="#DejaVuSans-48"/>
       <use x="190.869141" xlink:href="#DejaVuSans-48"/>
      </g>
     </g>
    </g>
    <g id="ytick_4">
     <g id="line2d_10">
      <g>
       <use style="stroke:#000000;stroke-width:0.8;" x="78.2225" xlink:href="#m039db02527" y="255.097674"/>
      </g>
     </g>
     <g id="text_11">
      <!-- 6000 -->
      <g transform="translate(35.5925 260.416581)scale(0.14 -0.14)">
       <use xlink:href="#DejaVuSans-54"/>
       <use x="63.623047" xlink:href="#DejaVuSans-48"/>
       <use x="127.246094" xlink:href="#DejaVuSans-48"/>
       <use x="190.869141" xlink:href="#DejaVuSans-48"/>
      </g>
     </g>
    </g>
    <g id="ytick_5">
     <g id="line2d_11">
      <g>
       <use style="stroke:#000000;stroke-width:0.8;" x="78.2225" xlink:href="#m039db02527" y="161.330233"/>
      </g>
     </g>
     <g id="text_12">
      <!-- 8000 -->
      <g transform="translate(35.5925 166.649139)scale(0.14 -0.14)">
       <use xlink:href="#DejaVuSans-56"/>
       <use x="63.623047" xlink:href="#DejaVuSans-48"/>
       <use x="127.246094" xlink:href="#DejaVuSans-48"/>
       <use x="190.869141" xlink:href="#DejaVuSans-48"/>
      </g>
     </g>
    </g>
    <g id="ytick_6">
     <g id="line2d_12">
      <g>
       <use style="stroke:#000000;stroke-width:0.8;" x="78.2225" xlink:href="#m039db02527" y="67.562791"/>
      </g>
     </g>
     <g id="text_13">
      <!-- 10000 -->
      <g transform="translate(26.685 72.881697)scale(0.14 -0.14)">
       <use xlink:href="#DejaVuSans-49"/>
       <use x="63.623047" xlink:href="#DejaVuSans-48"/>
       <use x="127.246094" xlink:href="#DejaVuSans-48"/>
       <use x="190.869141" xlink:href="#DejaVuSans-48"/>
       <use x="254.492188" xlink:href="#DejaVuSans-48"/>
      </g>
     </g>
    </g>
    <g id="text_14">
     <!-- Measured nanosecond delay -->
     <g transform="translate(19.3575 398.89125)rotate(-90)scale(0.16 -0.16)">
      <defs>
       <path d="M 9.8125 72.90625 
L 24.515625 72.90625 
L 43.109375 23.296875 
L 61.8125 72.90625 
L 76.515625 72.90625 
L 76.515625 0 
L 66.890625 0 
L 66.890625 64.015625 
L 48.09375 14.015625 
L 38.1875 14.015625 
L 19.390625 64.015625 
L 19.390625 0 
L 9.8125 0 
z
" id="DejaVuSans-77"/>
       <path d="M 41.109375 46.296875 
Q 39.59375 47.171875 37.8125 47.578125 
Q 36.03125 48 33.890625 48 
Q 26.265625 48 22.1875 43.046875 
Q 18.109375 38.09375 18.109375 28.8125 
L 18.109375 0 
L 9.078125 0 
L 9.078125 54.6875 
L 18.109375 54.6875 
L 18.109375 46.1875 
Q 20.953125 51.171875 25.484375 53.578125 
Q 30.03125 56 36.53125 56 
Q 37.453125 56 38.578125 55.875 
Q 39.703125 55.765625 41.0625 55.515625 
z
" id="DejaVuSans-114"/>
      </defs>
      <use xlink:href="#DejaVuSans-77"/>
      <use x="86.279297" xlink:href="#DejaVuSans-101"/>
      <use x="147.802734" xlink:href="#DejaVuSans-97"/>
      <use x="209.082031" xlink:href="#DejaVuSans-115"/>
      <use x="261.181641" xlink:href="#DejaVuSans-117"/>
      <use x="324.560547" xlink:href="#DejaVuSans-114"/>
      <use x="363.423828" xlink:href="#DejaVuSans-101"/>
      <use x="424.947266" xlink:href="#DejaVuSans-100"/>
      <use x="488.423828" xlink:href="#DejaVuSans-32"/>
      <use x="520.210938" xlink:href="#DejaVuSans-110"/>
      <use x="583.589844" xlink:href="#DejaVuSans-97"/>
      <use x="644.869141" xlink:href="#DejaVuSans-110"/>
      <use x="708.248047" xlink:href="#DejaVuSans-111"/>
      <use x="769.429688" xlink:href="#DejaVuSans-115"/>
      <use x="821.529297" xlink:href="#DejaVuSans-101"/>
      <use x="883.052734" xlink:href="#DejaVuSans-99"/>
      <use x="938.033203" xlink:href="#DejaVuSans-111"/>
      <use x="999.214844" xlink:href="#DejaVuSans-110"/>
      <use x="1062.59375" xlink:href="#DejaVuSans-100"/>
      <use x="1126.070312" xlink:href="#DejaVuSans-32"/>
      <use x="1157.857422" xlink:href="#DejaVuSans-100"/>
      <use x="1221.333984" xlink:href="#DejaVuSans-101"/>
      <use x="1282.857422" xlink:href="#DejaVuSans-108"/>
      <use x="1310.640625" xlink:href="#DejaVuSans-97"/>
      <use x="1371.919922" xlink:href="#DejaVuSans-121"/>
     </g>
    </g>
   </g>
   <g id="line2d_13">
    <path clip-path="url(#p9a236b391c)" d="M 78.2225 559.84186 
L 1194.2225 44.12093 
" style="fill:none;stroke:#808080;stroke-linecap:square;stroke-width:1.5;"/>
   </g>
   <g id="line2d_14">
    <path clip-path="url(#p9a236b391c)" d="M 128.949773 460.213953 
L 318.669773 460.213953 
L 319.684318 442.632558 
L 356.207955 442.632558 
L 357.2225 425.051163 
L 394.760682 425.051163 
L 395.775227 407.469767 
L 432.298864 407.469767 
L 433.313409 389.888372 
L 470.851591 389.888372 
L 471.866136 372.306977 
L 508.389773 372.306977 
L 509.404318 354.725581 
L 546.9425 354.725581 
L 547.957045 337.144186 
L 584.480682 337.144186 
L 585.495227 319.562791 
L 623.033409 319.562791 
L 624.047955 301.981395 
L 660.571591 301.981395 
L 661.586136 284.4 
L 699.124318 284.4 
L 700.138864 266.818605 
L 736.6625 266.818605 
L 737.677045 249.237209 
L 775.215227 249.237209 
L 776.229773 231.655814 
L 812.753409 231.655814 
L 813.767955 214.074419 
L 851.306136 214.074419 
L 852.320682 196.493023 
L 888.844318 196.493023 
L 889.858864 178.911628 
L 927.397045 178.911628 
L 928.411591 161.330233 
L 964.935227 161.330233 
L 965.949773 143.748837 
L 1003.487955 143.748837 
L 1004.5025 126.167442 
L 1041.026136 126.167442 
L 1042.040682 108.586047 
L 1079.578864 108.586047 
L 1080.593409 91.004651 
L 1117.117045 91.004651 
L 1118.131591 73.423256 
L 1143.495227 73.423256 
L 1143.495227 73.423256 
" style="fill:none;stroke:#1f77b4;stroke-linecap:square;stroke-width:1.5;"/>
   </g>
   <g id="line2d_15">
    <path clip-path="url(#p9a236b391c)" d="M 128.949773 442.632558 
L 381.571591 442.632558 
L 382.586136 419.190698 
L 432.298864 419.190698 
L 433.313409 395.748837 
L 483.026136 395.748837 
L 484.040682 372.306977 
L 533.753409 372.306977 
L 534.767955 348.865116 
L 584.480682 348.865116 
L 585.495227 325.423256 
L 635.207955 325.423256 
L 636.2225 301.981395 
L 685.935227 301.981395 
L 686.949773 278.539535 
L 736.6625 278.539535 
L 737.677045 255.097674 
L 787.389773 255.097674 
L 788.404318 231.655814 
L 838.117045 231.655814 
L 839.131591 208.213953 
L 888.844318 208.213953 
L 889.858864 184.772093 
L 939.571591 184.772093 
L 940.586136 161.330233 
L 990.298864 161.330233 
L 991.313409 137.888372 
L 1041.026136 137.888372 
L 1042.040682 114.446512 
L 1091.753409 114.446512 
L 1092.767955 91.004651 
L 1142.480682 91.004651 
L 1143.495227 67.562791 
L 1143.495227 67.562791 
" style="fill:none;stroke:#ff7f0e;stroke-linecap:square;stroke-width:1.5;"/>
   </g>
   <g id="line2d_16">
    <path clip-path="url(#p9a236b391c)" d="M 128.949773 483.655814 
L 254.753409 483.655814 
L 255.767955 471.934884 
L 280.117045 471.934884 
L 281.131591 460.213953 
L 305.480682 460.213953 
L 306.495227 448.493023 
L 330.844318 448.493023 
L 331.858864 436.772093 
L 356.207955 436.772093 
L 357.2225 425.051163 
L 381.571591 425.051163 
L 382.586136 413.330233 
L 406.935227 413.330233 
L 407.949773 401.609302 
L 432.298864 401.609302 
L 433.313409 389.888372 
L 457.6625 389.888372 
L 458.677045 378.167442 
L 483.026136 378.167442 
L 484.040682 366.446512 
L 508.389773 366.446512 
L 509.404318 354.725581 
L 533.753409 354.725581 
L 534.767955 343.004651 
L 559.117045 343.004651 
L 560.131591 331.283721 
L 584.480682 331.283721 
L 585.495227 319.562791 
L 609.844318 319.562791 
L 610.858864 307.84186 
L 635.207955 307.84186 
L 636.2225 296.12093 
L 660.571591 296.12093 
L 661.586136 284.4 
L 685.935227 284.4 
L 686.949773 272.67907 
L 711.298864 272.67907 
L 712.313409 260.95814 
L 736.6625 260.95814 
L 737.677045 249.237209 
L 762.026136 249.237209 
L 763.040682 237.516279 
L 787.389773 237.516279 
L 788.404318 225.795349 
L 812.753409 225.795349 
L 813.767955 214.074419 
L 838.117045 214.074419 
L 839.131591 202.353488 
L 863.480682 202.353488 
L 864.495227 190.632558 
L 888.844318 190.632558 
L 889.858864 178.911628 
L 914.207955 178.911628 
L 915.2225 167.190698 
L 939.571591 167.190698 
L 940.586136 155.469767 
L 964.935227 155.469767 
L 965.949773 143.748837 
L 990.298864 143.748837 
L 991.313409 132.027907 
L 1015.6625 132.027907 
L 1016.677045 120.306977 
L 1041.026136 120.306977 
L 1042.040682 108.586047 
L 1066.389773 108.586047 
L 1067.404318 96.865116 
L 1091.753409 96.865116 
L 1092.767955 85.144186 
L 1117.117045 85.144186 
L 1118.131591 73.423256 
L 1142.480682 73.423256 
L 1143.495227 61.702326 
L 1143.495227 61.702326 
" style="fill:none;stroke:#2ca02c;stroke-linecap:square;stroke-width:1.5;"/>
   </g>
   <g id="line2d_17">
    <path clip-path="url(#p9a236b391c)" d="M 128.949773 521.016279 
L 181.706136 521.016279 
L 182.720682 518.086047 
L 183.735227 518.086047 
L 184.749773 515.155814 
L 185.764318 514.423256 
L 186.778864 514.423256 
L 187.793409 513.690698 
L 188.807955 513.690698 
L 189.8225 516.62093 
L 190.837045 507.830233 
L 191.851591 507.830233 
L 193.880682 506.365116 
L 194.895227 506.365116 
L 195.909773 505.632558 
L 196.924318 505.632558 
L 198.953409 504.167442 
L 199.967955 504.167442 
L 201.997045 502.702326 
L 203.011591 502.702326 
L 204.026136 501.969767 
L 205.040682 501.969767 
L 207.069773 500.504651 
L 208.084318 500.504651 
L 210.113409 499.039535 
L 211.127955 499.039535 
L 212.1425 498.306977 
L 213.157045 498.306977 
L 215.186136 496.84186 
L 216.200682 496.84186 
L 218.229773 495.376744 
L 219.244318 495.376744 
L 220.258864 494.644186 
L 221.273409 494.644186 
L 223.3025 493.17907 
L 224.317045 493.17907 
L 226.346136 491.713953 
L 227.360682 491.713953 
L 228.375227 490.981395 
L 229.389773 490.981395 
L 231.418864 489.516279 
L 232.433409 489.516279 
L 234.4625 488.051163 
L 235.477045 488.051163 
L 236.491591 487.318605 
L 237.506136 487.318605 
L 239.535227 485.853488 
L 240.549773 485.853488 
L 242.578864 484.388372 
L 243.593409 484.388372 
L 244.607955 483.655814 
L 245.6225 483.655814 
L 247.651591 482.190698 
L 248.666136 482.190698 
L 250.695227 480.725581 
L 251.709773 480.725581 
L 252.724318 479.993023 
L 253.738864 479.993023 
L 255.767955 478.527907 
L 256.7825 478.527907 
L 258.811591 477.062791 
L 259.826136 477.062791 
L 260.840682 476.330233 
L 261.855227 476.330233 
L 263.884318 474.865116 
L 264.898864 474.865116 
L 266.927955 473.4 
L 267.9425 473.4 
L 268.957045 472.667442 
L 269.971591 472.667442 
L 272.000682 471.202326 
L 273.015227 471.202326 
L 275.044318 469.737209 
L 276.058864 469.737209 
L 277.073409 469.004651 
L 278.087955 469.004651 
L 280.117045 467.539535 
L 281.131591 467.539535 
L 283.160682 466.074419 
L 284.175227 466.074419 
L 285.189773 465.34186 
L 286.204318 465.34186 
L 288.233409 463.876744 
L 289.247955 463.876744 
L 291.277045 462.411628 
L 292.291591 462.411628 
L 293.306136 461.67907 
L 294.320682 461.67907 
L 296.349773 460.213953 
L 297.364318 460.213953 
L 299.393409 458.748837 
L 300.407955 458.748837 
L 301.4225 458.016279 
L 302.437045 458.016279 
L 304.466136 456.551163 
L 305.480682 456.551163 
L 307.509773 455.086047 
L 308.524318 455.086047 
L 309.538864 454.353488 
L 310.553409 454.353488 
L 312.5825 452.888372 
L 313.597045 452.888372 
L 315.626136 451.423256 
L 316.640682 451.423256 
L 317.655227 450.690698 
L 318.669773 450.690698 
L 320.698864 449.225581 
L 321.713409 449.225581 
L 323.7425 447.760465 
L 324.757045 447.760465 
L 325.771591 447.027907 
L 326.786136 447.027907 
L 328.815227 445.562791 
L 329.829773 445.562791 
L 331.858864 444.097674 
L 332.873409 444.097674 
L 333.887955 443.365116 
L 334.9025 443.365116 
L 336.931591 441.9 
L 337.946136 441.9 
L 339.975227 440.434884 
L 340.989773 440.434884 
L 342.004318 439.702326 
L 343.018864 439.702326 
L 345.047955 438.237209 
L 346.0625 438.237209 
L 348.091591 436.772093 
L 349.106136 436.772093 
L 350.120682 436.039535 
L 351.135227 436.039535 
L 353.164318 434.574419 
L 354.178864 434.574419 
L 356.207955 433.109302 
L 357.2225 433.109302 
L 358.237045 432.376744 
L 359.251591 432.376744 
L 361.280682 430.911628 
L 362.295227 430.911628 
L 364.324318 429.446512 
L 365.338864 429.446512 
L 366.353409 428.713953 
L 367.367955 428.713953 
L 369.397045 427.248837 
L 370.411591 427.248837 
L 372.440682 425.783721 
L 373.455227 425.783721 
L 374.469773 425.051163 
L 375.484318 425.051163 
L 377.513409 423.586047 
L 378.527955 423.586047 
L 380.557045 422.12093 
L 381.571591 422.12093 
L 382.586136 421.388372 
L 383.600682 421.388372 
L 385.629773 419.923256 
L 386.644318 419.923256 
L 388.673409 418.45814 
L 389.687955 418.45814 
L 390.7025 417.725581 
L 391.717045 417.725581 
L 393.746136 416.260465 
L 394.760682 416.260465 
L 396.789773 414.795349 
L 397.804318 414.795349 
L 398.818864 414.062791 
L 399.833409 414.062791 
L 401.8625 412.597674 
L 402.877045 412.597674 
L 404.906136 411.132558 
L 405.920682 411.132558 
L 406.935227 410.4 
L 407.949773 410.4 
L 409.978864 408.934884 
L 410.993409 408.934884 
L 413.0225 407.469767 
L 414.037045 407.469767 
L 415.051591 406.737209 
L 416.066136 406.737209 
L 418.095227 405.272093 
L 419.109773 405.272093 
L 421.138864 403.806977 
L 422.153409 403.806977 
L 423.167955 403.074419 
L 424.1825 403.074419 
L 426.211591 401.609302 
L 427.226136 401.609302 
L 429.255227 400.144186 
L 430.269773 400.144186 
L 431.284318 399.411628 
L 432.298864 399.411628 
L 434.327955 397.946512 
L 435.3425 397.946512 
L 437.371591 396.481395 
L 438.386136 396.481395 
L 439.400682 395.748837 
L 440.415227 395.748837 
L 442.444318 394.283721 
L 443.458864 394.283721 
L 445.487955 392.818605 
L 446.5025 392.818605 
L 447.517045 392.086047 
L 448.531591 392.086047 
L 450.560682 390.62093 
L 451.575227 390.62093 
L 453.604318 389.155814 
L 454.618864 389.155814 
L 455.633409 388.423256 
L 456.647955 388.423256 
L 458.677045 386.95814 
L 459.691591 386.95814 
L 461.720682 385.493023 
L 462.735227 385.493023 
L 463.749773 384.760465 
L 464.764318 384.760465 
L 466.793409 383.295349 
L 467.807955 383.295349 
L 469.837045 381.830233 
L 470.851591 381.830233 
L 471.866136 381.097674 
L 472.880682 381.097674 
L 474.909773 379.632558 
L 475.924318 379.632558 
L 477.953409 378.167442 
L 478.967955 378.167442 
L 479.9825 377.434884 
L 480.997045 377.434884 
L 483.026136 375.969767 
L 484.040682 375.969767 
L 486.069773 374.504651 
L 487.084318 374.504651 
L 488.098864 373.772093 
L 489.113409 373.772093 
L 491.1425 372.306977 
L 492.157045 372.306977 
L 494.186136 370.84186 
L 495.200682 370.84186 
L 496.215227 370.109302 
L 497.229773 370.109302 
L 499.258864 368.644186 
L 500.273409 368.644186 
L 502.3025 367.17907 
L 503.317045 367.17907 
L 504.331591 366.446512 
L 505.346136 366.446512 
L 507.375227 364.981395 
L 508.389773 364.981395 
L 510.418864 363.516279 
L 511.433409 363.516279 
L 512.447955 362.783721 
L 513.4625 362.783721 
L 515.491591 361.318605 
L 516.506136 361.318605 
L 518.535227 359.853488 
L 519.549773 359.853488 
L 520.564318 359.12093 
L 521.578864 359.12093 
L 523.607955 357.655814 
L 524.6225 357.655814 
L 526.651591 356.190698 
L 527.666136 356.190698 
L 528.680682 355.45814 
L 529.695227 355.45814 
L 531.724318 353.993023 
L 532.738864 353.993023 
L 534.767955 352.527907 
L 535.7825 352.527907 
L 536.797045 351.795349 
L 537.811591 351.795349 
L 539.840682 350.330233 
L 540.855227 350.330233 
L 542.884318 348.865116 
L 543.898864 348.865116 
L 544.913409 348.132558 
L 545.927955 348.132558 
L 547.957045 346.667442 
L 548.971591 346.667442 
L 551.000682 345.202326 
L 552.015227 345.202326 
L 553.029773 344.469767 
L 554.044318 344.469767 
L 556.073409 343.004651 
L 557.087955 343.004651 
L 559.117045 341.539535 
L 560.131591 341.539535 
L 561.146136 340.806977 
L 562.160682 340.806977 
L 564.189773 339.34186 
L 565.204318 339.34186 
L 567.233409 337.876744 
L 568.247955 337.876744 
L 569.2625 337.144186 
L 570.277045 337.144186 
L 572.306136 335.67907 
L 573.320682 335.67907 
L 575.349773 334.213953 
L 576.364318 334.213953 
L 577.378864 333.481395 
L 578.393409 333.481395 
L 580.4225 332.016279 
L 581.437045 332.016279 
L 583.466136 330.551163 
L 584.480682 330.551163 
L 585.495227 329.818605 
L 586.509773 329.818605 
L 588.538864 328.353488 
L 589.553409 328.353488 
L 591.5825 326.888372 
L 592.597045 326.888372 
L 593.611591 326.155814 
L 594.626136 326.155814 
L 596.655227 324.690698 
L 597.669773 324.690698 
L 599.698864 323.225581 
L 600.713409 323.225581 
L 601.727955 322.493023 
L 602.7425 322.493023 
L 604.771591 321.027907 
L 605.786136 321.027907 
L 607.815227 319.562791 
L 608.829773 319.562791 
L 609.844318 318.830233 
L 610.858864 318.830233 
L 612.887955 317.365116 
L 613.9025 317.365116 
L 615.931591 315.9 
L 616.946136 315.9 
L 617.960682 315.167442 
L 618.975227 315.167442 
L 621.004318 313.702326 
L 622.018864 313.702326 
L 624.047955 312.237209 
L 625.0625 312.237209 
L 626.077045 311.504651 
L 627.091591 311.504651 
L 629.120682 310.039535 
L 630.135227 310.039535 
L 632.164318 308.574419 
L 633.178864 308.574419 
L 634.193409 307.84186 
L 635.207955 307.84186 
L 637.237045 306.376744 
L 638.251591 306.376744 
L 640.280682 304.911628 
L 641.295227 304.911628 
L 642.309773 304.17907 
L 643.324318 304.17907 
L 645.353409 302.713953 
L 646.367955 302.713953 
L 648.397045 301.248837 
L 649.411591 301.248837 
L 650.426136 300.516279 
L 651.440682 300.516279 
L 653.469773 299.051163 
L 654.484318 299.051163 
L 656.513409 297.586047 
L 657.527955 297.586047 
L 658.5425 296.853488 
L 659.557045 296.853488 
L 661.586136 295.388372 
L 662.600682 295.388372 
L 664.629773 293.923256 
L 665.644318 293.923256 
L 666.658864 293.190698 
L 667.673409 293.190698 
L 669.7025 291.725581 
L 670.717045 291.725581 
L 672.746136 290.260465 
L 673.760682 290.260465 
L 674.775227 289.527907 
L 675.789773 289.527907 
L 677.818864 288.062791 
L 678.833409 288.062791 
L 680.8625 286.597674 
L 681.877045 286.597674 
L 682.891591 285.865116 
L 683.906136 285.865116 
L 685.935227 284.4 
L 686.949773 284.4 
L 688.978864 282.934884 
L 689.993409 282.934884 
L 691.007955 282.202326 
L 692.0225 282.202326 
L 694.051591 280.737209 
L 695.066136 280.737209 
L 697.095227 279.272093 
L 698.109773 279.272093 
L 699.124318 278.539535 
L 700.138864 278.539535 
L 702.167955 277.074419 
L 703.1825 277.074419 
L 705.211591 275.609302 
L 706.226136 275.609302 
L 707.240682 274.876744 
L 708.255227 274.876744 
L 710.284318 273.411628 
L 711.298864 273.411628 
L 713.327955 271.946512 
L 714.3425 271.946512 
L 715.357045 271.213953 
L 716.371591 271.213953 
L 718.400682 269.748837 
L 719.415227 269.748837 
L 721.444318 268.283721 
L 722.458864 268.283721 
L 723.473409 267.551163 
L 724.487955 267.551163 
L 726.517045 266.086047 
L 727.531591 266.086047 
L 729.560682 264.62093 
L 730.575227 264.62093 
L 731.589773 263.888372 
L 732.604318 263.888372 
L 734.633409 262.423256 
L 735.647955 262.423256 
L 737.677045 260.95814 
L 738.691591 260.95814 
L 739.706136 260.225581 
L 740.720682 260.225581 
L 742.749773 258.760465 
L 743.764318 258.760465 
L 745.793409 257.295349 
L 746.807955 257.295349 
L 747.8225 256.562791 
L 748.837045 256.562791 
L 750.866136 255.097674 
L 751.880682 255.097674 
L 753.909773 253.632558 
L 754.924318 253.632558 
L 755.938864 252.9 
L 756.953409 252.9 
L 758.9825 251.434884 
L 759.997045 251.434884 
L 762.026136 249.969767 
L 763.040682 249.969767 
L 764.055227 249.237209 
L 765.069773 249.237209 
L 767.098864 247.772093 
L 768.113409 247.772093 
L 770.1425 246.306977 
L 771.157045 246.306977 
L 772.171591 245.574419 
L 773.186136 245.574419 
L 775.215227 244.109302 
L 776.229773 244.109302 
L 778.258864 242.644186 
L 779.273409 242.644186 
L 780.287955 241.911628 
L 781.3025 241.911628 
L 783.331591 240.446512 
L 784.346136 240.446512 
L 786.375227 238.981395 
L 787.389773 238.981395 
L 788.404318 238.248837 
L 789.418864 238.248837 
L 791.447955 236.783721 
L 792.4625 236.783721 
L 794.491591 235.318605 
L 795.506136 235.318605 
L 796.520682 234.586047 
L 797.535227 234.586047 
L 799.564318 233.12093 
L 800.578864 233.12093 
L 802.607955 231.655814 
L 803.6225 231.655814 
L 804.637045 230.923256 
L 805.651591 230.923256 
L 807.680682 229.45814 
L 808.695227 229.45814 
L 810.724318 227.993023 
L 811.738864 227.993023 
L 812.753409 227.260465 
L 813.767955 227.260465 
L 815.797045 225.795349 
L 816.811591 225.795349 
L 818.840682 224.330233 
L 819.855227 224.330233 
L 820.869773 223.597674 
L 821.884318 223.597674 
L 823.913409 222.132558 
L 824.927955 222.132558 
L 826.957045 220.667442 
L 827.971591 220.667442 
L 828.986136 219.934884 
L 830.000682 219.934884 
L 832.029773 218.469767 
L 833.044318 218.469767 
L 835.073409 217.004651 
L 836.087955 217.004651 
L 837.1025 216.272093 
L 838.117045 216.272093 
L 840.146136 214.806977 
L 841.160682 214.806977 
L 843.189773 213.34186 
L 844.204318 213.34186 
L 845.218864 212.609302 
L 846.233409 212.609302 
L 848.2625 211.144186 
L 849.277045 211.144186 
L 851.306136 209.67907 
L 852.320682 209.67907 
L 853.335227 208.946512 
L 854.349773 208.946512 
L 856.378864 207.481395 
L 857.393409 207.481395 
L 859.4225 206.016279 
L 860.437045 206.016279 
L 861.451591 205.283721 
L 862.466136 205.283721 
L 864.495227 203.818605 
L 865.509773 203.818605 
L 867.538864 202.353488 
L 868.553409 202.353488 
L 869.567955 201.62093 
L 870.5825 201.62093 
L 872.611591 200.155814 
L 873.626136 200.155814 
L 875.655227 198.690698 
L 876.669773 198.690698 
L 877.684318 197.95814 
L 878.698864 197.95814 
L 880.727955 196.493023 
L 881.7425 196.493023 
L 883.771591 195.027907 
L 884.786136 195.027907 
L 885.800682 194.295349 
L 886.815227 194.295349 
L 888.844318 192.830233 
L 889.858864 192.830233 
L 891.887955 191.365116 
L 892.9025 191.365116 
L 893.917045 190.632558 
L 894.931591 190.632558 
L 896.960682 189.167442 
L 897.975227 189.167442 
L 900.004318 187.702326 
L 901.018864 187.702326 
L 902.033409 186.969767 
L 903.047955 186.969767 
L 905.077045 185.504651 
L 906.091591 185.504651 
L 908.120682 184.039535 
L 909.135227 184.039535 
L 910.149773 183.306977 
L 911.164318 183.306977 
L 913.193409 181.84186 
L 914.207955 181.84186 
L 916.237045 180.376744 
L 917.251591 180.376744 
L 918.266136 179.644186 
L 919.280682 179.644186 
L 921.309773 178.17907 
L 922.324318 178.17907 
L 924.353409 176.713953 
L 925.367955 176.713953 
L 926.3825 175.981395 
L 927.397045 175.981395 
L 929.426136 174.516279 
L 930.440682 174.516279 
L 932.469773 173.051163 
L 933.484318 173.051163 
L 934.498864 172.318605 
L 935.513409 172.318605 
L 937.5425 170.853488 
L 938.557045 170.853488 
L 940.586136 169.388372 
L 941.600682 169.388372 
L 942.615227 168.655814 
L 943.629773 168.655814 
L 945.658864 167.190698 
L 946.673409 167.190698 
L 948.7025 165.725581 
L 949.717045 165.725581 
L 950.731591 164.993023 
L 951.746136 164.993023 
L 953.775227 163.527907 
L 954.789773 163.527907 
L 956.818864 162.062791 
L 957.833409 162.062791 
L 958.847955 161.330233 
L 959.8625 161.330233 
L 961.891591 159.865116 
L 962.906136 159.865116 
L 964.935227 158.4 
L 965.949773 158.4 
L 966.964318 157.667442 
L 967.978864 157.667442 
L 970.007955 156.202326 
L 971.0225 156.202326 
L 973.051591 154.737209 
L 974.066136 154.737209 
L 975.080682 154.004651 
L 976.095227 154.004651 
L 978.124318 152.539535 
L 979.138864 152.539535 
L 981.167955 151.074419 
L 982.1825 151.074419 
L 983.197045 150.34186 
L 984.211591 150.34186 
L 986.240682 148.876744 
L 987.255227 148.876744 
L 989.284318 147.411628 
L 990.298864 147.411628 
L 991.313409 146.67907 
L 992.327955 146.67907 
L 994.357045 145.213953 
L 995.371591 145.213953 
L 997.400682 143.748837 
L 998.415227 143.748837 
L 999.429773 143.016279 
L 1000.444318 143.016279 
L 1002.473409 141.551163 
L 1003.487955 141.551163 
L 1005.517045 140.086047 
L 1006.531591 140.086047 
L 1007.546136 139.353488 
L 1008.560682 139.353488 
L 1010.589773 137.888372 
L 1011.604318 137.888372 
L 1013.633409 136.423256 
L 1014.647955 136.423256 
L 1015.6625 135.690698 
L 1016.677045 135.690698 
L 1018.706136 134.225581 
L 1019.720682 134.225581 
L 1021.749773 132.760465 
L 1022.764318 132.760465 
L 1023.778864 132.027907 
L 1024.793409 132.027907 
L 1026.8225 130.562791 
L 1027.837045 130.562791 
L 1029.866136 129.097674 
L 1030.880682 129.097674 
L 1031.895227 128.365116 
L 1032.909773 128.365116 
L 1034.938864 126.9 
L 1035.953409 126.9 
L 1037.9825 125.434884 
L 1038.997045 125.434884 
L 1040.011591 124.702326 
L 1041.026136 124.702326 
L 1043.055227 123.237209 
L 1044.069773 123.237209 
L 1046.098864 121.772093 
L 1047.113409 121.772093 
L 1048.127955 121.039535 
L 1049.1425 121.039535 
L 1051.171591 119.574419 
L 1052.186136 119.574419 
L 1054.215227 118.109302 
L 1055.229773 118.109302 
L 1056.244318 117.376744 
L 1057.258864 117.376744 
L 1059.287955 115.911628 
L 1060.3025 115.911628 
L 1062.331591 114.446512 
L 1063.346136 114.446512 
L 1064.360682 113.713953 
L 1065.375227 113.713953 
L 1067.404318 112.248837 
L 1068.418864 112.248837 
L 1070.447955 110.783721 
L 1071.4625 110.783721 
L 1072.477045 110.051163 
L 1073.491591 110.051163 
L 1075.520682 108.586047 
L 1076.535227 108.586047 
L 1078.564318 107.12093 
L 1079.578864 107.12093 
L 1080.593409 106.388372 
L 1081.607955 106.388372 
L 1083.637045 104.923256 
L 1084.651591 104.923256 
L 1086.680682 103.45814 
L 1087.695227 103.45814 
L 1088.709773 102.725581 
L 1089.724318 102.725581 
L 1091.753409 101.260465 
L 1092.767955 101.260465 
L 1094.797045 99.795349 
L 1095.811591 99.795349 
L 1096.826136 99.062791 
L 1097.840682 99.062791 
L 1099.869773 97.597674 
L 1100.884318 97.597674 
L 1102.913409 96.132558 
L 1103.927955 96.132558 
L 1104.9425 95.4 
L 1105.957045 95.4 
L 1107.986136 93.934884 
L 1109.000682 93.934884 
L 1111.029773 92.469767 
L 1112.044318 92.469767 
L 1113.058864 91.737209 
L 1114.073409 91.737209 
L 1116.1025 90.272093 
L 1117.117045 90.272093 
L 1119.146136 88.806977 
L 1120.160682 88.806977 
L 1121.175227 88.074419 
L 1122.189773 88.074419 
L 1124.218864 86.609302 
L 1125.233409 86.609302 
L 1127.2625 85.144186 
L 1128.277045 85.144186 
L 1129.291591 84.411628 
L 1130.306136 84.411628 
L 1132.335227 82.946512 
L 1133.349773 82.946512 
L 1135.378864 81.481395 
L 1136.393409 81.481395 
L 1137.407955 80.748837 
L 1138.4225 80.748837 
L 1140.451591 79.283721 
L 1141.466136 79.283721 
L 1143.495227 77.818605 
L 1143.495227 77.818605 
" style="fill:none;stroke:#d62728;stroke-linecap:square;stroke-width:1.5;"/>
   </g>
   <g id="line2d_18">
    <path clip-path="url(#p9a236b391c)" d="M 128.949773 489.516279 
L 254.753409 489.516279 
L 255.767955 477.795349 
L 280.117045 477.795349 
L 281.131591 466.074419 
L 305.480682 466.074419 
L 306.495227 454.353488 
L 330.844318 454.353488 
L 331.858864 442.632558 
L 356.207955 442.632558 
L 357.2225 430.911628 
L 381.571591 430.911628 
L 382.586136 419.190698 
L 406.935227 419.190698 
L 407.949773 407.469767 
L 432.298864 407.469767 
L 433.313409 395.748837 
L 457.6625 395.748837 
L 458.677045 384.027907 
L 483.026136 384.027907 
L 484.040682 372.306977 
L 508.389773 372.306977 
L 509.404318 360.586047 
L 533.753409 360.586047 
L 534.767955 348.865116 
L 559.117045 348.865116 
L 560.131591 337.144186 
L 584.480682 337.144186 
L 585.495227 325.423256 
L 609.844318 325.423256 
L 610.858864 313.702326 
L 635.207955 313.702326 
L 636.2225 301.981395 
L 660.571591 301.981395 
L 661.586136 290.260465 
L 685.935227 290.260465 
L 686.949773 278.539535 
L 711.298864 278.539535 
L 712.313409 266.818605 
L 736.6625 266.818605 
L 737.677045 255.097674 
L 762.026136 255.097674 
L 763.040682 243.376744 
L 787.389773 243.376744 
L 788.404318 231.655814 
L 812.753409 231.655814 
L 813.767955 219.934884 
L 838.117045 219.934884 
L 839.131591 208.213953 
L 863.480682 208.213953 
L 864.495227 196.493023 
L 888.844318 196.493023 
L 889.858864 184.772093 
L 914.207955 184.772093 
L 915.2225 173.051163 
L 939.571591 173.051163 
L 940.586136 161.330233 
L 964.935227 161.330233 
L 965.949773 149.609302 
L 990.298864 149.609302 
L 991.313409 137.888372 
L 1015.6625 137.888372 
L 1016.677045 126.167442 
L 1041.026136 126.167442 
L 1042.040682 114.446512 
L 1066.389773 114.446512 
L 1067.404318 102.725581 
L 1091.753409 102.725581 
L 1092.767955 91.004651 
L 1117.117045 91.004651 
L 1118.131591 79.283721 
L 1142.480682 79.283721 
L 1143.495227 67.562791 
L 1143.495227 67.562791 
" style="fill:none;stroke:#9467bd;stroke-linecap:square;stroke-width:1.5;"/>
   </g>
   <g id="line2d_19">
    <path clip-path="url(#p9a236b391c)" d="M 128.949773 489.516279 
L 254.753409 489.516279 
L 255.767955 477.795349 
L 280.117045 477.795349 
L 281.131591 466.074419 
L 305.480682 466.074419 
L 306.495227 454.353488 
L 330.844318 454.353488 
L 331.858864 442.632558 
L 356.207955 442.632558 
L 357.2225 430.911628 
L 381.571591 430.911628 
L 382.586136 419.190698 
L 406.935227 419.190698 
L 407.949773 407.469767 
L 432.298864 407.469767 
L 433.313409 395.748837 
L 457.6625 395.748837 
L 458.677045 384.027907 
L 483.026136 384.027907 
L 484.040682 372.306977 
L 508.389773 372.306977 
L 509.404318 360.586047 
L 533.753409 360.586047 
L 534.767955 348.865116 
L 559.117045 348.865116 
L 560.131591 337.144186 
L 584.480682 337.144186 
L 585.495227 325.423256 
L 609.844318 325.423256 
L 610.858864 313.702326 
L 635.207955 313.702326 
L 636.2225 301.981395 
L 660.571591 301.981395 
L 661.586136 290.260465 
L 685.935227 290.260465 
L 686.949773 278.539535 
L 711.298864 278.539535 
L 712.313409 266.818605 
L 736.6625 266.818605 
L 737.677045 255.097674 
L 762.026136 255.097674 
L 763.040682 243.376744 
L 787.389773 243.376744 
L 788.404318 231.655814 
L 812.753409 231.655814 
L 813.767955 219.934884 
L 838.117045 219.934884 
L 839.131591 208.213953 
L 863.480682 208.213953 
L 864.495227 196.493023 
L 888.844318 196.493023 
L 889.858864 184.772093 
L 914.207955 184.772093 
L 915.2225 173.051163 
L 939.571591 173.051163 
L 940.586136 161.330233 
L 964.935227 161.330233 
L 965.949773 149.609302 
L 990.298864 149.609302 
L 991.313409 137.888372 
L 1015.6625 137.888372 
L 1016.677045 126.167442 
L 1041.026136 126.167442 
L 1042.040682 114.446512 
L 1066.389773 114.446512 
L 1067.404318 102.725581 
L 1091.753409 102.725581 
L 1092.767955 91.004651 
L 1117.117045 91.004651 
L 1118.131591 79.283721 
L 1142.480682 79.283721 
L 1143.495227 67.562791 
L 1143.495227 67.562791 
" style="fill:none;stroke:#8c564b;stroke-linecap:square;stroke-width:1.5;"/>
   </g>
   <g id="line2d_20">
    <path clip-path="url(#p9a236b391c)" d="M 128.949773 489.516279 
L 254.753409 489.516279 
L 255.767955 477.795349 
L 280.117045 477.795349 
L 281.131591 466.074419 
L 305.480682 466.074419 
L 306.495227 454.353488 
L 330.844318 454.353488 
L 331.858864 442.632558 
L 356.207955 442.632558 
L 357.2225 430.911628 
L 381.571591 430.911628 
L 382.586136 419.190698 
L 406.935227 419.190698 
L 407.949773 407.469767 
L 432.298864 407.469767 
L 433.313409 395.748837 
L 457.6625 395.748837 
L 458.677045 384.027907 
L 483.026136 384.027907 
L 484.040682 372.306977 
L 508.389773 372.306977 
L 509.404318 360.586047 
L 533.753409 360.586047 
L 534.767955 348.865116 
L 559.117045 348.865116 
L 560.131591 337.144186 
L 584.480682 337.144186 
L 585.495227 325.423256 
L 609.844318 325.423256 
L 610.858864 313.702326 
L 635.207955 313.702326 
L 636.2225 301.981395 
L 660.571591 301.981395 
L 661.586136 290.260465 
L 685.935227 290.260465 
L 686.949773 278.539535 
L 711.298864 278.539535 
L 712.313409 266.818605 
L 736.6625 266.818605 
L 737.677045 255.097674 
L 762.026136 255.097674 
L 763.040682 243.376744 
L 787.389773 243.376744 
L 788.404318 231.655814 
L 812.753409 231.655814 
L 813.767955 219.934884 
L 838.117045 219.934884 
L 839.131591 208.213953 
L 863.480682 208.213953 
L 864.495227 196.493023 
L 888.844318 196.493023 
L 889.858864 184.772093 
L 914.207955 184.772093 
L 915.2225 173.051163 
L 939.571591 173.051163 
L 940.586136 161.330233 
L 964.935227 161.330233 
L 965.949773 149.609302 
L 990.298864 149.609302 
L 991.313409 137.888372 
L 1015.6625 137.888372 
L 1016.677045 126.167442 
L 1041.026136 126.167442 
L 1042.040682 114.446512 
L 1066.389773 114.446512 
L 1067.404318 102.725581 
L 1091.753409 102.725581 
L 1092.767955 91.004651 
L 1117.117045 91.004651 
L 1118.131591 79.283721 
L 1142.480682 79.283721 
L 1143.495227 67.562791 
L 1143.495227 67.562791 
" style="fill:none;stroke:#e377c2;stroke-linecap:square;stroke-width:1.5;"/>
   </g>
   <g id="line2d_21">
    <path clip-path="url(#p9a236b391c)" d="M 128.949773 498.306977 
L 223.3025 498.306977 
L 224.317045 489.516279 
L 242.578864 489.516279 
L 243.593409 480.725581 
L 261.855227 480.725581 
L 262.869773 471.934884 
L 281.131591 471.934884 
L 282.146136 463.144186 
L 300.407955 463.144186 
L 301.4225 454.353488 
L 318.669773 454.353488 
L 319.684318 445.562791 
L 337.946136 445.562791 
L 338.960682 436.772093 
L 357.2225 436.772093 
L 358.237045 427.981395 
L 376.498864 427.981395 
L 377.513409 419.190698 
L 395.775227 419.190698 
L 396.789773 410.4 
L 414.037045 410.4 
L 415.051591 401.609302 
L 433.313409 401.609302 
L 434.327955 392.818605 
L 452.589773 392.818605 
L 453.604318 384.027907 
L 471.866136 384.027907 
L 472.880682 375.237209 
L 491.1425 375.237209 
L 492.157045 366.446512 
L 509.404318 366.446512 
L 510.418864 357.655814 
L 528.680682 357.655814 
L 529.695227 348.865116 
L 547.957045 348.865116 
L 548.971591 340.074419 
L 567.233409 340.074419 
L 568.247955 331.283721 
L 586.509773 331.283721 
L 587.524318 322.493023 
L 604.771591 322.493023 
L 605.786136 313.702326 
L 624.047955 313.702326 
L 625.0625 304.911628 
L 643.324318 304.911628 
L 644.338864 296.12093 
L 662.600682 296.12093 
L 663.615227 287.330233 
L 681.877045 287.330233 
L 682.891591 278.539535 
L 700.138864 278.539535 
L 701.153409 269.748837 
L 719.415227 269.748837 
L 720.429773 260.95814 
L 738.691591 260.95814 
L 739.706136 252.167442 
L 757.967955 252.167442 
L 758.9825 243.376744 
L 777.244318 243.376744 
L 778.258864 234.586047 
L 795.506136 234.586047 
L 796.520682 225.795349 
L 814.7825 225.795349 
L 815.797045 217.004651 
L 834.058864 217.004651 
L 835.073409 208.213953 
L 853.335227 208.213953 
L 854.349773 199.423256 
L 872.611591 199.423256 
L 873.626136 190.632558 
L 890.873409 190.632558 
L 891.887955 181.84186 
L 910.149773 181.84186 
L 911.164318 173.051163 
L 929.426136 173.051163 
L 930.440682 164.260465 
L 948.7025 164.260465 
L 949.717045 155.469767 
L 967.978864 155.469767 
L 968.993409 146.67907 
L 986.240682 146.67907 
L 987.255227 137.888372 
L 1005.517045 137.888372 
L 1006.531591 129.097674 
L 1024.793409 129.097674 
L 1025.807955 120.306977 
L 1044.069773 120.306977 
L 1045.084318 111.516279 
L 1063.346136 111.516279 
L 1064.360682 102.725581 
L 1081.607955 102.725581 
L 1082.6225 93.934884 
L 1100.884318 93.934884 
L 1101.898864 85.144186 
L 1120.160682 85.144186 
L 1121.175227 76.353488 
L 1139.437045 76.353488 
L 1140.451591 67.562791 
L 1143.495227 67.562791 
L 1143.495227 67.562791 
" style="fill:none;stroke:#7f7f7f;stroke-linecap:square;stroke-width:1.5;"/>
   </g>
   <g id="line2d_22">
    <path clip-path="url(#p9a236b391c)" d="M 128.949773 480.725581 
L 237.506136 480.725581 
L 238.520682 469.004651 
L 243.593409 469.004651 
L 244.607955 457.283721 
L 249.680682 457.283721 
L 250.695227 454.353488 
L 255.767955 454.353488 
L 256.7825 451.423256 
L 262.869773 451.423256 
L 263.884318 463.144186 
L 268.957045 463.144186 
L 269.971591 430.911628 
L 275.044318 430.911628 
L 276.058864 427.981395 
L 282.146136 427.981395 
L 283.160682 425.051163 
L 288.233409 425.051163 
L 289.247955 422.12093 
L 294.320682 422.12093 
L 295.335227 419.190698 
L 301.4225 419.190698 
L 302.437045 416.260465 
L 307.509773 416.260465 
L 308.524318 413.330233 
L 313.597045 413.330233 
L 314.611591 410.4 
L 319.684318 410.4 
L 320.698864 407.469767 
L 326.786136 407.469767 
L 327.800682 404.539535 
L 332.873409 404.539535 
L 333.887955 401.609302 
L 338.960682 401.609302 
L 339.975227 398.67907 
L 346.0625 398.67907 
L 347.077045 395.748837 
L 352.149773 395.748837 
L 353.164318 392.818605 
L 358.237045 392.818605 
L 359.251591 389.888372 
L 365.338864 389.888372 
L 366.353409 386.95814 
L 371.426136 386.95814 
L 372.440682 384.027907 
L 377.513409 384.027907 
L 378.527955 381.097674 
L 383.600682 381.097674 
L 384.615227 378.167442 
L 390.7025 378.167442 
L 391.717045 375.237209 
L 396.789773 375.237209 
L 397.804318 372.306977 
L 402.877045 372.306977 
L 403.891591 369.376744 
L 409.978864 369.376744 
L 410.993409 366.446512 
L 416.066136 366.446512 
L 417.080682 363.516279 
L 422.153409 363.516279 
L 423.167955 360.586047 
L 429.255227 360.586047 
L 430.269773 357.655814 
L 435.3425 357.655814 
L 436.357045 354.725581 
L 441.429773 354.725581 
L 442.444318 351.795349 
L 447.517045 351.795349 
L 448.531591 348.865116 
L 454.618864 348.865116 
L 455.633409 345.934884 
L 460.706136 345.934884 
L 461.720682 343.004651 
L 466.793409 343.004651 
L 467.807955 340.074419 
L 473.895227 340.074419 
L 474.909773 337.144186 
L 479.9825 337.144186 
L 480.997045 334.213953 
L 486.069773 334.213953 
L 487.084318 331.283721 
L 493.171591 331.283721 
L 494.186136 328.353488 
L 499.258864 328.353488 
L 500.273409 325.423256 
L 505.346136 325.423256 
L 506.360682 322.493023 
L 511.433409 322.493023 
L 512.447955 319.562791 
L 518.535227 319.562791 
L 519.549773 316.632558 
L 524.6225 316.632558 
L 525.637045 313.702326 
L 530.709773 313.702326 
L 531.724318 310.772093 
L 537.811591 310.772093 
L 538.826136 307.84186 
L 543.898864 307.84186 
L 544.913409 304.911628 
L 549.986136 304.911628 
L 551.000682 301.981395 
L 557.087955 301.981395 
L 558.1025 299.051163 
L 563.175227 299.051163 
L 564.189773 296.12093 
L 569.2625 296.12093 
L 570.277045 293.190698 
L 575.349773 293.190698 
L 576.364318 290.260465 
L 582.451591 290.260465 
L 583.466136 287.330233 
L 588.538864 287.330233 
L 589.553409 284.4 
L 594.626136 284.4 
L 595.640682 281.469767 
L 601.727955 281.469767 
L 602.7425 278.539535 
L 607.815227 278.539535 
L 608.829773 275.609302 
L 613.9025 275.609302 
L 614.917045 272.67907 
L 621.004318 272.67907 
L 622.018864 269.748837 
L 627.091591 269.748837 
L 628.106136 266.818605 
L 633.178864 266.818605 
L 634.193409 263.888372 
L 639.266136 263.888372 
L 640.280682 260.95814 
L 646.367955 260.95814 
L 647.3825 258.027907 
L 652.455227 258.027907 
L 653.469773 255.097674 
L 658.5425 255.097674 
L 659.557045 252.167442 
L 665.644318 252.167442 
L 666.658864 249.237209 
L 671.731591 249.237209 
L 672.746136 246.306977 
L 677.818864 246.306977 
L 678.833409 243.376744 
L 684.920682 243.376744 
L 685.935227 240.446512 
L 691.007955 240.446512 
L 692.0225 237.516279 
L 697.095227 237.516279 
L 698.109773 234.586047 
L 703.1825 234.586047 
L 704.197045 231.655814 
L 710.284318 231.655814 
L 711.298864 228.725581 
L 716.371591 228.725581 
L 717.386136 225.795349 
L 722.458864 225.795349 
L 723.473409 222.865116 
L 729.560682 222.865116 
L 730.575227 219.934884 
L 735.647955 219.934884 
L 736.6625 217.004651 
L 741.735227 217.004651 
L 742.749773 214.074419 
L 748.837045 214.074419 
L 749.851591 211.144186 
L 754.924318 211.144186 
L 755.938864 208.213953 
L 761.011591 208.213953 
L 762.026136 205.283721 
L 767.098864 205.283721 
L 768.113409 202.353488 
L 774.200682 202.353488 
L 775.215227 199.423256 
L 780.287955 199.423256 
L 781.3025 196.493023 
L 786.375227 196.493023 
L 787.389773 193.562791 
L 793.477045 193.562791 
L 794.491591 190.632558 
L 799.564318 190.632558 
L 800.578864 187.702326 
L 805.651591 187.702326 
L 806.666136 184.772093 
L 812.753409 184.772093 
L 813.767955 181.84186 
L 818.840682 181.84186 
L 819.855227 178.911628 
L 824.927955 178.911628 
L 825.9425 175.981395 
L 831.015227 175.981395 
L 832.029773 173.051163 
L 838.117045 173.051163 
L 839.131591 170.12093 
L 844.204318 170.12093 
L 845.218864 167.190698 
L 850.291591 167.190698 
L 851.306136 164.260465 
L 857.393409 164.260465 
L 858.407955 161.330233 
L 863.480682 161.330233 
L 864.495227 158.4 
L 869.567955 158.4 
L 870.5825 155.469767 
L 876.669773 155.469767 
L 877.684318 152.539535 
L 882.757045 152.539535 
L 883.771591 149.609302 
L 888.844318 149.609302 
L 889.858864 146.67907 
L 894.931591 146.67907 
L 895.946136 143.748837 
L 902.033409 143.748837 
L 903.047955 140.818605 
L 908.120682 140.818605 
L 909.135227 137.888372 
L 914.207955 137.888372 
L 915.2225 134.95814 
L 921.309773 134.95814 
L 922.324318 132.027907 
L 927.397045 132.027907 
L 928.411591 129.097674 
L 933.484318 129.097674 
L 934.498864 126.167442 
L 940.586136 126.167442 
L 941.600682 123.237209 
L 946.673409 123.237209 
L 947.687955 120.306977 
L 952.760682 120.306977 
L 953.775227 117.376744 
L 958.847955 117.376744 
L 959.8625 114.446512 
L 965.949773 114.446512 
L 966.964318 111.516279 
L 972.037045 111.516279 
L 973.051591 108.586047 
L 978.124318 108.586047 
L 979.138864 105.655814 
L 985.226136 105.655814 
L 986.240682 102.725581 
L 991.313409 102.725581 
L 992.327955 99.795349 
L 997.400682 99.795349 
L 998.415227 96.865116 
L 1004.5025 96.865116 
L 1005.517045 93.934884 
L 1010.589773 93.934884 
L 1011.604318 91.004651 
L 1016.677045 91.004651 
L 1017.691591 88.074419 
L 1022.764318 88.074419 
L 1023.778864 85.144186 
L 1029.866136 85.144186 
L 1030.880682 82.213953 
L 1035.953409 82.213953 
L 1036.967955 79.283721 
L 1042.040682 79.283721 
L 1043.055227 76.353488 
L 1049.1425 76.353488 
L 1050.157045 73.423256 
L 1055.229773 73.423256 
L 1056.244318 70.493023 
L 1061.317045 70.493023 
L 1062.331591 67.562791 
L 1068.418864 67.562791 
L 1069.433409 64.632558 
L 1074.506136 64.632558 
L 1075.520682 61.702326 
L 1080.593409 61.702326 
L 1081.607955 58.772093 
L 1086.680682 58.772093 
L 1087.695227 55.84186 
L 1093.7825 55.84186 
L 1094.797045 52.911628 
L 1099.869773 52.911628 
L 1100.884318 49.981395 
L 1105.957045 49.981395 
L 1106.971591 47.051163 
L 1113.058864 47.051163 
L 1114.073409 44.12093 
L 1119.146136 44.12093 
L 1120.160682 41.190698 
L 1125.233409 41.190698 
L 1126.247955 38.260465 
L 1132.335227 38.260465 
L 1133.349773 35.330233 
L 1138.4225 35.330233 
L 1139.437045 32.4 
L 1143.495227 32.4 
L 1143.495227 32.4 
" style="fill:none;stroke:#bcbd22;stroke-linecap:square;stroke-width:1.5;"/>
   </g>
   <g id="line2d_23">
    <path clip-path="url(#p9a236b391c)" d="M 128.949773 486.586047 
L 223.3025 486.586047 
L 224.317045 477.795349 
L 242.578864 477.795349 
L 243.593409 469.004651 
L 261.855227 469.004651 
L 262.869773 460.213953 
L 281.131591 460.213953 
L 282.146136 451.423256 
L 300.407955 451.423256 
L 301.4225 442.632558 
L 318.669773 442.632558 
L 319.684318 433.84186 
L 337.946136 433.84186 
L 338.960682 425.051163 
L 357.2225 425.051163 
L 358.237045 416.260465 
L 376.498864 416.260465 
L 377.513409 407.469767 
L 395.775227 407.469767 
L 396.789773 398.67907 
L 414.037045 398.67907 
L 415.051591 389.888372 
L 433.313409 389.888372 
L 434.327955 381.097674 
L 452.589773 381.097674 
L 453.604318 372.306977 
L 471.866136 372.306977 
L 472.880682 363.516279 
L 491.1425 363.516279 
L 492.157045 354.725581 
L 509.404318 354.725581 
L 510.418864 345.934884 
L 528.680682 345.934884 
L 529.695227 337.144186 
L 547.957045 337.144186 
L 548.971591 328.353488 
L 567.233409 328.353488 
L 568.247955 319.562791 
L 586.509773 319.562791 
L 587.524318 310.772093 
L 604.771591 310.772093 
L 605.786136 301.981395 
L 624.047955 301.981395 
L 625.0625 293.190698 
L 643.324318 293.190698 
L 644.338864 284.4 
L 662.600682 284.4 
L 663.615227 275.609302 
L 681.877045 275.609302 
L 682.891591 266.818605 
L 700.138864 266.818605 
L 701.153409 258.027907 
L 719.415227 258.027907 
L 720.429773 249.237209 
L 738.691591 249.237209 
L 739.706136 240.446512 
L 757.967955 240.446512 
L 758.9825 231.655814 
L 777.244318 231.655814 
L 778.258864 222.865116 
L 795.506136 222.865116 
L 796.520682 214.074419 
L 814.7825 214.074419 
L 815.797045 205.283721 
L 834.058864 205.283721 
L 835.073409 196.493023 
L 853.335227 196.493023 
L 854.349773 187.702326 
L 872.611591 187.702326 
L 873.626136 178.911628 
L 890.873409 178.911628 
L 891.887955 170.12093 
L 910.149773 170.12093 
L 911.164318 161.330233 
L 929.426136 161.330233 
L 930.440682 152.539535 
L 948.7025 152.539535 
L 949.717045 143.748837 
L 967.978864 143.748837 
L 968.993409 134.95814 
L 986.240682 134.95814 
L 987.255227 126.167442 
L 1005.517045 126.167442 
L 1006.531591 117.376744 
L 1024.793409 117.376744 
L 1025.807955 108.586047 
L 1044.069773 108.586047 
L 1045.084318 99.795349 
L 1063.346136 99.795349 
L 1064.360682 91.004651 
L 1081.607955 91.004651 
L 1082.6225 82.213953 
L 1100.884318 82.213953 
L 1101.898864 73.423256 
L 1120.160682 73.423256 
L 1121.175227 64.632558 
L 1139.437045 64.632558 
L 1140.451591 55.84186 
L 1143.495227 55.84186 
L 1143.495227 55.84186 
" style="fill:none;stroke:#17becf;stroke-linecap:square;stroke-width:1.5;"/>
   </g>
   <g id="line2d_24">
    <path clip-path="url(#p9a236b391c)" d="M 128.949773 489.516279 
L 223.3025 489.516279 
L 224.317045 480.725581 
L 242.578864 480.725581 
L 243.593409 471.934884 
L 261.855227 471.934884 
L 262.869773 463.144186 
L 281.131591 463.144186 
L 282.146136 454.353488 
L 300.407955 454.353488 
L 301.4225 445.562791 
L 318.669773 445.562791 
L 319.684318 436.772093 
L 337.946136 436.772093 
L 338.960682 427.981395 
L 357.2225 427.981395 
L 358.237045 419.190698 
L 376.498864 419.190698 
L 377.513409 410.4 
L 395.775227 410.4 
L 396.789773 401.609302 
L 414.037045 401.609302 
L 415.051591 392.818605 
L 433.313409 392.818605 
L 434.327955 384.027907 
L 452.589773 384.027907 
L 453.604318 375.237209 
L 471.866136 375.237209 
L 472.880682 366.446512 
L 491.1425 366.446512 
L 492.157045 357.655814 
L 509.404318 357.655814 
L 510.418864 348.865116 
L 528.680682 348.865116 
L 529.695227 340.074419 
L 547.957045 340.074419 
L 548.971591 331.283721 
L 567.233409 331.283721 
L 568.247955 322.493023 
L 586.509773 322.493023 
L 587.524318 313.702326 
L 604.771591 313.702326 
L 605.786136 304.911628 
L 624.047955 304.911628 
L 625.0625 296.12093 
L 643.324318 296.12093 
L 644.338864 287.330233 
L 662.600682 287.330233 
L 663.615227 278.539535 
L 681.877045 278.539535 
L 682.891591 269.748837 
L 700.138864 269.748837 
L 701.153409 260.95814 
L 719.415227 260.95814 
L 720.429773 252.167442 
L 738.691591 252.167442 
L 739.706136 243.376744 
L 757.967955 243.376744 
L 758.9825 234.586047 
L 777.244318 234.586047 
L 778.258864 225.795349 
L 795.506136 225.795349 
L 796.520682 217.004651 
L 814.7825 217.004651 
L 815.797045 208.213953 
L 834.058864 208.213953 
L 835.073409 199.423256 
L 853.335227 199.423256 
L 854.349773 190.632558 
L 872.611591 190.632558 
L 873.626136 181.84186 
L 890.873409 181.84186 
L 891.887955 173.051163 
L 910.149773 173.051163 
L 911.164318 164.260465 
L 929.426136 164.260465 
L 930.440682 155.469767 
L 948.7025 155.469767 
L 949.717045 146.67907 
L 967.978864 146.67907 
L 968.993409 137.888372 
L 986.240682 137.888372 
L 987.255227 129.097674 
L 1005.517045 129.097674 
L 1006.531591 120.306977 
L 1024.793409 120.306977 
L 1025.807955 111.516279 
L 1044.069773 111.516279 
L 1045.084318 102.725581 
L 1063.346136 102.725581 
L 1064.360682 93.934884 
L 1081.607955 93.934884 
L 1082.6225 85.144186 
L 1100.884318 85.144186 
L 1101.898864 76.353488 
L 1120.160682 76.353488 
L 1121.175227 67.562791 
L 1139.437045 67.562791 
L 1140.451591 58.772093 
L 1143.495227 58.772093 
L 1143.495227 58.772093 
" style="fill:none;stroke:#1f77b4;stroke-linecap:square;stroke-width:1.5;"/>
   </g>
   <g id="line2d_25">
    <path clip-path="url(#p9a236b391c)" d="M 128.949773 460.213953 
L 318.669773 460.213953 
L 319.684318 442.632558 
L 356.207955 442.632558 
L 357.2225 425.051163 
L 394.760682 425.051163 
L 395.775227 407.469767 
L 432.298864 407.469767 
L 433.313409 389.888372 
L 470.851591 389.888372 
L 471.866136 372.306977 
L 508.389773 372.306977 
L 509.404318 354.725581 
L 546.9425 354.725581 
L 547.957045 337.144186 
L 584.480682 337.144186 
L 585.495227 319.562791 
L 623.033409 319.562791 
L 624.047955 301.981395 
L 660.571591 301.981395 
L 661.586136 284.4 
L 699.124318 284.4 
L 700.138864 266.818605 
L 736.6625 266.818605 
L 737.677045 249.237209 
L 775.215227 249.237209 
L 776.229773 231.655814 
L 812.753409 231.655814 
L 813.767955 214.074419 
L 851.306136 214.074419 
L 852.320682 196.493023 
L 888.844318 196.493023 
L 889.858864 178.911628 
L 927.397045 178.911628 
L 928.411591 161.330233 
L 964.935227 161.330233 
L 965.949773 143.748837 
L 1003.487955 143.748837 
L 1004.5025 126.167442 
L 1041.026136 126.167442 
L 1042.040682 108.586047 
L 1079.578864 108.586047 
L 1080.593409 91.004651 
L 1117.117045 91.004651 
L 1118.131591 73.423256 
L 1143.495227 73.423256 
L 1143.495227 73.423256 
" style="fill:none;stroke:#ff7f0e;stroke-linecap:square;stroke-width:1.5;"/>
   </g>
   <g id="line2d_26">
    <path clip-path="url(#p9a236b391c)" d="M 128.949773 489.516279 
L 254.753409 489.516279 
L 255.767955 477.795349 
L 280.117045 477.795349 
L 281.131591 466.074419 
L 305.480682 466.074419 
L 306.495227 454.353488 
L 330.844318 454.353488 
L 331.858864 442.632558 
L 356.207955 442.632558 
L 357.2225 430.911628 
L 381.571591 430.911628 
L 382.586136 419.190698 
L 406.935227 419.190698 
L 407.949773 407.469767 
L 432.298864 407.469767 
L 433.313409 395.748837 
L 457.6625 395.748837 
L 458.677045 384.027907 
L 483.026136 384.027907 
L 484.040682 372.306977 
L 508.389773 372.306977 
L 509.404318 360.586047 
L 533.753409 360.586047 
L 534.767955 348.865116 
L 559.117045 348.865116 
L 560.131591 337.144186 
L 584.480682 337.144186 
L 585.495227 325.423256 
L 609.844318 325.423256 
L 610.858864 313.702326 
L 635.207955 313.702326 
L 636.2225 301.981395 
L 660.571591 301.981395 
L 661.586136 290.260465 
L 685.935227 290.260465 
L 686.949773 278.539535 
L 711.298864 278.539535 
L 712.313409 266.818605 
L 736.6625 266.818605 
L 737.677045 255.097674 
L 762.026136 255.097674 
L 763.040682 243.376744 
L 787.389773 243.376744 
L 788.404318 231.655814 
L 812.753409 231.655814 
L 813.767955 219.934884 
L 838.117045 219.934884 
L 839.131591 208.213953 
L 863.480682 208.213953 
L 864.495227 196.493023 
L 888.844318 196.493023 
L 889.858864 184.772093 
L 914.207955 184.772093 
L 915.2225 173.051163 
L 939.571591 173.051163 
L 940.586136 161.330233 
L 964.935227 161.330233 
L 965.949773 149.609302 
L 990.298864 149.609302 
L 991.313409 137.888372 
L 1015.6625 137.888372 
L 1016.677045 126.167442 
L 1041.026136 126.167442 
L 1042.040682 114.446512 
L 1066.389773 114.446512 
L 1067.404318 102.725581 
L 1091.753409 102.725581 
L 1092.767955 91.004651 
L 1117.117045 91.004651 
L 1118.131591 79.283721 
L 1142.480682 79.283721 
L 1143.495227 67.562791 
L 1143.495227 67.562791 
" style="fill:none;stroke:#2ca02c;stroke-linecap:square;stroke-width:1.5;"/>
   </g>
   <g id="line2d_27">
    <path clip-path="url(#p9a236b391c)" d="M 128.949773 489.516279 
L 154.820682 489.516279 
L 155.327955 483.655814 
L 180.691591 483.655814 
L 181.198864 471.934884 
L 206.5625 471.934884 
L 207.069773 460.213953 
L 232.433409 460.213953 
L 232.940682 448.493023 
L 258.304318 448.493023 
L 258.811591 436.772093 
L 284.6825 436.772093 
L 285.189773 425.051163 
L 310.553409 425.051163 
L 311.060682 413.330233 
L 336.424318 413.330233 
L 336.931591 401.609302 
L 362.295227 401.609302 
L 362.8025 389.888372 
L 388.166136 389.888372 
L 388.673409 378.167442 
L 414.544318 378.167442 
L 415.051591 366.446512 
L 440.415227 366.446512 
L 440.9225 354.725581 
L 466.286136 354.725581 
L 466.793409 343.004651 
L 492.157045 343.004651 
L 492.664318 331.283721 
L 518.027955 331.283721 
L 518.535227 319.562791 
L 544.406136 319.562791 
L 544.913409 307.84186 
L 570.277045 307.84186 
L 570.784318 296.12093 
L 596.147955 296.12093 
L 596.655227 284.4 
L 622.018864 284.4 
L 622.526136 272.67907 
L 647.889773 272.67907 
L 648.397045 260.95814 
L 674.267955 260.95814 
L 674.775227 249.237209 
L 700.138864 249.237209 
L 700.646136 237.516279 
L 726.009773 237.516279 
L 726.517045 225.795349 
L 751.880682 225.795349 
L 752.387955 214.074419 
L 777.751591 214.074419 
L 778.258864 202.353488 
L 804.129773 202.353488 
L 804.637045 190.632558 
L 830.000682 190.632558 
L 830.507955 178.911628 
L 855.871591 178.911628 
L 856.378864 167.190698 
L 881.7425 167.190698 
L 882.249773 155.469767 
L 907.613409 155.469767 
L 908.120682 143.748837 
L 933.991591 143.748837 
L 934.498864 132.027907 
L 959.8625 132.027907 
L 960.369773 120.306977 
L 985.733409 120.306977 
L 986.240682 108.586047 
L 1011.604318 108.586047 
L 1012.111591 96.865116 
L 1037.475227 96.865116 
L 1037.9825 85.144186 
L 1063.853409 85.144186 
L 1064.360682 73.423256 
L 1089.724318 73.423256 
L 1090.231591 61.702326 
L 1115.595227 61.702326 
L 1116.1025 49.981395 
L 1141.466136 49.981395 
L 1141.973409 38.260465 
L 1143.495227 38.260465 
L 1143.495227 38.260465 
" style="fill:none;stroke:#d62728;stroke-linecap:square;stroke-width:1.5;"/>
   </g>
   <g id="line2d_28">
    <path clip-path="url(#p9a236b391c)" d="M 128.949773 498.306977 
L 223.3025 498.306977 
L 224.317045 489.516279 
L 242.578864 489.516279 
L 243.593409 480.725581 
L 261.855227 480.725581 
L 262.869773 471.934884 
L 281.131591 471.934884 
L 282.146136 463.144186 
L 300.407955 463.144186 
L 301.4225 454.353488 
L 318.669773 454.353488 
L 319.684318 445.562791 
L 337.946136 445.562791 
L 338.960682 436.772093 
L 357.2225 436.772093 
L 358.237045 427.981395 
L 376.498864 427.981395 
L 377.513409 419.190698 
L 395.775227 419.190698 
L 396.789773 410.4 
L 414.037045 410.4 
L 415.051591 401.609302 
L 433.313409 401.609302 
L 434.327955 392.818605 
L 452.589773 392.818605 
L 453.604318 384.027907 
L 471.866136 384.027907 
L 472.880682 375.237209 
L 491.1425 375.237209 
L 492.157045 366.446512 
L 509.404318 366.446512 
L 510.418864 357.655814 
L 528.680682 357.655814 
L 529.695227 348.865116 
L 547.957045 348.865116 
L 548.971591 340.074419 
L 567.233409 340.074419 
L 568.247955 331.283721 
L 586.509773 331.283721 
L 587.524318 322.493023 
L 604.771591 322.493023 
L 605.786136 313.702326 
L 624.047955 313.702326 
L 625.0625 304.911628 
L 643.324318 304.911628 
L 644.338864 296.12093 
L 662.600682 296.12093 
L 663.615227 287.330233 
L 681.877045 287.330233 
L 682.891591 278.539535 
L 700.138864 278.539535 
L 701.153409 269.748837 
L 719.415227 269.748837 
L 720.429773 260.95814 
L 738.691591 260.95814 
L 739.706136 252.167442 
L 757.967955 252.167442 
L 758.9825 243.376744 
L 777.244318 243.376744 
L 778.258864 234.586047 
L 795.506136 234.586047 
L 796.520682 225.795349 
L 814.7825 225.795349 
L 815.797045 217.004651 
L 834.058864 217.004651 
L 835.073409 208.213953 
L 853.335227 208.213953 
L 854.349773 199.423256 
L 872.611591 199.423256 
L 873.626136 190.632558 
L 890.873409 190.632558 
L 891.887955 181.84186 
L 910.149773 181.84186 
L 911.164318 173.051163 
L 929.426136 173.051163 
L 930.440682 164.260465 
L 948.7025 164.260465 
L 949.717045 155.469767 
L 967.978864 155.469767 
L 968.993409 146.67907 
L 986.240682 146.67907 
L 987.255227 137.888372 
L 1005.517045 137.888372 
L 1006.531591 129.097674 
L 1024.793409 129.097674 
L 1025.807955 120.306977 
L 1044.069773 120.306977 
L 1045.084318 111.516279 
L 1063.346136 111.516279 
L 1064.360682 102.725581 
L 1081.607955 102.725581 
L 1082.6225 93.934884 
L 1100.884318 93.934884 
L 1101.898864 85.144186 
L 1120.160682 85.144186 
L 1121.175227 76.353488 
L 1139.437045 76.353488 
L 1140.451591 67.562791 
L 1143.495227 67.562791 
L 1143.495227 67.562791 
" style="fill:none;stroke:#9467bd;stroke-linecap:square;stroke-width:1.5;"/>
   </g>
   <g id="line2d_29">
    <path clip-path="url(#p9a236b391c)" d="M 128.949773 178.679669 
L 1095.811591 178.679669 
L 1096.826136 89.249586 
L 1143.495227 89.249586 
L 1143.495227 89.249586 
" style="fill:none;stroke:#8c564b;stroke-linecap:square;stroke-width:1.5;"/>
   </g>
   <g id="line2d_30">
    <path clip-path="url(#p9a236b391c)" d="M 128.949773 483.655814 
L 254.753409 483.655814 
L 255.767955 471.934884 
L 280.117045 471.934884 
L 281.131591 460.213953 
L 305.480682 460.213953 
L 306.495227 448.493023 
L 330.844318 448.493023 
L 331.858864 436.772093 
L 356.207955 436.772093 
L 357.2225 425.051163 
L 381.571591 425.051163 
L 382.586136 413.330233 
L 406.935227 413.330233 
L 407.949773 401.609302 
L 432.298864 401.609302 
L 433.313409 389.888372 
L 457.6625 389.888372 
L 458.677045 378.167442 
L 483.026136 378.167442 
L 484.040682 366.446512 
L 508.389773 366.446512 
L 509.404318 354.725581 
L 533.753409 354.725581 
L 534.767955 343.004651 
L 559.117045 343.004651 
L 560.131591 331.283721 
L 584.480682 331.283721 
L 585.495227 319.562791 
L 609.844318 319.562791 
L 610.858864 307.84186 
L 635.207955 307.84186 
L 636.2225 296.12093 
L 660.571591 296.12093 
L 661.586136 284.4 
L 685.935227 284.4 
L 686.949773 272.67907 
L 711.298864 272.67907 
L 712.313409 260.95814 
L 736.6625 260.95814 
L 737.677045 249.237209 
L 762.026136 249.237209 
L 763.040682 237.516279 
L 787.389773 237.516279 
L 788.404318 225.795349 
L 812.753409 225.795349 
L 813.767955 214.074419 
L 838.117045 214.074419 
L 839.131591 202.353488 
L 863.480682 202.353488 
L 864.495227 190.632558 
L 888.844318 190.632558 
L 889.858864 178.911628 
L 914.207955 178.911628 
L 915.2225 167.190698 
L 939.571591 167.190698 
L 940.586136 155.469767 
L 964.935227 155.469767 
L 965.949773 143.748837 
L 990.298864 143.748837 
L 991.313409 132.027907 
L 1015.6625 132.027907 
L 1016.677045 120.306977 
L 1041.026136 120.306977 
L 1042.040682 108.586047 
L 1066.389773 108.586047 
L 1067.404318 96.865116 
L 1091.753409 96.865116 
L 1092.767955 85.144186 
L 1117.117045 85.144186 
L 1118.131591 73.423256 
L 1142.480682 73.423256 
L 1143.495227 61.702326 
L 1143.495227 61.702326 
" style="fill:none;stroke:#e377c2;stroke-linecap:square;stroke-width:1.5;"/>
   </g>
   <g id="line2d_31">
    <path clip-path="url(#p9a236b391c)" d="M 128.949773 178.679669 
L 854.349773 178.679669 
L 855.364318 111.607106 
L 999.429773 111.607106 
L 1000.444318 44.534544 
L 1143.495227 44.534544 
L 1143.495227 44.534544 
" style="fill:none;stroke:#7f7f7f;stroke-linecap:square;stroke-width:1.5;"/>
   </g>
   <g id="line2d_32">
    <path clip-path="url(#p9a236b391c)" d="M 128.949773 489.516279 
L 254.753409 489.516279 
L 255.767955 477.795349 
L 280.117045 477.795349 
L 281.131591 466.074419 
L 305.480682 466.074419 
L 306.495227 454.353488 
L 330.844318 454.353488 
L 331.858864 442.632558 
L 356.207955 442.632558 
L 357.2225 430.911628 
L 381.571591 430.911628 
L 382.586136 419.190698 
L 406.935227 419.190698 
L 407.949773 407.469767 
L 432.298864 407.469767 
L 433.313409 395.748837 
L 457.6625 395.748837 
L 458.677045 384.027907 
L 483.026136 384.027907 
L 484.040682 372.306977 
L 508.389773 372.306977 
L 509.404318 360.586047 
L 533.753409 360.586047 
L 534.767955 348.865116 
L 559.117045 348.865116 
L 560.131591 337.144186 
L 584.480682 337.144186 
L 585.495227 325.423256 
L 609.844318 325.423256 
L 610.858864 313.702326 
L 635.207955 313.702326 
L 636.2225 301.981395 
L 660.571591 301.981395 
L 661.586136 290.260465 
L 685.935227 290.260465 
L 686.949773 278.539535 
L 711.298864 278.539535 
L 712.313409 266.818605 
L 736.6625 266.818605 
L 737.677045 255.097674 
L 762.026136 255.097674 
L 763.040682 243.376744 
L 787.389773 243.376744 
L 788.404318 231.655814 
L 812.753409 231.655814 
L 813.767955 219.934884 
L 838.117045 219.934884 
L 839.131591 208.213953 
L 863.480682 208.213953 
L 864.495227 196.493023 
L 888.844318 196.493023 
L 889.858864 184.772093 
L 914.207955 184.772093 
L 915.2225 173.051163 
L 939.571591 173.051163 
L 940.586136 161.330233 
L 964.935227 161.330233 
L 965.949773 149.609302 
L 990.298864 149.609302 
L 991.313409 137.888372 
L 1015.6625 137.888372 
L 1016.677045 126.167442 
L 1041.026136 126.167442 
L 1042.040682 114.446512 
L 1066.389773 114.446512 
L 1067.404318 102.725581 
L 1091.753409 102.725581 
L 1092.767955 91.004651 
L 1117.117045 91.004651 
L 1118.131591 79.283721 
L 1142.480682 79.283721 
L 1143.495227 67.562791 
L 1143.495227 67.562791 
" style="fill:none;stroke:#bcbd22;stroke-linecap:square;stroke-width:1.5;"/>
   </g>
   <g id="patch_3">
    <path d="M 78.2225 561.6 
L 78.2225 7.2 
" style="fill:none;stroke:#000000;stroke-linecap:square;stroke-linejoin:miter;stroke-width:0.8;"/>
   </g>
   <g id="patch_4">
    <path d="M 1194.2225 561.6 
L 1194.2225 7.2 
" style="fill:none;stroke:#000000;stroke-linecap:square;stroke-linejoin:miter;stroke-width:0.8;"/>
   </g>
   <g id="patch_5">
    <path d="M 78.2225 561.6 
L 1194.2225 561.6 
" style="fill:none;stroke:#000000;stroke-linecap:square;stroke-linejoin:miter;stroke-width:0.8;"/>
   </g>
   <g id="patch_6">
    <path d="M 78.2225 7.2 
L 1194.2225 7.2 
" style="fill:none;stroke:#000000;stroke-linecap:square;stroke-linejoin:miter;stroke-width:0.8;"/>
   </g>
   <g id="text_15">
    <!-- STM32L0/L1 @ ~2MHz -->
    <g transform="translate(139.095227 166.018605)scale(0.16 -0.16)">
     <defs>
      <path d="M 53.515625 70.515625 
L 53.515625 60.890625 
Q 47.90625 63.578125 42.921875 64.890625 
Q 37.9375 66.21875 33.296875 66.21875 
Q 25.25 66.21875 20.875 63.09375 
Q 16.5 59.96875 16.5 54.203125 
Q 16.5 49.359375 19.40625 46.890625 
Q 22.3125 44.4375 30.421875 42.921875 
L 36.375 41.703125 
Q 47.40625 39.59375 52.65625 34.296875 
Q 57.90625 29 57.90625 20.125 
Q 57.90625 9.515625 50.796875 4.046875 
Q 43.703125 -1.421875 29.984375 -1.421875 
Q 24.8125 -1.421875 18.96875 -0.25 
Q 13.140625 0.921875 6.890625 3.21875 
L 6.890625 13.375 
Q 12.890625 10.015625 18.65625 8.296875 
Q 24.421875 6.59375 29.984375 6.59375 
Q 38.421875 6.59375 43.015625 9.90625 
Q 47.609375 13.234375 47.609375 19.390625 
Q 47.609375 24.75 44.3125 27.78125 
Q 41.015625 30.8125 33.5 32.328125 
L 27.484375 33.5 
Q 16.453125 35.6875 11.515625 40.375 
Q 6.59375 45.0625 6.59375 53.421875 
Q 6.59375 63.09375 13.40625 68.65625 
Q 20.21875 74.21875 32.171875 74.21875 
Q 37.3125 74.21875 42.625 73.28125 
Q 47.953125 72.359375 53.515625 70.515625 
z
" id="DejaVuSans-83"/>
      <path d="M -0.296875 72.90625 
L 61.375 72.90625 
L 61.375 64.59375 
L 35.5 64.59375 
L 35.5 0 
L 25.59375 0 
L 25.59375 64.59375 
L -0.296875 64.59375 
z
" id="DejaVuSans-84"/>
      <path d="M 40.578125 39.3125 
Q 47.65625 37.796875 51.625 33 
Q 55.609375 28.21875 55.609375 21.1875 
Q 55.609375 10.40625 48.1875 4.484375 
Q 40.765625 -1.421875 27.09375 -1.421875 
Q 22.515625 -1.421875 17.65625 -0.515625 
Q 12.796875 0.390625 7.625 2.203125 
L 7.625 11.71875 
Q 11.71875 9.328125 16.59375 8.109375 
Q 21.484375 6.890625 26.8125 6.890625 
Q 36.078125 6.890625 40.9375 10.546875 
Q 45.796875 14.203125 45.796875 21.1875 
Q 45.796875 27.640625 41.28125 31.265625 
Q 36.765625 34.90625 28.71875 34.90625 
L 20.21875 34.90625 
L 20.21875 43.015625 
L 29.109375 43.015625 
Q 36.375 43.015625 40.234375 45.921875 
Q 44.09375 48.828125 44.09375 54.296875 
Q 44.09375 59.90625 40.109375 62.90625 
Q 36.140625 65.921875 28.71875 65.921875 
Q 24.65625 65.921875 20.015625 65.03125 
Q 15.375 64.15625 9.8125 62.3125 
L 9.8125 71.09375 
Q 15.4375 72.65625 20.34375 73.4375 
Q 25.25 74.21875 29.59375 74.21875 
Q 40.828125 74.21875 47.359375 69.109375 
Q 53.90625 64.015625 53.90625 55.328125 
Q 53.90625 49.265625 50.4375 45.09375 
Q 46.96875 40.921875 40.578125 39.3125 
z
" id="DejaVuSans-51"/>
      <path d="M 9.8125 72.90625 
L 19.671875 72.90625 
L 19.671875 8.296875 
L 55.171875 8.296875 
L 55.171875 0 
L 9.8125 0 
z
" id="DejaVuSans-76"/>
      <path d="M 25.390625 72.90625 
L 33.6875 72.90625 
L 8.296875 -9.28125 
L 0 -9.28125 
z
" id="DejaVuSans-47"/>
      <path d="M 37.203125 26.21875 
Q 37.203125 19.234375 40.671875 15.25 
Q 44.140625 11.28125 50.203125 11.28125 
Q 56.203125 11.28125 59.640625 15.28125 
Q 63.09375 19.28125 63.09375 26.21875 
Q 63.09375 33.0625 59.578125 37.078125 
Q 56.0625 41.109375 50.09375 41.109375 
Q 44.1875 41.109375 40.6875 37.109375 
Q 37.203125 33.109375 37.203125 26.21875 
z
M 63.8125 11.625 
Q 60.890625 7.859375 57.109375 6.078125 
Q 53.328125 4.296875 48.296875 4.296875 
Q 39.890625 4.296875 34.640625 10.375 
Q 29.390625 16.453125 29.390625 26.21875 
Q 29.390625 35.984375 34.65625 42.078125 
Q 39.9375 48.1875 48.296875 48.1875 
Q 53.328125 48.1875 57.125 46.359375 
Q 60.9375 44.53125 63.8125 40.828125 
L 63.8125 47.21875 
L 70.796875 47.21875 
L 70.796875 11.28125 
Q 77.9375 12.359375 81.953125 17.796875 
Q 85.984375 23.25 85.984375 31.890625 
Q 85.984375 37.109375 84.4375 41.703125 
Q 82.90625 46.296875 79.78125 50.203125 
Q 74.703125 56.59375 67.40625 59.984375 
Q 60.109375 63.375 51.515625 63.375 
Q 45.515625 63.375 39.984375 61.78125 
Q 34.46875 60.203125 29.78125 57.078125 
Q 22.125 52.09375 17.796875 44.015625 
Q 13.484375 35.9375 13.484375 26.515625 
Q 13.484375 18.75 16.28125 11.953125 
Q 19.09375 5.171875 24.421875 0 
Q 29.546875 -5.078125 36.28125 -7.734375 
Q 43.015625 -10.40625 50.6875 -10.40625 
Q 56.984375 -10.40625 63.0625 -8.28125 
Q 69.140625 -6.15625 74.21875 -2.203125 
L 78.609375 -7.625 
Q 72.515625 -12.359375 65.3125 -14.875 
Q 58.109375 -17.390625 50.6875 -17.390625 
Q 41.65625 -17.390625 33.640625 -14.1875 
Q 25.640625 -10.984375 19.390625 -4.890625 
Q 13.140625 1.21875 9.859375 9.25 
Q 6.59375 17.28125 6.59375 26.515625 
Q 6.59375 35.40625 9.90625 43.453125 
Q 13.234375 51.515625 19.390625 57.625 
Q 25.6875 63.8125 33.9375 67.109375 
Q 42.1875 70.40625 51.421875 70.40625 
Q 61.765625 70.40625 70.625 66.15625 
Q 79.5 61.921875 85.5 54.109375 
Q 89.15625 49.3125 91.078125 43.703125 
Q 93.015625 38.09375 93.015625 32.078125 
Q 93.015625 19.234375 85.25 11.8125 
Q 77.484375 4.390625 63.8125 4.109375 
z
" id="DejaVuSans-64"/>
      <path d="M 73.1875 39.890625 
L 73.1875 31.203125 
Q 68.0625 27.34375 63.6875 25.6875 
Q 59.328125 24.03125 54.59375 24.03125 
Q 49.21875 24.03125 42.09375 26.90625 
Q 41.546875 27.09375 41.3125 27.203125 
Q 40.96875 27.34375 40.234375 27.59375 
Q 32.671875 30.609375 28.078125 30.609375 
Q 23.78125 30.609375 19.578125 28.734375 
Q 15.375 26.859375 10.59375 22.796875 
L 10.59375 31.5 
Q 15.71875 35.359375 20.09375 37.03125 
Q 24.46875 38.71875 29.203125 38.71875 
Q 34.578125 38.71875 41.75 35.796875 
Q 42.234375 35.59375 42.484375 35.5 
Q 42.875 35.359375 43.5625 35.109375 
Q 51.125 32.078125 55.71875 32.078125 
Q 59.90625 32.078125 64.03125 33.9375 
Q 68.171875 35.796875 73.1875 39.890625 
z
" id="DejaVuSans-126"/>
      <path d="M 9.8125 72.90625 
L 19.671875 72.90625 
L 19.671875 43.015625 
L 55.515625 43.015625 
L 55.515625 72.90625 
L 65.375 72.90625 
L 65.375 0 
L 55.515625 0 
L 55.515625 34.71875 
L 19.671875 34.71875 
L 19.671875 0 
L 9.8125 0 
z
" id="DejaVuSans-72"/>
      <path d="M 5.515625 54.6875 
L 48.1875 54.6875 
L 48.1875 46.484375 
L 14.40625 7.171875 
L 48.1875 7.171875 
L 48.1875 0 
L 4.296875 0 
L 4.296875 8.203125 
L 38.09375 47.515625 
L 5.515625 47.515625 
z
" id="DejaVuSans-122"/>
     </defs>
     <use xlink:href="#DejaVuSans-83"/>
     <use x="63.476562" xlink:href="#DejaVuSans-84"/>
     <use x="124.560547" xlink:href="#DejaVuSans-77"/>
     <use x="210.839844" xlink:href="#DejaVuSans-51"/>
     <use x="274.462891" xlink:href="#DejaVuSans-50"/>
     <use x="338.085938" xlink:href="#DejaVuSans-76"/>
     <use x="393.798828" xlink:href="#DejaVuSans-48"/>
     <use x="457.421875" xlink:href="#DejaVuSans-47"/>
     <use x="491.113281" xlink:href="#DejaVuSans-76"/>
     <use x="546.826172" xlink:href="#DejaVuSans-49"/>
     <use x="610.449219" xlink:href="#DejaVuSans-32"/>
     <use x="642.236328" xlink:href="#DejaVuSans-64"/>
     <use x="742.236328" xlink:href="#DejaVuSans-32"/>
     <use x="774.023438" xlink:href="#DejaVuSans-126"/>
     <use x="857.8125" xlink:href="#DejaVuSans-50"/>
     <use x="921.435547" xlink:href="#DejaVuSans-77"/>
     <use x="1007.714844" xlink:href="#DejaVuSans-72"/>
     <use x="1082.910156" xlink:href="#DejaVuSans-122"/>
    </g>
   </g>
   <g id="patch_7">
    <path d="M 822.762151 93.937303 
Q 838.686181 102.342086 854.610211 110.746868 
" style="fill:none;stroke:#000000;stroke-linecap:round;"/>
   </g>
   <g id="text_16">
    <!-- STM32L0 -->
    <g transform="translate(765.941591 87.677151)scale(0.16 -0.16)">
     <use xlink:href="#DejaVuSans-83"/>
     <use x="63.476562" xlink:href="#DejaVuSans-84"/>
     <use x="124.560547" xlink:href="#DejaVuSans-77"/>
     <use x="210.839844" xlink:href="#DejaVuSans-51"/>
     <use x="274.462891" xlink:href="#DejaVuSans-50"/>
     <use x="338.085938" xlink:href="#DejaVuSans-76"/>
     <use x="393.798828" xlink:href="#DejaVuSans-48"/>
    </g>
   </g>
   <g id="patch_8">
    <path d="M 1022.798319 199.338797 
Q 1046.714393 189.414574 1070.630467 179.49035 
" style="fill:none;stroke:#000000;stroke-linecap:round;"/>
   </g>
   <g id="text_17">
    <!-- STM32L1 -->
    <g transform="translate(960.877045 214.263198)scale(0.16 -0.16)">
     <use xlink:href="#DejaVuSans-83"/>
     <use x="63.476562" xlink:href="#DejaVuSans-84"/>
     <use x="124.560547" xlink:href="#DejaVuSans-77"/>
     <use x="210.839844" xlink:href="#DejaVuSans-51"/>
     <use x="274.462891" xlink:href="#DejaVuSans-50"/>
     <use x="338.085938" xlink:href="#DejaVuSans-76"/>
     <use x="393.798828" xlink:href="#DejaVuSans-49"/>
    </g>
   </g>
   <g id="patch_9">
    <path d="M 455.88645 295.010329 
Q 494.347442 302.981184 532.808435 310.952039 
" style="fill:none;stroke:#000000;stroke-linecap:round;"/>
   </g>
   <g id="text_18">
    <!-- STM32F7 @ 16MHz -->
    <g transform="translate(329.798182 289.277151)scale(0.16 -0.16)">
     <defs>
      <path d="M 9.8125 72.90625 
L 51.703125 72.90625 
L 51.703125 64.59375 
L 19.671875 64.59375 
L 19.671875 43.109375 
L 48.578125 43.109375 
L 48.578125 34.8125 
L 19.671875 34.8125 
L 19.671875 0 
L 9.8125 0 
z
" id="DejaVuSans-70"/>
      <path d="M 8.203125 72.90625 
L 55.078125 72.90625 
L 55.078125 68.703125 
L 28.609375 0 
L 18.3125 0 
L 43.21875 64.59375 
L 8.203125 64.59375 
z
" id="DejaVuSans-55"/>
     </defs>
     <use xlink:href="#DejaVuSans-83"/>
     <use x="63.476562" xlink:href="#DejaVuSans-84"/>
     <use x="124.560547" xlink:href="#DejaVuSans-77"/>
     <use x="210.839844" xlink:href="#DejaVuSans-51"/>
     <use x="274.462891" xlink:href="#DejaVuSans-50"/>
     <use x="338.085938" xlink:href="#DejaVuSans-70"/>
     <use x="395.605469" xlink:href="#DejaVuSans-55"/>
     <use x="459.228516" xlink:href="#DejaVuSans-32"/>
     <use x="491.015625" xlink:href="#DejaVuSans-64"/>
     <use x="591.015625" xlink:href="#DejaVuSans-32"/>
     <use x="622.802734" xlink:href="#DejaVuSans-49"/>
     <use x="686.425781" xlink:href="#DejaVuSans-54"/>
     <use x="750.048828" xlink:href="#DejaVuSans-77"/>
     <use x="836.328125" xlink:href="#DejaVuSans-72"/>
     <use x="911.523438" xlink:href="#DejaVuSans-122"/>
    </g>
   </g>
   <g id="patch_10">
    <path d="M 587.03326 248.433808 
Q 617.034152 259.849181 647.035045 271.264553 
" style="fill:none;stroke:#000000;stroke-linecap:round;"/>
   </g>
   <g id="text_19">
    <!-- AVR @ 16MHz -->
    <g transform="translate(503.179091 242.39343)scale(0.16 -0.16)">
     <defs>
      <path d="M 34.1875 63.1875 
L 20.796875 26.90625 
L 47.609375 26.90625 
z
M 28.609375 72.90625 
L 39.796875 72.90625 
L 67.578125 0 
L 57.328125 0 
L 50.6875 18.703125 
L 17.828125 18.703125 
L 11.1875 0 
L 0.78125 0 
z
" id="DejaVuSans-65"/>
      <path d="M 28.609375 0 
L 0.78125 72.90625 
L 11.078125 72.90625 
L 34.1875 11.53125 
L 57.328125 72.90625 
L 67.578125 72.90625 
L 39.796875 0 
z
" id="DejaVuSans-86"/>
      <path d="M 44.390625 34.1875 
Q 47.5625 33.109375 50.5625 29.59375 
Q 53.5625 26.078125 56.59375 19.921875 
L 66.609375 0 
L 56 0 
L 46.6875 18.703125 
Q 43.0625 26.03125 39.671875 28.421875 
Q 36.28125 30.8125 30.421875 30.8125 
L 19.671875 30.8125 
L 19.671875 0 
L 9.8125 0 
L 9.8125 72.90625 
L 32.078125 72.90625 
Q 44.578125 72.90625 50.734375 67.671875 
Q 56.890625 62.453125 56.890625 51.90625 
Q 56.890625 45.015625 53.6875 40.46875 
Q 50.484375 35.9375 44.390625 34.1875 
z
M 19.671875 64.796875 
L 19.671875 38.921875 
L 32.078125 38.921875 
Q 39.203125 38.921875 42.84375 42.21875 
Q 46.484375 45.515625 46.484375 51.90625 
Q 46.484375 58.296875 42.84375 61.546875 
Q 39.203125 64.796875 32.078125 64.796875 
z
" id="DejaVuSans-82"/>
     </defs>
     <use xlink:href="#DejaVuSans-65"/>
     <use x="62.033203" xlink:href="#DejaVuSans-86"/>
     <use x="130.441406" xlink:href="#DejaVuSans-82"/>
     <use x="199.923828" xlink:href="#DejaVuSans-32"/>
     <use x="231.710938" xlink:href="#DejaVuSans-64"/>
     <use x="331.710938" xlink:href="#DejaVuSans-32"/>
     <use x="363.498047" xlink:href="#DejaVuSans-49"/>
     <use x="427.121094" xlink:href="#DejaVuSans-54"/>
     <use x="490.744141" xlink:href="#DejaVuSans-77"/>
     <use x="577.023438" xlink:href="#DejaVuSans-72"/>
     <use x="652.21875" xlink:href="#DejaVuSans-122"/>
    </g>
   </g>
   <g id="patch_11">
    <path d="M 432.346348 449.73738 
Q 407.44266 446.320916 382.538973 442.904453 
" style="fill:none;stroke:#000000;stroke-linecap:round;"/>
   </g>
   <g id="text_20">
    <!-- STM32F1 @ 8MHz -->
    <g transform="translate(433.313409 464.166802)scale(0.16 -0.16)">
     <use xlink:href="#DejaVuSans-83"/>
     <use x="63.476562" xlink:href="#DejaVuSans-84"/>
     <use x="124.560547" xlink:href="#DejaVuSans-77"/>
     <use x="210.839844" xlink:href="#DejaVuSans-51"/>
     <use x="274.462891" xlink:href="#DejaVuSans-50"/>
     <use x="338.085938" xlink:href="#DejaVuSans-70"/>
     <use x="395.605469" xlink:href="#DejaVuSans-49"/>
     <use x="459.228516" xlink:href="#DejaVuSans-32"/>
     <use x="491.015625" xlink:href="#DejaVuSans-64"/>
     <use x="591.015625" xlink:href="#DejaVuSans-32"/>
     <use x="622.802734" xlink:href="#DejaVuSans-56"/>
     <use x="686.425781" xlink:href="#DejaVuSans-77"/>
     <use x="772.705078" xlink:href="#DejaVuSans-72"/>
     <use x="847.900391" xlink:href="#DejaVuSans-122"/>
    </g>
   </g>
   <g id="patch_12">
    <path d="M 277.142287 504.414412 
Q 250.201853 501.48066 223.261419 498.546908 
" style="fill:none;stroke:#000000;stroke-linecap:round;"/>
   </g>
   <g id="text_21">
    <!-- STM32L4 @ 16MHz -->
    <g transform="translate(281.131591 517.646512)scale(0.16 -0.16)">
     <use xlink:href="#DejaVuSans-83"/>
     <use x="63.476562" xlink:href="#DejaVuSans-84"/>
     <use x="124.560547" xlink:href="#DejaVuSans-77"/>
     <use x="210.839844" xlink:href="#DejaVuSans-51"/>
     <use x="274.462891" xlink:href="#DejaVuSans-50"/>
     <use x="338.085938" xlink:href="#DejaVuSans-76"/>
     <use x="393.798828" xlink:href="#DejaVuSans-52"/>
     <use x="457.421875" xlink:href="#DejaVuSans-32"/>
     <use x="489.208984" xlink:href="#DejaVuSans-64"/>
     <use x="589.208984" xlink:href="#DejaVuSans-32"/>
     <use x="620.996094" xlink:href="#DejaVuSans-49"/>
     <use x="684.619141" xlink:href="#DejaVuSans-54"/>
     <use x="748.242188" xlink:href="#DejaVuSans-77"/>
     <use x="834.521484" xlink:href="#DejaVuSans-72"/>
     <use x="909.716797" xlink:href="#DejaVuSans-122"/>
    </g>
   </g>
   <g id="patch_13">
    <path d="M 245.049533 531.308495 
Q 213.350819 526.320705 181.652105 521.332915 
" style="fill:none;stroke:#000000;stroke-linecap:round;"/>
   </g>
   <g id="text_22">
    <!-- STM32H7 @ 64MHz -->
    <g transform="translate(230.404318 545.776744)scale(0.16 -0.16)">
     <use xlink:href="#DejaVuSans-83"/>
     <use x="63.476562" xlink:href="#DejaVuSans-84"/>
     <use x="124.560547" xlink:href="#DejaVuSans-77"/>
     <use x="210.839844" xlink:href="#DejaVuSans-51"/>
     <use x="274.462891" xlink:href="#DejaVuSans-50"/>
     <use x="338.085938" xlink:href="#DejaVuSans-72"/>
     <use x="413.28125" xlink:href="#DejaVuSans-55"/>
     <use x="476.904297" xlink:href="#DejaVuSans-32"/>
     <use x="508.691406" xlink:href="#DejaVuSans-64"/>
     <use x="608.691406" xlink:href="#DejaVuSans-32"/>
     <use x="640.478516" xlink:href="#DejaVuSans-54"/>
     <use x="704.101562" xlink:href="#DejaVuSans-52"/>
     <use x="767.724609" xlink:href="#DejaVuSans-77"/>
     <use x="854.003906" xlink:href="#DejaVuSans-72"/>
     <use x="929.199219" xlink:href="#DejaVuSans-122"/>
    </g>
   </g>
   <g id="patch_14">
    <path d="M 155.443777 535.677859 
Q 148.241394 533.930529 141.039012 532.183199 
" style="fill:none;stroke:#000000;stroke-linecap:round;"/>
   </g>
   <g id="text_23">
    <!-- Ideal -->
    <g transform="translate(159.386136 545.776744)scale(0.16 -0.16)">
     <use xlink:href="#DejaVuSans-73"/>
     <use x="29.492188" xlink:href="#DejaVuSans-100"/>
     <use x="92.96875" xlink:href="#DejaVuSans-101"/>
     <use x="154.492188" xlink:href="#DejaVuSans-97"/>
     <use x="215.771484" xlink:href="#DejaVuSans-108"/>
    </g>
   </g>
  </g>
 </g>
 <defs>
  <clipPath id="p9a236b391c">
   <rect height="554.4" width="1116" x="78.2225" y="7.2"/>
  </clipPath>
 </defs>
</svg>
