<?xml version="1.0" encoding="utf-8" standalone="no"?>
<!DOCTYPE svg PUBLIC "-//W3C//DTD SVG 1.1//EN"
  "http://www.w3.org/Graphics/SVG/1.1/DTD/svg11.dtd">
<!-- Created with matplotlib (https://matplotlib.org/) -->
<svg height="608.834375pt" version="1.1" viewBox="0 0 1201.4225 608.834375" width="1201.4225pt" xmlns="http://www.w3.org/2000/svg" xmlns:xlink="http://www.w3.org/1999/xlink">
 <metadata>
  <rdf:RDF xmlns:cc="http://creativecommons.org/ns#" xmlns:dc="http://purl.org/dc/elements/1.1/" xmlns:rdf="http://www.w3.org/1999/02/22-rdf-syntax-ns#">
   <cc:Work>
    <dc:type rdf:resource="http://purl.org/dc/dcmitype/StillImage"/>
    <dc:date>2021-07-10T02:17:45.770931</dc:date>
    <dc:format>image/svg+xml</dc:format>
    <dc:creator>
     <cc:Agent>
      <dc:title>Matplotlib v3.3.3, https://matplotlib.org/</dc:title>
     </cc:Agent>
    </dc:creator>
   </cc:Work>
  </rdf:RDF>
 </metadata>
 <defs>
  <style type="text/css">*{stroke-linecap:butt;stroke-linejoin:round;}</style>
 </defs>
 <g id="figure_1">
  <g id="patch_1">
   <path d="M 0 608.834375 
L 1201.4225 608.834375 
L 1201.4225 0 
L 0 0 
z
" style="fill:none;"/>
  </g>
  <g id="axes_1">
   <g id="patch_2">
    <path d="M 78.2225 561.6 
L 1194.2225 561.6 
L 1194.2225 7.2 
L 78.2225 7.2 
z
" style="fill:none;"/>
   </g>
   <g id="matplotlib.axis_1">
    <g id="xtick_1">
     <g id="line2d_1">
      <defs>
       <path d="M 0 0 
L 0 3.5 
" id="m1193781468" style="stroke:#000000;stroke-width:0.8;"/>
      </defs>
      <g>
       <use style="stroke:#000000;stroke-width:0.8;" x="128.949773" xlink:href="#m1193781468" y="561.6"/>
      </g>
     </g>
     <g id="text_1">
      <!-- 0 -->
      <g transform="translate(124.496023 579.237813)scale(0.14 -0.14)">
       <defs>
        <path d="M 31.78125 66.40625 
Q 24.171875 66.40625 20.328125 58.90625 
Q 16.5 51.421875 16.5 36.375 
Q 16.5 21.390625 20.328125 13.890625 
Q 24.171875 6.390625 31.78125 6.390625 
Q 39.453125 6.390625 43.28125 13.890625 
Q 47.125 21.390625 47.125 36.375 
Q 47.125 51.421875 43.28125 58.90625 
Q 39.453125 66.40625 31.78125 66.40625 
z
M 31.78125 74.21875 
Q 44.046875 74.21875 50.515625 64.515625 
Q 56.984375 54.828125 56.984375 36.375 
Q 56.984375 17.96875 50.515625 8.265625 
Q 44.046875 -1.421875 31.78125 -1.421875 
Q 19.53125 -1.421875 13.0625 8.265625 
Q 6.59375 17.96875 6.59375 36.375 
Q 6.59375 54.828125 13.0625 64.515625 
Q 19.53125 74.21875 31.78125 74.21875 
z
" id="DejaVuSans-48"/>
       </defs>
       <use xlink:href="#DejaVuSans-48"/>
      </g>
     </g>
    </g>
    <g id="xtick_2">
     <g id="line2d_2">
      <g>
       <use style="stroke:#000000;stroke-width:0.8;" x="331.858864" xlink:href="#m1193781468" y="561.6"/>
      </g>
     </g>
     <g id="text_2">
      <!-- 2000 -->
      <g transform="translate(314.043864 579.237813)scale(0.14 -0.14)">
       <defs>
        <path d="M 19.1875 8.296875 
L 53.609375 8.296875 
L 53.609375 0 
L 7.328125 0 
L 7.328125 8.296875 
Q 12.9375 14.109375 22.625 23.890625 
Q 32.328125 33.6875 34.8125 36.53125 
Q 39.546875 41.84375 41.421875 45.53125 
Q 43.3125 49.21875 43.3125 52.78125 
Q 43.3125 58.59375 39.234375 62.25 
Q 35.15625 65.921875 28.609375 65.921875 
Q 23.96875 65.921875 18.8125 64.3125 
Q 13.671875 62.703125 7.8125 59.421875 
L 7.8125 69.390625 
Q 13.765625 71.78125 18.9375 73 
Q 24.125 74.21875 28.421875 74.21875 
Q 39.75 74.21875 46.484375 68.546875 
Q 53.21875 62.890625 53.21875 53.421875 
Q 53.21875 48.921875 51.53125 44.890625 
Q 49.859375 40.875 45.40625 35.40625 
Q 44.1875 33.984375 37.640625 27.21875 
Q 31.109375 20.453125 19.1875 8.296875 
z
" id="DejaVuSans-50"/>
       </defs>
       <use xlink:href="#DejaVuSans-50"/>
       <use x="63.623047" xlink:href="#DejaVuSans-48"/>
       <use x="127.246094" xlink:href="#DejaVuSans-48"/>
       <use x="190.869141" xlink:href="#DejaVuSans-48"/>
      </g>
     </g>
    </g>
    <g id="xtick_3">
     <g id="line2d_3">
      <g>
       <use style="stroke:#000000;stroke-width:0.8;" x="534.767955" xlink:href="#m1193781468" y="561.6"/>
      </g>
     </g>
     <g id="text_3">
      <!-- 4000 -->
      <g transform="translate(516.952955 579.237813)scale(0.14 -0.14)">
       <defs>
        <path d="M 37.796875 64.3125 
L 12.890625 25.390625 
L 37.796875 25.390625 
z
M 35.203125 72.90625 
L 47.609375 72.90625 
L 47.609375 25.390625 
L 58.015625 25.390625 
L 58.015625 17.1875 
L 47.609375 17.1875 
L 47.609375 0 
L 37.796875 0 
L 37.796875 17.1875 
L 4.890625 17.1875 
L 4.890625 26.703125 
z
" id="DejaVuSans-52"/>
       </defs>
       <use xlink:href="#DejaVuSans-52"/>
       <use x="63.623047" xlink:href="#DejaVuSans-48"/>
       <use x="127.246094" xlink:href="#DejaVuSans-48"/>
       <use x="190.869141" xlink:href="#DejaVuSans-48"/>
      </g>
     </g>
    </g>
    <g id="xtick_4">
     <g id="line2d_4">
      <g>
       <use style="stroke:#000000;stroke-width:0.8;" x="737.677045" xlink:href="#m1193781468" y="561.6"/>
      </g>
     </g>
     <g id="text_4">
      <!-- 6000 -->
      <g transform="translate(719.862045 579.237813)scale(0.14 -0.14)">
       <defs>
        <path d="M 33.015625 40.375 
Q 26.375 40.375 22.484375 35.828125 
Q 18.609375 31.296875 18.609375 23.390625 
Q 18.609375 15.53125 22.484375 10.953125 
Q 26.375 6.390625 33.015625 6.390625 
Q 39.65625 6.390625 43.53125 10.953125 
Q 47.40625 15.53125 47.40625 23.390625 
Q 47.40625 31.296875 43.53125 35.828125 
Q 39.65625 40.375 33.015625 40.375 
z
M 52.59375 71.296875 
L 52.59375 62.3125 
Q 48.875 64.0625 45.09375 64.984375 
Q 41.3125 65.921875 37.59375 65.921875 
Q 27.828125 65.921875 22.671875 59.328125 
Q 17.53125 52.734375 16.796875 39.40625 
Q 19.671875 43.65625 24.015625 45.921875 
Q 28.375 48.1875 33.59375 48.1875 
Q 44.578125 48.1875 50.953125 41.515625 
Q 57.328125 34.859375 57.328125 23.390625 
Q 57.328125 12.15625 50.6875 5.359375 
Q 44.046875 -1.421875 33.015625 -1.421875 
Q 20.359375 -1.421875 13.671875 8.265625 
Q 6.984375 17.96875 6.984375 36.375 
Q 6.984375 53.65625 15.1875 63.9375 
Q 23.390625 74.21875 37.203125 74.21875 
Q 40.921875 74.21875 44.703125 73.484375 
Q 48.484375 72.75 52.59375 71.296875 
z
" id="DejaVuSans-54"/>
       </defs>
       <use xlink:href="#DejaVuSans-54"/>
       <use x="63.623047" xlink:href="#DejaVuSans-48"/>
       <use x="127.246094" xlink:href="#DejaVuSans-48"/>
       <use x="190.869141" xlink:href="#DejaVuSans-48"/>
      </g>
     </g>
    </g>
    <g id="xtick_5">
     <g id="line2d_5">
      <g>
       <use style="stroke:#000000;stroke-width:0.8;" x="940.586136" xlink:href="#m1193781468" y="561.6"/>
      </g>
     </g>
     <g id="text_5">
      <!-- 8000 -->
      <g transform="translate(922.771136 579.237813)scale(0.14 -0.14)">
       <defs>
        <path d="M 31.78125 34.625 
Q 24.75 34.625 20.71875 30.859375 
Q 16.703125 27.09375 16.703125 20.515625 
Q 16.703125 13.921875 20.71875 10.15625 
Q 24.75 6.390625 31.78125 6.390625 
Q 38.8125 6.390625 42.859375 10.171875 
Q 46.921875 13.96875 46.921875 20.515625 
Q 46.921875 27.09375 42.890625 30.859375 
Q 38.875 34.625 31.78125 34.625 
z
M 21.921875 38.8125 
Q 15.578125 40.375 12.03125 44.71875 
Q 8.5 49.078125 8.5 55.328125 
Q 8.5 64.0625 14.71875 69.140625 
Q 20.953125 74.21875 31.78125 74.21875 
Q 42.671875 74.21875 48.875 69.140625 
Q 55.078125 64.0625 55.078125 55.328125 
Q 55.078125 49.078125 51.53125 44.71875 
Q 48 40.375 41.703125 38.8125 
Q 48.828125 37.15625 52.796875 32.3125 
Q 56.78125 27.484375 56.78125 20.515625 
Q 56.78125 9.90625 50.3125 4.234375 
Q 43.84375 -1.421875 31.78125 -1.421875 
Q 19.734375 -1.421875 13.25 4.234375 
Q 6.78125 9.90625 6.78125 20.515625 
Q 6.78125 27.484375 10.78125 32.3125 
Q 14.796875 37.15625 21.921875 38.8125 
z
M 18.3125 54.390625 
Q 18.3125 48.734375 21.84375 45.5625 
Q 25.390625 42.390625 31.78125 42.390625 
Q 38.140625 42.390625 41.71875 45.5625 
Q 45.3125 48.734375 45.3125 54.390625 
Q 45.3125 60.0625 41.71875 63.234375 
Q 38.140625 66.40625 31.78125 66.40625 
Q 25.390625 66.40625 21.84375 63.234375 
Q 18.3125 60.0625 18.3125 54.390625 
z
" id="DejaVuSans-56"/>
       </defs>
       <use xlink:href="#DejaVuSans-56"/>
       <use x="63.623047" xlink:href="#DejaVuSans-48"/>
       <use x="127.246094" xlink:href="#DejaVuSans-48"/>
       <use x="190.869141" xlink:href="#DejaVuSans-48"/>
      </g>
     </g>
    </g>
    <g id="xtick_6">
     <g id="line2d_6">
      <g>
       <use style="stroke:#000000;stroke-width:0.8;" x="1143.495227" xlink:href="#m1193781468" y="561.6"/>
      </g>
     </g>
     <g id="text_6">
      <!-- 10000 -->
      <g transform="translate(1121.226477 579.237813)scale(0.14 -0.14)">
       <defs>
        <path d="M 12.40625 8.296875 
L 28.515625 8.296875 
L 28.515625 63.921875 
L 10.984375 60.40625 
L 10.984375 69.390625 
L 28.421875 72.90625 
L 38.28125 72.90625 
L 38.28125 8.296875 
L 54.390625 8.296875 
L 54.390625 0 
L 12.40625 0 
z
" id="DejaVuSans-49"/>
       </defs>
       <use xlink:href="#DejaVuSans-49"/>
       <use x="63.623047" xlink:href="#DejaVuSans-48"/>
       <use x="127.246094" xlink:href="#DejaVuSans-48"/>
       <use x="190.869141" xlink:href="#DejaVuSans-48"/>
       <use x="254.492188" xlink:href="#DejaVuSans-48"/>
      </g>
     </g>
    </g>
    <g id="text_7">
     <!-- Input nanosecond delay -->
     <g transform="translate(540.09125 598.306875)scale(0.16 -0.16)">
      <defs>
       <path d="M 9.8125 72.90625 
L 19.671875 72.90625 
L 19.671875 0 
L 9.8125 0 
z
" id="DejaVuSans-73"/>
       <path d="M 54.890625 33.015625 
L 54.890625 0 
L 45.90625 0 
L 45.90625 32.71875 
Q 45.90625 40.484375 42.875 44.328125 
Q 39.84375 48.1875 33.796875 48.1875 
Q 26.515625 48.1875 22.3125 43.546875 
Q 18.109375 38.921875 18.109375 30.90625 
L 18.109375 0 
L 9.078125 0 
L 9.078125 54.6875 
L 18.109375 54.6875 
L 18.109375 46.1875 
Q 21.34375 51.125 25.703125 53.5625 
Q 30.078125 56 35.796875 56 
Q 45.21875 56 50.046875 50.171875 
Q 54.890625 44.34375 54.890625 33.015625 
z
" id="DejaVuSans-110"/>
       <path d="M 18.109375 8.203125 
L 18.109375 -20.796875 
L 9.078125 -20.796875 
L 9.078125 54.6875 
L 18.109375 54.6875 
L 18.109375 46.390625 
Q 20.953125 51.265625 25.265625 53.625 
Q 29.59375 56 35.59375 56 
Q 45.5625 56 51.78125 48.09375 
Q 58.015625 40.1875 58.015625 27.296875 
Q 58.015625 14.40625 51.78125 6.484375 
Q 45.5625 -1.421875 35.59375 -1.421875 
Q 29.59375 -1.421875 25.265625 0.953125 
Q 20.953125 3.328125 18.109375 8.203125 
z
M 48.6875 27.296875 
Q 48.6875 37.203125 44.609375 42.84375 
Q 40.53125 48.484375 33.40625 48.484375 
Q 26.265625 48.484375 22.1875 42.84375 
Q 18.109375 37.203125 18.109375 27.296875 
Q 18.109375 17.390625 22.1875 11.75 
Q 26.265625 6.109375 33.40625 6.109375 
Q 40.53125 6.109375 44.609375 11.75 
Q 48.6875 17.390625 48.6875 27.296875 
z
" id="DejaVuSans-112"/>
       <path d="M 8.5 21.578125 
L 8.5 54.6875 
L 17.484375 54.6875 
L 17.484375 21.921875 
Q 17.484375 14.15625 20.5 10.265625 
Q 23.53125 6.390625 29.59375 6.390625 
Q 36.859375 6.390625 41.078125 11.03125 
Q 45.3125 15.671875 45.3125 23.6875 
L 45.3125 54.6875 
L 54.296875 54.6875 
L 54.296875 0 
L 45.3125 0 
L 45.3125 8.40625 
Q 42.046875 3.421875 37.71875 1 
Q 33.40625 -1.421875 27.6875 -1.421875 
Q 18.265625 -1.421875 13.375 4.4375 
Q 8.5 10.296875 8.5 21.578125 
z
M 31.109375 56 
z
" id="DejaVuSans-117"/>
       <path d="M 18.3125 70.21875 
L 18.3125 54.6875 
L 36.8125 54.6875 
L 36.8125 47.703125 
L 18.3125 47.703125 
L 18.3125 18.015625 
Q 18.3125 11.328125 20.140625 9.421875 
Q 21.96875 7.515625 27.59375 7.515625 
L 36.8125 7.515625 
L 36.8125 0 
L 27.59375 0 
Q 17.1875 0 13.234375 3.875 
Q 9.28125 7.765625 9.28125 18.015625 
L 9.28125 47.703125 
L 2.6875 47.703125 
L 2.6875 54.6875 
L 9.28125 54.6875 
L 9.28125 70.21875 
z
" id="DejaVuSans-116"/>
       <path id="DejaVuSans-32"/>
       <path d="M 34.28125 27.484375 
Q 23.390625 27.484375 19.1875 25 
Q 14.984375 22.515625 14.984375 16.5 
Q 14.984375 11.71875 18.140625 8.90625 
Q 21.296875 6.109375 26.703125 6.109375 
Q 34.1875 6.109375 38.703125 11.40625 
Q 43.21875 16.703125 43.21875 25.484375 
L 43.21875 27.484375 
z
M 52.203125 31.203125 
L 52.203125 0 
L 43.21875 0 
L 43.21875 8.296875 
Q 40.140625 3.328125 35.546875 0.953125 
Q 30.953125 -1.421875 24.3125 -1.421875 
Q 15.921875 -1.421875 10.953125 3.296875 
Q 6 8.015625 6 15.921875 
Q 6 25.140625 12.171875 29.828125 
Q 18.359375 34.515625 30.609375 34.515625 
L 43.21875 34.515625 
L 43.21875 35.40625 
Q 43.21875 41.609375 39.140625 45 
Q 35.0625 48.390625 27.6875 48.390625 
Q 23 48.390625 18.546875 47.265625 
Q 14.109375 46.140625 10.015625 43.890625 
L 10.015625 52.203125 
Q 14.9375 54.109375 19.578125 55.046875 
Q 24.21875 56 28.609375 56 
Q 40.484375 56 46.34375 49.84375 
Q 52.203125 43.703125 52.203125 31.203125 
z
" id="DejaVuSans-97"/>
       <path d="M 30.609375 48.390625 
Q 23.390625 48.390625 19.1875 42.75 
Q 14.984375 37.109375 14.984375 27.296875 
Q 14.984375 17.484375 19.15625 11.84375 
Q 23.34375 6.203125 30.609375 6.203125 
Q 37.796875 6.203125 41.984375 11.859375 
Q 46.1875 17.53125 46.1875 27.296875 
Q 46.1875 37.015625 41.984375 42.703125 
Q 37.796875 48.390625 30.609375 48.390625 
z
M 30.609375 56 
Q 42.328125 56 49.015625 48.375 
Q 55.71875 40.765625 55.71875 27.296875 
Q 55.71875 13.875 49.015625 6.21875 
Q 42.328125 -1.421875 30.609375 -1.421875 
Q 18.84375 -1.421875 12.171875 6.21875 
Q 5.515625 13.875 5.515625 27.296875 
Q 5.515625 40.765625 12.171875 48.375 
Q 18.84375 56 30.609375 56 
z
" id="DejaVuSans-111"/>
       <path d="M 44.28125 53.078125 
L 44.28125 44.578125 
Q 40.484375 46.53125 36.375 47.5 
Q 32.28125 48.484375 27.875 48.484375 
Q 21.1875 48.484375 17.84375 46.4375 
Q 14.5 44.390625 14.5 40.28125 
Q 14.5 37.15625 16.890625 35.375 
Q 19.28125 33.59375 26.515625 31.984375 
L 29.59375 31.296875 
Q 39.15625 29.25 43.1875 25.515625 
Q 47.21875 21.78125 47.21875 15.09375 
Q 47.21875 7.46875 41.1875 3.015625 
Q 35.15625 -1.421875 24.609375 -1.421875 
Q 20.21875 -1.421875 15.453125 -0.5625 
Q 10.6875 0.296875 5.421875 2 
L 5.421875 11.28125 
Q 10.40625 8.6875 15.234375 7.390625 
Q 20.0625 6.109375 24.8125 6.109375 
Q 31.15625 6.109375 34.5625 8.28125 
Q 37.984375 10.453125 37.984375 14.40625 
Q 37.984375 18.0625 35.515625 20.015625 
Q 33.0625 21.96875 24.703125 23.78125 
L 21.578125 24.515625 
Q 13.234375 26.265625 9.515625 29.90625 
Q 5.8125 33.546875 5.8125 39.890625 
Q 5.8125 47.609375 11.28125 51.796875 
Q 16.75 56 26.8125 56 
Q 31.78125 56 36.171875 55.265625 
Q 40.578125 54.546875 44.28125 53.078125 
z
" id="DejaVuSans-115"/>
       <path d="M 56.203125 29.59375 
L 56.203125 25.203125 
L 14.890625 25.203125 
Q 15.484375 15.921875 20.484375 11.0625 
Q 25.484375 6.203125 34.421875 6.203125 
Q 39.59375 6.203125 44.453125 7.46875 
Q 49.3125 8.734375 54.109375 11.28125 
L 54.109375 2.78125 
Q 49.265625 0.734375 44.1875 -0.34375 
Q 39.109375 -1.421875 33.890625 -1.421875 
Q 20.796875 -1.421875 13.15625 6.1875 
Q 5.515625 13.8125 5.515625 26.8125 
Q 5.515625 40.234375 12.765625 48.109375 
Q 20.015625 56 32.328125 56 
Q 43.359375 56 49.78125 48.890625 
Q 56.203125 41.796875 56.203125 29.59375 
z
M 47.21875 32.234375 
Q 47.125 39.59375 43.09375 43.984375 
Q 39.0625 48.390625 32.421875 48.390625 
Q 24.90625 48.390625 20.390625 44.140625 
Q 15.875 39.890625 15.1875 32.171875 
z
" id="DejaVuSans-101"/>
       <path d="M 48.78125 52.59375 
L 48.78125 44.1875 
Q 44.96875 46.296875 41.140625 47.34375 
Q 37.3125 48.390625 33.40625 48.390625 
Q 24.65625 48.390625 19.8125 42.84375 
Q 14.984375 37.3125 14.984375 27.296875 
Q 14.984375 17.28125 19.8125 11.734375 
Q 24.65625 6.203125 33.40625 6.203125 
Q 37.3125 6.203125 41.140625 7.25 
Q 44.96875 8.296875 48.78125 10.40625 
L 48.78125 2.09375 
Q 45.015625 0.34375 40.984375 -0.53125 
Q 36.96875 -1.421875 32.421875 -1.421875 
Q 20.0625 -1.421875 12.78125 6.34375 
Q 5.515625 14.109375 5.515625 27.296875 
Q 5.515625 40.671875 12.859375 48.328125 
Q 20.21875 56 33.015625 56 
Q 37.15625 56 41.109375 55.140625 
Q 45.0625 54.296875 48.78125 52.59375 
z
" id="DejaVuSans-99"/>
       <path d="M 45.40625 46.390625 
L 45.40625 75.984375 
L 54.390625 75.984375 
L 54.390625 0 
L 45.40625 0 
L 45.40625 8.203125 
Q 42.578125 3.328125 38.25 0.953125 
Q 33.9375 -1.421875 27.875 -1.421875 
Q 17.96875 -1.421875 11.734375 6.484375 
Q 5.515625 14.40625 5.515625 27.296875 
Q 5.515625 40.1875 11.734375 48.09375 
Q 17.96875 56 27.875 56 
Q 33.9375 56 38.25 53.625 
Q 42.578125 51.265625 45.40625 46.390625 
z
M 14.796875 27.296875 
Q 14.796875 17.390625 18.875 11.75 
Q 22.953125 6.109375 30.078125 6.109375 
Q 37.203125 6.109375 41.296875 11.75 
Q 45.40625 17.390625 45.40625 27.296875 
Q 45.40625 37.203125 41.296875 42.84375 
Q 37.203125 48.484375 30.078125 48.484375 
Q 22.953125 48.484375 18.875 42.84375 
Q 14.796875 37.203125 14.796875 27.296875 
z
" id="DejaVuSans-100"/>
       <path d="M 9.421875 75.984375 
L 18.40625 75.984375 
L 18.40625 0 
L 9.421875 0 
z
" id="DejaVuSans-108"/>
       <path d="M 32.171875 -5.078125 
Q 28.375 -14.84375 24.75 -17.8125 
Q 21.140625 -20.796875 15.09375 -20.796875 
L 7.90625 -20.796875 
L 7.90625 -13.28125 
L 13.1875 -13.28125 
Q 16.890625 -13.28125 18.9375 -11.515625 
Q 21 -9.765625 23.484375 -3.21875 
L 25.09375 0.875 
L 2.984375 54.6875 
L 12.5 54.6875 
L 29.59375 11.921875 
L 46.6875 54.6875 
L 56.203125 54.6875 
z
" id="DejaVuSans-121"/>
      </defs>
      <use xlink:href="#DejaVuSans-73"/>
      <use x="29.492188" xlink:href="#DejaVuSans-110"/>
      <use x="92.871094" xlink:href="#DejaVuSans-112"/>
      <use x="156.347656" xlink:href="#DejaVuSans-117"/>
      <use x="219.726562" xlink:href="#DejaVuSans-116"/>
      <use x="258.935547" xlink:href="#DejaVuSans-32"/>
      <use x="290.722656" xlink:href="#DejaVuSans-110"/>
      <use x="354.101562" xlink:href="#DejaVuSans-97"/>
      <use x="415.380859" xlink:href="#DejaVuSans-110"/>
      <use x="478.759766" xlink:href="#DejaVuSans-111"/>
      <use x="539.941406" xlink:href="#DejaVuSans-115"/>
      <use x="592.041016" xlink:href="#DejaVuSans-101"/>
      <use x="653.564453" xlink:href="#DejaVuSans-99"/>
      <use x="708.544922" xlink:href="#DejaVuSans-111"/>
      <use x="769.726562" xlink:href="#DejaVuSans-110"/>
      <use x="833.105469" xlink:href="#DejaVuSans-100"/>
      <use x="896.582031" xlink:href="#DejaVuSans-32"/>
      <use x="928.369141" xlink:href="#DejaVuSans-100"/>
      <use x="991.845703" xlink:href="#DejaVuSans-101"/>
      <use x="1053.369141" xlink:href="#DejaVuSans-108"/>
      <use x="1081.152344" xlink:href="#DejaVuSans-97"/>
      <use x="1142.431641" xlink:href="#DejaVuSans-121"/>
     </g>
    </g>
   </g>
   <g id="matplotlib.axis_2">
    <g id="ytick_1">
     <g id="line2d_7">
      <defs>
       <path d="M 0 0 
L -3.5 0 
" id="m8d60be2321" style="stroke:#000000;stroke-width:0.8;"/>
      </defs>
      <g>
       <use style="stroke:#000000;stroke-width:0.8;" x="78.2225" xlink:href="#m8d60be2321" y="536.4"/>
      </g>
     </g>
     <g id="text_8">
      <!-- 0 -->
      <g transform="translate(62.315 541.718906)scale(0.14 -0.14)">
       <use xlink:href="#DejaVuSans-48"/>
      </g>
     </g>
    </g>
    <g id="ytick_2">
     <g id="line2d_8">
      <g>
       <use style="stroke:#000000;stroke-width:0.8;" x="78.2225" xlink:href="#m8d60be2321" y="443.174566"/>
      </g>
     </g>
     <g id="text_9">
      <!-- 2000 -->
      <g transform="translate(35.5925 448.493473)scale(0.14 -0.14)">
       <use xlink:href="#DejaVuSans-50"/>
       <use x="63.623047" xlink:href="#DejaVuSans-48"/>
       <use x="127.246094" xlink:href="#DejaVuSans-48"/>
       <use x="190.869141" xlink:href="#DejaVuSans-48"/>
      </g>
     </g>
    </g>
    <g id="ytick_3">
     <g id="line2d_9">
      <g>
       <use style="stroke:#000000;stroke-width:0.8;" x="78.2225" xlink:href="#m8d60be2321" y="349.949133"/>
      </g>
     </g>
     <g id="text_10">
      <!-- 4000 -->
      <g transform="translate(35.5925 355.268039)scale(0.14 -0.14)">
       <use xlink:href="#DejaVuSans-52"/>
       <use x="63.623047" xlink:href="#DejaVuSans-48"/>
       <use x="127.246094" xlink:href="#DejaVuSans-48"/>
       <use x="190.869141" xlink:href="#DejaVuSans-48"/>
      </g>
     </g>
    </g>
    <g id="ytick_4">
     <g id="line2d_10">
      <g>
       <use style="stroke:#000000;stroke-width:0.8;" x="78.2225" xlink:href="#m8d60be2321" y="256.723699"/>
      </g>
     </g>
     <g id="text_11">
      <!-- 6000 -->
      <g transform="translate(35.5925 262.042606)scale(0.14 -0.14)">
       <use xlink:href="#DejaVuSans-54"/>
       <use x="63.623047" xlink:href="#DejaVuSans-48"/>
       <use x="127.246094" xlink:href="#DejaVuSans-48"/>
       <use x="190.869141" xlink:href="#DejaVuSans-48"/>
      </g>
     </g>
    </g>
    <g id="ytick_5">
     <g id="line2d_11">
      <g>
       <use style="stroke:#000000;stroke-width:0.8;" x="78.2225" xlink:href="#m8d60be2321" y="163.498266"/>
      </g>
     </g>
     <g id="text_12">
      <!-- 8000 -->
      <g transform="translate(35.5925 168.817172)scale(0.14 -0.14)">
       <use xlink:href="#DejaVuSans-56"/>
       <use x="63.623047" xlink:href="#DejaVuSans-48"/>
       <use x="127.246094" xlink:href="#DejaVuSans-48"/>
       <use x="190.869141" xlink:href="#DejaVuSans-48"/>
      </g>
     </g>
    </g>
    <g id="ytick_6">
     <g id="line2d_12">
      <g>
       <use style="stroke:#000000;stroke-width:0.8;" x="78.2225" xlink:href="#m8d60be2321" y="70.272832"/>
      </g>
     </g>
     <g id="text_13">
      <!-- 10000 -->
      <g transform="translate(26.685 75.591739)scale(0.14 -0.14)">
       <use xlink:href="#DejaVuSans-49"/>
       <use x="63.623047" xlink:href="#DejaVuSans-48"/>
       <use x="127.246094" xlink:href="#DejaVuSans-48"/>
       <use x="190.869141" xlink:href="#DejaVuSans-48"/>
       <use x="254.492188" xlink:href="#DejaVuSans-48"/>
      </g>
     </g>
    </g>
    <g id="text_14">
     <!-- Measured nanosecond delay -->
     <g transform="translate(19.3575 398.89125)rotate(-90)scale(0.16 -0.16)">
      <defs>
       <path d="M 9.8125 72.90625 
L 24.515625 72.90625 
L 43.109375 23.296875 
L 61.8125 72.90625 
L 76.515625 72.90625 
L 76.515625 0 
L 66.890625 0 
L 66.890625 64.015625 
L 48.09375 14.015625 
L 38.1875 14.015625 
L 19.390625 64.015625 
L 19.390625 0 
L 9.8125 0 
z
" id="DejaVuSans-77"/>
       <path d="M 41.109375 46.296875 
Q 39.59375 47.171875 37.8125 47.578125 
Q 36.03125 48 33.890625 48 
Q 26.265625 48 22.1875 43.046875 
Q 18.109375 38.09375 18.109375 28.8125 
L 18.109375 0 
L 9.078125 0 
L 9.078125 54.6875 
L 18.109375 54.6875 
L 18.109375 46.1875 
Q 20.953125 51.171875 25.484375 53.578125 
Q 30.03125 56 36.53125 56 
Q 37.453125 56 38.578125 55.875 
Q 39.703125 55.765625 41.0625 55.515625 
z
" id="DejaVuSans-114"/>
      </defs>
      <use xlink:href="#DejaVuSans-77"/>
      <use x="86.279297" xlink:href="#DejaVuSans-101"/>
      <use x="147.802734" xlink:href="#DejaVuSans-97"/>
      <use x="209.082031" xlink:href="#DejaVuSans-115"/>
      <use x="261.181641" xlink:href="#DejaVuSans-117"/>
      <use x="324.560547" xlink:href="#DejaVuSans-114"/>
      <use x="363.423828" xlink:href="#DejaVuSans-101"/>
      <use x="424.947266" xlink:href="#DejaVuSans-100"/>
      <use x="488.423828" xlink:href="#DejaVuSans-32"/>
      <use x="520.210938" xlink:href="#DejaVuSans-110"/>
      <use x="583.589844" xlink:href="#DejaVuSans-97"/>
      <use x="644.869141" xlink:href="#DejaVuSans-110"/>
      <use x="708.248047" xlink:href="#DejaVuSans-111"/>
      <use x="769.429688" xlink:href="#DejaVuSans-115"/>
      <use x="821.529297" xlink:href="#DejaVuSans-101"/>
      <use x="883.052734" xlink:href="#DejaVuSans-99"/>
      <use x="938.033203" xlink:href="#DejaVuSans-111"/>
      <use x="999.214844" xlink:href="#DejaVuSans-110"/>
      <use x="1062.59375" xlink:href="#DejaVuSans-100"/>
      <use x="1126.070312" xlink:href="#DejaVuSans-32"/>
      <use x="1157.857422" xlink:href="#DejaVuSans-100"/>
      <use x="1221.333984" xlink:href="#DejaVuSans-101"/>
      <use x="1282.857422" xlink:href="#DejaVuSans-108"/>
      <use x="1310.640625" xlink:href="#DejaVuSans-97"/>
      <use x="1371.919922" xlink:href="#DejaVuSans-121"/>
     </g>
    </g>
   </g>
   <g id="line2d_13">
    <path clip-path="url(#pbe210ef951)" d="M 78.2225 559.706358 
L 1194.2225 46.966474 
" style="fill:none;stroke:#808080;stroke-linecap:square;stroke-width:1.5;"/>
   </g>
   <g id="line2d_14">
    <path clip-path="url(#pbe210ef951)" d="M 128.949773 460.654335 
L 318.669773 460.654335 
L 319.684318 443.174566 
L 356.207955 443.174566 
L 357.2225 425.694798 
L 394.760682 425.694798 
L 395.775227 408.215029 
L 432.298864 408.215029 
L 433.313409 390.73526 
L 470.851591 390.73526 
L 471.866136 373.255491 
L 508.389773 373.255491 
L 509.404318 355.775723 
L 546.9425 355.775723 
L 547.957045 338.295954 
L 584.480682 338.295954 
L 585.495227 320.816185 
L 623.033409 320.816185 
L 624.047955 303.336416 
L 660.571591 303.336416 
L 661.586136 285.856647 
L 699.124318 285.856647 
L 700.138864 268.376879 
L 736.6625 268.376879 
L 737.677045 250.89711 
L 775.215227 250.89711 
L 776.229773 233.417341 
L 812.753409 233.417341 
L 813.767955 215.937572 
L 851.306136 215.937572 
L 852.320682 198.457803 
L 888.844318 198.457803 
L 889.858864 180.978035 
L 927.397045 180.978035 
L 928.411591 163.498266 
L 964.935227 163.498266 
L 965.949773 146.018497 
L 1003.487955 146.018497 
L 1004.5025 128.538728 
L 1041.026136 128.538728 
L 1042.040682 111.05896 
L 1079.578864 111.05896 
L 1080.593409 93.579191 
L 1117.117045 93.579191 
L 1118.131591 76.099422 
L 1143.495227 76.099422 
L 1143.495227 76.099422 
" style="fill:none;stroke:#1f77b4;stroke-linecap:square;stroke-width:1.5;"/>
   </g>
   <g id="line2d_15">
    <path clip-path="url(#pbe210ef951)" d="M 128.949773 443.174566 
L 381.571591 443.174566 
L 382.586136 419.868208 
L 432.298864 419.868208 
L 433.313409 396.56185 
L 483.026136 396.56185 
L 484.040682 373.255491 
L 533.753409 373.255491 
L 534.767955 349.949133 
L 584.480682 349.949133 
L 585.495227 326.642775 
L 635.207955 326.642775 
L 636.2225 303.336416 
L 685.935227 303.336416 
L 686.949773 280.030058 
L 736.6625 280.030058 
L 737.677045 256.723699 
L 787.389773 256.723699 
L 788.404318 233.417341 
L 838.117045 233.417341 
L 839.131591 210.110983 
L 888.844318 210.110983 
L 889.858864 186.804624 
L 939.571591 186.804624 
L 940.586136 163.498266 
L 990.298864 163.498266 
L 991.313409 140.191908 
L 1041.026136 140.191908 
L 1042.040682 116.885549 
L 1091.753409 116.885549 
L 1092.767955 93.579191 
L 1142.480682 93.579191 
L 1143.495227 70.272832 
L 1143.495227 70.272832 
" style="fill:none;stroke:#ff7f0e;stroke-linecap:square;stroke-width:1.5;"/>
   </g>
   <g id="line2d_16">
    <path clip-path="url(#pbe210ef951)" d="M 128.949773 483.960694 
L 254.753409 483.960694 
L 255.767955 472.307514 
L 280.117045 472.307514 
L 281.131591 460.654335 
L 305.480682 460.654335 
L 306.495227 449.001156 
L 330.844318 449.001156 
L 331.858864 437.347977 
L 356.207955 437.347977 
L 357.2225 425.694798 
L 381.571591 425.694798 
L 382.586136 414.041618 
L 406.935227 414.041618 
L 407.949773 402.388439 
L 432.298864 402.388439 
L 433.313409 390.73526 
L 457.6625 390.73526 
L 458.677045 379.082081 
L 483.026136 379.082081 
L 484.040682 367.428902 
L 508.389773 367.428902 
L 509.404318 355.775723 
L 533.753409 355.775723 
L 534.767955 344.122543 
L 559.117045 344.122543 
L 560.131591 332.469364 
L 584.480682 332.469364 
L 585.495227 320.816185 
L 609.844318 320.816185 
L 610.858864 309.163006 
L 635.207955 309.163006 
L 636.2225 297.509827 
L 660.571591 297.509827 
L 661.586136 285.856647 
L 685.935227 285.856647 
L 686.949773 274.203468 
L 711.298864 274.203468 
L 712.313409 262.550289 
L 736.6625 262.550289 
L 737.677045 250.89711 
L 762.026136 250.89711 
L 763.040682 239.243931 
L 787.389773 239.243931 
L 788.404318 227.590751 
L 812.753409 227.590751 
L 813.767955 215.937572 
L 838.117045 215.937572 
L 839.131591 204.284393 
L 863.480682 204.284393 
L 864.495227 192.631214 
L 888.844318 192.631214 
L 889.858864 180.978035 
L 914.207955 180.978035 
L 915.2225 169.324855 
L 939.571591 169.324855 
L 940.586136 157.671676 
L 964.935227 157.671676 
L 965.949773 146.018497 
L 990.298864 146.018497 
L 991.313409 134.365318 
L 1015.6625 134.365318 
L 1016.677045 122.712139 
L 1041.026136 122.712139 
L 1042.040682 111.05896 
L 1066.389773 111.05896 
L 1067.404318 99.40578 
L 1091.753409 99.40578 
L 1092.767955 87.752601 
L 1117.117045 87.752601 
L 1118.131591 76.099422 
L 1142.480682 76.099422 
L 1143.495227 64.446243 
L 1143.495227 64.446243 
" style="fill:none;stroke:#2ca02c;stroke-linecap:square;stroke-width:1.5;"/>
   </g>
   <g id="line2d_17">
    <path clip-path="url(#pbe210ef951)" d="M 128.949773 486.873988 
L 254.753409 486.873988 
L 255.767955 466.480925 
L 280.117045 466.480925 
L 281.131591 437.347977 
L 305.480682 437.347977 
L 306.495227 434.434682 
L 330.844318 434.434682 
L 331.858864 405.301734 
L 356.207955 405.301734 
L 357.2225 393.648555 
L 381.571591 393.648555 
L 382.586136 381.995376 
L 406.935227 381.995376 
L 407.949773 370.342197 
L 432.298864 370.342197 
L 433.313409 358.689017 
L 457.6625 358.689017 
L 458.677045 347.035838 
L 483.026136 347.035838 
L 484.040682 335.382659 
L 508.389773 335.382659 
L 509.404318 323.72948 
L 533.753409 323.72948 
L 534.767955 312.076301 
L 559.117045 312.076301 
L 560.131591 300.423121 
L 584.480682 300.423121 
L 585.495227 288.769942 
L 609.844318 288.769942 
L 610.858864 277.116763 
L 635.207955 277.116763 
L 636.2225 265.463584 
L 660.571591 265.463584 
L 661.586136 253.810405 
L 685.935227 253.810405 
L 686.949773 242.157225 
L 711.298864 242.157225 
L 712.313409 230.504046 
L 736.6625 230.504046 
L 737.677045 218.850867 
L 762.026136 218.850867 
L 763.040682 207.197688 
L 787.389773 207.197688 
L 788.404318 195.544509 
L 812.753409 195.544509 
L 813.767955 183.891329 
L 838.117045 183.891329 
L 839.131591 172.23815 
L 863.480682 172.23815 
L 864.495227 160.584971 
L 888.844318 160.584971 
L 889.858864 148.931792 
L 914.207955 148.931792 
L 915.2225 137.278613 
L 939.571591 137.278613 
L 940.586136 125.625434 
L 964.935227 125.625434 
L 965.949773 113.972254 
L 990.298864 113.972254 
L 991.313409 102.319075 
L 1015.6625 102.319075 
L 1016.677045 90.665896 
L 1041.026136 90.665896 
L 1042.040682 79.012717 
L 1066.389773 79.012717 
L 1067.404318 67.359538 
L 1091.753409 67.359538 
L 1092.767955 55.706358 
L 1117.117045 55.706358 
L 1118.131591 44.053179 
L 1142.480682 44.053179 
L 1143.495227 32.4 
L 1143.495227 32.4 
" style="fill:none;stroke:#d62728;stroke-linecap:square;stroke-width:1.5;"/>
   </g>
   <g id="line2d_18">
    <path clip-path="url(#pbe210ef951)" d="M 128.949773 522.56185 
L 160.400682 522.56185 
L 161.415227 517.463584 
L 166.487955 517.463584 
L 167.5025 510.180347 
L 173.589773 510.180347 
L 174.604318 509.452023 
L 179.677045 509.452023 
L 180.691591 502.168786 
L 185.764318 502.168786 
L 186.778864 499.255491 
L 191.851591 499.255491 
L 192.866136 496.342197 
L 198.953409 496.342197 
L 199.967955 493.428902 
L 205.040682 493.428902 
L 206.055227 490.515607 
L 211.127955 490.515607 
L 212.1425 487.602312 
L 218.229773 487.602312 
L 219.244318 484.689017 
L 224.317045 484.689017 
L 225.331591 481.775723 
L 230.404318 481.775723 
L 231.418864 478.862428 
L 237.506136 478.862428 
L 238.520682 475.949133 
L 243.593409 475.949133 
L 244.607955 473.035838 
L 249.680682 473.035838 
L 250.695227 470.122543 
L 255.767955 470.122543 
L 256.7825 467.209249 
L 262.869773 467.209249 
L 263.884318 464.295954 
L 268.957045 464.295954 
L 269.971591 461.382659 
L 275.044318 461.382659 
L 276.058864 458.469364 
L 282.146136 458.469364 
L 283.160682 455.556069 
L 288.233409 455.556069 
L 289.247955 452.642775 
L 294.320682 452.642775 
L 295.335227 449.72948 
L 301.4225 449.72948 
L 302.437045 446.816185 
L 307.509773 446.816185 
L 308.524318 443.90289 
L 313.597045 443.90289 
L 314.611591 440.989595 
L 319.684318 440.989595 
L 320.698864 438.076301 
L 326.786136 438.076301 
L 327.800682 435.163006 
L 332.873409 435.163006 
L 333.887955 432.249711 
L 338.960682 432.249711 
L 339.975227 429.336416 
L 346.0625 429.336416 
L 347.077045 426.423121 
L 352.149773 426.423121 
L 353.164318 423.509827 
L 358.237045 423.509827 
L 359.251591 420.596532 
L 365.338864 420.596532 
L 366.353409 417.683237 
L 371.426136 417.683237 
L 372.440682 414.769942 
L 377.513409 414.769942 
L 378.527955 411.856647 
L 383.600682 411.856647 
L 384.615227 408.943353 
L 390.7025 408.943353 
L 391.717045 406.030058 
L 396.789773 406.030058 
L 397.804318 403.116763 
L 402.877045 403.116763 
L 403.891591 400.203468 
L 409.978864 400.203468 
L 410.993409 397.290173 
L 416.066136 397.290173 
L 417.080682 394.376879 
L 422.153409 394.376879 
L 423.167955 391.463584 
L 429.255227 391.463584 
L 430.269773 388.550289 
L 435.3425 388.550289 
L 436.357045 385.636994 
L 441.429773 385.636994 
L 442.444318 382.723699 
L 447.517045 382.723699 
L 448.531591 379.810405 
L 454.618864 379.810405 
L 455.633409 376.89711 
L 460.706136 376.89711 
L 461.720682 373.983815 
L 466.793409 373.983815 
L 467.807955 371.07052 
L 473.895227 371.07052 
L 474.909773 368.157225 
L 479.9825 368.157225 
L 480.997045 365.243931 
L 486.069773 365.243931 
L 487.084318 362.330636 
L 493.171591 362.330636 
L 494.186136 359.417341 
L 499.258864 359.417341 
L 500.273409 356.504046 
L 505.346136 356.504046 
L 506.360682 353.590751 
L 511.433409 353.590751 
L 512.447955 350.677457 
L 518.535227 350.677457 
L 519.549773 347.764162 
L 524.6225 347.764162 
L 525.637045 344.850867 
L 530.709773 344.850867 
L 531.724318 341.937572 
L 537.811591 341.937572 
L 538.826136 339.024277 
L 543.898864 339.024277 
L 544.913409 336.110983 
L 549.986136 336.110983 
L 551.000682 333.197688 
L 557.087955 333.197688 
L 558.1025 330.284393 
L 563.175227 330.284393 
L 564.189773 327.371098 
L 569.2625 327.371098 
L 570.277045 324.457803 
L 575.349773 324.457803 
L 576.364318 321.544509 
L 582.451591 321.544509 
L 583.466136 318.631214 
L 588.538864 318.631214 
L 589.553409 315.717919 
L 594.626136 315.717919 
L 595.640682 312.804624 
L 601.727955 312.804624 
L 602.7425 309.891329 
L 607.815227 309.891329 
L 608.829773 306.978035 
L 613.9025 306.978035 
L 614.917045 304.06474 
L 621.004318 304.06474 
L 622.018864 301.151445 
L 627.091591 301.151445 
L 628.106136 298.23815 
L 633.178864 298.23815 
L 634.193409 295.324855 
L 639.266136 295.324855 
L 640.280682 292.411561 
L 646.367955 292.411561 
L 647.3825 289.498266 
L 652.455227 289.498266 
L 653.469773 286.584971 
L 658.5425 286.584971 
L 659.557045 283.671676 
L 665.644318 283.671676 
L 666.658864 280.758382 
L 671.731591 280.758382 
L 672.746136 277.845087 
L 677.818864 277.845087 
L 678.833409 274.931792 
L 684.920682 274.931792 
L 685.935227 272.018497 
L 691.007955 272.018497 
L 692.0225 269.105202 
L 697.095227 269.105202 
L 698.109773 266.191908 
L 703.1825 266.191908 
L 704.197045 263.278613 
L 710.284318 263.278613 
L 711.298864 260.365318 
L 716.371591 260.365318 
L 717.386136 257.452023 
L 722.458864 257.452023 
L 723.473409 254.538728 
L 729.560682 254.538728 
L 730.575227 251.625434 
L 735.647955 251.625434 
L 736.6625 248.712139 
L 741.735227 248.712139 
L 742.749773 245.798844 
L 748.837045 245.798844 
L 749.851591 242.885549 
L 754.924318 242.885549 
L 755.938864 239.972254 
L 761.011591 239.972254 
L 762.026136 237.05896 
L 767.098864 237.05896 
L 768.113409 234.145665 
L 774.200682 234.145665 
L 775.215227 231.23237 
L 780.287955 231.23237 
L 781.3025 228.319075 
L 786.375227 228.319075 
L 787.389773 225.40578 
L 793.477045 225.40578 
L 794.491591 222.492486 
L 799.564318 222.492486 
L 800.578864 219.579191 
L 805.651591 219.579191 
L 806.666136 216.665896 
L 812.753409 216.665896 
L 813.767955 213.752601 
L 818.840682 213.752601 
L 819.855227 210.839306 
L 824.927955 210.839306 
L 825.9425 207.926012 
L 831.015227 207.926012 
L 832.029773 205.012717 
L 838.117045 205.012717 
L 839.131591 202.099422 
L 844.204318 202.099422 
L 845.218864 199.186127 
L 850.291591 199.186127 
L 851.306136 196.272832 
L 857.393409 196.272832 
L 858.407955 193.359538 
L 863.480682 193.359538 
L 864.495227 190.446243 
L 869.567955 190.446243 
L 870.5825 187.532948 
L 876.669773 187.532948 
L 877.684318 184.619653 
L 882.757045 184.619653 
L 883.771591 181.706358 
L 888.844318 181.706358 
L 889.858864 178.793064 
L 894.931591 178.793064 
L 895.946136 175.879769 
L 902.033409 175.879769 
L 903.047955 172.966474 
L 908.120682 172.966474 
L 909.135227 170.053179 
L 914.207955 170.053179 
L 915.2225 167.139884 
L 921.309773 167.139884 
L 922.324318 164.22659 
L 927.397045 164.22659 
L 928.411591 161.313295 
L 933.484318 161.313295 
L 934.498864 158.4 
L 940.586136 158.4 
L 941.600682 155.486705 
L 946.673409 155.486705 
L 947.687955 152.57341 
L 952.760682 152.57341 
L 953.775227 149.660116 
L 958.847955 149.660116 
L 959.8625 146.746821 
L 965.949773 146.746821 
L 966.964318 143.833526 
L 972.037045 143.833526 
L 973.051591 140.920231 
L 978.124318 140.920231 
L 979.138864 138.006936 
L 985.226136 138.006936 
L 986.240682 135.093642 
L 991.313409 135.093642 
L 992.327955 132.180347 
L 997.400682 132.180347 
L 998.415227 129.267052 
L 1004.5025 129.267052 
L 1005.517045 126.353757 
L 1010.589773 126.353757 
L 1011.604318 123.440462 
L 1016.677045 123.440462 
L 1017.691591 120.527168 
L 1022.764318 120.527168 
L 1023.778864 117.613873 
L 1029.866136 117.613873 
L 1030.880682 114.700578 
L 1035.953409 114.700578 
L 1036.967955 111.787283 
L 1042.040682 111.787283 
L 1043.055227 108.873988 
L 1049.1425 108.873988 
L 1050.157045 105.960694 
L 1055.229773 105.960694 
L 1056.244318 103.047399 
L 1061.317045 103.047399 
L 1062.331591 100.134104 
L 1068.418864 100.134104 
L 1069.433409 97.220809 
L 1074.506136 97.220809 
L 1075.520682 94.307514 
L 1080.593409 94.307514 
L 1081.607955 91.39422 
L 1086.680682 91.39422 
L 1087.695227 88.480925 
L 1093.7825 88.480925 
L 1094.797045 85.56763 
L 1099.869773 85.56763 
L 1100.884318 82.654335 
L 1105.957045 82.654335 
L 1106.971591 79.74104 
L 1113.058864 79.74104 
L 1114.073409 76.827746 
L 1119.146136 76.827746 
L 1120.160682 73.914451 
L 1125.233409 73.914451 
L 1126.247955 71.001156 
L 1132.335227 71.001156 
L 1133.349773 68.087861 
L 1138.4225 68.087861 
L 1139.437045 65.174566 
L 1143.495227 65.174566 
L 1143.495227 65.174566 
" style="fill:none;stroke:#9467bd;stroke-linecap:square;stroke-width:1.5;"/>
   </g>
   <g id="line2d_19">
    <path clip-path="url(#pbe210ef951)" d="M 128.949773 489.787283 
L 254.753409 489.787283 
L 255.767955 478.134104 
L 280.117045 478.134104 
L 281.131591 466.480925 
L 305.480682 466.480925 
L 306.495227 454.827746 
L 330.844318 454.827746 
L 331.858864 443.174566 
L 356.207955 443.174566 
L 357.2225 431.521387 
L 381.571591 431.521387 
L 382.586136 419.868208 
L 406.935227 419.868208 
L 407.949773 408.215029 
L 432.298864 408.215029 
L 433.313409 396.56185 
L 457.6625 396.56185 
L 458.677045 384.908671 
L 483.026136 384.908671 
L 484.040682 373.255491 
L 508.389773 373.255491 
L 509.404318 361.602312 
L 533.753409 361.602312 
L 534.767955 349.949133 
L 559.117045 349.949133 
L 560.131591 338.295954 
L 584.480682 338.295954 
L 585.495227 326.642775 
L 609.844318 326.642775 
L 610.858864 314.989595 
L 635.207955 314.989595 
L 636.2225 303.336416 
L 660.571591 303.336416 
L 661.586136 291.683237 
L 685.935227 291.683237 
L 686.949773 280.030058 
L 711.298864 280.030058 
L 712.313409 268.376879 
L 736.6625 268.376879 
L 737.677045 256.723699 
L 762.026136 256.723699 
L 763.040682 245.07052 
L 787.389773 245.07052 
L 788.404318 233.417341 
L 812.753409 233.417341 
L 813.767955 221.764162 
L 838.117045 221.764162 
L 839.131591 210.110983 
L 863.480682 210.110983 
L 864.495227 198.457803 
L 888.844318 198.457803 
L 889.858864 186.804624 
L 914.207955 186.804624 
L 915.2225 175.151445 
L 939.571591 175.151445 
L 940.586136 163.498266 
L 964.935227 163.498266 
L 965.949773 151.845087 
L 990.298864 151.845087 
L 991.313409 140.191908 
L 1015.6625 140.191908 
L 1016.677045 128.538728 
L 1041.026136 128.538728 
L 1042.040682 116.885549 
L 1066.389773 116.885549 
L 1067.404318 105.23237 
L 1091.753409 105.23237 
L 1092.767955 93.579191 
L 1117.117045 93.579191 
L 1118.131591 81.926012 
L 1142.480682 81.926012 
L 1143.495227 70.272832 
L 1143.495227 70.272832 
" style="fill:none;stroke:#8c564b;stroke-linecap:square;stroke-width:1.5;"/>
   </g>
   <g id="line2d_20">
    <path clip-path="url(#pbe210ef951)" d="M 128.949773 489.787283 
L 254.753409 489.787283 
L 255.767955 478.134104 
L 280.117045 478.134104 
L 281.131591 466.480925 
L 305.480682 466.480925 
L 306.495227 454.827746 
L 330.844318 454.827746 
L 331.858864 443.174566 
L 356.207955 443.174566 
L 357.2225 431.521387 
L 381.571591 431.521387 
L 382.586136 419.868208 
L 406.935227 419.868208 
L 407.949773 408.215029 
L 432.298864 408.215029 
L 433.313409 396.56185 
L 457.6625 396.56185 
L 458.677045 384.908671 
L 483.026136 384.908671 
L 484.040682 373.255491 
L 508.389773 373.255491 
L 509.404318 361.602312 
L 533.753409 361.602312 
L 534.767955 349.949133 
L 559.117045 349.949133 
L 560.131591 338.295954 
L 584.480682 338.295954 
L 585.495227 326.642775 
L 609.844318 326.642775 
L 610.858864 314.989595 
L 635.207955 314.989595 
L 636.2225 303.336416 
L 660.571591 303.336416 
L 661.586136 291.683237 
L 685.935227 291.683237 
L 686.949773 280.030058 
L 711.298864 280.030058 
L 712.313409 268.376879 
L 736.6625 268.376879 
L 737.677045 256.723699 
L 762.026136 256.723699 
L 763.040682 245.07052 
L 787.389773 245.07052 
L 788.404318 233.417341 
L 812.753409 233.417341 
L 813.767955 221.764162 
L 838.117045 221.764162 
L 839.131591 210.110983 
L 863.480682 210.110983 
L 864.495227 198.457803 
L 888.844318 198.457803 
L 889.858864 186.804624 
L 914.207955 186.804624 
L 915.2225 175.151445 
L 939.571591 175.151445 
L 940.586136 163.498266 
L 964.935227 163.498266 
L 965.949773 151.845087 
L 990.298864 151.845087 
L 991.313409 140.191908 
L 1015.6625 140.191908 
L 1016.677045 128.538728 
L 1041.026136 128.538728 
L 1042.040682 116.885549 
L 1066.389773 116.885549 
L 1067.404318 105.23237 
L 1091.753409 105.23237 
L 1092.767955 93.579191 
L 1117.117045 93.579191 
L 1118.131591 81.926012 
L 1142.480682 81.926012 
L 1143.495227 70.272832 
L 1143.495227 70.272832 
" style="fill:none;stroke:#e377c2;stroke-linecap:square;stroke-width:1.5;"/>
   </g>
   <g id="line2d_21">
    <path clip-path="url(#pbe210ef951)" d="M 128.949773 489.787283 
L 254.753409 489.787283 
L 255.767955 478.134104 
L 280.117045 478.134104 
L 281.131591 466.480925 
L 305.480682 466.480925 
L 306.495227 454.827746 
L 330.844318 454.827746 
L 331.858864 443.174566 
L 356.207955 443.174566 
L 357.2225 431.521387 
L 381.571591 431.521387 
L 382.586136 419.868208 
L 406.935227 419.868208 
L 407.949773 408.215029 
L 432.298864 408.215029 
L 433.313409 396.56185 
L 457.6625 396.56185 
L 458.677045 384.908671 
L 483.026136 384.908671 
L 484.040682 373.255491 
L 508.389773 373.255491 
L 509.404318 361.602312 
L 533.753409 361.602312 
L 534.767955 349.949133 
L 559.117045 349.949133 
L 560.131591 338.295954 
L 584.480682 338.295954 
L 585.495227 326.642775 
L 609.844318 326.642775 
L 610.858864 314.989595 
L 635.207955 314.989595 
L 636.2225 303.336416 
L 660.571591 303.336416 
L 661.586136 291.683237 
L 685.935227 291.683237 
L 686.949773 280.030058 
L 711.298864 280.030058 
L 712.313409 268.376879 
L 736.6625 268.376879 
L 737.677045 256.723699 
L 762.026136 256.723699 
L 763.040682 245.07052 
L 787.389773 245.07052 
L 788.404318 233.417341 
L 812.753409 233.417341 
L 813.767955 221.764162 
L 838.117045 221.764162 
L 839.131591 210.110983 
L 863.480682 210.110983 
L 864.495227 198.457803 
L 888.844318 198.457803 
L 889.858864 186.804624 
L 914.207955 186.804624 
L 915.2225 175.151445 
L 939.571591 175.151445 
L 940.586136 163.498266 
L 964.935227 163.498266 
L 965.949773 151.845087 
L 990.298864 151.845087 
L 991.313409 140.191908 
L 1015.6625 140.191908 
L 1016.677045 128.538728 
L 1041.026136 128.538728 
L 1042.040682 116.885549 
L 1066.389773 116.885549 
L 1067.404318 105.23237 
L 1091.753409 105.23237 
L 1092.767955 93.579191 
L 1117.117045 93.579191 
L 1118.131591 81.926012 
L 1142.480682 81.926012 
L 1143.495227 70.272832 
L 1143.495227 70.272832 
" style="fill:none;stroke:#7f7f7f;stroke-linecap:square;stroke-width:1.5;"/>
   </g>
   <g id="line2d_22">
    <path clip-path="url(#pbe210ef951)" d="M 128.949773 498.527168 
L 223.3025 498.527168 
L 224.317045 489.787283 
L 242.578864 489.787283 
L 243.593409 481.047399 
L 261.855227 481.047399 
L 262.869773 472.307514 
L 281.131591 472.307514 
L 282.146136 463.56763 
L 300.407955 463.56763 
L 301.4225 454.827746 
L 318.669773 454.827746 
L 319.684318 446.087861 
L 337.946136 446.087861 
L 338.960682 437.347977 
L 357.2225 437.347977 
L 358.237045 428.608092 
L 376.498864 428.608092 
L 377.513409 419.868208 
L 395.775227 419.868208 
L 396.789773 411.128324 
L 414.037045 411.128324 
L 415.051591 402.388439 
L 433.313409 402.388439 
L 434.327955 393.648555 
L 452.589773 393.648555 
L 453.604318 384.908671 
L 471.866136 384.908671 
L 472.880682 376.168786 
L 491.1425 376.168786 
L 492.157045 367.428902 
L 509.404318 367.428902 
L 510.418864 358.689017 
L 528.680682 358.689017 
L 529.695227 349.949133 
L 547.957045 349.949133 
L 548.971591 341.209249 
L 567.233409 341.209249 
L 568.247955 332.469364 
L 586.509773 332.469364 
L 587.524318 323.72948 
L 604.771591 323.72948 
L 605.786136 314.989595 
L 624.047955 314.989595 
L 625.0625 306.249711 
L 643.324318 306.249711 
L 644.338864 297.509827 
L 662.600682 297.509827 
L 663.615227 288.769942 
L 681.877045 288.769942 
L 682.891591 280.030058 
L 700.138864 280.030058 
L 701.153409 271.290173 
L 719.415227 271.290173 
L 720.429773 262.550289 
L 738.691591 262.550289 
L 739.706136 253.810405 
L 757.967955 253.810405 
L 758.9825 245.07052 
L 777.244318 245.07052 
L 778.258864 236.330636 
L 795.506136 236.330636 
L 796.520682 227.590751 
L 814.7825 227.590751 
L 815.797045 218.850867 
L 834.058864 218.850867 
L 835.073409 210.110983 
L 853.335227 210.110983 
L 854.349773 201.371098 
L 872.611591 201.371098 
L 873.626136 192.631214 
L 890.873409 192.631214 
L 891.887955 183.891329 
L 910.149773 183.891329 
L 911.164318 175.151445 
L 929.426136 175.151445 
L 930.440682 166.411561 
L 948.7025 166.411561 
L 949.717045 157.671676 
L 967.978864 157.671676 
L 968.993409 148.931792 
L 986.240682 148.931792 
L 987.255227 140.191908 
L 1005.517045 140.191908 
L 1006.531591 131.452023 
L 1024.793409 131.452023 
L 1025.807955 122.712139 
L 1044.069773 122.712139 
L 1045.084318 113.972254 
L 1063.346136 113.972254 
L 1064.360682 105.23237 
L 1081.607955 105.23237 
L 1082.6225 96.492486 
L 1100.884318 96.492486 
L 1101.898864 87.752601 
L 1120.160682 87.752601 
L 1121.175227 79.012717 
L 1139.437045 79.012717 
L 1140.451591 70.272832 
L 1143.495227 70.272832 
L 1143.495227 70.272832 
" style="fill:none;stroke:#bcbd22;stroke-linecap:square;stroke-width:1.5;"/>
   </g>
   <g id="line2d_23">
    <path clip-path="url(#pbe210ef951)" d="M 128.949773 486.873988 
L 223.3025 486.873988 
L 224.317045 478.134104 
L 242.578864 478.134104 
L 243.593409 469.39422 
L 261.855227 469.39422 
L 262.869773 460.654335 
L 281.131591 460.654335 
L 282.146136 451.914451 
L 300.407955 451.914451 
L 301.4225 443.174566 
L 318.669773 443.174566 
L 319.684318 434.434682 
L 337.946136 434.434682 
L 338.960682 425.694798 
L 357.2225 425.694798 
L 358.237045 416.954913 
L 376.498864 416.954913 
L 377.513409 408.215029 
L 395.775227 408.215029 
L 396.789773 399.475145 
L 414.037045 399.475145 
L 415.051591 390.73526 
L 433.313409 390.73526 
L 434.327955 381.995376 
L 452.589773 381.995376 
L 453.604318 373.255491 
L 471.866136 373.255491 
L 472.880682 364.515607 
L 491.1425 364.515607 
L 492.157045 355.775723 
L 509.404318 355.775723 
L 510.418864 347.035838 
L 528.680682 347.035838 
L 529.695227 338.295954 
L 547.957045 338.295954 
L 548.971591 329.556069 
L 567.233409 329.556069 
L 568.247955 320.816185 
L 586.509773 320.816185 
L 587.524318 312.076301 
L 604.771591 312.076301 
L 605.786136 303.336416 
L 624.047955 303.336416 
L 625.0625 294.596532 
L 643.324318 294.596532 
L 644.338864 285.856647 
L 662.600682 285.856647 
L 663.615227 277.116763 
L 681.877045 277.116763 
L 682.891591 268.376879 
L 700.138864 268.376879 
L 701.153409 259.636994 
L 719.415227 259.636994 
L 720.429773 250.89711 
L 738.691591 250.89711 
L 739.706136 242.157225 
L 757.967955 242.157225 
L 758.9825 233.417341 
L 777.244318 233.417341 
L 778.258864 224.677457 
L 795.506136 224.677457 
L 796.520682 215.937572 
L 814.7825 215.937572 
L 815.797045 207.197688 
L 834.058864 207.197688 
L 835.073409 198.457803 
L 853.335227 198.457803 
L 854.349773 189.717919 
L 872.611591 189.717919 
L 873.626136 180.978035 
L 890.873409 180.978035 
L 891.887955 172.23815 
L 910.149773 172.23815 
L 911.164318 163.498266 
L 929.426136 163.498266 
L 930.440682 154.758382 
L 948.7025 154.758382 
L 949.717045 146.018497 
L 967.978864 146.018497 
L 968.993409 137.278613 
L 986.240682 137.278613 
L 987.255227 128.538728 
L 1005.517045 128.538728 
L 1006.531591 119.798844 
L 1024.793409 119.798844 
L 1025.807955 111.05896 
L 1044.069773 111.05896 
L 1045.084318 102.319075 
L 1063.346136 102.319075 
L 1064.360682 93.579191 
L 1081.607955 93.579191 
L 1082.6225 84.839306 
L 1100.884318 84.839306 
L 1101.898864 76.099422 
L 1120.160682 76.099422 
L 1121.175227 67.359538 
L 1139.437045 67.359538 
L 1140.451591 58.619653 
L 1143.495227 58.619653 
L 1143.495227 58.619653 
" style="fill:none;stroke:#17becf;stroke-linecap:square;stroke-width:1.5;"/>
   </g>
   <g id="line2d_24">
    <path clip-path="url(#pbe210ef951)" d="M 128.949773 489.787283 
L 223.3025 489.787283 
L 224.317045 481.047399 
L 242.578864 481.047399 
L 243.593409 472.307514 
L 261.855227 472.307514 
L 262.869773 463.56763 
L 281.131591 463.56763 
L 282.146136 454.827746 
L 300.407955 454.827746 
L 301.4225 446.087861 
L 318.669773 446.087861 
L 319.684318 437.347977 
L 337.946136 437.347977 
L 338.960682 428.608092 
L 357.2225 428.608092 
L 358.237045 419.868208 
L 376.498864 419.868208 
L 377.513409 411.128324 
L 395.775227 411.128324 
L 396.789773 402.388439 
L 414.037045 402.388439 
L 415.051591 393.648555 
L 433.313409 393.648555 
L 434.327955 384.908671 
L 452.589773 384.908671 
L 453.604318 376.168786 
L 471.866136 376.168786 
L 472.880682 367.428902 
L 491.1425 367.428902 
L 492.157045 358.689017 
L 509.404318 358.689017 
L 510.418864 349.949133 
L 528.680682 349.949133 
L 529.695227 341.209249 
L 547.957045 341.209249 
L 548.971591 332.469364 
L 567.233409 332.469364 
L 568.247955 323.72948 
L 586.509773 323.72948 
L 587.524318 314.989595 
L 604.771591 314.989595 
L 605.786136 306.249711 
L 624.047955 306.249711 
L 625.0625 297.509827 
L 643.324318 297.509827 
L 644.338864 288.769942 
L 662.600682 288.769942 
L 663.615227 280.030058 
L 681.877045 280.030058 
L 682.891591 271.290173 
L 700.138864 271.290173 
L 701.153409 262.550289 
L 719.415227 262.550289 
L 720.429773 253.810405 
L 738.691591 253.810405 
L 739.706136 245.07052 
L 757.967955 245.07052 
L 758.9825 236.330636 
L 777.244318 236.330636 
L 778.258864 227.590751 
L 795.506136 227.590751 
L 796.520682 218.850867 
L 814.7825 218.850867 
L 815.797045 210.110983 
L 834.058864 210.110983 
L 835.073409 201.371098 
L 853.335227 201.371098 
L 854.349773 192.631214 
L 872.611591 192.631214 
L 873.626136 183.891329 
L 890.873409 183.891329 
L 891.887955 175.151445 
L 910.149773 175.151445 
L 911.164318 166.411561 
L 929.426136 166.411561 
L 930.440682 157.671676 
L 948.7025 157.671676 
L 949.717045 148.931792 
L 967.978864 148.931792 
L 968.993409 140.191908 
L 986.240682 140.191908 
L 987.255227 131.452023 
L 1005.517045 131.452023 
L 1006.531591 122.712139 
L 1024.793409 122.712139 
L 1025.807955 113.972254 
L 1044.069773 113.972254 
L 1045.084318 105.23237 
L 1063.346136 105.23237 
L 1064.360682 96.492486 
L 1081.607955 96.492486 
L 1082.6225 87.752601 
L 1100.884318 87.752601 
L 1101.898864 79.012717 
L 1120.160682 79.012717 
L 1121.175227 70.272832 
L 1139.437045 70.272832 
L 1140.451591 61.532948 
L 1143.495227 61.532948 
L 1143.495227 61.532948 
" style="fill:none;stroke:#1f77b4;stroke-linecap:square;stroke-width:1.5;"/>
   </g>
   <g id="line2d_25">
    <path clip-path="url(#pbe210ef951)" d="M 128.949773 460.654335 
L 318.669773 460.654335 
L 319.684318 443.174566 
L 356.207955 443.174566 
L 357.2225 425.694798 
L 394.760682 425.694798 
L 395.775227 408.215029 
L 432.298864 408.215029 
L 433.313409 390.73526 
L 470.851591 390.73526 
L 471.866136 373.255491 
L 508.389773 373.255491 
L 509.404318 355.775723 
L 546.9425 355.775723 
L 547.957045 338.295954 
L 584.480682 338.295954 
L 585.495227 320.816185 
L 623.033409 320.816185 
L 624.047955 303.336416 
L 660.571591 303.336416 
L 661.586136 285.856647 
L 699.124318 285.856647 
L 700.138864 268.376879 
L 736.6625 268.376879 
L 737.677045 250.89711 
L 775.215227 250.89711 
L 776.229773 233.417341 
L 812.753409 233.417341 
L 813.767955 215.937572 
L 851.306136 215.937572 
L 852.320682 198.457803 
L 888.844318 198.457803 
L 889.858864 180.978035 
L 927.397045 180.978035 
L 928.411591 163.498266 
L 964.935227 163.498266 
L 965.949773 146.018497 
L 1003.487955 146.018497 
L 1004.5025 128.538728 
L 1041.026136 128.538728 
L 1042.040682 111.05896 
L 1079.578864 111.05896 
L 1080.593409 93.579191 
L 1117.117045 93.579191 
L 1118.131591 76.099422 
L 1143.495227 76.099422 
L 1143.495227 76.099422 
" style="fill:none;stroke:#ff7f0e;stroke-linecap:square;stroke-width:1.5;"/>
   </g>
   <g id="line2d_26">
    <path clip-path="url(#pbe210ef951)" d="M 128.949773 489.787283 
L 254.753409 489.787283 
L 255.767955 478.134104 
L 280.117045 478.134104 
L 281.131591 466.480925 
L 305.480682 466.480925 
L 306.495227 454.827746 
L 330.844318 454.827746 
L 331.858864 443.174566 
L 356.207955 443.174566 
L 357.2225 431.521387 
L 381.571591 431.521387 
L 382.586136 419.868208 
L 406.935227 419.868208 
L 407.949773 408.215029 
L 432.298864 408.215029 
L 433.313409 396.56185 
L 457.6625 396.56185 
L 458.677045 384.908671 
L 483.026136 384.908671 
L 484.040682 373.255491 
L 508.389773 373.255491 
L 509.404318 361.602312 
L 533.753409 361.602312 
L 534.767955 349.949133 
L 559.117045 349.949133 
L 560.131591 338.295954 
L 584.480682 338.295954 
L 585.495227 326.642775 
L 609.844318 326.642775 
L 610.858864 314.989595 
L 635.207955 314.989595 
L 636.2225 303.336416 
L 660.571591 303.336416 
L 661.586136 291.683237 
L 685.935227 291.683237 
L 686.949773 280.030058 
L 711.298864 280.030058 
L 712.313409 268.376879 
L 736.6625 268.376879 
L 737.677045 256.723699 
L 762.026136 256.723699 
L 763.040682 245.07052 
L 787.389773 245.07052 
L 788.404318 233.417341 
L 812.753409 233.417341 
L 813.767955 221.764162 
L 838.117045 221.764162 
L 839.131591 210.110983 
L 863.480682 210.110983 
L 864.495227 198.457803 
L 888.844318 198.457803 
L 889.858864 186.804624 
L 914.207955 186.804624 
L 915.2225 175.151445 
L 939.571591 175.151445 
L 940.586136 163.498266 
L 964.935227 163.498266 
L 965.949773 151.845087 
L 990.298864 151.845087 
L 991.313409 140.191908 
L 1015.6625 140.191908 
L 1016.677045 128.538728 
L 1041.026136 128.538728 
L 1042.040682 116.885549 
L 1066.389773 116.885549 
L 1067.404318 105.23237 
L 1091.753409 105.23237 
L 1092.767955 93.579191 
L 1117.117045 93.579191 
L 1118.131591 81.926012 
L 1142.480682 81.926012 
L 1143.495227 70.272832 
L 1143.495227 70.272832 
" style="fill:none;stroke:#2ca02c;stroke-linecap:square;stroke-width:1.5;"/>
   </g>
   <g id="line2d_27">
    <path clip-path="url(#pbe210ef951)" d="M 128.949773 489.787283 
L 154.820682 489.787283 
L 155.327955 483.960694 
L 180.691591 483.960694 
L 181.198864 472.307514 
L 206.5625 472.307514 
L 207.069773 460.654335 
L 232.433409 460.654335 
L 232.940682 449.001156 
L 258.304318 449.001156 
L 258.811591 437.347977 
L 284.6825 437.347977 
L 285.189773 425.694798 
L 310.553409 425.694798 
L 311.060682 414.041618 
L 336.424318 414.041618 
L 336.931591 402.388439 
L 362.295227 402.388439 
L 362.8025 390.73526 
L 388.166136 390.73526 
L 388.673409 379.082081 
L 414.544318 379.082081 
L 415.051591 367.428902 
L 440.415227 367.428902 
L 440.9225 355.775723 
L 466.286136 355.775723 
L 466.793409 344.122543 
L 492.157045 344.122543 
L 492.664318 332.469364 
L 518.027955 332.469364 
L 518.535227 320.816185 
L 544.406136 320.816185 
L 544.913409 309.163006 
L 570.277045 309.163006 
L 570.784318 297.509827 
L 596.147955 297.509827 
L 596.655227 285.856647 
L 622.018864 285.856647 
L 622.526136 274.203468 
L 647.889773 274.203468 
L 648.397045 262.550289 
L 674.267955 262.550289 
L 674.775227 250.89711 
L 700.138864 250.89711 
L 700.646136 239.243931 
L 726.009773 239.243931 
L 726.517045 227.590751 
L 751.880682 227.590751 
L 752.387955 215.937572 
L 777.751591 215.937572 
L 778.258864 204.284393 
L 804.129773 204.284393 
L 804.637045 192.631214 
L 830.000682 192.631214 
L 830.507955 180.978035 
L 855.871591 180.978035 
L 856.378864 169.324855 
L 881.7425 169.324855 
L 882.249773 157.671676 
L 907.613409 157.671676 
L 908.120682 146.018497 
L 933.991591 146.018497 
L 934.498864 134.365318 
L 959.8625 134.365318 
L 960.369773 122.712139 
L 985.733409 122.712139 
L 986.240682 111.05896 
L 1011.604318 111.05896 
L 1012.111591 99.40578 
L 1037.475227 99.40578 
L 1037.9825 87.752601 
L 1063.853409 87.752601 
L 1064.360682 76.099422 
L 1089.724318 76.099422 
L 1090.231591 64.446243 
L 1115.595227 64.446243 
L 1116.1025 52.793064 
L 1141.466136 52.793064 
L 1141.973409 41.139884 
L 1143.495227 41.139884 
L 1143.495227 41.139884 
" style="fill:none;stroke:#d62728;stroke-linecap:square;stroke-width:1.5;"/>
   </g>
   <g id="line2d_28">
    <path clip-path="url(#pbe210ef951)" d="M 128.949773 498.527168 
L 223.3025 498.527168 
L 224.317045 489.787283 
L 242.578864 489.787283 
L 243.593409 481.047399 
L 261.855227 481.047399 
L 262.869773 472.307514 
L 281.131591 472.307514 
L 282.146136 463.56763 
L 300.407955 463.56763 
L 301.4225 454.827746 
L 318.669773 454.827746 
L 319.684318 446.087861 
L 337.946136 446.087861 
L 338.960682 437.347977 
L 357.2225 437.347977 
L 358.237045 428.608092 
L 376.498864 428.608092 
L 377.513409 419.868208 
L 395.775227 419.868208 
L 396.789773 411.128324 
L 414.037045 411.128324 
L 415.051591 402.388439 
L 433.313409 402.388439 
L 434.327955 393.648555 
L 452.589773 393.648555 
L 453.604318 384.908671 
L 471.866136 384.908671 
L 472.880682 376.168786 
L 491.1425 376.168786 
L 492.157045 367.428902 
L 509.404318 367.428902 
L 510.418864 358.689017 
L 528.680682 358.689017 
L 529.695227 349.949133 
L 547.957045 349.949133 
L 548.971591 341.209249 
L 567.233409 341.209249 
L 568.247955 332.469364 
L 586.509773 332.469364 
L 587.524318 323.72948 
L 604.771591 323.72948 
L 605.786136 314.989595 
L 624.047955 314.989595 
L 625.0625 306.249711 
L 643.324318 306.249711 
L 644.338864 297.509827 
L 662.600682 297.509827 
L 663.615227 288.769942 
L 681.877045 288.769942 
L 682.891591 280.030058 
L 700.138864 280.030058 
L 701.153409 271.290173 
L 719.415227 271.290173 
L 720.429773 262.550289 
L 738.691591 262.550289 
L 739.706136 253.810405 
L 757.967955 253.810405 
L 758.9825 245.07052 
L 777.244318 245.07052 
L 778.258864 236.330636 
L 795.506136 236.330636 
L 796.520682 227.590751 
L 814.7825 227.590751 
L 815.797045 218.850867 
L 834.058864 218.850867 
L 835.073409 210.110983 
L 853.335227 210.110983 
L 854.349773 201.371098 
L 872.611591 201.371098 
L 873.626136 192.631214 
L 890.873409 192.631214 
L 891.887955 183.891329 
L 910.149773 183.891329 
L 911.164318 175.151445 
L 929.426136 175.151445 
L 930.440682 166.411561 
L 948.7025 166.411561 
L 949.717045 157.671676 
L 967.978864 157.671676 
L 968.993409 148.931792 
L 986.240682 148.931792 
L 987.255227 140.191908 
L 1005.517045 140.191908 
L 1006.531591 131.452023 
L 1024.793409 131.452023 
L 1025.807955 122.712139 
L 1044.069773 122.712139 
L 1045.084318 113.972254 
L 1063.346136 113.972254 
L 1064.360682 105.23237 
L 1081.607955 105.23237 
L 1082.6225 96.492486 
L 1100.884318 96.492486 
L 1101.898864 87.752601 
L 1120.160682 87.752601 
L 1121.175227 79.012717 
L 1139.437045 79.012717 
L 1140.451591 70.272832 
L 1143.495227 70.272832 
L 1143.495227 70.272832 
" style="fill:none;stroke:#9467bd;stroke-linecap:square;stroke-width:1.5;"/>
   </g>
   <g id="line2d_29">
    <path clip-path="url(#pbe210ef951)" d="M 128.949773 180.747416 
L 1095.811591 180.747416 
L 1096.826136 91.83427 
L 1143.495227 91.83427 
L 1143.495227 91.83427 
" style="fill:none;stroke:#8c564b;stroke-linecap:square;stroke-width:1.5;"/>
   </g>
   <g id="line2d_30">
    <path clip-path="url(#pbe210ef951)" d="M 128.949773 483.960694 
L 254.753409 483.960694 
L 255.767955 472.307514 
L 280.117045 472.307514 
L 281.131591 460.654335 
L 305.480682 460.654335 
L 306.495227 449.001156 
L 330.844318 449.001156 
L 331.858864 437.347977 
L 356.207955 437.347977 
L 357.2225 425.694798 
L 381.571591 425.694798 
L 382.586136 414.041618 
L 406.935227 414.041618 
L 407.949773 402.388439 
L 432.298864 402.388439 
L 433.313409 390.73526 
L 457.6625 390.73526 
L 458.677045 379.082081 
L 483.026136 379.082081 
L 484.040682 367.428902 
L 508.389773 367.428902 
L 509.404318 355.775723 
L 533.753409 355.775723 
L 534.767955 344.122543 
L 559.117045 344.122543 
L 560.131591 332.469364 
L 584.480682 332.469364 
L 585.495227 320.816185 
L 609.844318 320.816185 
L 610.858864 309.163006 
L 635.207955 309.163006 
L 636.2225 297.509827 
L 660.571591 297.509827 
L 661.586136 285.856647 
L 685.935227 285.856647 
L 686.949773 274.203468 
L 711.298864 274.203468 
L 712.313409 262.550289 
L 736.6625 262.550289 
L 737.677045 250.89711 
L 762.026136 250.89711 
L 763.040682 239.243931 
L 787.389773 239.243931 
L 788.404318 227.590751 
L 812.753409 227.590751 
L 813.767955 215.937572 
L 838.117045 215.937572 
L 839.131591 204.284393 
L 863.480682 204.284393 
L 864.495227 192.631214 
L 888.844318 192.631214 
L 889.858864 180.978035 
L 914.207955 180.978035 
L 915.2225 169.324855 
L 939.571591 169.324855 
L 940.586136 157.671676 
L 964.935227 157.671676 
L 965.949773 146.018497 
L 990.298864 146.018497 
L 991.313409 134.365318 
L 1015.6625 134.365318 
L 1016.677045 122.712139 
L 1041.026136 122.712139 
L 1042.040682 111.05896 
L 1066.389773 111.05896 
L 1067.404318 99.40578 
L 1091.753409 99.40578 
L 1092.767955 87.752601 
L 1117.117045 87.752601 
L 1118.131591 76.099422 
L 1142.480682 76.099422 
L 1143.495227 64.446243 
L 1143.495227 64.446243 
" style="fill:none;stroke:#e377c2;stroke-linecap:square;stroke-width:1.5;"/>
   </g>
   <g id="line2d_31">
    <path clip-path="url(#pbe210ef951)" d="M 128.949773 180.747416 
L 854.349773 180.747416 
L 855.364318 114.062557 
L 999.429773 114.062557 
L 1000.444318 47.377697 
L 1143.495227 47.377697 
L 1143.495227 47.377697 
" style="fill:none;stroke:#7f7f7f;stroke-linecap:square;stroke-width:1.5;"/>
   </g>
   <g id="line2d_32">
    <path clip-path="url(#pbe210ef951)" d="M 128.949773 489.787283 
L 254.753409 489.787283 
L 255.767955 478.134104 
L 280.117045 478.134104 
L 281.131591 466.480925 
L 305.480682 466.480925 
L 306.495227 454.827746 
L 330.844318 454.827746 
L 331.858864 443.174566 
L 356.207955 443.174566 
L 357.2225 431.521387 
L 381.571591 431.521387 
L 382.586136 419.868208 
L 406.935227 419.868208 
L 407.949773 408.215029 
L 432.298864 408.215029 
L 433.313409 396.56185 
L 457.6625 396.56185 
L 458.677045 384.908671 
L 483.026136 384.908671 
L 484.040682 373.255491 
L 508.389773 373.255491 
L 509.404318 361.602312 
L 533.753409 361.602312 
L 534.767955 349.949133 
L 559.117045 349.949133 
L 560.131591 338.295954 
L 584.480682 338.295954 
L 585.495227 326.642775 
L 609.844318 326.642775 
L 610.858864 314.989595 
L 635.207955 314.989595 
L 636.2225 303.336416 
L 660.571591 303.336416 
L 661.586136 291.683237 
L 685.935227 291.683237 
L 686.949773 280.030058 
L 711.298864 280.030058 
L 712.313409 268.376879 
L 736.6625 268.376879 
L 737.677045 256.723699 
L 762.026136 256.723699 
L 763.040682 245.07052 
L 787.389773 245.07052 
L 788.404318 233.417341 
L 812.753409 233.417341 
L 813.767955 221.764162 
L 838.117045 221.764162 
L 839.131591 210.110983 
L 863.480682 210.110983 
L 864.495227 198.457803 
L 888.844318 198.457803 
L 889.858864 186.804624 
L 914.207955 186.804624 
L 915.2225 175.151445 
L 939.571591 175.151445 
L 940.586136 163.498266 
L 964.935227 163.498266 
L 965.949773 151.845087 
L 990.298864 151.845087 
L 991.313409 140.191908 
L 1015.6625 140.191908 
L 1016.677045 128.538728 
L 1041.026136 128.538728 
L 1042.040682 116.885549 
L 1066.389773 116.885549 
L 1067.404318 105.23237 
L 1091.753409 105.23237 
L 1092.767955 93.579191 
L 1117.117045 93.579191 
L 1118.131591 81.926012 
L 1142.480682 81.926012 
L 1143.495227 70.272832 
L 1143.495227 70.272832 
" style="fill:none;stroke:#bcbd22;stroke-linecap:square;stroke-width:1.5;"/>
   </g>
   <g id="patch_3">
    <path d="M 78.2225 561.6 
L 78.2225 7.2 
" style="fill:none;stroke:#000000;stroke-linecap:square;stroke-linejoin:miter;stroke-width:0.8;"/>
   </g>
   <g id="patch_4">
    <path d="M 1194.2225 561.6 
L 1194.2225 7.2 
" style="fill:none;stroke:#000000;stroke-linecap:square;stroke-linejoin:miter;stroke-width:0.8;"/>
   </g>
   <g id="patch_5">
    <path d="M 78.2225 561.6 
L 1194.2225 561.6 
" style="fill:none;stroke:#000000;stroke-linecap:square;stroke-linejoin:miter;stroke-width:0.8;"/>
   </g>
   <g id="patch_6">
    <path d="M 78.2225 7.2 
L 1194.2225 7.2 
" style="fill:none;stroke:#000000;stroke-linecap:square;stroke-linejoin:miter;stroke-width:0.8;"/>
   </g>
   <g id="text_15">
    <!-- STM32L0/L1 @ ~2MHz -->
    <g transform="translate(139.095227 168.159538)scale(0.16 -0.16)">
     <defs>
      <path d="M 53.515625 70.515625 
L 53.515625 60.890625 
Q 47.90625 63.578125 42.921875 64.890625 
Q 37.9375 66.21875 33.296875 66.21875 
Q 25.25 66.21875 20.875 63.09375 
Q 16.5 59.96875 16.5 54.203125 
Q 16.5 49.359375 19.40625 46.890625 
Q 22.3125 44.4375 30.421875 42.921875 
L 36.375 41.703125 
Q 47.40625 39.59375 52.65625 34.296875 
Q 57.90625 29 57.90625 20.125 
Q 57.90625 9.515625 50.796875 4.046875 
Q 43.703125 -1.421875 29.984375 -1.421875 
Q 24.8125 -1.421875 18.96875 -0.25 
Q 13.140625 0.921875 6.890625 3.21875 
L 6.890625 13.375 
Q 12.890625 10.015625 18.65625 8.296875 
Q 24.421875 6.59375 29.984375 6.59375 
Q 38.421875 6.59375 43.015625 9.90625 
Q 47.609375 13.234375 47.609375 19.390625 
Q 47.609375 24.75 44.3125 27.78125 
Q 41.015625 30.8125 33.5 32.328125 
L 27.484375 33.5 
Q 16.453125 35.6875 11.515625 40.375 
Q 6.59375 45.0625 6.59375 53.421875 
Q 6.59375 63.09375 13.40625 68.65625 
Q 20.21875 74.21875 32.171875 74.21875 
Q 37.3125 74.21875 42.625 73.28125 
Q 47.953125 72.359375 53.515625 70.515625 
z
" id="DejaVuSans-83"/>
      <path d="M -0.296875 72.90625 
L 61.375 72.90625 
L 61.375 64.59375 
L 35.5 64.59375 
L 35.5 0 
L 25.59375 0 
L 25.59375 64.59375 
L -0.296875 64.59375 
z
" id="DejaVuSans-84"/>
      <path d="M 40.578125 39.3125 
Q 47.65625 37.796875 51.625 33 
Q 55.609375 28.21875 55.609375 21.1875 
Q 55.609375 10.40625 48.1875 4.484375 
Q 40.765625 -1.421875 27.09375 -1.421875 
Q 22.515625 -1.421875 17.65625 -0.515625 
Q 12.796875 0.390625 7.625 2.203125 
L 7.625 11.71875 
Q 11.71875 9.328125 16.59375 8.109375 
Q 21.484375 6.890625 26.8125 6.890625 
Q 36.078125 6.890625 40.9375 10.546875 
Q 45.796875 14.203125 45.796875 21.1875 
Q 45.796875 27.640625 41.28125 31.265625 
Q 36.765625 34.90625 28.71875 34.90625 
L 20.21875 34.90625 
L 20.21875 43.015625 
L 29.109375 43.015625 
Q 36.375 43.015625 40.234375 45.921875 
Q 44.09375 48.828125 44.09375 54.296875 
Q 44.09375 59.90625 40.109375 62.90625 
Q 36.140625 65.921875 28.71875 65.921875 
Q 24.65625 65.921875 20.015625 65.03125 
Q 15.375 64.15625 9.8125 62.3125 
L 9.8125 71.09375 
Q 15.4375 72.65625 20.34375 73.4375 
Q 25.25 74.21875 29.59375 74.21875 
Q 40.828125 74.21875 47.359375 69.109375 
Q 53.90625 64.015625 53.90625 55.328125 
Q 53.90625 49.265625 50.4375 45.09375 
Q 46.96875 40.921875 40.578125 39.3125 
z
" id="DejaVuSans-51"/>
      <path d="M 9.8125 72.90625 
L 19.671875 72.90625 
L 19.671875 8.296875 
L 55.171875 8.296875 
L 55.171875 0 
L 9.8125 0 
z
" id="DejaVuSans-76"/>
      <path d="M 25.390625 72.90625 
L 33.6875 72.90625 
L 8.296875 -9.28125 
L 0 -9.28125 
z
" id="DejaVuSans-47"/>
      <path d="M 37.203125 26.21875 
Q 37.203125 19.234375 40.671875 15.25 
Q 44.140625 11.28125 50.203125 11.28125 
Q 56.203125 11.28125 59.640625 15.28125 
Q 63.09375 19.28125 63.09375 26.21875 
Q 63.09375 33.0625 59.578125 37.078125 
Q 56.0625 41.109375 50.09375 41.109375 
Q 44.1875 41.109375 40.6875 37.109375 
Q 37.203125 33.109375 37.203125 26.21875 
z
M 63.8125 11.625 
Q 60.890625 7.859375 57.109375 6.078125 
Q 53.328125 4.296875 48.296875 4.296875 
Q 39.890625 4.296875 34.640625 10.375 
Q 29.390625 16.453125 29.390625 26.21875 
Q 29.390625 35.984375 34.65625 42.078125 
Q 39.9375 48.1875 48.296875 48.1875 
Q 53.328125 48.1875 57.125 46.359375 
Q 60.9375 44.53125 63.8125 40.828125 
L 63.8125 47.21875 
L 70.796875 47.21875 
L 70.796875 11.28125 
Q 77.9375 12.359375 81.953125 17.796875 
Q 85.984375 23.25 85.984375 31.890625 
Q 85.984375 37.109375 84.4375 41.703125 
Q 82.90625 46.296875 79.78125 50.203125 
Q 74.703125 56.59375 67.40625 59.984375 
Q 60.109375 63.375 51.515625 63.375 
Q 45.515625 63.375 39.984375 61.78125 
Q 34.46875 60.203125 29.78125 57.078125 
Q 22.125 52.09375 17.796875 44.015625 
Q 13.484375 35.9375 13.484375 26.515625 
Q 13.484375 18.75 16.28125 11.953125 
Q 19.09375 5.171875 24.421875 0 
Q 29.546875 -5.078125 36.28125 -7.734375 
Q 43.015625 -10.40625 50.6875 -10.40625 
Q 56.984375 -10.40625 63.0625 -8.28125 
Q 69.140625 -6.15625 74.21875 -2.203125 
L 78.609375 -7.625 
Q 72.515625 -12.359375 65.3125 -14.875 
Q 58.109375 -17.390625 50.6875 -17.390625 
Q 41.65625 -17.390625 33.640625 -14.1875 
Q 25.640625 -10.984375 19.390625 -4.890625 
Q 13.140625 1.21875 9.859375 9.25 
Q 6.59375 17.28125 6.59375 26.515625 
Q 6.59375 35.40625 9.90625 43.453125 
Q 13.234375 51.515625 19.390625 57.625 
Q 25.6875 63.8125 33.9375 67.109375 
Q 42.1875 70.40625 51.421875 70.40625 
Q 61.765625 70.40625 70.625 66.15625 
Q 79.5 61.921875 85.5 54.109375 
Q 89.15625 49.3125 91.078125 43.703125 
Q 93.015625 38.09375 93.015625 32.078125 
Q 93.015625 19.234375 85.25 11.8125 
Q 77.484375 4.390625 63.8125 4.109375 
z
" id="DejaVuSans-64"/>
      <path d="M 73.1875 39.890625 
L 73.1875 31.203125 
Q 68.0625 27.34375 63.6875 25.6875 
Q 59.328125 24.03125 54.59375 24.03125 
Q 49.21875 24.03125 42.09375 26.90625 
Q 41.546875 27.09375 41.3125 27.203125 
Q 40.96875 27.34375 40.234375 27.59375 
Q 32.671875 30.609375 28.078125 30.609375 
Q 23.78125 30.609375 19.578125 28.734375 
Q 15.375 26.859375 10.59375 22.796875 
L 10.59375 31.5 
Q 15.71875 35.359375 20.09375 37.03125 
Q 24.46875 38.71875 29.203125 38.71875 
Q 34.578125 38.71875 41.75 35.796875 
Q 42.234375 35.59375 42.484375 35.5 
Q 42.875 35.359375 43.5625 35.109375 
Q 51.125 32.078125 55.71875 32.078125 
Q 59.90625 32.078125 64.03125 33.9375 
Q 68.171875 35.796875 73.1875 39.890625 
z
" id="DejaVuSans-126"/>
      <path d="M 9.8125 72.90625 
L 19.671875 72.90625 
L 19.671875 43.015625 
L 55.515625 43.015625 
L 55.515625 72.90625 
L 65.375 72.90625 
L 65.375 0 
L 55.515625 0 
L 55.515625 34.71875 
L 19.671875 34.71875 
L 19.671875 0 
L 9.8125 0 
z
" id="DejaVuSans-72"/>
      <path d="M 5.515625 54.6875 
L 48.1875 54.6875 
L 48.1875 46.484375 
L 14.40625 7.171875 
L 48.1875 7.171875 
L 48.1875 0 
L 4.296875 0 
L 4.296875 8.203125 
L 38.09375 47.515625 
L 5.515625 47.515625 
z
" id="DejaVuSans-122"/>
     </defs>
     <use xlink:href="#DejaVuSans-83"/>
     <use x="63.476562" xlink:href="#DejaVuSans-84"/>
     <use x="124.560547" xlink:href="#DejaVuSans-77"/>
     <use x="210.839844" xlink:href="#DejaVuSans-51"/>
     <use x="274.462891" xlink:href="#DejaVuSans-50"/>
     <use x="338.085938" xlink:href="#DejaVuSans-76"/>
     <use x="393.798828" xlink:href="#DejaVuSans-48"/>
     <use x="457.421875" xlink:href="#DejaVuSans-47"/>
     <use x="491.113281" xlink:href="#DejaVuSans-76"/>
     <use x="546.826172" xlink:href="#DejaVuSans-49"/>
     <use x="610.449219" xlink:href="#DejaVuSans-32"/>
     <use x="642.236328" xlink:href="#DejaVuSans-64"/>
     <use x="742.236328" xlink:href="#DejaVuSans-32"/>
     <use x="774.023438" xlink:href="#DejaVuSans-126"/>
     <use x="857.8125" xlink:href="#DejaVuSans-50"/>
     <use x="921.435547" xlink:href="#DejaVuSans-77"/>
     <use x="1007.714844" xlink:href="#DejaVuSans-72"/>
     <use x="1082.910156" xlink:href="#DejaVuSans-122"/>
    </g>
   </g>
   <g id="patch_7">
    <path d="M 822.845703 96.510862 
Q 838.726061 104.857345 854.60642 113.203828 
" style="fill:none;stroke:#000000;stroke-linecap:round;"/>
   </g>
   <g id="text_16">
    <!-- STM32L0 -->
    <g transform="translate(765.941591 90.251691)scale(0.16 -0.16)">
     <use xlink:href="#DejaVuSans-83"/>
     <use x="63.476562" xlink:href="#DejaVuSans-84"/>
     <use x="124.560547" xlink:href="#DejaVuSans-77"/>
     <use x="210.839844" xlink:href="#DejaVuSans-51"/>
     <use x="274.462891" xlink:href="#DejaVuSans-50"/>
     <use x="338.085938" xlink:href="#DejaVuSans-76"/>
     <use x="393.798828" xlink:href="#DejaVuSans-48"/>
    </g>
   </g>
   <g id="patch_8">
    <path d="M 1022.96349 201.189441 
Q 1046.797026 191.370856 1070.630562 181.55227 
" style="fill:none;stroke:#000000;stroke-linecap:round;"/>
   </g>
   <g id="text_17">
    <!-- STM32L1 -->
    <g transform="translate(960.877045 216.106026)scale(0.16 -0.16)">
     <use xlink:href="#DejaVuSans-83"/>
     <use x="63.476562" xlink:href="#DejaVuSans-84"/>
     <use x="124.560547" xlink:href="#DejaVuSans-77"/>
     <use x="210.839844" xlink:href="#DejaVuSans-51"/>
     <use x="274.462891" xlink:href="#DejaVuSans-50"/>
     <use x="338.085938" xlink:href="#DejaVuSans-76"/>
     <use x="393.798828" xlink:href="#DejaVuSans-49"/>
    </g>
   </g>
   <g id="patch_9">
    <path d="M 456.831989 296.412242 
Q 495.835941 304.336781 534.839893 312.26132 
" style="fill:none;stroke:#000000;stroke-linecap:round;"/>
   </g>
   <g id="text_18">
    <!-- STM32F7 @ 16MHz -->
    <g transform="translate(329.798182 290.686373)scale(0.16 -0.16)">
     <defs>
      <path d="M 9.8125 72.90625 
L 51.703125 72.90625 
L 51.703125 64.59375 
L 19.671875 64.59375 
L 19.671875 43.109375 
L 48.578125 43.109375 
L 48.578125 34.8125 
L 19.671875 34.8125 
L 19.671875 0 
L 9.8125 0 
z
" id="DejaVuSans-70"/>
      <path d="M 8.203125 72.90625 
L 55.078125 72.90625 
L 55.078125 68.703125 
L 28.609375 0 
L 18.3125 0 
L 43.21875 64.59375 
L 8.203125 64.59375 
z
" id="DejaVuSans-55"/>
     </defs>
     <use xlink:href="#DejaVuSans-83"/>
     <use x="63.476562" xlink:href="#DejaVuSans-84"/>
     <use x="124.560547" xlink:href="#DejaVuSans-77"/>
     <use x="210.839844" xlink:href="#DejaVuSans-51"/>
     <use x="274.462891" xlink:href="#DejaVuSans-50"/>
     <use x="338.085938" xlink:href="#DejaVuSans-70"/>
     <use x="395.605469" xlink:href="#DejaVuSans-55"/>
     <use x="459.228516" xlink:href="#DejaVuSans-32"/>
     <use x="491.015625" xlink:href="#DejaVuSans-64"/>
     <use x="591.015625" xlink:href="#DejaVuSans-32"/>
     <use x="622.802734" xlink:href="#DejaVuSans-49"/>
     <use x="686.425781" xlink:href="#DejaVuSans-54"/>
     <use x="750.048828" xlink:href="#DejaVuSans-77"/>
     <use x="836.328125" xlink:href="#DejaVuSans-72"/>
     <use x="911.523438" xlink:href="#DejaVuSans-122"/>
    </g>
   </g>
   <g id="patch_10">
    <path d="M 587.144419 250.10947 
Q 617.087642 261.452039 647.030864 272.794608 
" style="fill:none;stroke:#000000;stroke-linecap:round;"/>
   </g>
   <g id="text_19">
    <!-- AVR @ 16MHz -->
    <g transform="translate(503.179091 244.073656)scale(0.16 -0.16)">
     <defs>
      <path d="M 34.1875 63.1875 
L 20.796875 26.90625 
L 47.609375 26.90625 
z
M 28.609375 72.90625 
L 39.796875 72.90625 
L 67.578125 0 
L 57.328125 0 
L 50.6875 18.703125 
L 17.828125 18.703125 
L 11.1875 0 
L 0.78125 0 
z
" id="DejaVuSans-65"/>
      <path d="M 28.609375 0 
L 0.78125 72.90625 
L 11.078125 72.90625 
L 34.1875 11.53125 
L 57.328125 72.90625 
L 67.578125 72.90625 
L 39.796875 0 
z
" id="DejaVuSans-86"/>
      <path d="M 44.390625 34.1875 
Q 47.5625 33.109375 50.5625 29.59375 
Q 53.5625 26.078125 56.59375 19.921875 
L 66.609375 0 
L 56 0 
L 46.6875 18.703125 
Q 43.0625 26.03125 39.671875 28.421875 
Q 36.28125 30.8125 30.421875 30.8125 
L 19.671875 30.8125 
L 19.671875 0 
L 9.8125 0 
L 9.8125 72.90625 
L 32.078125 72.90625 
Q 44.578125 72.90625 50.734375 67.671875 
Q 56.890625 62.453125 56.890625 51.90625 
Q 56.890625 45.015625 53.6875 40.46875 
Q 50.484375 35.9375 44.390625 34.1875 
z
M 19.671875 64.796875 
L 19.671875 38.921875 
L 32.078125 38.921875 
Q 39.203125 38.921875 42.84375 42.21875 
Q 46.484375 45.515625 46.484375 51.90625 
Q 46.484375 58.296875 42.84375 61.546875 
Q 39.203125 64.796875 32.078125 64.796875 
z
" id="DejaVuSans-82"/>
     </defs>
     <use xlink:href="#DejaVuSans-65"/>
     <use x="62.033203" xlink:href="#DejaVuSans-86"/>
     <use x="130.441406" xlink:href="#DejaVuSans-82"/>
     <use x="199.923828" xlink:href="#DejaVuSans-32"/>
     <use x="231.710938" xlink:href="#DejaVuSans-64"/>
     <use x="331.710938" xlink:href="#DejaVuSans-32"/>
     <use x="363.498047" xlink:href="#DejaVuSans-49"/>
     <use x="427.121094" xlink:href="#DejaVuSans-54"/>
     <use x="490.744141" xlink:href="#DejaVuSans-77"/>
     <use x="577.023438" xlink:href="#DejaVuSans-72"/>
     <use x="652.21875" xlink:href="#DejaVuSans-122"/>
    </g>
   </g>
   <g id="patch_11">
    <path d="M 432.120528 450.226012 
Q 407.328576 446.835646 382.536625 443.445279 
" style="fill:none;stroke:#000000;stroke-linecap:round;"/>
   </g>
   <g id="text_20">
    <!-- STM32F1 @ 8MHz -->
    <g transform="translate(433.313409 464.65461)scale(0.16 -0.16)">
     <use xlink:href="#DejaVuSans-83"/>
     <use x="63.476562" xlink:href="#DejaVuSans-84"/>
     <use x="124.560547" xlink:href="#DejaVuSans-77"/>
     <use x="210.839844" xlink:href="#DejaVuSans-51"/>
     <use x="274.462891" xlink:href="#DejaVuSans-50"/>
     <use x="338.085938" xlink:href="#DejaVuSans-70"/>
     <use x="395.605469" xlink:href="#DejaVuSans-49"/>
     <use x="459.228516" xlink:href="#DejaVuSans-32"/>
     <use x="491.015625" xlink:href="#DejaVuSans-64"/>
     <use x="591.015625" xlink:href="#DejaVuSans-32"/>
     <use x="622.802734" xlink:href="#DejaVuSans-56"/>
     <use x="686.425781" xlink:href="#DejaVuSans-77"/>
     <use x="772.705078" xlink:href="#DejaVuSans-72"/>
     <use x="847.900391" xlink:href="#DejaVuSans-122"/>
    </g>
   </g>
   <g id="patch_12">
    <path d="M 277.135224 500.78228 
Q 250.205015 499.706357 223.274806 498.630434 
" style="fill:none;stroke:#000000;stroke-linecap:round;"/>
   </g>
   <g id="text_21">
    <!-- STM32L4 @ 16MHz -->
    <g transform="translate(281.131591 508.43237)scale(0.16 -0.16)">
     <use xlink:href="#DejaVuSans-83"/>
     <use x="63.476562" xlink:href="#DejaVuSans-84"/>
     <use x="124.560547" xlink:href="#DejaVuSans-77"/>
     <use x="210.839844" xlink:href="#DejaVuSans-51"/>
     <use x="274.462891" xlink:href="#DejaVuSans-50"/>
     <use x="338.085938" xlink:href="#DejaVuSans-76"/>
     <use x="393.798828" xlink:href="#DejaVuSans-52"/>
     <use x="457.421875" xlink:href="#DejaVuSans-32"/>
     <use x="489.208984" xlink:href="#DejaVuSans-64"/>
     <use x="589.208984" xlink:href="#DejaVuSans-32"/>
     <use x="620.996094" xlink:href="#DejaVuSans-49"/>
     <use x="684.619141" xlink:href="#DejaVuSans-54"/>
     <use x="748.242188" xlink:href="#DejaVuSans-77"/>
     <use x="834.521484" xlink:href="#DejaVuSans-72"/>
     <use x="909.716797" xlink:href="#DejaVuSans-122"/>
    </g>
   </g>
   <g id="patch_13">
    <path d="M 265.442918 526.447966 
Q 223.02597 516.503037 180.609021 506.558109 
" style="fill:none;stroke:#000000;stroke-linecap:round;"/>
   </g>
   <g id="text_22">
    <!-- STM32H7 @ 64MHz -->
    <g transform="translate(230.404318 541.061272)scale(0.16 -0.16)">
     <use xlink:href="#DejaVuSans-83"/>
     <use x="63.476562" xlink:href="#DejaVuSans-84"/>
     <use x="124.560547" xlink:href="#DejaVuSans-77"/>
     <use x="210.839844" xlink:href="#DejaVuSans-51"/>
     <use x="274.462891" xlink:href="#DejaVuSans-50"/>
     <use x="338.085938" xlink:href="#DejaVuSans-72"/>
     <use x="413.28125" xlink:href="#DejaVuSans-55"/>
     <use x="476.904297" xlink:href="#DejaVuSans-32"/>
     <use x="508.691406" xlink:href="#DejaVuSans-64"/>
     <use x="608.691406" xlink:href="#DejaVuSans-32"/>
     <use x="640.478516" xlink:href="#DejaVuSans-54"/>
     <use x="704.101562" xlink:href="#DejaVuSans-52"/>
     <use x="767.724609" xlink:href="#DejaVuSans-77"/>
     <use x="854.003906" xlink:href="#DejaVuSans-72"/>
     <use x="929.199219" xlink:href="#DejaVuSans-122"/>
    </g>
   </g>
   <g id="patch_14">
    <path d="M 155.443777 535.671544 
Q 148.241394 533.938935 141.039012 532.206326 
" style="fill:none;stroke:#000000;stroke-linecap:round;"/>
   </g>
   <g id="text_23">
    <!-- Ideal -->
    <g transform="translate(159.386136 545.722543)scale(0.16 -0.16)">
     <use xlink:href="#DejaVuSans-73"/>
     <use x="29.492188" xlink:href="#DejaVuSans-100"/>
     <use x="92.96875" xlink:href="#DejaVuSans-101"/>
     <use x="154.492188" xlink:href="#DejaVuSans-97"/>
     <use x="215.771484" xlink:href="#DejaVuSans-108"/>
    </g>
   </g>
  </g>
 </g>
 <defs>
  <clipPath id="pbe210ef951">
   <rect height="554.4" width="1116" x="78.2225" y="7.2"/>
  </clipPath>
 </defs>
</svg>
