<?xml version="1.0" encoding="utf-8" ?>
<svg baseProfile="full" height="60" version="1.1" width="804" xmlns="http://www.w3.org/2000/svg" xmlns:ev="http://www.w3.org/2001/xml-events" xmlns:xlink="http://www.w3.org/1999/xlink"><defs /><g transform="translate(2,28)"><g fill="#313131" font-family="Avenir" font-size="18" text-anchor="middle"><text x="50" y="-10">7</text><text x="150" y="-10">6</text><text x="250" y="-10">5</text><text x="350" y="-10">4</text><text x="450" y="-10">3</text><text x="550" y="-10">2</text><text x="650" y="-10">1</text><text x="750" y="-10">0</text></g><rect fill-opacity="0" height="30" stroke="#313131" stroke-width="4" width="800" x="0" y="0" /><g stroke="#313131" stroke-width="2"><line x1="100" x2="100" y1="0" y2="30" /><line x1="200" x2="200" y1="0" y2="30" /><line x1="300" x2="300" y1="0" y2="30" /><line x1="400" x2="400" y1="0" y2="30" /><line x1="500" x2="500" y1="0" y2="30" /><line x1="600" x2="600" y1="0" y2="30" /><line x1="700" x2="700" y1="0" y2="30" /></g><g fill="#313131" font-family="Avenir" font-size="19" font-weight="bold" text-anchor="middle"><text x="50" y="21.5">EN</text><text x="150" y="21.5">FS</text><text x="250" y="21.5">PRE1</text><text x="350" y="21.5">PRE0</text><text x="450" y="21.5">DEL2</text><text x="550" y="21.5">DEL1</text><text x="650" y="21.5">DEL0</text><text x="750" y="20">—</text></g></g></svg>