<?xml version="1.0" encoding="utf-8" standalone="no"?>
<!DOCTYPE svg PUBLIC "-//W3C//DTD SVG 1.1//EN"
  "http://www.w3.org/Graphics/SVG/1.1/DTD/svg11.dtd">
<!-- Created with matplotlib (https://matplotlib.org/) -->
<svg height="595.874375pt" version="1.1" viewBox="0 0 1179.555 595.874375" width="1179.555pt" xmlns="http://www.w3.org/2000/svg" xmlns:xlink="http://www.w3.org/1999/xlink">
 <metadata>
  <rdf:RDF xmlns:cc="http://creativecommons.org/ns#" xmlns:dc="http://purl.org/dc/elements/1.1/" xmlns:rdf="http://www.w3.org/1999/02/22-rdf-syntax-ns#">
   <cc:Work>
    <dc:type rdf:resource="http://purl.org/dc/dcmitype/StillImage"/>
    <dc:date>2021-07-05T15:42:45.888683</dc:date>
    <dc:format>image/svg+xml</dc:format>
    <dc:creator>
     <cc:Agent>
      <dc:title>Matplotlib v3.3.3, https://matplotlib.org/</dc:title>
     </cc:Agent>
    </dc:creator>
   </cc:Work>
  </rdf:RDF>
 </metadata>
 <defs>
  <style type="text/css">*{stroke-linecap:butt;stroke-linejoin:round;}</style>
 </defs>
 <g id="figure_1">
  <g id="patch_1">
   <path d="M 0 595.874375 
L 1179.555 595.874375 
L 1179.555 0 
L 0 0 
z
" style="fill:none;"/>
  </g>
  <g id="axes_1">
   <g id="patch_2">
    <path d="M 62.835 555.12 
L 1178.835 555.12 
L 1178.835 0.72 
L 62.835 0.72 
z
" style="fill:none;"/>
   </g>
   <g id="matplotlib.axis_1">
    <g id="xtick_1">
     <g id="line2d_1">
      <defs>
       <path d="M 0 0 
L 0 3.5 
" id="mceb01abaee" style="stroke:#000000;stroke-width:0.8;"/>
      </defs>
      <g>
       <use style="stroke:#000000;stroke-width:0.8;" x="113.562273" xlink:href="#mceb01abaee" y="555.12"/>
      </g>
     </g>
     <g id="text_1">
      <!-- 0 -->
      <g transform="translate(109.108523 572.757813)scale(0.14 -0.14)">
       <defs>
        <path d="M 31.78125 66.40625 
Q 24.171875 66.40625 20.328125 58.90625 
Q 16.5 51.421875 16.5 36.375 
Q 16.5 21.390625 20.328125 13.890625 
Q 24.171875 6.390625 31.78125 6.390625 
Q 39.453125 6.390625 43.28125 13.890625 
Q 47.125 21.390625 47.125 36.375 
Q 47.125 51.421875 43.28125 58.90625 
Q 39.453125 66.40625 31.78125 66.40625 
z
M 31.78125 74.21875 
Q 44.046875 74.21875 50.515625 64.515625 
Q 56.984375 54.828125 56.984375 36.375 
Q 56.984375 17.96875 50.515625 8.265625 
Q 44.046875 -1.421875 31.78125 -1.421875 
Q 19.53125 -1.421875 13.0625 8.265625 
Q 6.59375 17.96875 6.59375 36.375 
Q 6.59375 54.828125 13.0625 64.515625 
Q 19.53125 74.21875 31.78125 74.21875 
z
" id="DejaVuSans-48"/>
       </defs>
       <use xlink:href="#DejaVuSans-48"/>
      </g>
     </g>
    </g>
    <g id="xtick_2">
     <g id="line2d_2">
      <g>
       <use style="stroke:#000000;stroke-width:0.8;" x="215.016818" xlink:href="#mceb01abaee" y="555.12"/>
      </g>
     </g>
     <g id="text_2">
      <!-- 100 -->
      <g transform="translate(201.655568 572.757813)scale(0.14 -0.14)">
       <defs>
        <path d="M 12.40625 8.296875 
L 28.515625 8.296875 
L 28.515625 63.921875 
L 10.984375 60.40625 
L 10.984375 69.390625 
L 28.421875 72.90625 
L 38.28125 72.90625 
L 38.28125 8.296875 
L 54.390625 8.296875 
L 54.390625 0 
L 12.40625 0 
z
" id="DejaVuSans-49"/>
       </defs>
       <use xlink:href="#DejaVuSans-49"/>
       <use x="63.623047" xlink:href="#DejaVuSans-48"/>
       <use x="127.246094" xlink:href="#DejaVuSans-48"/>
      </g>
     </g>
    </g>
    <g id="xtick_3">
     <g id="line2d_3">
      <g>
       <use style="stroke:#000000;stroke-width:0.8;" x="316.471364" xlink:href="#mceb01abaee" y="555.12"/>
      </g>
     </g>
     <g id="text_3">
      <!-- 200 -->
      <g transform="translate(303.110114 572.757813)scale(0.14 -0.14)">
       <defs>
        <path d="M 19.1875 8.296875 
L 53.609375 8.296875 
L 53.609375 0 
L 7.328125 0 
L 7.328125 8.296875 
Q 12.9375 14.109375 22.625 23.890625 
Q 32.328125 33.6875 34.8125 36.53125 
Q 39.546875 41.84375 41.421875 45.53125 
Q 43.3125 49.21875 43.3125 52.78125 
Q 43.3125 58.59375 39.234375 62.25 
Q 35.15625 65.921875 28.609375 65.921875 
Q 23.96875 65.921875 18.8125 64.3125 
Q 13.671875 62.703125 7.8125 59.421875 
L 7.8125 69.390625 
Q 13.765625 71.78125 18.9375 73 
Q 24.125 74.21875 28.421875 74.21875 
Q 39.75 74.21875 46.484375 68.546875 
Q 53.21875 62.890625 53.21875 53.421875 
Q 53.21875 48.921875 51.53125 44.890625 
Q 49.859375 40.875 45.40625 35.40625 
Q 44.1875 33.984375 37.640625 27.21875 
Q 31.109375 20.453125 19.1875 8.296875 
z
" id="DejaVuSans-50"/>
       </defs>
       <use xlink:href="#DejaVuSans-50"/>
       <use x="63.623047" xlink:href="#DejaVuSans-48"/>
       <use x="127.246094" xlink:href="#DejaVuSans-48"/>
      </g>
     </g>
    </g>
    <g id="xtick_4">
     <g id="line2d_4">
      <g>
       <use style="stroke:#000000;stroke-width:0.8;" x="417.925909" xlink:href="#mceb01abaee" y="555.12"/>
      </g>
     </g>
     <g id="text_4">
      <!-- 300 -->
      <g transform="translate(404.564659 572.757813)scale(0.14 -0.14)">
       <defs>
        <path d="M 40.578125 39.3125 
Q 47.65625 37.796875 51.625 33 
Q 55.609375 28.21875 55.609375 21.1875 
Q 55.609375 10.40625 48.1875 4.484375 
Q 40.765625 -1.421875 27.09375 -1.421875 
Q 22.515625 -1.421875 17.65625 -0.515625 
Q 12.796875 0.390625 7.625 2.203125 
L 7.625 11.71875 
Q 11.71875 9.328125 16.59375 8.109375 
Q 21.484375 6.890625 26.8125 6.890625 
Q 36.078125 6.890625 40.9375 10.546875 
Q 45.796875 14.203125 45.796875 21.1875 
Q 45.796875 27.640625 41.28125 31.265625 
Q 36.765625 34.90625 28.71875 34.90625 
L 20.21875 34.90625 
L 20.21875 43.015625 
L 29.109375 43.015625 
Q 36.375 43.015625 40.234375 45.921875 
Q 44.09375 48.828125 44.09375 54.296875 
Q 44.09375 59.90625 40.109375 62.90625 
Q 36.140625 65.921875 28.71875 65.921875 
Q 24.65625 65.921875 20.015625 65.03125 
Q 15.375 64.15625 9.8125 62.3125 
L 9.8125 71.09375 
Q 15.4375 72.65625 20.34375 73.4375 
Q 25.25 74.21875 29.59375 74.21875 
Q 40.828125 74.21875 47.359375 69.109375 
Q 53.90625 64.015625 53.90625 55.328125 
Q 53.90625 49.265625 50.4375 45.09375 
Q 46.96875 40.921875 40.578125 39.3125 
z
" id="DejaVuSans-51"/>
       </defs>
       <use xlink:href="#DejaVuSans-51"/>
       <use x="63.623047" xlink:href="#DejaVuSans-48"/>
       <use x="127.246094" xlink:href="#DejaVuSans-48"/>
      </g>
     </g>
    </g>
    <g id="xtick_5">
     <g id="line2d_5">
      <g>
       <use style="stroke:#000000;stroke-width:0.8;" x="519.380455" xlink:href="#mceb01abaee" y="555.12"/>
      </g>
     </g>
     <g id="text_5">
      <!-- 400 -->
      <g transform="translate(506.019205 572.757813)scale(0.14 -0.14)">
       <defs>
        <path d="M 37.796875 64.3125 
L 12.890625 25.390625 
L 37.796875 25.390625 
z
M 35.203125 72.90625 
L 47.609375 72.90625 
L 47.609375 25.390625 
L 58.015625 25.390625 
L 58.015625 17.1875 
L 47.609375 17.1875 
L 47.609375 0 
L 37.796875 0 
L 37.796875 17.1875 
L 4.890625 17.1875 
L 4.890625 26.703125 
z
" id="DejaVuSans-52"/>
       </defs>
       <use xlink:href="#DejaVuSans-52"/>
       <use x="63.623047" xlink:href="#DejaVuSans-48"/>
       <use x="127.246094" xlink:href="#DejaVuSans-48"/>
      </g>
     </g>
    </g>
    <g id="xtick_6">
     <g id="line2d_6">
      <g>
       <use style="stroke:#000000;stroke-width:0.8;" x="620.835" xlink:href="#mceb01abaee" y="555.12"/>
      </g>
     </g>
     <g id="text_6">
      <!-- 500 -->
      <g transform="translate(607.47375 572.757813)scale(0.14 -0.14)">
       <defs>
        <path d="M 10.796875 72.90625 
L 49.515625 72.90625 
L 49.515625 64.59375 
L 19.828125 64.59375 
L 19.828125 46.734375 
Q 21.96875 47.46875 24.109375 47.828125 
Q 26.265625 48.1875 28.421875 48.1875 
Q 40.625 48.1875 47.75 41.5 
Q 54.890625 34.8125 54.890625 23.390625 
Q 54.890625 11.625 47.5625 5.09375 
Q 40.234375 -1.421875 26.90625 -1.421875 
Q 22.3125 -1.421875 17.546875 -0.640625 
Q 12.796875 0.140625 7.71875 1.703125 
L 7.71875 11.625 
Q 12.109375 9.234375 16.796875 8.0625 
Q 21.484375 6.890625 26.703125 6.890625 
Q 35.15625 6.890625 40.078125 11.328125 
Q 45.015625 15.765625 45.015625 23.390625 
Q 45.015625 31 40.078125 35.4375 
Q 35.15625 39.890625 26.703125 39.890625 
Q 22.75 39.890625 18.8125 39.015625 
Q 14.890625 38.140625 10.796875 36.28125 
z
" id="DejaVuSans-53"/>
       </defs>
       <use xlink:href="#DejaVuSans-53"/>
       <use x="63.623047" xlink:href="#DejaVuSans-48"/>
       <use x="127.246094" xlink:href="#DejaVuSans-48"/>
      </g>
     </g>
    </g>
    <g id="xtick_7">
     <g id="line2d_7">
      <g>
       <use style="stroke:#000000;stroke-width:0.8;" x="722.289545" xlink:href="#mceb01abaee" y="555.12"/>
      </g>
     </g>
     <g id="text_7">
      <!-- 600 -->
      <g transform="translate(708.928295 572.757813)scale(0.14 -0.14)">
       <defs>
        <path d="M 33.015625 40.375 
Q 26.375 40.375 22.484375 35.828125 
Q 18.609375 31.296875 18.609375 23.390625 
Q 18.609375 15.53125 22.484375 10.953125 
Q 26.375 6.390625 33.015625 6.390625 
Q 39.65625 6.390625 43.53125 10.953125 
Q 47.40625 15.53125 47.40625 23.390625 
Q 47.40625 31.296875 43.53125 35.828125 
Q 39.65625 40.375 33.015625 40.375 
z
M 52.59375 71.296875 
L 52.59375 62.3125 
Q 48.875 64.0625 45.09375 64.984375 
Q 41.3125 65.921875 37.59375 65.921875 
Q 27.828125 65.921875 22.671875 59.328125 
Q 17.53125 52.734375 16.796875 39.40625 
Q 19.671875 43.65625 24.015625 45.921875 
Q 28.375 48.1875 33.59375 48.1875 
Q 44.578125 48.1875 50.953125 41.515625 
Q 57.328125 34.859375 57.328125 23.390625 
Q 57.328125 12.15625 50.6875 5.359375 
Q 44.046875 -1.421875 33.015625 -1.421875 
Q 20.359375 -1.421875 13.671875 8.265625 
Q 6.984375 17.96875 6.984375 36.375 
Q 6.984375 53.65625 15.1875 63.9375 
Q 23.390625 74.21875 37.203125 74.21875 
Q 40.921875 74.21875 44.703125 73.484375 
Q 48.484375 72.75 52.59375 71.296875 
z
" id="DejaVuSans-54"/>
       </defs>
       <use xlink:href="#DejaVuSans-54"/>
       <use x="63.623047" xlink:href="#DejaVuSans-48"/>
       <use x="127.246094" xlink:href="#DejaVuSans-48"/>
      </g>
     </g>
    </g>
    <g id="xtick_8">
     <g id="line2d_8">
      <g>
       <use style="stroke:#000000;stroke-width:0.8;" x="823.744091" xlink:href="#mceb01abaee" y="555.12"/>
      </g>
     </g>
     <g id="text_8">
      <!-- 700 -->
      <g transform="translate(810.382841 572.757813)scale(0.14 -0.14)">
       <defs>
        <path d="M 8.203125 72.90625 
L 55.078125 72.90625 
L 55.078125 68.703125 
L 28.609375 0 
L 18.3125 0 
L 43.21875 64.59375 
L 8.203125 64.59375 
z
" id="DejaVuSans-55"/>
       </defs>
       <use xlink:href="#DejaVuSans-55"/>
       <use x="63.623047" xlink:href="#DejaVuSans-48"/>
       <use x="127.246094" xlink:href="#DejaVuSans-48"/>
      </g>
     </g>
    </g>
    <g id="xtick_9">
     <g id="line2d_9">
      <g>
       <use style="stroke:#000000;stroke-width:0.8;" x="925.198636" xlink:href="#mceb01abaee" y="555.12"/>
      </g>
     </g>
     <g id="text_9">
      <!-- 800 -->
      <g transform="translate(911.837386 572.757813)scale(0.14 -0.14)">
       <defs>
        <path d="M 31.78125 34.625 
Q 24.75 34.625 20.71875 30.859375 
Q 16.703125 27.09375 16.703125 20.515625 
Q 16.703125 13.921875 20.71875 10.15625 
Q 24.75 6.390625 31.78125 6.390625 
Q 38.8125 6.390625 42.859375 10.171875 
Q 46.921875 13.96875 46.921875 20.515625 
Q 46.921875 27.09375 42.890625 30.859375 
Q 38.875 34.625 31.78125 34.625 
z
M 21.921875 38.8125 
Q 15.578125 40.375 12.03125 44.71875 
Q 8.5 49.078125 8.5 55.328125 
Q 8.5 64.0625 14.71875 69.140625 
Q 20.953125 74.21875 31.78125 74.21875 
Q 42.671875 74.21875 48.875 69.140625 
Q 55.078125 64.0625 55.078125 55.328125 
Q 55.078125 49.078125 51.53125 44.71875 
Q 48 40.375 41.703125 38.8125 
Q 48.828125 37.15625 52.796875 32.3125 
Q 56.78125 27.484375 56.78125 20.515625 
Q 56.78125 9.90625 50.3125 4.234375 
Q 43.84375 -1.421875 31.78125 -1.421875 
Q 19.734375 -1.421875 13.25 4.234375 
Q 6.78125 9.90625 6.78125 20.515625 
Q 6.78125 27.484375 10.78125 32.3125 
Q 14.796875 37.15625 21.921875 38.8125 
z
M 18.3125 54.390625 
Q 18.3125 48.734375 21.84375 45.5625 
Q 25.390625 42.390625 31.78125 42.390625 
Q 38.140625 42.390625 41.71875 45.5625 
Q 45.3125 48.734375 45.3125 54.390625 
Q 45.3125 60.0625 41.71875 63.234375 
Q 38.140625 66.40625 31.78125 66.40625 
Q 25.390625 66.40625 21.84375 63.234375 
Q 18.3125 60.0625 18.3125 54.390625 
z
" id="DejaVuSans-56"/>
       </defs>
       <use xlink:href="#DejaVuSans-56"/>
       <use x="63.623047" xlink:href="#DejaVuSans-48"/>
       <use x="127.246094" xlink:href="#DejaVuSans-48"/>
      </g>
     </g>
    </g>
    <g id="xtick_10">
     <g id="line2d_10">
      <g>
       <use style="stroke:#000000;stroke-width:0.8;" x="1026.653182" xlink:href="#mceb01abaee" y="555.12"/>
      </g>
     </g>
     <g id="text_10">
      <!-- 900 -->
      <g transform="translate(1013.291932 572.757813)scale(0.14 -0.14)">
       <defs>
        <path d="M 10.984375 1.515625 
L 10.984375 10.5 
Q 14.703125 8.734375 18.5 7.8125 
Q 22.3125 6.890625 25.984375 6.890625 
Q 35.75 6.890625 40.890625 13.453125 
Q 46.046875 20.015625 46.78125 33.40625 
Q 43.953125 29.203125 39.59375 26.953125 
Q 35.25 24.703125 29.984375 24.703125 
Q 19.046875 24.703125 12.671875 31.3125 
Q 6.296875 37.9375 6.296875 49.421875 
Q 6.296875 60.640625 12.9375 67.421875 
Q 19.578125 74.21875 30.609375 74.21875 
Q 43.265625 74.21875 49.921875 64.515625 
Q 56.59375 54.828125 56.59375 36.375 
Q 56.59375 19.140625 48.40625 8.859375 
Q 40.234375 -1.421875 26.421875 -1.421875 
Q 22.703125 -1.421875 18.890625 -0.6875 
Q 15.09375 0.046875 10.984375 1.515625 
z
M 30.609375 32.421875 
Q 37.25 32.421875 41.125 36.953125 
Q 45.015625 41.5 45.015625 49.421875 
Q 45.015625 57.28125 41.125 61.84375 
Q 37.25 66.40625 30.609375 66.40625 
Q 23.96875 66.40625 20.09375 61.84375 
Q 16.21875 57.28125 16.21875 49.421875 
Q 16.21875 41.5 20.09375 36.953125 
Q 23.96875 32.421875 30.609375 32.421875 
z
" id="DejaVuSans-57"/>
       </defs>
       <use xlink:href="#DejaVuSans-57"/>
       <use x="63.623047" xlink:href="#DejaVuSans-48"/>
       <use x="127.246094" xlink:href="#DejaVuSans-48"/>
      </g>
     </g>
    </g>
    <g id="xtick_11">
     <g id="line2d_11">
      <g>
       <use style="stroke:#000000;stroke-width:0.8;" x="1128.107727" xlink:href="#mceb01abaee" y="555.12"/>
      </g>
     </g>
     <g id="text_11">
      <!-- 1000 -->
      <g transform="translate(1110.292727 572.757813)scale(0.14 -0.14)">
       <use xlink:href="#DejaVuSans-49"/>
       <use x="63.623047" xlink:href="#DejaVuSans-48"/>
       <use x="127.246094" xlink:href="#DejaVuSans-48"/>
       <use x="190.869141" xlink:href="#DejaVuSans-48"/>
      </g>
     </g>
    </g>
    <g id="text_12">
     <!-- Input nanosecond delay -->
     <g transform="translate(524.70375 591.826875)scale(0.16 -0.16)">
      <defs>
       <path d="M 9.8125 72.90625 
L 19.671875 72.90625 
L 19.671875 0 
L 9.8125 0 
z
" id="DejaVuSans-73"/>
       <path d="M 54.890625 33.015625 
L 54.890625 0 
L 45.90625 0 
L 45.90625 32.71875 
Q 45.90625 40.484375 42.875 44.328125 
Q 39.84375 48.1875 33.796875 48.1875 
Q 26.515625 48.1875 22.3125 43.546875 
Q 18.109375 38.921875 18.109375 30.90625 
L 18.109375 0 
L 9.078125 0 
L 9.078125 54.6875 
L 18.109375 54.6875 
L 18.109375 46.1875 
Q 21.34375 51.125 25.703125 53.5625 
Q 30.078125 56 35.796875 56 
Q 45.21875 56 50.046875 50.171875 
Q 54.890625 44.34375 54.890625 33.015625 
z
" id="DejaVuSans-110"/>
       <path d="M 18.109375 8.203125 
L 18.109375 -20.796875 
L 9.078125 -20.796875 
L 9.078125 54.6875 
L 18.109375 54.6875 
L 18.109375 46.390625 
Q 20.953125 51.265625 25.265625 53.625 
Q 29.59375 56 35.59375 56 
Q 45.5625 56 51.78125 48.09375 
Q 58.015625 40.1875 58.015625 27.296875 
Q 58.015625 14.40625 51.78125 6.484375 
Q 45.5625 -1.421875 35.59375 -1.421875 
Q 29.59375 -1.421875 25.265625 0.953125 
Q 20.953125 3.328125 18.109375 8.203125 
z
M 48.6875 27.296875 
Q 48.6875 37.203125 44.609375 42.84375 
Q 40.53125 48.484375 33.40625 48.484375 
Q 26.265625 48.484375 22.1875 42.84375 
Q 18.109375 37.203125 18.109375 27.296875 
Q 18.109375 17.390625 22.1875 11.75 
Q 26.265625 6.109375 33.40625 6.109375 
Q 40.53125 6.109375 44.609375 11.75 
Q 48.6875 17.390625 48.6875 27.296875 
z
" id="DejaVuSans-112"/>
       <path d="M 8.5 21.578125 
L 8.5 54.6875 
L 17.484375 54.6875 
L 17.484375 21.921875 
Q 17.484375 14.15625 20.5 10.265625 
Q 23.53125 6.390625 29.59375 6.390625 
Q 36.859375 6.390625 41.078125 11.03125 
Q 45.3125 15.671875 45.3125 23.6875 
L 45.3125 54.6875 
L 54.296875 54.6875 
L 54.296875 0 
L 45.3125 0 
L 45.3125 8.40625 
Q 42.046875 3.421875 37.71875 1 
Q 33.40625 -1.421875 27.6875 -1.421875 
Q 18.265625 -1.421875 13.375 4.4375 
Q 8.5 10.296875 8.5 21.578125 
z
M 31.109375 56 
z
" id="DejaVuSans-117"/>
       <path d="M 18.3125 70.21875 
L 18.3125 54.6875 
L 36.8125 54.6875 
L 36.8125 47.703125 
L 18.3125 47.703125 
L 18.3125 18.015625 
Q 18.3125 11.328125 20.140625 9.421875 
Q 21.96875 7.515625 27.59375 7.515625 
L 36.8125 7.515625 
L 36.8125 0 
L 27.59375 0 
Q 17.1875 0 13.234375 3.875 
Q 9.28125 7.765625 9.28125 18.015625 
L 9.28125 47.703125 
L 2.6875 47.703125 
L 2.6875 54.6875 
L 9.28125 54.6875 
L 9.28125 70.21875 
z
" id="DejaVuSans-116"/>
       <path id="DejaVuSans-32"/>
       <path d="M 34.28125 27.484375 
Q 23.390625 27.484375 19.1875 25 
Q 14.984375 22.515625 14.984375 16.5 
Q 14.984375 11.71875 18.140625 8.90625 
Q 21.296875 6.109375 26.703125 6.109375 
Q 34.1875 6.109375 38.703125 11.40625 
Q 43.21875 16.703125 43.21875 25.484375 
L 43.21875 27.484375 
z
M 52.203125 31.203125 
L 52.203125 0 
L 43.21875 0 
L 43.21875 8.296875 
Q 40.140625 3.328125 35.546875 0.953125 
Q 30.953125 -1.421875 24.3125 -1.421875 
Q 15.921875 -1.421875 10.953125 3.296875 
Q 6 8.015625 6 15.921875 
Q 6 25.140625 12.171875 29.828125 
Q 18.359375 34.515625 30.609375 34.515625 
L 43.21875 34.515625 
L 43.21875 35.40625 
Q 43.21875 41.609375 39.140625 45 
Q 35.0625 48.390625 27.6875 48.390625 
Q 23 48.390625 18.546875 47.265625 
Q 14.109375 46.140625 10.015625 43.890625 
L 10.015625 52.203125 
Q 14.9375 54.109375 19.578125 55.046875 
Q 24.21875 56 28.609375 56 
Q 40.484375 56 46.34375 49.84375 
Q 52.203125 43.703125 52.203125 31.203125 
z
" id="DejaVuSans-97"/>
       <path d="M 30.609375 48.390625 
Q 23.390625 48.390625 19.1875 42.75 
Q 14.984375 37.109375 14.984375 27.296875 
Q 14.984375 17.484375 19.15625 11.84375 
Q 23.34375 6.203125 30.609375 6.203125 
Q 37.796875 6.203125 41.984375 11.859375 
Q 46.1875 17.53125 46.1875 27.296875 
Q 46.1875 37.015625 41.984375 42.703125 
Q 37.796875 48.390625 30.609375 48.390625 
z
M 30.609375 56 
Q 42.328125 56 49.015625 48.375 
Q 55.71875 40.765625 55.71875 27.296875 
Q 55.71875 13.875 49.015625 6.21875 
Q 42.328125 -1.421875 30.609375 -1.421875 
Q 18.84375 -1.421875 12.171875 6.21875 
Q 5.515625 13.875 5.515625 27.296875 
Q 5.515625 40.765625 12.171875 48.375 
Q 18.84375 56 30.609375 56 
z
" id="DejaVuSans-111"/>
       <path d="M 44.28125 53.078125 
L 44.28125 44.578125 
Q 40.484375 46.53125 36.375 47.5 
Q 32.28125 48.484375 27.875 48.484375 
Q 21.1875 48.484375 17.84375 46.4375 
Q 14.5 44.390625 14.5 40.28125 
Q 14.5 37.15625 16.890625 35.375 
Q 19.28125 33.59375 26.515625 31.984375 
L 29.59375 31.296875 
Q 39.15625 29.25 43.1875 25.515625 
Q 47.21875 21.78125 47.21875 15.09375 
Q 47.21875 7.46875 41.1875 3.015625 
Q 35.15625 -1.421875 24.609375 -1.421875 
Q 20.21875 -1.421875 15.453125 -0.5625 
Q 10.6875 0.296875 5.421875 2 
L 5.421875 11.28125 
Q 10.40625 8.6875 15.234375 7.390625 
Q 20.0625 6.109375 24.8125 6.109375 
Q 31.15625 6.109375 34.5625 8.28125 
Q 37.984375 10.453125 37.984375 14.40625 
Q 37.984375 18.0625 35.515625 20.015625 
Q 33.0625 21.96875 24.703125 23.78125 
L 21.578125 24.515625 
Q 13.234375 26.265625 9.515625 29.90625 
Q 5.8125 33.546875 5.8125 39.890625 
Q 5.8125 47.609375 11.28125 51.796875 
Q 16.75 56 26.8125 56 
Q 31.78125 56 36.171875 55.265625 
Q 40.578125 54.546875 44.28125 53.078125 
z
" id="DejaVuSans-115"/>
       <path d="M 56.203125 29.59375 
L 56.203125 25.203125 
L 14.890625 25.203125 
Q 15.484375 15.921875 20.484375 11.0625 
Q 25.484375 6.203125 34.421875 6.203125 
Q 39.59375 6.203125 44.453125 7.46875 
Q 49.3125 8.734375 54.109375 11.28125 
L 54.109375 2.78125 
Q 49.265625 0.734375 44.1875 -0.34375 
Q 39.109375 -1.421875 33.890625 -1.421875 
Q 20.796875 -1.421875 13.15625 6.1875 
Q 5.515625 13.8125 5.515625 26.8125 
Q 5.515625 40.234375 12.765625 48.109375 
Q 20.015625 56 32.328125 56 
Q 43.359375 56 49.78125 48.890625 
Q 56.203125 41.796875 56.203125 29.59375 
z
M 47.21875 32.234375 
Q 47.125 39.59375 43.09375 43.984375 
Q 39.0625 48.390625 32.421875 48.390625 
Q 24.90625 48.390625 20.390625 44.140625 
Q 15.875 39.890625 15.1875 32.171875 
z
" id="DejaVuSans-101"/>
       <path d="M 48.78125 52.59375 
L 48.78125 44.1875 
Q 44.96875 46.296875 41.140625 47.34375 
Q 37.3125 48.390625 33.40625 48.390625 
Q 24.65625 48.390625 19.8125 42.84375 
Q 14.984375 37.3125 14.984375 27.296875 
Q 14.984375 17.28125 19.8125 11.734375 
Q 24.65625 6.203125 33.40625 6.203125 
Q 37.3125 6.203125 41.140625 7.25 
Q 44.96875 8.296875 48.78125 10.40625 
L 48.78125 2.09375 
Q 45.015625 0.34375 40.984375 -0.53125 
Q 36.96875 -1.421875 32.421875 -1.421875 
Q 20.0625 -1.421875 12.78125 6.34375 
Q 5.515625 14.109375 5.515625 27.296875 
Q 5.515625 40.671875 12.859375 48.328125 
Q 20.21875 56 33.015625 56 
Q 37.15625 56 41.109375 55.140625 
Q 45.0625 54.296875 48.78125 52.59375 
z
" id="DejaVuSans-99"/>
       <path d="M 45.40625 46.390625 
L 45.40625 75.984375 
L 54.390625 75.984375 
L 54.390625 0 
L 45.40625 0 
L 45.40625 8.203125 
Q 42.578125 3.328125 38.25 0.953125 
Q 33.9375 -1.421875 27.875 -1.421875 
Q 17.96875 -1.421875 11.734375 6.484375 
Q 5.515625 14.40625 5.515625 27.296875 
Q 5.515625 40.1875 11.734375 48.09375 
Q 17.96875 56 27.875 56 
Q 33.9375 56 38.25 53.625 
Q 42.578125 51.265625 45.40625 46.390625 
z
M 14.796875 27.296875 
Q 14.796875 17.390625 18.875 11.75 
Q 22.953125 6.109375 30.078125 6.109375 
Q 37.203125 6.109375 41.296875 11.75 
Q 45.40625 17.390625 45.40625 27.296875 
Q 45.40625 37.203125 41.296875 42.84375 
Q 37.203125 48.484375 30.078125 48.484375 
Q 22.953125 48.484375 18.875 42.84375 
Q 14.796875 37.203125 14.796875 27.296875 
z
" id="DejaVuSans-100"/>
       <path d="M 9.421875 75.984375 
L 18.40625 75.984375 
L 18.40625 0 
L 9.421875 0 
z
" id="DejaVuSans-108"/>
       <path d="M 32.171875 -5.078125 
Q 28.375 -14.84375 24.75 -17.8125 
Q 21.140625 -20.796875 15.09375 -20.796875 
L 7.90625 -20.796875 
L 7.90625 -13.28125 
L 13.1875 -13.28125 
Q 16.890625 -13.28125 18.9375 -11.515625 
Q 21 -9.765625 23.484375 -3.21875 
L 25.09375 0.875 
L 2.984375 54.6875 
L 12.5 54.6875 
L 29.59375 11.921875 
L 46.6875 54.6875 
L 56.203125 54.6875 
z
" id="DejaVuSans-121"/>
      </defs>
      <use xlink:href="#DejaVuSans-73"/>
      <use x="29.492188" xlink:href="#DejaVuSans-110"/>
      <use x="92.871094" xlink:href="#DejaVuSans-112"/>
      <use x="156.347656" xlink:href="#DejaVuSans-117"/>
      <use x="219.726562" xlink:href="#DejaVuSans-116"/>
      <use x="258.935547" xlink:href="#DejaVuSans-32"/>
      <use x="290.722656" xlink:href="#DejaVuSans-110"/>
      <use x="354.101562" xlink:href="#DejaVuSans-97"/>
      <use x="415.380859" xlink:href="#DejaVuSans-110"/>
      <use x="478.759766" xlink:href="#DejaVuSans-111"/>
      <use x="539.941406" xlink:href="#DejaVuSans-115"/>
      <use x="592.041016" xlink:href="#DejaVuSans-101"/>
      <use x="653.564453" xlink:href="#DejaVuSans-99"/>
      <use x="708.544922" xlink:href="#DejaVuSans-111"/>
      <use x="769.726562" xlink:href="#DejaVuSans-110"/>
      <use x="833.105469" xlink:href="#DejaVuSans-100"/>
      <use x="896.582031" xlink:href="#DejaVuSans-32"/>
      <use x="928.369141" xlink:href="#DejaVuSans-100"/>
      <use x="991.845703" xlink:href="#DejaVuSans-101"/>
      <use x="1053.369141" xlink:href="#DejaVuSans-108"/>
      <use x="1081.152344" xlink:href="#DejaVuSans-97"/>
      <use x="1142.431641" xlink:href="#DejaVuSans-121"/>
     </g>
    </g>
   </g>
   <g id="matplotlib.axis_2">
    <g id="ytick_1">
     <g id="line2d_12">
      <defs>
       <path d="M 0 0 
L -3.5 0 
" id="mfcac609a5e" style="stroke:#000000;stroke-width:0.8;"/>
      </defs>
      <g>
       <use style="stroke:#000000;stroke-width:0.8;" x="62.835" xlink:href="#mfcac609a5e" y="529.92"/>
      </g>
     </g>
     <g id="text_13">
      <!-- 0 -->
      <g transform="translate(46.9275 535.238906)scale(0.14 -0.14)">
       <use xlink:href="#DejaVuSans-48"/>
      </g>
     </g>
    </g>
    <g id="ytick_2">
     <g id="line2d_13">
      <g>
       <use style="stroke:#000000;stroke-width:0.8;" x="62.835" xlink:href="#mfcac609a5e" y="483.84"/>
      </g>
     </g>
     <g id="text_14">
      <!-- 100 -->
      <g transform="translate(29.1125 489.158906)scale(0.14 -0.14)">
       <use xlink:href="#DejaVuSans-49"/>
       <use x="63.623047" xlink:href="#DejaVuSans-48"/>
       <use x="127.246094" xlink:href="#DejaVuSans-48"/>
      </g>
     </g>
    </g>
    <g id="ytick_3">
     <g id="line2d_14">
      <g>
       <use style="stroke:#000000;stroke-width:0.8;" x="62.835" xlink:href="#mfcac609a5e" y="437.76"/>
      </g>
     </g>
     <g id="text_15">
      <!-- 200 -->
      <g transform="translate(29.1125 443.078906)scale(0.14 -0.14)">
       <use xlink:href="#DejaVuSans-50"/>
       <use x="63.623047" xlink:href="#DejaVuSans-48"/>
       <use x="127.246094" xlink:href="#DejaVuSans-48"/>
      </g>
     </g>
    </g>
    <g id="ytick_4">
     <g id="line2d_15">
      <g>
       <use style="stroke:#000000;stroke-width:0.8;" x="62.835" xlink:href="#mfcac609a5e" y="391.68"/>
      </g>
     </g>
     <g id="text_16">
      <!-- 300 -->
      <g transform="translate(29.1125 396.998906)scale(0.14 -0.14)">
       <use xlink:href="#DejaVuSans-51"/>
       <use x="63.623047" xlink:href="#DejaVuSans-48"/>
       <use x="127.246094" xlink:href="#DejaVuSans-48"/>
      </g>
     </g>
    </g>
    <g id="ytick_5">
     <g id="line2d_16">
      <g>
       <use style="stroke:#000000;stroke-width:0.8;" x="62.835" xlink:href="#mfcac609a5e" y="345.6"/>
      </g>
     </g>
     <g id="text_17">
      <!-- 400 -->
      <g transform="translate(29.1125 350.918906)scale(0.14 -0.14)">
       <use xlink:href="#DejaVuSans-52"/>
       <use x="63.623047" xlink:href="#DejaVuSans-48"/>
       <use x="127.246094" xlink:href="#DejaVuSans-48"/>
      </g>
     </g>
    </g>
    <g id="ytick_6">
     <g id="line2d_17">
      <g>
       <use style="stroke:#000000;stroke-width:0.8;" x="62.835" xlink:href="#mfcac609a5e" y="299.52"/>
      </g>
     </g>
     <g id="text_18">
      <!-- 500 -->
      <g transform="translate(29.1125 304.838906)scale(0.14 -0.14)">
       <use xlink:href="#DejaVuSans-53"/>
       <use x="63.623047" xlink:href="#DejaVuSans-48"/>
       <use x="127.246094" xlink:href="#DejaVuSans-48"/>
      </g>
     </g>
    </g>
    <g id="ytick_7">
     <g id="line2d_18">
      <g>
       <use style="stroke:#000000;stroke-width:0.8;" x="62.835" xlink:href="#mfcac609a5e" y="253.44"/>
      </g>
     </g>
     <g id="text_19">
      <!-- 600 -->
      <g transform="translate(29.1125 258.758906)scale(0.14 -0.14)">
       <use xlink:href="#DejaVuSans-54"/>
       <use x="63.623047" xlink:href="#DejaVuSans-48"/>
       <use x="127.246094" xlink:href="#DejaVuSans-48"/>
      </g>
     </g>
    </g>
    <g id="ytick_8">
     <g id="line2d_19">
      <g>
       <use style="stroke:#000000;stroke-width:0.8;" x="62.835" xlink:href="#mfcac609a5e" y="207.36"/>
      </g>
     </g>
     <g id="text_20">
      <!-- 700 -->
      <g transform="translate(29.1125 212.678906)scale(0.14 -0.14)">
       <use xlink:href="#DejaVuSans-55"/>
       <use x="63.623047" xlink:href="#DejaVuSans-48"/>
       <use x="127.246094" xlink:href="#DejaVuSans-48"/>
      </g>
     </g>
    </g>
    <g id="ytick_9">
     <g id="line2d_20">
      <g>
       <use style="stroke:#000000;stroke-width:0.8;" x="62.835" xlink:href="#mfcac609a5e" y="161.28"/>
      </g>
     </g>
     <g id="text_21">
      <!-- 800 -->
      <g transform="translate(29.1125 166.598906)scale(0.14 -0.14)">
       <use xlink:href="#DejaVuSans-56"/>
       <use x="63.623047" xlink:href="#DejaVuSans-48"/>
       <use x="127.246094" xlink:href="#DejaVuSans-48"/>
      </g>
     </g>
    </g>
    <g id="ytick_10">
     <g id="line2d_21">
      <g>
       <use style="stroke:#000000;stroke-width:0.8;" x="62.835" xlink:href="#mfcac609a5e" y="115.2"/>
      </g>
     </g>
     <g id="text_22">
      <!-- 900 -->
      <g transform="translate(29.1125 120.518906)scale(0.14 -0.14)">
       <use xlink:href="#DejaVuSans-57"/>
       <use x="63.623047" xlink:href="#DejaVuSans-48"/>
       <use x="127.246094" xlink:href="#DejaVuSans-48"/>
      </g>
     </g>
    </g>
    <g id="ytick_11">
     <g id="line2d_22">
      <g>
       <use style="stroke:#000000;stroke-width:0.8;" x="62.835" xlink:href="#mfcac609a5e" y="69.12"/>
      </g>
     </g>
     <g id="text_23">
      <!-- 1000 -->
      <g transform="translate(20.205 74.438906)scale(0.14 -0.14)">
       <use xlink:href="#DejaVuSans-49"/>
       <use x="63.623047" xlink:href="#DejaVuSans-48"/>
       <use x="127.246094" xlink:href="#DejaVuSans-48"/>
       <use x="190.869141" xlink:href="#DejaVuSans-48"/>
      </g>
     </g>
    </g>
    <g id="text_24">
     <!-- Measured nanosecond delay -->
     <g transform="translate(12.8775 392.41125)rotate(-90)scale(0.16 -0.16)">
      <defs>
       <path d="M 9.8125 72.90625 
L 24.515625 72.90625 
L 43.109375 23.296875 
L 61.8125 72.90625 
L 76.515625 72.90625 
L 76.515625 0 
L 66.890625 0 
L 66.890625 64.015625 
L 48.09375 14.015625 
L 38.1875 14.015625 
L 19.390625 64.015625 
L 19.390625 0 
L 9.8125 0 
z
" id="DejaVuSans-77"/>
       <path d="M 41.109375 46.296875 
Q 39.59375 47.171875 37.8125 47.578125 
Q 36.03125 48 33.890625 48 
Q 26.265625 48 22.1875 43.046875 
Q 18.109375 38.09375 18.109375 28.8125 
L 18.109375 0 
L 9.078125 0 
L 9.078125 54.6875 
L 18.109375 54.6875 
L 18.109375 46.1875 
Q 20.953125 51.171875 25.484375 53.578125 
Q 30.03125 56 36.53125 56 
Q 37.453125 56 38.578125 55.875 
Q 39.703125 55.765625 41.0625 55.515625 
z
" id="DejaVuSans-114"/>
      </defs>
      <use xlink:href="#DejaVuSans-77"/>
      <use x="86.279297" xlink:href="#DejaVuSans-101"/>
      <use x="147.802734" xlink:href="#DejaVuSans-97"/>
      <use x="209.082031" xlink:href="#DejaVuSans-115"/>
      <use x="261.181641" xlink:href="#DejaVuSans-117"/>
      <use x="324.560547" xlink:href="#DejaVuSans-114"/>
      <use x="363.423828" xlink:href="#DejaVuSans-101"/>
      <use x="424.947266" xlink:href="#DejaVuSans-100"/>
      <use x="488.423828" xlink:href="#DejaVuSans-32"/>
      <use x="520.210938" xlink:href="#DejaVuSans-110"/>
      <use x="583.589844" xlink:href="#DejaVuSans-97"/>
      <use x="644.869141" xlink:href="#DejaVuSans-110"/>
      <use x="708.248047" xlink:href="#DejaVuSans-111"/>
      <use x="769.429688" xlink:href="#DejaVuSans-115"/>
      <use x="821.529297" xlink:href="#DejaVuSans-101"/>
      <use x="883.052734" xlink:href="#DejaVuSans-99"/>
      <use x="938.033203" xlink:href="#DejaVuSans-111"/>
      <use x="999.214844" xlink:href="#DejaVuSans-110"/>
      <use x="1062.59375" xlink:href="#DejaVuSans-100"/>
      <use x="1126.070312" xlink:href="#DejaVuSans-32"/>
      <use x="1157.857422" xlink:href="#DejaVuSans-100"/>
      <use x="1221.333984" xlink:href="#DejaVuSans-101"/>
      <use x="1282.857422" xlink:href="#DejaVuSans-108"/>
      <use x="1310.640625" xlink:href="#DejaVuSans-97"/>
      <use x="1371.919922" xlink:href="#DejaVuSans-121"/>
     </g>
    </g>
   </g>
   <g id="line2d_23">
    <path clip-path="url(#p68f187c404)" d="M 62.835 552.96 
L 1178.835 46.08 
" style="fill:none;stroke:#808080;stroke-linecap:square;stroke-width:1.5;"/>
   </g>
   <g id="line2d_24">
    <path clip-path="url(#p68f187c404)" d="M 113.562273 436.32 
L 123.707727 436.32 
L 133.853182 436.32 
L 143.998636 436.32 
L 154.144091 436.32 
L 164.289545 436.32 
L 174.435 436.32 
L 184.580455 436.32 
L 194.725909 436.32 
L 204.871364 436.32 
L 215.016818 436.32 
L 225.162273 436.32 
L 235.307727 436.32 
L 245.453182 436.32 
L 255.598636 436.32 
L 265.744091 436.32 
L 275.889545 436.32 
L 286.035 436.32 
L 296.180455 436.32 
L 306.325909 436.32 
L 316.471364 436.32 
L 326.616818 436.32 
L 336.762273 436.32 
L 346.907727 436.32 
L 357.053182 414.72 
L 367.198636 414.72 
L 377.344091 414.72 
L 387.489545 414.72 
L 397.635 414.72 
L 407.780455 393.12 
L 417.925909 393.12 
L 428.071364 393.12 
L 438.216818 393.12 
L 448.362273 371.52 
L 458.507727 371.52 
L 468.653182 371.52 
L 478.798636 371.52 
L 488.944091 371.52 
L 499.089545 349.92 
L 509.235 349.92 
L 519.380455 349.92 
L 529.525909 349.92 
L 539.671364 349.92 
L 549.816818 328.32 
L 559.962273 328.32 
L 570.107727 328.32 
L 580.253182 328.32 
L 590.398636 306.72 
L 600.544091 306.72 
L 610.689545 306.72 
L 620.835 306.72 
L 630.980455 306.72 
L 641.125909 285.12 
L 651.271364 285.12 
L 661.416818 285.12 
L 671.562273 285.12 
L 681.707727 285.12 
L 691.853182 263.52 
L 701.998636 263.52 
L 712.144091 263.52 
L 722.289545 263.52 
L 732.435 263.52 
L 742.580455 241.92 
L 752.725909 241.92 
L 762.871364 241.92 
L 773.016818 241.92 
L 783.162273 220.32 
L 793.307727 220.32 
L 803.453182 220.32 
L 813.598636 220.32 
L 823.744091 220.32 
L 833.889545 198.72 
L 844.035 198.72 
L 854.180455 198.72 
L 864.325909 198.72 
L 874.471364 198.72 
L 884.616818 177.12 
L 894.762273 177.12 
L 904.907727 177.12 
L 915.053182 177.12 
L 925.198636 155.52 
L 935.344091 155.52 
L 945.489545 155.52 
L 955.635 155.52 
L 965.780455 155.52 
L 975.925909 133.92 
L 986.071364 133.92 
L 996.216818 133.92 
L 1006.362273 133.92 
L 1016.507727 133.92 
L 1026.653182 112.32 
L 1036.798636 112.32 
L 1046.944091 112.32 
L 1057.089545 112.32 
L 1067.235 90.72 
L 1077.380455 90.72 
L 1087.525909 90.72 
L 1097.671364 90.72 
L 1107.816818 90.72 
L 1117.962273 69.12 
L 1128.107727 69.12 
" style="fill:none;stroke:#1f77b4;stroke-linecap:square;stroke-width:1.5;"/>
   </g>
   <g id="line2d_25">
    <path clip-path="url(#p68f187c404)" d="M 113.562273 414.72 
L 123.707727 414.72 
L 133.853182 414.72 
L 143.998636 414.72 
L 154.144091 414.72 
L 164.289545 414.72 
L 174.435 414.72 
L 184.580455 414.72 
L 194.725909 414.72 
L 204.871364 414.72 
L 215.016818 414.72 
L 225.162273 414.72 
L 235.307727 414.72 
L 245.453182 414.72 
L 255.598636 414.72 
L 265.744091 414.72 
L 275.889545 414.72 
L 286.035 414.72 
L 296.180455 414.72 
L 306.325909 414.72 
L 316.471364 414.72 
L 326.616818 414.72 
L 336.762273 414.72 
L 346.907727 414.72 
L 357.053182 414.72 
L 367.198636 414.72 
L 377.344091 414.72 
L 387.489545 414.72 
L 397.635 414.72 
L 407.780455 414.72 
L 417.925909 414.72 
L 428.071364 414.72 
L 438.216818 385.92 
L 448.362273 385.92 
L 458.507727 385.92 
L 468.653182 385.92 
L 478.798636 385.92 
L 488.944091 385.92 
L 499.089545 357.12 
L 509.235 357.12 
L 519.380455 357.12 
L 529.525909 357.12 
L 539.671364 357.12 
L 549.816818 357.12 
L 559.962273 357.12 
L 570.107727 328.32 
L 580.253182 328.32 
L 590.398636 328.32 
L 600.544091 328.32 
L 610.689545 328.32 
L 620.835 328.32 
L 630.980455 299.52 
L 641.125909 299.52 
L 651.271364 299.52 
L 661.416818 299.52 
L 671.562273 299.52 
L 681.707727 299.52 
L 691.853182 270.72 
L 701.998636 270.72 
L 712.144091 270.72 
L 722.289545 270.72 
L 732.435 270.72 
L 742.580455 270.72 
L 752.725909 241.92 
L 762.871364 241.92 
L 773.016818 241.92 
L 783.162273 241.92 
L 793.307727 241.92 
L 803.453182 241.92 
L 813.598636 241.92 
L 823.744091 213.12 
L 833.889545 213.12 
L 844.035 213.12 
L 854.180455 213.12 
L 864.325909 213.12 
L 874.471364 213.12 
L 884.616818 184.32 
L 894.762273 184.32 
L 904.907727 184.32 
L 915.053182 184.32 
L 925.198636 184.32 
L 935.344091 184.32 
L 945.489545 155.52 
L 955.635 155.52 
L 965.780455 155.52 
L 975.925909 155.52 
L 986.071364 155.52 
L 996.216818 155.52 
L 1006.362273 155.52 
L 1016.507727 126.72 
L 1026.653182 126.72 
L 1036.798636 126.72 
L 1046.944091 126.72 
L 1057.089545 126.72 
L 1067.235 126.72 
L 1077.380455 97.92 
L 1087.525909 97.92 
L 1097.671364 97.92 
L 1107.816818 97.92 
L 1117.962273 97.92 
L 1128.107727 97.92 
" style="fill:none;stroke:#ff7f0e;stroke-linecap:square;stroke-width:1.5;"/>
   </g>
   <g id="line2d_26">
    <path clip-path="url(#p68f187c404)" d="M 113.562273 385.92 
L 123.707727 385.92 
L 133.853182 385.92 
L 143.998636 385.92 
L 154.144091 385.92 
L 164.289545 385.92 
L 174.435 385.92 
L 184.580455 385.92 
L 194.725909 385.92 
L 204.871364 385.92 
L 215.016818 385.92 
L 225.162273 385.92 
L 235.307727 385.92 
L 245.453182 385.92 
L 255.598636 385.92 
L 265.744091 385.92 
L 275.889545 385.92 
L 286.035 385.92 
L 296.180455 385.92 
L 306.325909 385.92 
L 316.471364 385.92 
L 326.616818 385.92 
L 336.762273 385.92 
L 346.907727 385.92 
L 357.053182 385.92 
L 367.198636 385.92 
L 377.344091 385.92 
L 387.489545 385.92 
L 397.635 385.92 
L 407.780455 385.92 
L 417.925909 385.92 
L 428.071364 385.92 
L 438.216818 357.12 
L 448.362273 357.12 
L 458.507727 357.12 
L 468.653182 357.12 
L 478.798636 357.12 
L 488.944091 357.12 
L 499.089545 328.32 
L 509.235 328.32 
L 519.380455 328.32 
L 529.525909 328.32 
L 539.671364 328.32 
L 549.816818 328.32 
L 559.962273 328.32 
L 570.107727 299.52 
L 580.253182 299.52 
L 590.398636 299.52 
L 600.544091 299.52 
L 610.689545 299.52 
L 620.835 299.52 
L 630.980455 270.72 
L 641.125909 270.72 
L 651.271364 270.72 
L 661.416818 270.72 
L 671.562273 270.72 
L 681.707727 270.72 
L 691.853182 241.92 
L 701.998636 241.92 
L 712.144091 241.92 
L 722.289545 241.92 
L 732.435 232.32 
L 742.580455 241.92 
L 752.725909 213.12 
L 762.871364 213.12 
L 773.016818 213.12 
L 783.162273 213.12 
L 793.307727 213.12 
L 803.453182 213.12 
L 813.598636 213.12 
L 823.744091 184.32 
L 833.889545 184.32 
L 844.035 184.32 
L 854.180455 184.32 
L 864.325909 184.32 
L 874.471364 184.32 
L 884.616818 155.52 
L 894.762273 155.52 
L 904.907727 155.52 
L 915.053182 155.52 
L 925.198636 155.52 
L 935.344091 155.52 
L 945.489545 126.72 
L 955.635 126.72 
L 965.780455 126.72 
L 975.925909 126.72 
L 986.071364 126.72 
L 996.216818 126.72 
L 1006.362273 126.72 
L 1016.507727 97.92 
L 1026.653182 88.32 
L 1036.798636 97.92 
L 1046.944091 97.92 
L 1057.089545 97.92 
L 1067.235 97.92 
L 1077.380455 69.12 
L 1087.525909 69.12 
L 1097.671364 69.12 
L 1107.816818 69.12 
L 1117.962273 69.12 
L 1128.107727 69.12 
" style="fill:none;stroke:#2ca02c;stroke-linecap:square;stroke-width:1.5;"/>
   </g>
   <g id="line2d_27">
    <path clip-path="url(#p68f187c404)" d="M 113.562273 347.52 
L 123.707727 347.52 
L 133.853182 347.52 
L 143.998636 347.52 
L 154.144091 347.52 
L 164.289545 347.52 
L 174.435 347.52 
L 184.580455 347.52 
L 194.725909 347.52 
L 204.871364 347.52 
L 215.016818 347.52 
L 225.162273 347.52 
L 235.307727 347.52 
L 245.453182 347.52 
L 255.598636 347.52 
L 265.744091 347.52 
L 275.889545 347.52 
L 286.035 347.52 
L 296.180455 347.52 
L 306.325909 347.52 
L 316.471364 347.52 
L 326.616818 347.52 
L 336.762273 347.52 
L 346.907727 347.52 
L 357.053182 347.52 
L 367.198636 347.52 
L 377.344091 347.52 
L 387.489545 347.52 
L 397.635 347.52 
L 407.780455 347.52 
L 417.925909 347.52 
L 428.071364 347.52 
L 438.216818 347.52 
L 448.362273 347.52 
L 458.507727 347.52 
L 468.653182 347.52 
L 478.798636 347.52 
L 488.944091 347.52 
L 499.089545 347.52 
L 509.235 347.52 
L 519.380455 347.52 
L 529.525909 347.52 
L 539.671364 309.12 
L 549.816818 309.12 
L 559.962273 309.12 
L 570.107727 309.12 
L 580.253182 309.12 
L 590.398636 309.12 
L 600.544091 309.12 
L 610.689545 309.12 
L 620.835 270.72 
L 630.980455 270.72 
L 641.125909 270.72 
L 651.271364 270.72 
L 661.416818 270.72 
L 671.562273 270.72 
L 681.707727 270.72 
L 691.853182 270.72 
L 701.998636 270.72 
L 712.144091 232.32 
L 722.289545 232.32 
L 732.435 232.32 
L 742.580455 232.32 
L 752.725909 232.32 
L 762.871364 232.32 
L 773.016818 232.32 
L 783.162273 232.32 
L 793.307727 193.92 
L 803.453182 193.92 
L 813.598636 193.92 
L 823.744091 193.92 
L 833.889545 193.92 
L 844.035 193.92 
L 854.180455 193.92 
L 864.325909 193.92 
L 874.471364 155.52 
L 884.616818 155.52 
L 894.762273 155.52 
L 904.907727 155.52 
L 915.053182 155.52 
L 925.198636 155.52 
L 935.344091 155.52 
L 945.489545 155.52 
L 955.635 117.12 
L 965.780455 117.12 
L 975.925909 117.12 
L 986.071364 117.12 
L 996.216818 117.12 
L 1006.362273 117.12 
L 1016.507727 117.12 
L 1026.653182 117.12 
L 1036.798636 117.12 
L 1046.944091 78.72 
L 1057.089545 78.72 
L 1067.235 78.72 
L 1077.380455 78.72 
L 1087.525909 78.72 
L 1097.671364 78.72 
L 1107.816818 78.72 
L 1117.962273 78.72 
L 1128.107727 40.32 
" style="fill:none;stroke:#d62728;stroke-linecap:square;stroke-width:1.5;"/>
   </g>
   <g id="line2d_28">
    <path clip-path="url(#p68f187c404)" d="M 113.562273 453.12 
L 123.707727 453.12 
L 133.853182 453.12 
L 143.998636 453.12 
L 154.144091 453.12 
L 164.289545 453.12 
L 174.435 453.12 
L 184.580455 453.12 
L 194.725909 453.12 
L 204.871364 453.12 
L 215.016818 453.12 
L 225.162273 453.12 
L 235.307727 453.12 
L 245.453182 453.12 
L 255.598636 453.12 
L 265.744091 453.12 
L 275.889545 453.12 
L 286.035 453.12 
L 296.180455 453.12 
L 306.325909 453.12 
L 316.471364 453.12 
L 326.616818 433.92 
L 336.762273 433.92 
L 346.907727 433.92 
L 357.053182 433.92 
L 367.198636 433.92 
L 377.344091 414.72 
L 387.489545 414.72 
L 397.635 414.72 
L 407.780455 414.72 
L 417.925909 395.52 
L 428.071364 395.52 
L 438.216818 395.52 
L 448.362273 395.52 
L 458.507727 376.32 
L 468.653182 376.32 
L 478.798636 376.32 
L 488.944091 376.32 
L 499.089545 357.12 
L 509.235 357.12 
L 519.380455 357.12 
L 529.525909 357.12 
L 539.671364 337.92 
L 549.816818 337.92 
L 559.962273 337.92 
L 570.107727 337.92 
L 580.253182 337.92 
L 590.398636 318.72 
L 600.544091 318.72 
L 610.689545 318.72 
L 620.835 318.72 
L 630.980455 299.52 
L 641.125909 299.52 
L 651.271364 299.52 
L 661.416818 299.52 
L 671.562273 280.32 
L 681.707727 280.32 
L 691.853182 280.32 
L 701.998636 280.32 
L 712.144091 261.12 
L 722.289545 261.12 
L 732.435 261.12 
L 742.580455 261.12 
L 752.725909 241.92 
L 762.871364 241.92 
L 773.016818 241.92 
L 783.162273 241.92 
L 793.307727 241.92 
L 803.453182 222.72 
L 813.598636 222.72 
L 823.744091 222.72 
L 833.889545 222.72 
L 844.035 203.52 
L 854.180455 203.52 
L 864.325909 203.52 
L 874.471364 203.52 
L 884.616818 184.32 
L 894.762273 184.32 
L 904.907727 184.32 
L 915.053182 184.32 
L 925.198636 165.12 
L 935.344091 165.12 
L 945.489545 165.12 
L 955.635 165.12 
L 965.780455 145.92 
L 975.925909 145.92 
L 986.071364 145.92 
L 996.216818 145.92 
L 1006.362273 145.92 
L 1016.507727 126.72 
L 1026.653182 126.72 
L 1036.798636 126.72 
L 1046.944091 126.72 
L 1057.089545 107.52 
L 1067.235 107.52 
L 1077.380455 107.52 
L 1087.525909 107.52 
L 1097.671364 88.32 
L 1107.816818 88.32 
L 1117.962273 88.32 
L 1128.107727 88.32 
" style="fill:none;stroke:#9467bd;stroke-linecap:square;stroke-width:1.5;"/>
   </g>
   <g id="line2d_29">
    <path clip-path="url(#p68f187c404)" d="M 113.562273 442.148571 
L 123.707727 442.148571 
L 133.853182 442.148571 
L 143.998636 442.148571 
L 154.144091 442.148571 
L 164.289545 442.148571 
L 174.435 442.148571 
L 184.580455 442.148571 
L 194.725909 442.148571 
L 204.871364 442.148571 
L 215.016818 442.148571 
L 225.162273 442.148571 
L 235.307727 442.148571 
L 245.453182 442.148571 
L 255.598636 442.148571 
L 265.744091 442.148571 
L 275.889545 442.148571 
L 286.035 442.148571 
L 296.180455 442.148571 
L 306.325909 442.148571 
L 316.471364 442.148571 
L 326.616818 442.148571 
L 336.762273 442.148571 
L 346.907727 442.148571 
L 357.053182 420.205714 
L 367.198636 420.205714 
L 377.344091 420.205714 
L 387.489545 420.205714 
L 397.635 420.205714 
L 407.780455 398.262857 
L 417.925909 398.262857 
L 428.071364 398.262857 
L 438.216818 398.262857 
L 448.362273 398.262857 
L 458.507727 376.32 
L 468.653182 376.32 
L 478.798636 376.32 
L 488.944091 376.32 
L 499.089545 376.32 
L 509.235 354.377143 
L 519.380455 354.377143 
L 529.525909 354.377143 
L 539.671364 354.377143 
L 549.816818 354.377143 
L 559.962273 332.434286 
L 570.107727 332.434286 
L 580.253182 332.434286 
L 590.398636 332.434286 
L 600.544091 310.491429 
L 610.689545 310.491429 
L 620.835 310.491429 
L 630.980455 310.491429 
L 641.125909 310.491429 
L 651.271364 288.548571 
L 661.416818 288.548571 
L 671.562273 288.548571 
L 681.707727 288.548571 
L 691.853182 288.548571 
L 701.998636 266.605714 
L 712.144091 266.605714 
L 722.289545 266.605714 
L 732.435 266.605714 
L 742.580455 266.605714 
L 752.725909 244.662857 
L 762.871364 244.662857 
L 773.016818 244.662857 
L 783.162273 244.662857 
L 793.307727 244.662857 
L 803.453182 222.72 
L 813.598636 222.72 
L 823.744091 222.72 
L 833.889545 222.72 
L 844.035 200.777143 
L 854.180455 200.777143 
L 864.325909 200.777143 
L 874.471364 200.777143 
L 884.616818 200.777143 
L 894.762273 178.834286 
L 904.907727 178.834286 
L 915.053182 178.834286 
L 925.198636 178.834286 
L 935.344091 178.834286 
L 945.489545 156.891429 
L 955.635 156.891429 
L 965.780455 156.891429 
L 975.925909 156.891429 
L 986.071364 156.891429 
L 996.216818 134.948571 
L 1006.362273 134.948571 
L 1016.507727 134.948571 
L 1026.653182 134.948571 
L 1036.798636 134.948571 
L 1046.944091 113.005714 
L 1057.089545 113.005714 
L 1067.235 113.005714 
L 1077.380455 113.005714 
L 1087.525909 91.062857 
L 1097.671364 91.062857 
L 1107.816818 91.062857 
L 1117.962273 91.062857 
L 1128.107727 91.062857 
" style="fill:none;stroke:#8c564b;stroke-linecap:square;stroke-width:1.5;"/>
   </g>
   <g id="line2d_30">
    <path clip-path="url(#p68f187c404)" d="M 113.562273 486.034286 
L 123.707727 486.034286 
L 133.853182 486.034286 
L 143.998636 486.034286 
L 154.144091 486.034286 
L 164.289545 486.034286 
L 174.435 486.034286 
L 184.580455 486.034286 
L 194.725909 486.034286 
L 204.871364 486.034286 
L 215.016818 486.034286 
L 225.162273 486.034286 
L 235.307727 475.062857 
L 245.453182 475.062857 
L 255.598636 475.062857 
L 265.744091 464.091429 
L 275.889545 464.091429 
L 286.035 453.12 
L 296.180455 453.12 
L 306.325909 453.12 
L 316.471364 442.148571 
L 326.616818 442.148571 
L 336.762273 431.177143 
L 346.907727 431.177143 
L 357.053182 420.205714 
L 367.198636 420.205714 
L 377.344091 420.205714 
L 387.489545 409.234286 
L 397.635 409.234286 
L 407.780455 398.262857 
L 417.925909 398.262857 
L 428.071364 398.262857 
L 438.216818 387.291429 
L 448.362273 387.291429 
L 458.507727 376.32 
L 468.653182 376.32 
L 478.798636 365.348571 
L 488.944091 365.348571 
L 499.089545 365.348571 
L 509.235 354.377143 
L 519.380455 354.377143 
L 529.525909 343.405714 
L 539.671364 343.405714 
L 549.816818 343.405714 
L 559.962273 332.434286 
L 570.107727 332.434286 
L 580.253182 321.462857 
L 590.398636 321.462857 
L 600.544091 310.491429 
L 610.689545 310.491429 
L 620.835 310.491429 
L 630.980455 299.52 
L 641.125909 299.52 
L 651.271364 288.548571 
L 661.416818 288.548571 
L 671.562273 288.548571 
L 681.707727 277.577143 
L 691.853182 277.577143 
L 701.998636 266.605714 
L 712.144091 266.605714 
L 722.289545 255.634286 
L 732.435 255.634286 
L 742.580455 255.634286 
L 752.725909 244.662857 
L 762.871364 244.662857 
L 773.016818 233.691429 
L 783.162273 233.691429 
L 793.307727 233.691429 
L 803.453182 222.72 
L 813.598636 222.72 
L 823.744091 211.748571 
L 833.889545 211.748571 
L 844.035 200.777143 
L 854.180455 200.777143 
L 864.325909 200.777143 
L 874.471364 189.805714 
L 884.616818 189.805714 
L 894.762273 178.834286 
L 904.907727 178.834286 
L 915.053182 178.834286 
L 925.198636 167.862857 
L 935.344091 167.862857 
L 945.489545 156.891429 
L 955.635 156.891429 
L 965.780455 145.92 
L 975.925909 145.92 
L 986.071364 145.92 
L 996.216818 134.948571 
L 1006.362273 134.948571 
L 1016.507727 123.977143 
L 1026.653182 123.977143 
L 1036.798636 123.977143 
L 1046.944091 113.005714 
L 1057.089545 113.005714 
L 1067.235 102.034286 
L 1077.380455 102.034286 
L 1087.525909 91.062857 
L 1097.671364 91.062857 
L 1107.816818 91.062857 
L 1117.962273 80.091429 
L 1128.107727 80.091429 
" style="fill:none;stroke:#e377c2;stroke-linecap:square;stroke-width:1.5;"/>
   </g>
   <g id="line2d_31">
    <path clip-path="url(#p68f187c404)" d="M 113.562273 385.92 
L 123.707727 385.92 
L 133.853182 385.92 
L 143.998636 385.92 
L 154.144091 385.92 
L 164.289545 385.92 
L 174.435 385.92 
L 184.580455 385.92 
L 194.725909 385.92 
L 204.871364 385.92 
L 215.016818 385.92 
L 225.162273 385.92 
L 235.307727 385.92 
L 245.453182 385.92 
L 255.598636 385.92 
L 265.744091 385.92 
L 275.889545 385.92 
L 286.035 385.92 
L 296.180455 385.92 
L 306.325909 385.92 
L 316.471364 385.92 
L 326.616818 385.92 
L 336.762273 385.92 
L 346.907727 385.92 
L 357.053182 385.92 
L 367.198636 385.92 
L 377.344091 385.92 
L 387.489545 385.92 
L 397.635 385.92 
L 407.780455 385.92 
L 417.925909 385.92 
L 428.071364 385.92 
L 438.216818 357.12 
L 448.362273 357.12 
L 458.507727 357.12 
L 468.653182 357.12 
L 478.798636 357.12 
L 488.944091 357.12 
L 499.089545 328.32 
L 509.235 328.32 
L 519.380455 328.32 
L 529.525909 328.32 
L 539.671364 328.32 
L 549.816818 328.32 
L 559.962273 328.32 
L 570.107727 299.52 
L 580.253182 299.52 
L 590.398636 299.52 
L 600.544091 299.52 
L 610.689545 299.52 
L 620.835 299.52 
L 630.980455 270.72 
L 641.125909 270.72 
L 651.271364 270.72 
L 661.416818 270.72 
L 671.562273 270.72 
L 681.707727 270.72 
L 691.853182 241.92 
L 701.998636 241.92 
L 712.144091 241.92 
L 722.289545 241.92 
L 732.435 241.92 
L 742.580455 241.92 
L 752.725909 213.12 
L 762.871364 213.12 
L 773.016818 213.12 
L 783.162273 213.12 
L 793.307727 213.12 
L 803.453182 213.12 
L 813.598636 213.12 
L 823.744091 184.32 
L 833.889545 184.32 
L 844.035 184.32 
L 854.180455 184.32 
L 864.325909 184.32 
L 874.471364 184.32 
L 884.616818 155.52 
L 894.762273 155.52 
L 904.907727 155.52 
L 915.053182 155.52 
L 925.198636 155.52 
L 935.344091 155.52 
L 945.489545 126.72 
L 955.635 126.72 
L 965.780455 126.72 
L 975.925909 126.72 
L 986.071364 126.72 
L 996.216818 126.72 
L 1006.362273 126.72 
L 1016.507727 97.92 
L 1026.653182 97.92 
L 1036.798636 97.92 
L 1046.944091 97.92 
L 1057.089545 97.92 
L 1067.235 97.92 
L 1077.380455 69.12 
L 1087.525909 69.12 
L 1097.671364 69.12 
L 1107.816818 69.12 
L 1117.962273 69.12 
L 1128.107727 69.12 
" style="fill:none;stroke:#7f7f7f;stroke-linecap:square;stroke-width:1.5;"/>
   </g>
   <g id="line2d_32">
    <path clip-path="url(#p68f187c404)" d="M 113.562273 489.386667 
L 123.707727 489.386667 
L 133.853182 489.386667 
L 143.998636 489.386667 
L 154.144091 489.386667 
L 164.289545 489.386667 
L 174.435 489.386667 
L 184.580455 489.386667 
L 194.725909 489.386667 
L 204.871364 472.32 
L 215.016818 468.053333 
L 225.162273 453.12 
L 235.307727 448.853333 
L 245.453182 444.586667 
L 255.598636 440.32 
L 265.744091 436.053333 
L 275.889545 431.786667 
L 286.035 427.52 
L 296.180455 423.253333 
L 306.325909 418.986667 
L 316.471364 414.72 
L 326.616818 410.453333 
L 336.762273 406.186667 
L 346.907727 401.92 
L 357.053182 397.653333 
L 367.198636 393.386667 
L 377.344091 389.12 
L 387.489545 384.853333 
L 397.635 380.586667 
L 407.780455 376.32 
L 417.925909 372.053333 
L 428.071364 367.786667 
L 438.216818 363.52 
L 448.362273 359.253333 
L 458.507727 354.986667 
L 468.653182 350.72 
L 478.798636 346.453333 
L 488.944091 342.186667 
L 499.089545 337.92 
L 509.235 333.653333 
L 519.380455 329.386667 
L 529.525909 325.12 
L 539.671364 320.853333 
L 549.816818 316.586667 
L 559.962273 312.32 
L 570.107727 308.053333 
L 580.253182 303.786667 
L 590.398636 299.52 
L 600.544091 295.253333 
L 610.689545 290.986667 
L 620.835 286.72 
L 630.980455 282.453333 
L 641.125909 278.186667 
L 651.271364 273.92 
L 661.416818 269.653333 
L 671.562273 265.386667 
L 681.707727 261.12 
L 691.853182 256.853333 
L 701.998636 252.586667 
L 712.144091 248.32 
L 722.289545 244.053333 
L 732.435 239.786667 
L 742.580455 235.52 
L 752.725909 231.253333 
L 762.871364 226.986667 
L 773.016818 222.72 
L 783.162273 218.453333 
L 793.307727 214.186667 
L 803.453182 209.92 
L 813.598636 205.653333 
L 823.744091 201.386667 
L 833.889545 197.12 
L 844.035 192.853333 
L 854.180455 188.586667 
L 864.325909 184.32 
L 874.471364 180.053333 
L 884.616818 175.786667 
L 894.762273 171.52 
L 904.907727 167.253333 
L 915.053182 162.986667 
L 925.198636 158.72 
L 935.344091 154.453333 
L 945.489545 150.186667 
L 955.635 145.92 
L 965.780455 141.653333 
L 975.925909 137.386667 
L 986.071364 133.12 
L 996.216818 128.853333 
L 1006.362273 124.586667 
L 1016.507727 120.32 
L 1026.653182 116.053333 
L 1036.798636 111.786667 
L 1046.944091 107.52 
L 1057.089545 103.253333 
L 1067.235 98.986667 
L 1077.380455 94.72 
L 1087.525909 90.453333 
L 1097.671364 86.186667 
L 1107.816818 81.92 
L 1117.962273 77.653333 
L 1128.107727 73.386667 
" style="fill:none;stroke:#bcbd22;stroke-linecap:square;stroke-width:1.5;"/>
   </g>
   <g id="line2d_33">
    <path clip-path="url(#p68f187c404)" d="M 113.562273 472.997647 
L 123.707727 472.997647 
L 133.853182 472.997647 
L 143.998636 472.997647 
L 154.144091 472.997647 
L 164.289545 472.997647 
L 174.435 472.997647 
L 184.580455 472.997647 
L 194.725909 472.997647 
L 204.871364 464.865882 
L 215.016818 464.865882 
L 225.162273 456.734118 
L 235.307727 456.734118 
L 245.453182 448.602353 
L 255.598636 448.602353 
L 265.744091 440.470588 
L 275.889545 440.470588 
L 286.035 432.338824 
L 296.180455 424.207059 
L 306.325909 424.207059 
L 316.471364 416.075294 
L 326.616818 416.075294 
L 336.762273 407.943529 
L 346.907727 407.943529 
L 357.053182 399.811765 
L 367.198636 399.811765 
L 377.344091 391.68 
L 387.489545 383.548235 
L 397.635 383.548235 
L 407.780455 375.416471 
L 417.925909 375.416471 
L 428.071364 367.284706 
L 438.216818 367.284706 
L 448.362273 359.152941 
L 458.507727 359.152941 
L 468.653182 351.021176 
L 478.798636 342.889412 
L 488.944091 342.889412 
L 499.089545 334.757647 
L 509.235 334.757647 
L 519.380455 326.625882 
L 529.525909 326.625882 
L 539.671364 318.494118 
L 549.816818 318.494118 
L 559.962273 310.362353 
L 570.107727 302.230588 
L 580.253182 302.230588 
L 590.398636 294.098824 
L 600.544091 294.098824 
L 610.689545 285.967059 
L 620.835 285.967059 
L 630.980455 277.835294 
L 641.125909 277.835294 
L 651.271364 269.703529 
L 661.416818 261.571765 
L 671.562273 261.571765 
L 681.707727 253.44 
L 691.853182 253.44 
L 701.998636 245.308235 
L 712.144091 245.308235 
L 722.289545 237.176471 
L 732.435 237.176471 
L 742.580455 229.044706 
L 752.725909 220.912941 
L 762.871364 220.912941 
L 773.016818 212.781176 
L 783.162273 212.781176 
L 793.307727 204.649412 
L 803.453182 204.649412 
L 813.598636 196.517647 
L 823.744091 196.517647 
L 833.889545 188.385882 
L 844.035 180.254118 
L 854.180455 180.254118 
L 864.325909 172.122353 
L 874.471364 172.122353 
L 884.616818 163.990588 
L 894.762273 163.990588 
L 904.907727 155.858824 
L 915.053182 155.858824 
L 925.198636 147.727059 
L 935.344091 139.595294 
L 945.489545 139.595294 
L 955.635 131.463529 
L 965.780455 131.463529 
L 975.925909 123.331765 
L 986.071364 123.331765 
L 996.216818 115.2 
L 1006.362273 115.2 
L 1016.507727 107.068235 
L 1026.653182 98.936471 
L 1036.798636 98.936471 
L 1046.944091 90.804706 
L 1057.089545 90.804706 
L 1067.235 82.672941 
L 1077.380455 82.672941 
L 1087.525909 74.541176 
L 1097.671364 74.541176 
L 1107.816818 66.409412 
L 1117.962273 58.277647 
L 1128.107727 58.277647 
" style="fill:none;stroke:#17becf;stroke-linecap:square;stroke-width:1.5;"/>
   </g>
   <g id="line2d_34">
    <path clip-path="url(#p68f187c404)" d="M 113.562273 400.32 
L 123.707727 400.32 
L 133.853182 400.32 
L 143.998636 400.32 
L 154.144091 400.32 
L 164.289545 400.32 
L 174.435 400.32 
L 184.580455 400.32 
L 194.725909 400.32 
L 204.871364 400.32 
L 215.016818 400.32 
L 225.162273 400.32 
L 235.307727 400.32 
L 245.453182 400.32 
L 255.598636 400.32 
L 265.744091 400.32 
L 275.889545 400.32 
L 286.035 400.32 
L 296.180455 400.32 
L 306.325909 400.32 
L 316.471364 400.32 
L 326.616818 400.32 
L 336.762273 400.32 
L 346.907727 400.32 
L 357.053182 378.72 
L 367.198636 378.72 
L 377.344091 378.72 
L 387.489545 378.72 
L 397.635 378.72 
L 407.780455 357.12 
L 417.925909 357.12 
L 428.071364 357.12 
L 438.216818 357.12 
L 448.362273 335.52 
L 458.507727 335.52 
L 468.653182 335.52 
L 478.798636 335.52 
L 488.944091 335.52 
L 499.089545 313.92 
L 509.235 313.92 
L 519.380455 313.92 
L 529.525909 313.92 
L 539.671364 313.92 
L 549.816818 292.32 
L 559.962273 292.32 
L 570.107727 292.32 
L 580.253182 292.32 
L 590.398636 270.72 
L 600.544091 270.72 
L 610.689545 270.72 
L 620.835 270.72 
L 630.980455 270.72 
L 641.125909 249.12 
L 651.271364 249.12 
L 661.416818 249.12 
L 671.562273 249.12 
L 681.707727 249.12 
L 691.853182 227.52 
L 701.998636 227.52 
L 712.144091 227.52 
L 722.289545 227.52 
L 732.435 227.52 
L 742.580455 205.92 
L 752.725909 205.92 
L 762.871364 205.92 
L 773.016818 205.92 
L 783.162273 184.32 
L 793.307727 184.32 
L 803.453182 184.32 
L 813.598636 184.32 
L 823.744091 184.32 
L 833.889545 162.72 
L 844.035 162.72 
L 854.180455 162.72 
L 864.325909 162.72 
L 874.471364 162.72 
L 884.616818 141.12 
L 894.762273 141.12 
L 904.907727 141.12 
L 915.053182 141.12 
L 925.198636 119.52 
L 935.344091 119.52 
L 945.489545 119.52 
L 955.635 119.52 
L 965.780455 119.52 
L 975.925909 97.92 
L 986.071364 97.92 
L 996.216818 97.92 
L 1006.362273 97.92 
L 1016.507727 97.92 
L 1026.653182 76.32 
L 1036.798636 76.32 
L 1046.944091 76.32 
L 1057.089545 76.32 
L 1067.235 54.72 
L 1077.380455 54.72 
L 1087.525909 54.72 
L 1097.671364 54.72 
L 1107.816818 54.72 
L 1117.962273 33.12 
L 1128.107727 33.12 
" style="fill:none;stroke:#1f77b4;stroke-linecap:square;stroke-width:1.5;"/>
   </g>
   <g id="line2d_35">
    <path clip-path="url(#p68f187c404)" d="M 113.562273 436.32 
L 123.707727 436.32 
L 133.853182 436.32 
L 143.998636 436.32 
L 154.144091 436.32 
L 164.289545 436.32 
L 174.435 436.32 
L 184.580455 436.32 
L 194.725909 436.32 
L 204.871364 436.32 
L 215.016818 436.32 
L 225.162273 436.32 
L 235.307727 436.32 
L 245.453182 436.32 
L 255.598636 436.32 
L 265.744091 436.32 
L 275.889545 436.32 
L 286.035 436.32 
L 296.180455 436.32 
L 306.325909 436.32 
L 316.471364 436.32 
L 326.616818 436.32 
L 336.762273 436.32 
L 346.907727 436.32 
L 357.053182 414.72 
L 367.198636 414.72 
L 377.344091 414.72 
L 387.489545 414.72 
L 397.635 414.72 
L 407.780455 393.12 
L 417.925909 393.12 
L 428.071364 393.12 
L 438.216818 393.12 
L 448.362273 371.52 
L 458.507727 371.52 
L 468.653182 371.52 
L 478.798636 371.52 
L 488.944091 371.52 
L 499.089545 349.92 
L 509.235 349.92 
L 519.380455 349.92 
L 529.525909 349.92 
L 539.671364 349.92 
L 549.816818 328.32 
L 559.962273 328.32 
L 570.107727 328.32 
L 580.253182 328.32 
L 590.398636 306.72 
L 600.544091 306.72 
L 610.689545 306.72 
L 620.835 306.72 
L 630.980455 306.72 
L 641.125909 285.12 
L 651.271364 285.12 
L 661.416818 285.12 
L 671.562273 285.12 
L 681.707727 285.12 
L 691.853182 263.52 
L 701.998636 263.52 
L 712.144091 263.52 
L 722.289545 263.52 
L 732.435 263.52 
L 742.580455 241.92 
L 752.725909 241.92 
L 762.871364 241.92 
L 773.016818 241.92 
L 783.162273 220.32 
L 793.307727 220.32 
L 803.453182 220.32 
L 813.598636 220.32 
L 823.744091 220.32 
L 833.889545 198.72 
L 844.035 198.72 
L 854.180455 198.72 
L 864.325909 198.72 
L 874.471364 198.72 
L 884.616818 177.12 
L 894.762273 177.12 
L 904.907727 177.12 
L 915.053182 177.12 
L 925.198636 155.52 
L 935.344091 155.52 
L 945.489545 155.52 
L 955.635 155.52 
L 965.780455 155.52 
L 975.925909 133.92 
L 986.071364 133.92 
L 996.216818 133.92 
L 1006.362273 133.92 
L 1016.507727 133.92 
L 1026.653182 112.32 
L 1036.798636 112.32 
L 1046.944091 112.32 
L 1057.089545 112.32 
L 1067.235 90.72 
L 1077.380455 90.72 
L 1087.525909 90.72 
L 1097.671364 90.72 
L 1107.816818 90.72 
L 1117.962273 69.12 
L 1128.107727 69.12 
" style="fill:none;stroke:#ff7f0e;stroke-linecap:square;stroke-width:1.5;"/>
   </g>
   <g id="line2d_36">
    <path clip-path="url(#p68f187c404)" d="M 113.562273 488.96 
L 123.707727 488.96 
L 133.853182 488.96 
L 143.998636 488.96 
L 154.144091 488.96 
L 164.289545 488.96 
L 174.435 488.96 
L 184.580455 488.96 
L 194.725909 488.96 
L 204.871364 488.96 
L 215.016818 488.96 
L 225.162273 478.72 
L 235.307727 478.72 
L 245.453182 478.72 
L 255.598636 468.48 
L 265.744091 468.48 
L 275.889545 458.24 
L 286.035 458.24 
L 296.180455 448 
L 306.325909 448 
L 316.471364 437.76 
L 326.616818 437.76 
L 336.762273 427.52 
L 346.907727 427.52 
L 357.053182 427.52 
L 367.198636 417.28 
L 377.344091 417.28 
L 387.489545 407.04 
L 397.635 407.04 
L 407.780455 396.8 
L 417.925909 396.8 
L 428.071364 386.56 
L 438.216818 386.56 
L 448.362273 376.32 
L 458.507727 376.32 
L 468.653182 376.32 
L 478.798636 366.08 
L 488.944091 366.08 
L 499.089545 355.84 
L 509.235 355.84 
L 519.380455 345.6 
L 529.525909 345.6 
L 539.671364 335.36 
L 549.816818 335.36 
L 559.962273 325.12 
L 570.107727 325.12 
L 580.253182 325.12 
L 590.398636 314.88 
L 600.544091 314.88 
L 610.689545 304.64 
L 620.835 304.64 
L 630.980455 294.4 
L 641.125909 294.4 
L 651.271364 284.16 
L 661.416818 284.16 
L 671.562273 273.92 
L 681.707727 273.92 
L 691.853182 273.92 
L 701.998636 263.68 
L 712.144091 263.68 
L 722.289545 253.44 
L 732.435 253.44 
L 742.580455 243.2 
L 752.725909 243.2 
L 762.871364 232.96 
L 773.016818 232.96 
L 783.162273 222.72 
L 793.307727 222.72 
L 803.453182 222.72 
L 813.598636 212.48 
L 823.744091 212.48 
L 833.889545 202.24 
L 844.035 202.24 
L 854.180455 192 
L 864.325909 192 
L 874.471364 181.76 
L 884.616818 181.76 
L 894.762273 171.52 
L 904.907727 171.52 
L 915.053182 171.52 
L 925.198636 161.28 
L 935.344091 161.28 
L 945.489545 151.04 
L 955.635 151.04 
L 965.780455 140.8 
L 975.925909 140.8 
L 986.071364 130.56 
L 996.216818 130.56 
L 1006.362273 120.32 
L 1016.507727 120.32 
L 1026.653182 120.32 
L 1036.798636 110.08 
L 1046.944091 110.08 
L 1057.089545 99.84 
L 1067.235 99.84 
L 1077.380455 89.6 
L 1087.525909 89.6 
L 1097.671364 79.36 
L 1107.816818 79.36 
L 1117.962273 69.12 
L 1128.107727 69.12 
" style="fill:none;stroke:#2ca02c;stroke-linecap:square;stroke-width:1.5;"/>
   </g>
   <g id="line2d_37">
    <path clip-path="url(#p68f187c404)" d="M 113.562273 455.04 
L 123.707727 455.04 
L 133.853182 455.04 
L 143.998636 455.04 
L 154.144091 455.04 
L 164.289545 455.04 
L 174.435 455.04 
L 184.580455 455.04 
L 194.725909 455.04 
L 204.871364 455.04 
L 215.016818 455.04 
L 225.162273 455.04 
L 235.307727 455.04 
L 245.453182 455.04 
L 255.598636 455.04 
L 265.744091 455.04 
L 275.889545 455.04 
L 286.035 455.04 
L 296.180455 455.04 
L 306.325909 437.76 
L 316.471364 437.76 
L 326.616818 437.76 
L 336.762273 437.76 
L 346.907727 420.48 
L 357.053182 420.48 
L 367.198636 420.48 
L 377.344091 420.48 
L 387.489545 403.2 
L 397.635 403.2 
L 407.780455 403.2 
L 417.925909 403.2 
L 428.071364 385.92 
L 438.216818 385.92 
L 448.362273 385.92 
L 458.507727 385.92 
L 468.653182 368.64 
L 478.798636 368.64 
L 488.944091 368.64 
L 499.089545 351.36 
L 509.235 351.36 
L 519.380455 351.36 
L 529.525909 351.36 
L 539.671364 334.08 
L 549.816818 334.08 
L 559.962273 334.08 
L 570.107727 334.08 
L 580.253182 316.8 
L 590.398636 316.8 
L 600.544091 316.8 
L 610.689545 316.8 
L 620.835 299.52 
L 630.980455 299.52 
L 641.125909 299.52 
L 651.271364 299.52 
L 661.416818 282.24 
L 671.562273 282.24 
L 681.707727 282.24 
L 691.853182 264.96 
L 701.998636 264.96 
L 712.144091 264.96 
L 722.289545 264.96 
L 732.435 247.68 
L 742.580455 247.68 
L 752.725909 247.68 
L 762.871364 247.68 
L 773.016818 230.4 
L 783.162273 230.4 
L 793.307727 230.4 
L 803.453182 230.4 
L 813.598636 213.12 
L 823.744091 213.12 
L 833.889545 213.12 
L 844.035 213.12 
L 854.180455 195.84 
L 864.325909 195.84 
L 874.471364 195.84 
L 884.616818 178.56 
L 894.762273 178.56 
L 904.907727 178.56 
L 915.053182 178.56 
L 925.198636 161.28 
L 935.344091 161.28 
L 945.489545 161.28 
L 955.635 161.28 
L 965.780455 144 
L 975.925909 144 
L 986.071364 144 
L 996.216818 144 
L 1006.362273 126.72 
L 1016.507727 126.72 
L 1026.653182 126.72 
L 1036.798636 126.72 
L 1046.944091 109.44 
L 1057.089545 109.44 
L 1067.235 109.44 
L 1077.380455 92.16 
L 1087.525909 92.16 
L 1097.671364 92.16 
L 1107.816818 92.16 
L 1117.962273 74.88 
L 1128.107727 74.88 
" style="fill:none;stroke:#d62728;stroke-linecap:square;stroke-width:1.5;"/>
   </g>
   <g id="line2d_38">
    <path clip-path="url(#p68f187c404)" d="M 113.562273 285.12 
L 123.707727 285.12 
L 133.853182 285.12 
L 143.998636 285.12 
L 154.144091 285.12 
L 164.289545 285.12 
L 174.435 285.12 
L 184.580455 285.12 
L 194.725909 285.12 
L 204.871364 285.12 
L 215.016818 285.12 
L 225.162273 285.12 
L 235.307727 285.12 
L 245.453182 285.12 
L 255.598636 285.12 
L 265.744091 285.12 
L 275.889545 285.12 
L 286.035 285.12 
L 296.180455 285.12 
L 306.325909 285.12 
L 316.471364 285.12 
L 326.616818 285.12 
L 336.762273 285.12 
L 346.907727 285.12 
L 357.053182 285.12 
L 367.198636 285.12 
L 377.344091 285.12 
L 387.489545 285.12 
L 397.635 285.12 
L 407.780455 285.12 
L 417.925909 285.12 
L 428.071364 285.12 
L 438.216818 285.12 
L 448.362273 285.12 
L 458.507727 285.12 
L 468.653182 285.12 
L 478.798636 285.12 
L 488.944091 285.12 
L 499.089545 285.12 
L 509.235 285.12 
L 519.380455 285.12 
L 529.525909 285.12 
L 539.671364 285.12 
L 549.816818 285.12 
L 559.962273 285.12 
L 570.107727 285.12 
L 580.253182 285.12 
L 590.398636 285.12 
L 600.544091 285.12 
L 610.689545 285.12 
L 620.835 285.12 
L 630.980455 285.12 
L 641.125909 285.12 
L 651.271364 285.12 
L 661.416818 285.12 
L 671.562273 285.12 
L 681.707727 285.12 
L 691.853182 285.12 
L 701.998636 285.12 
L 712.144091 285.12 
L 722.289545 285.12 
L 732.435 285.12 
L 742.580455 285.12 
L 752.725909 227.52 
L 762.871364 227.52 
L 773.016818 227.52 
L 783.162273 227.52 
L 793.307727 227.52 
L 803.453182 227.52 
L 813.598636 227.52 
L 823.744091 227.52 
L 833.889545 227.52 
L 844.035 227.52 
L 854.180455 227.52 
L 864.325909 227.52 
L 874.471364 169.92 
L 884.616818 169.92 
L 894.762273 169.92 
L 904.907727 169.92 
L 915.053182 169.92 
L 925.198636 169.92 
L 935.344091 169.92 
L 945.489545 169.92 
L 955.635 169.92 
L 965.780455 169.92 
L 975.925909 169.92 
L 986.071364 169.92 
L 996.216818 169.92 
L 1006.362273 112.32 
L 1016.507727 112.32 
L 1026.653182 112.32 
L 1036.798636 112.32 
L 1046.944091 112.32 
L 1057.089545 112.32 
L 1067.235 112.32 
L 1077.380455 112.32 
L 1087.525909 112.32 
L 1097.671364 112.32 
L 1107.816818 112.32 
L 1117.962273 112.32 
L 1128.107727 54.72 
" style="fill:none;stroke:#9467bd;stroke-linecap:square;stroke-width:1.5;"/>
   </g>
   <g id="line2d_39">
    <path clip-path="url(#p68f187c404)" d="M 113.562273 347.52 
L 123.707727 347.52 
L 133.853182 347.52 
L 143.998636 347.52 
L 154.144091 347.52 
L 164.289545 347.52 
L 174.435 347.52 
L 184.580455 347.52 
L 194.725909 347.52 
L 204.871364 347.52 
L 215.016818 347.52 
L 225.162273 347.52 
L 235.307727 347.52 
L 245.453182 347.52 
L 255.598636 347.52 
L 265.744091 347.52 
L 275.889545 347.52 
L 286.035 347.52 
L 296.180455 347.52 
L 306.325909 347.52 
L 316.471364 347.52 
L 326.616818 347.52 
L 336.762273 347.52 
L 346.907727 347.52 
L 357.053182 347.52 
L 367.198636 347.52 
L 377.344091 347.52 
L 387.489545 347.52 
L 397.635 347.52 
L 407.780455 347.52 
L 417.925909 347.52 
L 428.071364 347.52 
L 438.216818 347.52 
L 448.362273 347.52 
L 458.507727 347.52 
L 468.653182 347.52 
L 478.798636 347.52 
L 488.944091 347.52 
L 499.089545 347.52 
L 509.235 347.52 
L 519.380455 347.52 
L 529.525909 347.52 
L 539.671364 309.12 
L 549.816818 309.12 
L 559.962273 309.12 
L 570.107727 309.12 
L 580.253182 309.12 
L 590.398636 309.12 
L 600.544091 309.12 
L 610.689545 309.12 
L 620.835 270.72 
L 630.980455 270.72 
L 641.125909 270.72 
L 651.271364 270.72 
L 661.416818 270.72 
L 671.562273 270.72 
L 681.707727 270.72 
L 691.853182 270.72 
L 701.998636 270.72 
L 712.144091 232.32 
L 722.289545 232.32 
L 732.435 232.32 
L 742.580455 232.32 
L 752.725909 232.32 
L 762.871364 232.32 
L 773.016818 232.32 
L 783.162273 232.32 
L 793.307727 193.92 
L 803.453182 193.92 
L 813.598636 193.92 
L 823.744091 193.92 
L 833.889545 193.92 
L 844.035 193.92 
L 854.180455 193.92 
L 864.325909 193.92 
L 874.471364 155.52 
L 884.616818 155.52 
L 894.762273 155.52 
L 904.907727 155.52 
L 915.053182 155.52 
L 925.198636 155.52 
L 935.344091 155.52 
L 945.489545 155.52 
L 955.635 117.12 
L 965.780455 117.12 
L 975.925909 117.12 
L 986.071364 117.12 
L 996.216818 117.12 
L 1006.362273 117.12 
L 1016.507727 117.12 
L 1026.653182 117.12 
L 1036.798636 117.12 
L 1046.944091 78.72 
L 1057.089545 78.72 
L 1067.235 78.72 
L 1077.380455 78.72 
L 1087.525909 78.72 
L 1097.671364 78.72 
L 1107.816818 78.72 
L 1117.962273 78.72 
L 1128.107727 40.32 
" style="fill:none;stroke:#8c564b;stroke-linecap:square;stroke-width:1.5;"/>
   </g>
   <g id="line2d_40">
    <path clip-path="url(#p68f187c404)" d="M 113.562273 285.12 
L 123.707727 285.12 
L 133.853182 285.12 
L 143.998636 285.12 
L 154.144091 285.12 
L 164.289545 285.12 
L 174.435 285.12 
L 184.580455 285.12 
L 194.725909 285.12 
L 204.871364 285.12 
L 215.016818 285.12 
L 225.162273 285.12 
L 235.307727 285.12 
L 245.453182 285.12 
L 255.598636 285.12 
L 265.744091 285.12 
L 275.889545 285.12 
L 286.035 285.12 
L 296.180455 285.12 
L 306.325909 285.12 
L 316.471364 285.12 
L 326.616818 285.12 
L 336.762273 285.12 
L 346.907727 285.12 
L 357.053182 285.12 
L 367.198636 285.12 
L 377.344091 285.12 
L 387.489545 285.12 
L 397.635 285.12 
L 407.780455 285.12 
L 417.925909 285.12 
L 428.071364 285.12 
L 438.216818 285.12 
L 448.362273 285.12 
L 458.507727 285.12 
L 468.653182 285.12 
L 478.798636 285.12 
L 488.944091 285.12 
L 499.089545 285.12 
L 509.235 285.12 
L 519.380455 285.12 
L 529.525909 285.12 
L 539.671364 285.12 
L 549.816818 285.12 
L 559.962273 285.12 
L 570.107727 285.12 
L 580.253182 285.12 
L 590.398636 241.92 
L 600.544091 241.92 
L 610.689545 241.92 
L 620.835 241.92 
L 630.980455 241.92 
L 641.125909 241.92 
L 651.271364 241.92 
L 661.416818 241.92 
L 671.562273 241.92 
L 681.707727 241.92 
L 691.853182 198.72 
L 701.998636 198.72 
L 712.144091 198.72 
L 722.289545 198.72 
L 732.435 198.72 
L 742.580455 198.72 
L 752.725909 198.72 
L 762.871364 198.72 
L 773.016818 198.72 
L 783.162273 155.52 
L 793.307727 155.52 
L 803.453182 155.52 
L 813.598636 155.52 
L 823.744091 155.52 
L 833.889545 155.52 
L 844.035 155.52 
L 854.180455 155.52 
L 864.325909 155.52 
L 874.471364 155.52 
L 884.616818 112.32 
L 894.762273 112.32 
L 904.907727 112.32 
L 915.053182 112.32 
L 925.198636 112.32 
L 935.344091 112.32 
L 945.489545 112.32 
L 955.635 112.32 
L 965.780455 112.32 
L 975.925909 69.12 
L 986.071364 69.12 
L 996.216818 69.12 
L 1006.362273 69.12 
L 1016.507727 69.12 
L 1026.653182 69.12 
L 1036.798636 69.12 
L 1046.944091 69.12 
L 1057.089545 69.12 
L 1067.235 25.92 
L 1077.380455 25.92 
L 1087.525909 25.92 
L 1097.671364 25.92 
L 1107.816818 25.92 
L 1117.962273 25.92 
L 1128.107727 25.92 
" style="fill:none;stroke:#e377c2;stroke-linecap:square;stroke-width:1.5;"/>
   </g>
   <g id="line2d_41">
    <path clip-path="url(#p68f187c404)" d="M 113.562273 488.96 
L 123.707727 488.96 
L 133.853182 488.96 
L 143.998636 488.96 
L 154.144091 488.96 
L 164.289545 488.96 
L 174.435 488.96 
L 184.580455 488.96 
L 194.725909 488.96 
L 204.871364 488.96 
L 215.016818 488.96 
L 225.162273 478.72 
L 235.307727 478.72 
L 245.453182 478.72 
L 255.598636 468.48 
L 265.744091 468.48 
L 275.889545 458.24 
L 286.035 458.24 
L 296.180455 448 
L 306.325909 448 
L 316.471364 437.76 
L 326.616818 437.76 
L 336.762273 427.52 
L 346.907727 427.52 
L 357.053182 427.52 
L 367.198636 417.28 
L 377.344091 417.28 
L 387.489545 407.04 
L 397.635 407.04 
L 407.780455 396.8 
L 417.925909 396.8 
L 428.071364 386.56 
L 438.216818 386.56 
L 448.362273 376.32 
L 458.507727 376.32 
L 468.653182 376.32 
L 478.798636 366.08 
L 488.944091 366.08 
L 499.089545 355.84 
L 509.235 355.84 
L 519.380455 345.6 
L 529.525909 345.6 
L 539.671364 335.36 
L 549.816818 335.36 
L 559.962273 325.12 
L 570.107727 325.12 
L 580.253182 325.12 
L 590.398636 314.88 
L 600.544091 314.88 
L 610.689545 304.64 
L 620.835 304.64 
L 630.980455 294.4 
L 641.125909 294.4 
L 651.271364 284.16 
L 661.416818 284.16 
L 671.562273 273.92 
L 681.707727 273.92 
L 691.853182 273.92 
L 701.998636 263.68 
L 712.144091 263.68 
L 722.289545 253.44 
L 732.435 253.44 
L 742.580455 243.2 
L 752.725909 243.2 
L 762.871364 232.96 
L 773.016818 232.96 
L 783.162273 222.72 
L 793.307727 222.72 
L 803.453182 222.72 
L 813.598636 212.48 
L 823.744091 212.48 
L 833.889545 202.24 
L 844.035 202.24 
L 854.180455 192 
L 864.325909 192 
L 874.471364 181.76 
L 884.616818 181.76 
L 894.762273 171.52 
L 904.907727 171.52 
L 915.053182 171.52 
L 925.198636 161.28 
L 935.344091 161.28 
L 945.489545 151.04 
L 955.635 151.04 
L 965.780455 140.8 
L 975.925909 140.8 
L 986.071364 130.56 
L 996.216818 130.56 
L 1006.362273 120.32 
L 1016.507727 120.32 
L 1026.653182 120.32 
L 1036.798636 110.08 
L 1046.944091 110.08 
L 1057.089545 99.84 
L 1067.235 99.84 
L 1077.380455 89.6 
L 1087.525909 89.6 
L 1097.671364 79.36 
L 1107.816818 79.36 
L 1117.962273 69.12 
L 1128.107727 69.12 
" style="fill:none;stroke:#7f7f7f;stroke-linecap:square;stroke-width:1.5;"/>
   </g>
   <g id="patch_3">
    <path d="M 62.835 555.12 
L 62.835 0.72 
" style="fill:none;stroke:#000000;stroke-linecap:square;stroke-linejoin:miter;stroke-width:0.8;"/>
   </g>
   <g id="patch_4">
    <path d="M 1178.835 555.12 
L 1178.835 0.72 
" style="fill:none;stroke:#000000;stroke-linecap:square;stroke-linejoin:miter;stroke-width:0.8;"/>
   </g>
   <g id="patch_5">
    <path d="M 62.835 555.12 
L 1178.835 555.12 
" style="fill:none;stroke:#000000;stroke-linecap:square;stroke-linejoin:miter;stroke-width:0.8;"/>
   </g>
   <g id="patch_6">
    <path d="M 62.835 0.72 
L 1178.835 0.72 
" style="fill:none;stroke:#000000;stroke-linecap:square;stroke-linejoin:miter;stroke-width:0.8;"/>
   </g>
   <g id="patch_7">
    <path d="M 172.137787 514.381366 
Q 168.936984 511.322032 165.736182 508.262698 
" style="fill:none;stroke:#000000;stroke-linecap:round;"/>
   </g>
   <g id="text_25">
    <!-- Ideal -->
    <g transform="translate(164.289545 529.92)scale(0.16 -0.16)">
     <use xlink:href="#DejaVuSans-73"/>
     <use x="29.492188" xlink:href="#DejaVuSans-100"/>
     <use x="92.96875" xlink:href="#DejaVuSans-101"/>
     <use x="154.492188" xlink:href="#DejaVuSans-97"/>
     <use x="215.771484" xlink:href="#DejaVuSans-108"/>
    </g>
   </g>
   <g id="text_26">
    <!-- STM32L0/L1 @ 32MHz -->
    <g transform="translate(123.707727 278.784)scale(0.16 -0.16)">
     <defs>
      <path d="M 53.515625 70.515625 
L 53.515625 60.890625 
Q 47.90625 63.578125 42.921875 64.890625 
Q 37.9375 66.21875 33.296875 66.21875 
Q 25.25 66.21875 20.875 63.09375 
Q 16.5 59.96875 16.5 54.203125 
Q 16.5 49.359375 19.40625 46.890625 
Q 22.3125 44.4375 30.421875 42.921875 
L 36.375 41.703125 
Q 47.40625 39.59375 52.65625 34.296875 
Q 57.90625 29 57.90625 20.125 
Q 57.90625 9.515625 50.796875 4.046875 
Q 43.703125 -1.421875 29.984375 -1.421875 
Q 24.8125 -1.421875 18.96875 -0.25 
Q 13.140625 0.921875 6.890625 3.21875 
L 6.890625 13.375 
Q 12.890625 10.015625 18.65625 8.296875 
Q 24.421875 6.59375 29.984375 6.59375 
Q 38.421875 6.59375 43.015625 9.90625 
Q 47.609375 13.234375 47.609375 19.390625 
Q 47.609375 24.75 44.3125 27.78125 
Q 41.015625 30.8125 33.5 32.328125 
L 27.484375 33.5 
Q 16.453125 35.6875 11.515625 40.375 
Q 6.59375 45.0625 6.59375 53.421875 
Q 6.59375 63.09375 13.40625 68.65625 
Q 20.21875 74.21875 32.171875 74.21875 
Q 37.3125 74.21875 42.625 73.28125 
Q 47.953125 72.359375 53.515625 70.515625 
z
" id="DejaVuSans-83"/>
      <path d="M -0.296875 72.90625 
L 61.375 72.90625 
L 61.375 64.59375 
L 35.5 64.59375 
L 35.5 0 
L 25.59375 0 
L 25.59375 64.59375 
L -0.296875 64.59375 
z
" id="DejaVuSans-84"/>
      <path d="M 9.8125 72.90625 
L 19.671875 72.90625 
L 19.671875 8.296875 
L 55.171875 8.296875 
L 55.171875 0 
L 9.8125 0 
z
" id="DejaVuSans-76"/>
      <path d="M 25.390625 72.90625 
L 33.6875 72.90625 
L 8.296875 -9.28125 
L 0 -9.28125 
z
" id="DejaVuSans-47"/>
      <path d="M 37.203125 26.21875 
Q 37.203125 19.234375 40.671875 15.25 
Q 44.140625 11.28125 50.203125 11.28125 
Q 56.203125 11.28125 59.640625 15.28125 
Q 63.09375 19.28125 63.09375 26.21875 
Q 63.09375 33.0625 59.578125 37.078125 
Q 56.0625 41.109375 50.09375 41.109375 
Q 44.1875 41.109375 40.6875 37.109375 
Q 37.203125 33.109375 37.203125 26.21875 
z
M 63.8125 11.625 
Q 60.890625 7.859375 57.109375 6.078125 
Q 53.328125 4.296875 48.296875 4.296875 
Q 39.890625 4.296875 34.640625 10.375 
Q 29.390625 16.453125 29.390625 26.21875 
Q 29.390625 35.984375 34.65625 42.078125 
Q 39.9375 48.1875 48.296875 48.1875 
Q 53.328125 48.1875 57.125 46.359375 
Q 60.9375 44.53125 63.8125 40.828125 
L 63.8125 47.21875 
L 70.796875 47.21875 
L 70.796875 11.28125 
Q 77.9375 12.359375 81.953125 17.796875 
Q 85.984375 23.25 85.984375 31.890625 
Q 85.984375 37.109375 84.4375 41.703125 
Q 82.90625 46.296875 79.78125 50.203125 
Q 74.703125 56.59375 67.40625 59.984375 
Q 60.109375 63.375 51.515625 63.375 
Q 45.515625 63.375 39.984375 61.78125 
Q 34.46875 60.203125 29.78125 57.078125 
Q 22.125 52.09375 17.796875 44.015625 
Q 13.484375 35.9375 13.484375 26.515625 
Q 13.484375 18.75 16.28125 11.953125 
Q 19.09375 5.171875 24.421875 0 
Q 29.546875 -5.078125 36.28125 -7.734375 
Q 43.015625 -10.40625 50.6875 -10.40625 
Q 56.984375 -10.40625 63.0625 -8.28125 
Q 69.140625 -6.15625 74.21875 -2.203125 
L 78.609375 -7.625 
Q 72.515625 -12.359375 65.3125 -14.875 
Q 58.109375 -17.390625 50.6875 -17.390625 
Q 41.65625 -17.390625 33.640625 -14.1875 
Q 25.640625 -10.984375 19.390625 -4.890625 
Q 13.140625 1.21875 9.859375 9.25 
Q 6.59375 17.28125 6.59375 26.515625 
Q 6.59375 35.40625 9.90625 43.453125 
Q 13.234375 51.515625 19.390625 57.625 
Q 25.6875 63.8125 33.9375 67.109375 
Q 42.1875 70.40625 51.421875 70.40625 
Q 61.765625 70.40625 70.625 66.15625 
Q 79.5 61.921875 85.5 54.109375 
Q 89.15625 49.3125 91.078125 43.703125 
Q 93.015625 38.09375 93.015625 32.078125 
Q 93.015625 19.234375 85.25 11.8125 
Q 77.484375 4.390625 63.8125 4.109375 
z
" id="DejaVuSans-64"/>
      <path d="M 9.8125 72.90625 
L 19.671875 72.90625 
L 19.671875 43.015625 
L 55.515625 43.015625 
L 55.515625 72.90625 
L 65.375 72.90625 
L 65.375 0 
L 55.515625 0 
L 55.515625 34.71875 
L 19.671875 34.71875 
L 19.671875 0 
L 9.8125 0 
z
" id="DejaVuSans-72"/>
      <path d="M 5.515625 54.6875 
L 48.1875 54.6875 
L 48.1875 46.484375 
L 14.40625 7.171875 
L 48.1875 7.171875 
L 48.1875 0 
L 4.296875 0 
L 4.296875 8.203125 
L 38.09375 47.515625 
L 5.515625 47.515625 
z
" id="DejaVuSans-122"/>
     </defs>
     <use xlink:href="#DejaVuSans-83"/>
     <use x="63.476562" xlink:href="#DejaVuSans-84"/>
     <use x="124.560547" xlink:href="#DejaVuSans-77"/>
     <use x="210.839844" xlink:href="#DejaVuSans-51"/>
     <use x="274.462891" xlink:href="#DejaVuSans-50"/>
     <use x="338.085938" xlink:href="#DejaVuSans-76"/>
     <use x="393.798828" xlink:href="#DejaVuSans-48"/>
     <use x="457.421875" xlink:href="#DejaVuSans-47"/>
     <use x="491.113281" xlink:href="#DejaVuSans-76"/>
     <use x="546.826172" xlink:href="#DejaVuSans-49"/>
     <use x="610.449219" xlink:href="#DejaVuSans-32"/>
     <use x="642.236328" xlink:href="#DejaVuSans-64"/>
     <use x="742.236328" xlink:href="#DejaVuSans-32"/>
     <use x="774.023438" xlink:href="#DejaVuSans-51"/>
     <use x="837.646484" xlink:href="#DejaVuSans-50"/>
     <use x="901.269531" xlink:href="#DejaVuSans-77"/>
     <use x="987.548828" xlink:href="#DejaVuSans-72"/>
     <use x="1062.744141" xlink:href="#DejaVuSans-122"/>
    </g>
   </g>
   <g id="text_27">
    <!-- STM32F0 @ 48MHz -->
    <g transform="translate(123.707727 340.0704)scale(0.16 -0.16)">
     <defs>
      <path d="M 9.8125 72.90625 
L 51.703125 72.90625 
L 51.703125 64.59375 
L 19.671875 64.59375 
L 19.671875 43.109375 
L 48.578125 43.109375 
L 48.578125 34.8125 
L 19.671875 34.8125 
L 19.671875 0 
L 9.8125 0 
z
" id="DejaVuSans-70"/>
     </defs>
     <use xlink:href="#DejaVuSans-83"/>
     <use x="63.476562" xlink:href="#DejaVuSans-84"/>
     <use x="124.560547" xlink:href="#DejaVuSans-77"/>
     <use x="210.839844" xlink:href="#DejaVuSans-51"/>
     <use x="274.462891" xlink:href="#DejaVuSans-50"/>
     <use x="338.085938" xlink:href="#DejaVuSans-70"/>
     <use x="395.605469" xlink:href="#DejaVuSans-48"/>
     <use x="459.228516" xlink:href="#DejaVuSans-32"/>
     <use x="491.015625" xlink:href="#DejaVuSans-64"/>
     <use x="591.015625" xlink:href="#DejaVuSans-32"/>
     <use x="622.802734" xlink:href="#DejaVuSans-52"/>
     <use x="686.425781" xlink:href="#DejaVuSans-56"/>
     <use x="750.048828" xlink:href="#DejaVuSans-77"/>
     <use x="836.328125" xlink:href="#DejaVuSans-72"/>
     <use x="911.523438" xlink:href="#DejaVuSans-122"/>
    </g>
   </g>
   <g id="text_28">
    <!-- STM32L4 @ 48MHz -->
    <g transform="translate(123.707727 377.856)scale(0.16 -0.16)">
     <use xlink:href="#DejaVuSans-83"/>
     <use x="63.476562" xlink:href="#DejaVuSans-84"/>
     <use x="124.560547" xlink:href="#DejaVuSans-77"/>
     <use x="210.839844" xlink:href="#DejaVuSans-51"/>
     <use x="274.462891" xlink:href="#DejaVuSans-50"/>
     <use x="338.085938" xlink:href="#DejaVuSans-76"/>
     <use x="393.798828" xlink:href="#DejaVuSans-52"/>
     <use x="457.421875" xlink:href="#DejaVuSans-32"/>
     <use x="489.208984" xlink:href="#DejaVuSans-64"/>
     <use x="589.208984" xlink:href="#DejaVuSans-32"/>
     <use x="620.996094" xlink:href="#DejaVuSans-52"/>
     <use x="684.619141" xlink:href="#DejaVuSans-56"/>
     <use x="748.242188" xlink:href="#DejaVuSans-77"/>
     <use x="834.521484" xlink:href="#DejaVuSans-72"/>
     <use x="909.716797" xlink:href="#DejaVuSans-122"/>
    </g>
   </g>
   <g id="patch_8">
    <path d="M 523.344557 228.926347 
Q 556.396311 235.235612 589.448066 241.544878 
" style="fill:none;stroke:#000000;stroke-linecap:round;"/>
   </g>
   <g id="text_29">
    <!-- STM32L0 -->
    <g transform="translate(446.190455 225.599)scale(0.16 -0.16)">
     <use xlink:href="#DejaVuSans-83"/>
     <use x="63.476562" xlink:href="#DejaVuSans-84"/>
     <use x="124.560547" xlink:href="#DejaVuSans-77"/>
     <use x="210.839844" xlink:href="#DejaVuSans-51"/>
     <use x="274.462891" xlink:href="#DejaVuSans-50"/>
     <use x="338.085938" xlink:href="#DejaVuSans-76"/>
     <use x="393.798828" xlink:href="#DejaVuSans-48"/>
    </g>
   </g>
   <g id="patch_9">
    <path d="M 625.220439 176.488711 
Q 678.431652 201.861612 731.642865 227.234514 
" style="fill:none;stroke:#000000;stroke-linecap:round;"/>
   </g>
   <g id="text_30">
    <!-- STM32G0 @ 64MHz -->
    <g transform="translate(524.270227 170.303)scale(0.16 -0.16)">
     <defs>
      <path d="M 59.515625 10.40625 
L 59.515625 29.984375 
L 43.40625 29.984375 
L 43.40625 38.09375 
L 69.28125 38.09375 
L 69.28125 6.78125 
Q 63.578125 2.734375 56.6875 0.65625 
Q 49.8125 -1.421875 42 -1.421875 
Q 24.90625 -1.421875 15.25 8.5625 
Q 5.609375 18.5625 5.609375 36.375 
Q 5.609375 54.25 15.25 64.234375 
Q 24.90625 74.21875 42 74.21875 
Q 49.125 74.21875 55.546875 72.453125 
Q 61.96875 70.703125 67.390625 67.28125 
L 67.390625 56.78125 
Q 61.921875 61.421875 55.765625 63.765625 
Q 49.609375 66.109375 42.828125 66.109375 
Q 29.4375 66.109375 22.71875 58.640625 
Q 16.015625 51.171875 16.015625 36.375 
Q 16.015625 21.625 22.71875 14.15625 
Q 29.4375 6.6875 42.828125 6.6875 
Q 48.046875 6.6875 52.140625 7.59375 
Q 56.25 8.5 59.515625 10.40625 
z
" id="DejaVuSans-71"/>
     </defs>
     <use xlink:href="#DejaVuSans-83"/>
     <use x="63.476562" xlink:href="#DejaVuSans-84"/>
     <use x="124.560547" xlink:href="#DejaVuSans-77"/>
     <use x="210.839844" xlink:href="#DejaVuSans-51"/>
     <use x="274.462891" xlink:href="#DejaVuSans-50"/>
     <use x="338.085938" xlink:href="#DejaVuSans-71"/>
     <use x="415.576172" xlink:href="#DejaVuSans-48"/>
     <use x="479.199219" xlink:href="#DejaVuSans-32"/>
     <use x="510.986328" xlink:href="#DejaVuSans-64"/>
     <use x="610.986328" xlink:href="#DejaVuSans-32"/>
     <use x="642.773438" xlink:href="#DejaVuSans-54"/>
     <use x="706.396484" xlink:href="#DejaVuSans-52"/>
     <use x="770.019531" xlink:href="#DejaVuSans-77"/>
     <use x="856.298828" xlink:href="#DejaVuSans-72"/>
     <use x="931.494141" xlink:href="#DejaVuSans-122"/>
    </g>
   </g>
   <g id="patch_10">
    <path d="M 787.347848 299.857939 
Q 765.40834 292.850466 743.468833 285.842993 
" style="fill:none;stroke:#000000;stroke-linecap:round;"/>
   </g>
   <g id="text_31">
    <!-- STM32L1 -->
    <g transform="translate(783.162273 314.6245)scale(0.16 -0.16)">
     <use xlink:href="#DejaVuSans-83"/>
     <use x="63.476562" xlink:href="#DejaVuSans-84"/>
     <use x="124.560547" xlink:href="#DejaVuSans-77"/>
     <use x="210.839844" xlink:href="#DejaVuSans-51"/>
     <use x="274.462891" xlink:href="#DejaVuSans-50"/>
     <use x="338.085938" xlink:href="#DejaVuSans-76"/>
     <use x="393.798828" xlink:href="#DejaVuSans-49"/>
    </g>
   </g>
   <g id="patch_11">
    <path d="M 484.441187 432.099627 
Q 425.771755 416.070639 367.102323 400.041651 
" style="fill:none;stroke:#000000;stroke-linecap:round;"/>
   </g>
   <g id="text_32">
    <!-- STM32G4 @ 170MHz -->
    <g transform="translate(438.216818 446.783)scale(0.16 -0.16)">
     <use xlink:href="#DejaVuSans-83"/>
     <use x="63.476562" xlink:href="#DejaVuSans-84"/>
     <use x="124.560547" xlink:href="#DejaVuSans-77"/>
     <use x="210.839844" xlink:href="#DejaVuSans-51"/>
     <use x="274.462891" xlink:href="#DejaVuSans-50"/>
     <use x="338.085938" xlink:href="#DejaVuSans-71"/>
     <use x="415.576172" xlink:href="#DejaVuSans-52"/>
     <use x="479.199219" xlink:href="#DejaVuSans-32"/>
     <use x="510.986328" xlink:href="#DejaVuSans-64"/>
     <use x="610.986328" xlink:href="#DejaVuSans-32"/>
     <use x="642.773438" xlink:href="#DejaVuSans-49"/>
     <use x="706.396484" xlink:href="#DejaVuSans-55"/>
     <use x="770.019531" xlink:href="#DejaVuSans-48"/>
     <use x="833.642578" xlink:href="#DejaVuSans-77"/>
     <use x="919.921875" xlink:href="#DejaVuSans-72"/>
     <use x="995.117188" xlink:href="#DejaVuSans-122"/>
    </g>
   </g>
   <g id="patch_12">
    <path d="M 271.900694 478.248108 
Q 237.86287 476.040038 203.825046 473.831968 
" style="fill:none;stroke:#000000;stroke-linecap:round;"/>
   </g>
   <g id="text_33">
    <!-- STM32F7 @ 216MHz -->
    <g transform="translate(275.889545 488.255)scale(0.16 -0.16)">
     <use xlink:href="#DejaVuSans-83"/>
     <use x="63.476562" xlink:href="#DejaVuSans-84"/>
     <use x="124.560547" xlink:href="#DejaVuSans-77"/>
     <use x="210.839844" xlink:href="#DejaVuSans-51"/>
     <use x="274.462891" xlink:href="#DejaVuSans-50"/>
     <use x="338.085938" xlink:href="#DejaVuSans-70"/>
     <use x="395.605469" xlink:href="#DejaVuSans-55"/>
     <use x="459.228516" xlink:href="#DejaVuSans-32"/>
     <use x="491.015625" xlink:href="#DejaVuSans-64"/>
     <use x="591.015625" xlink:href="#DejaVuSans-32"/>
     <use x="622.802734" xlink:href="#DejaVuSans-50"/>
     <use x="686.425781" xlink:href="#DejaVuSans-49"/>
     <use x="750.048828" xlink:href="#DejaVuSans-54"/>
     <use x="813.671875" xlink:href="#DejaVuSans-77"/>
     <use x="899.951172" xlink:href="#DejaVuSans-72"/>
     <use x="975.146484" xlink:href="#DejaVuSans-122"/>
    </g>
   </g>
   <g id="patch_13">
    <path d="M 281.825457 508.934185 
Q 248.876322 499.429527 215.927186 489.924869 
" style="fill:none;stroke:#000000;stroke-linecap:round;"/>
   </g>
   <g id="text_34">
    <!-- STM32F4 @ 180MHz -->
    <g transform="translate(235.307727 523.6455)scale(0.16 -0.16)">
     <use xlink:href="#DejaVuSans-83"/>
     <use x="63.476562" xlink:href="#DejaVuSans-84"/>
     <use x="124.560547" xlink:href="#DejaVuSans-77"/>
     <use x="210.839844" xlink:href="#DejaVuSans-51"/>
     <use x="274.462891" xlink:href="#DejaVuSans-50"/>
     <use x="338.085938" xlink:href="#DejaVuSans-70"/>
     <use x="395.605469" xlink:href="#DejaVuSans-52"/>
     <use x="459.228516" xlink:href="#DejaVuSans-32"/>
     <use x="491.015625" xlink:href="#DejaVuSans-64"/>
     <use x="591.015625" xlink:href="#DejaVuSans-32"/>
     <use x="622.802734" xlink:href="#DejaVuSans-49"/>
     <use x="686.425781" xlink:href="#DejaVuSans-56"/>
     <use x="750.048828" xlink:href="#DejaVuSans-48"/>
     <use x="813.671875" xlink:href="#DejaVuSans-77"/>
     <use x="899.951172" xlink:href="#DejaVuSans-72"/>
     <use x="975.146484" xlink:href="#DejaVuSans-122"/>
    </g>
   </g>
  </g>
 </g>
 <defs>
  <clipPath id="p68f187c404">
   <rect height="554.4" width="1116" x="62.835" y="0.72"/>
  </clipPath>
 </defs>
</svg>
